<?xml version="1.0" encoding="utf-8"?>
<!-- Generator: Adobe Illustrator 22.0.1, SVG Export Plug-In . SVG Version: 6.00 Build 0)  -->
<svg version="1.1" id="Layer_1" xmlns="http://www.w3.org/2000/svg" xmlns:xlink="http://www.w3.org/1999/xlink" x="0px" y="0px"
	 viewBox="0 0 720 720" style="enable-background:new 0 0 720 720;" xml:space="preserve">
<style type="text/css">
	.st0{fill:#FFFFFF;}
	.st1{font-family:'Roboto-Regular';}
	.st2{font-size:9.7741px;}
	.st3{fill:#E20613;}
	.st4{fill:none;stroke:#000000;stroke-width:2;stroke-linecap:round;stroke-linejoin:round;stroke-miterlimit:10;}
</style>
<rect width="720" height="720"/>
<g>
	<path class="st0" d="M130.5,532.2c-1.7,0.8-5.1,1.7-9.4,1.7c-10,0-17.6-6.3-17.6-18c0-11.1,7.5-18.7,18.6-18.7
		c4.4,0,7.2,0.9,8.4,1.6l-1.1,3.7c-1.7-0.8-4.2-1.5-7.2-1.5c-8.3,0-13.9,5.3-13.9,14.7c0,8.7,5,14.3,13.7,14.3
		c2.8,0,5.6-0.6,7.5-1.5L130.5,532.2z"/>
	<path class="st0" d="M165.5,515.2c0,12.2-7.4,18.7-16.5,18.7c-9.4,0-16-7.3-16-18c0-11.3,7-18.7,16.5-18.7
		C159.2,497.2,165.5,504.7,165.5,515.2z M137.9,515.8c0,7.6,4.1,14.4,11.3,14.4c7.3,0,11.4-6.7,11.4-14.8c0-7.1-3.7-14.4-11.3-14.4
		C141.7,501,137.9,508,137.9,515.8z"/>
	<path class="st0" d="M171.5,533.4v-35.5h5l11.4,18c2.6,4.2,4.7,7.9,6.4,11.5l0.1-0.1c-0.4-4.7-0.5-9.1-0.5-14.6v-14.9h4.3v35.5
		h-4.6l-11.3-18c-2.5-4-4.9-8-6.6-11.9l-0.2,0.1c0.3,4.5,0.4,8.8,0.4,14.7v15.2H171.5z"/>
	<path class="st0" d="M205.5,527.8c2.1,1.3,5.1,2.3,8.2,2.3c4.7,0,7.4-2.5,7.4-6.1c0-3.3-1.9-5.2-6.7-7.1c-5.8-2.1-9.4-5.1-9.4-10.1
		c0-5.5,4.6-9.6,11.5-9.6c3.6,0,6.3,0.8,7.9,1.7l-1.3,3.7c-1.2-0.6-3.5-1.7-6.7-1.7c-4.9,0-6.7,2.9-6.7,5.3c0,3.3,2.2,5,7.1,6.9
		c6,2.3,9.1,5.2,9.1,10.4c0,5.5-4.1,10.2-12.4,10.2c-3.4,0-7.2-1-9.1-2.3L205.5,527.8z"/>
	<path class="st0" d="M238.9,501.7h-10.8v-3.9h26.3v3.9h-10.9v31.6h-4.6V501.7z"/>
	<path class="st0" d="M258.4,498.3c2.3-0.5,5.6-0.7,8.8-0.7c4.9,0,8.1,0.9,10.3,2.9c1.8,1.6,2.8,4,2.8,6.7c0,4.7-3,7.8-6.7,9.1v0.2
		c2.7,0.9,4.4,3.5,5.2,7.2c1.2,5,2,8.4,2.7,9.8h-4.7c-0.6-1-1.4-4.1-2.4-8.5c-1.1-4.9-3-6.7-7.1-6.9h-4.3v15.4h-4.6V498.3z
		 M262.9,514.5h4.7c4.9,0,8-2.7,8-6.7c0-4.6-3.3-6.6-8.2-6.6c-2.2,0-3.8,0.2-4.5,0.4V514.5z"/>
	<path class="st0" d="M291.3,497.8v21c0,8,3.5,11.3,8.3,11.3c5.3,0,8.6-3.5,8.6-11.3v-21h4.6v20.7c0,10.9-5.7,15.4-13.4,15.4
		c-7.3,0-12.8-4.2-12.8-15.2v-20.9H291.3z"/>
	<path class="st0" d="M345.7,532.2c-1.7,0.8-5.1,1.7-9.4,1.7c-10,0-17.6-6.3-17.6-18c0-11.1,7.5-18.7,18.6-18.7
		c4.4,0,7.2,0.9,8.4,1.6l-1.1,3.7c-1.7-0.8-4.2-1.5-7.2-1.5c-8.3,0-13.9,5.3-13.9,14.7c0,8.7,5,14.3,13.7,14.3
		c2.8,0,5.6-0.6,7.5-1.5L345.7,532.2z"/>
	<path class="st0" d="M359.6,501.7h-10.8v-3.9h26.3v3.9h-10.9v31.6h-4.6V501.7z"/>
	<path class="st0" d="M383.7,497.8v35.5h-4.6v-35.5H383.7z"/>
	<path class="st0" d="M391.7,533.4v-35.5h5l11.4,18c2.6,4.2,4.7,7.9,6.4,11.5l0.1-0.1c-0.4-4.7-0.5-9.1-0.5-14.6v-14.9h4.3v35.5
		h-4.6l-11.3-18c-2.5-4-4.9-8-6.6-11.9l-0.2,0.1c0.3,4.5,0.4,8.8,0.4,14.7v15.2H391.7z"/>
	<path class="st0" d="M453.4,531.8c-2.1,0.7-6.1,2-10.9,2c-5.4,0-9.8-1.4-13.3-4.7c-3.1-3-5-7.7-5-13.2c0.1-10.6,7.3-18.3,19.2-18.3
		c4.1,0,7.3,0.9,8.9,1.6l-1.1,3.7c-1.9-0.8-4.3-1.5-7.9-1.5c-8.6,0-14.3,5.4-14.3,14.3c0,9,5.4,14.3,13.7,14.3c3,0,5.1-0.4,6.1-0.9
		v-10.6h-7.2v-3.7h11.7V531.8z"/>
	<path class="st0" d="M476.2,497.8v21c0,8,3.5,11.3,8.3,11.3c5.3,0,8.6-3.5,8.6-11.3v-21h4.6v20.7c0,10.9-5.7,15.4-13.4,15.4
		c-7.3,0-12.8-4.2-12.8-15.2v-20.9H476.2z"/>
	<path class="st0" d="M512.5,501.7h-10.8v-3.9H528v3.9h-10.9v31.6h-4.6V501.7z"/>
	<path class="st0" d="M560.9,515.2c0,12.2-7.4,18.7-16.5,18.7c-9.4,0-16-7.3-16-18c0-11.3,7-18.7,16.5-18.7
		C554.6,497.2,560.9,504.7,560.9,515.2z M533.3,515.8c0,7.6,4.1,14.4,11.3,14.4c7.3,0,11.4-6.7,11.4-14.8c0-7.1-3.7-14.4-11.3-14.4
		C537.1,501,533.3,508,533.3,515.8z"/>
	<path class="st0" d="M566.8,498.2c2.2-0.4,5.1-0.7,8.8-0.7c4.5,0,7.9,1.1,10,3c2,1.7,3.1,4.3,3.1,7.4c0,3.2-0.9,5.7-2.7,7.6
		c-2.4,2.6-6.4,3.9-10.9,3.9c-1.4,0-2.6-0.1-3.7-0.3v14.2h-4.6V498.2z M571.4,515.4c1,0.3,2.3,0.4,3.8,0.4c5.5,0,8.9-2.7,8.9-7.6
		c0-4.7-3.3-7-8.4-7c-2,0-3.5,0.2-4.3,0.4V515.4z"/>
	<path class="st0" d="M599.5,497.8v35.5h-4.6v-35.5H599.5z"/>
	<path class="st0" d="M613.2,522.2l-3.7,11.2h-4.7l12.1-35.5h5.5l12.1,35.5h-4.9l-3.8-11.2H613.2z M624.9,518.6l-3.5-10.2
		c-0.8-2.3-1.3-4.4-1.8-6.5h-0.1c-0.5,2.1-1.1,4.3-1.8,6.4l-3.5,10.3H624.9z"/>
</g>
<g>
	<path class="st0" d="M115.7,566.9h-12.2v-2.4l5.8-6.1c0.8-0.9,1.4-1.6,1.8-2.3s0.6-1.3,0.6-1.8c0-0.8-0.2-1.4-0.6-1.9
		c-0.4-0.5-1-0.7-1.7-0.7c-0.8,0-1.4,0.3-1.9,0.8s-0.7,1.3-0.7,2.2h-3.5c0-1.1,0.3-2.1,0.8-3c0.5-0.9,1.3-1.6,2.2-2.1s2-0.8,3.2-0.8
		c1.8,0,3.3,0.4,4.3,1.3s1.5,2.1,1.5,3.7c0,0.9-0.2,1.8-0.7,2.7c-0.5,0.9-1.2,2-2.3,3.2L108,564h7.7V566.9z"/>
	<path class="st0" d="M128.3,560.2h2v2.9h-2v3.9h-3.5V563h-7.3l-0.2-2.2l7.4-11.7h3.6V560.2z M120.8,560.2h3.9v-6.3l-0.2,0.4
		L120.8,560.2z"/>
	<path class="st0" d="M132.5,565.1c0-0.6,0.2-1,0.6-1.4c0.4-0.4,0.9-0.5,1.4-0.5c0.6,0,1.1,0.2,1.4,0.5c0.4,0.4,0.6,0.8,0.6,1.4
		c0,0.6-0.2,1-0.6,1.4c-0.4,0.3-0.9,0.5-1.4,0.5c-0.6,0-1.1-0.2-1.4-0.5C132.7,566.1,132.5,565.7,132.5,565.1z"/>
	<path class="st0" d="M152.8,559.6h-12.7v-2.9h12.7V559.6z"/>
	<path class="st0" d="M158.9,556.4h1.9c0.9,0,1.6-0.2,2-0.7c0.4-0.4,0.6-1,0.6-1.8c0-0.7-0.2-1.3-0.6-1.7c-0.4-0.4-1-0.6-1.8-0.6
		c-0.7,0-1.2,0.2-1.7,0.6c-0.5,0.4-0.7,0.9-0.7,1.5h-3.5c0-0.9,0.3-1.8,0.8-2.5c0.5-0.7,1.2-1.3,2.1-1.7s1.9-0.6,3-0.6
		c1.9,0,3.4,0.5,4.4,1.4c1.1,0.9,1.6,2.1,1.6,3.7c0,0.8-0.2,1.6-0.7,2.3c-0.5,0.7-1.1,1.2-2,1.6c1,0.4,1.8,0.9,2.2,1.6
		s0.7,1.6,0.7,2.5c0,1.6-0.6,2.9-1.7,3.8c-1.2,1-2.7,1.4-4.6,1.4c-1.8,0-3.2-0.5-4.4-1.4c-1.1-0.9-1.7-2.2-1.7-3.7h3.5
		c0,0.7,0.3,1.2,0.8,1.6c0.5,0.4,1.1,0.6,1.9,0.6c0.8,0,1.5-0.2,2-0.7c0.5-0.4,0.7-1,0.7-1.8c0-1.8-1-2.7-2.9-2.7h-1.9V556.4z"/>
	<path class="st0" d="M178.3,566.9h-3.5v-13.6l-4.2,1.3v-2.9l7.4-2.6h0.4V566.9z"/>
	<path class="st0" d="M184.4,565.1c0-0.6,0.2-1,0.6-1.4c0.4-0.4,0.9-0.5,1.4-0.5c0.6,0,1.1,0.2,1.4,0.5c0.4,0.4,0.6,0.8,0.6,1.4
		c0,0.6-0.2,1-0.6,1.4c-0.4,0.3-0.9,0.5-1.4,0.5c-0.6,0-1.1-0.2-1.4-0.5C184.6,566.1,184.4,565.7,184.4,565.1z"/>
	<path class="st0" d="M205.4,566.9c-0.2-0.3-0.3-0.7-0.4-1.2c-0.9,1-2,1.4-3.3,1.4c-1.3,0-2.4-0.4-3.2-1.1c-0.9-0.8-1.3-1.7-1.3-2.8
		c0-1.4,0.5-2.5,1.6-3.2c1-0.8,2.5-1.1,4.5-1.1h1.6V558c0-0.6-0.2-1.1-0.5-1.5s-0.8-0.6-1.5-0.6c-0.6,0-1.1,0.1-1.4,0.4
		c-0.3,0.3-0.5,0.7-0.5,1.2h-3.5c0-0.8,0.2-1.5,0.7-2.1c0.5-0.7,1.1-1.2,2-1.5c0.9-0.4,1.8-0.6,2.9-0.6c1.6,0,2.9,0.4,3.9,1.2
		c1,0.8,1.4,2,1.4,3.5v5.7c0,1.3,0.2,2.2,0.5,2.9v0.2H205.4z M202.5,564.4c0.5,0,1-0.1,1.4-0.3s0.8-0.5,1-0.9v-2.3h-1.3
		c-1.8,0-2.7,0.6-2.8,1.8l0,0.2c0,0.4,0.2,0.8,0.5,1.1C201.5,564.3,201.9,564.4,202.5,564.4z"/>
	<path class="st0" d="M215.9,562.5l2.5-8.9h3.7l-4.5,13.2h-3.4l-4.5-13.2h3.7L215.9,562.5z"/>
	<path class="st0" d="M223,560.1c0-2,0.5-3.7,1.5-4.9c1-1.2,2.3-1.9,3.9-1.9c1.5,0,2.6,0.5,3.4,1.5l0.1-1.2h3.2v12.8
		c0,1.2-0.3,2.2-0.8,3c-0.5,0.9-1.3,1.5-2.2,2c-1,0.4-2.1,0.7-3.4,0.7c-1,0-1.9-0.2-2.8-0.6c-0.9-0.4-1.6-0.9-2.1-1.5l1.6-2.2
		c0.9,1,1.9,1.5,3.2,1.5c0.9,0,1.7-0.3,2.2-0.8s0.8-1.2,0.8-2.1v-0.7c-0.8,0.9-1.9,1.4-3.2,1.4c-1.6,0-2.9-0.6-3.9-1.9
		c-1-1.2-1.5-2.9-1.5-5V560.1z M226.5,560.4c0,1.2,0.2,2.1,0.7,2.8c0.5,0.7,1.1,1,2,1c1.1,0,1.8-0.4,2.3-1.2v-5.6
		c-0.5-0.8-1.2-1.2-2.3-1.2c-0.8,0-1.5,0.3-2,1S226.5,559,226.5,560.4z"/>
	<path class="st0" d="M245.7,565.5c-0.9,1.1-2.1,1.6-3.6,1.6c-1.4,0-2.5-0.4-3.2-1.2c-0.7-0.8-1.1-2-1.1-3.6v-8.7h3.5v8.6
		c0,1.4,0.6,2.1,1.9,2.1c1.2,0,2-0.4,2.5-1.2v-9.4h3.5v13.2h-3.3L245.7,565.5z"/>
	<path class="st0" d="M259,563.2c0-0.4-0.2-0.8-0.6-1c-0.4-0.2-1.1-0.5-2.1-0.7c-3.1-0.7-4.7-2-4.7-4c0-1.2,0.5-2.2,1.5-2.9
		c1-0.8,2.2-1.2,3.8-1.2c1.7,0,3,0.4,4,1.2c1,0.8,1.5,1.8,1.5,3.1h-3.5c0-0.5-0.2-0.9-0.5-1.3c-0.3-0.3-0.8-0.5-1.5-0.5
		c-0.6,0-1.1,0.1-1.4,0.4c-0.3,0.3-0.5,0.6-0.5,1c0,0.4,0.2,0.7,0.6,0.9c0.4,0.2,1,0.4,1.9,0.6c0.9,0.2,1.6,0.4,2.2,0.6
		c1.9,0.7,2.8,1.9,2.8,3.6c0,1.2-0.5,2.2-1.6,2.9c-1,0.7-2.4,1.1-4,1.1c-1.1,0-2.1-0.2-3-0.6c-0.9-0.4-1.5-0.9-2-1.6
		c-0.5-0.7-0.7-1.4-0.7-2.2h3.4c0,0.6,0.3,1.1,0.7,1.4c0.4,0.3,1,0.5,1.7,0.5c0.7,0,1.2-0.1,1.5-0.4C258.8,564,259,563.6,259,563.2z
		"/>
	<path class="st0" d="M268.9,550.4v3.3h2.3v2.6h-2.3v6.6c0,0.5,0.1,0.8,0.3,1.1c0.2,0.2,0.5,0.3,1.1,0.3c0.4,0,0.7,0,1-0.1v2.7
		c-0.7,0.2-1.4,0.3-2.1,0.3c-2.5,0-3.7-1.3-3.8-3.8v-7.1h-1.9v-2.6h1.9v-3.3H268.9z"/>
	<path class="st0" d="M291.5,566.9h-12.2v-2.4l5.8-6.1c0.8-0.9,1.4-1.6,1.8-2.3s0.6-1.3,0.6-1.8c0-0.8-0.2-1.4-0.6-1.9
		c-0.4-0.5-1-0.7-1.7-0.7c-0.8,0-1.4,0.3-1.9,0.8s-0.7,1.3-0.7,2.2h-3.5c0-1.1,0.3-2.1,0.8-3c0.5-0.9,1.3-1.6,2.2-2.1s2-0.8,3.2-0.8
		c1.8,0,3.3,0.4,4.3,1.3s1.5,2.1,1.5,3.7c0,0.9-0.2,1.8-0.7,2.7c-0.5,0.9-1.2,2-2.3,3.2l-4.1,4.3h7.7V566.9z"/>
	<path class="st0" d="M305.6,559.5c0,2.5-0.5,4.3-1.5,5.7c-1,1.3-2.5,2-4.5,2c-1.9,0-3.4-0.6-4.5-1.9c-1-1.3-1.6-3.1-1.6-5.5v-3.3
		c0-2.5,0.5-4.4,1.5-5.7c1-1.3,2.5-1.9,4.5-1.9s3.4,0.6,4.5,1.9s1.6,3.1,1.6,5.5V559.5z M302.1,555.9c0-1.5-0.2-2.6-0.6-3.2
		s-1-1-1.9-1c-0.8,0-1.4,0.3-1.8,1c-0.4,0.6-0.6,1.6-0.6,3v4.3c0,1.5,0.2,2.5,0.6,3.2c0.4,0.7,1,1.1,1.9,1.1c0.9,0,1.5-0.3,1.9-1
		s0.6-1.7,0.6-3.1V555.9z"/>
	<path class="st0" d="M316.6,566.9h-3.5v-13.6l-4.2,1.3v-2.9l7.4-2.6h0.4V566.9z"/>
	<path class="st0" d="M334,553.8c0,0.9-0.2,1.6-0.6,2.3c-0.4,0.7-1,1.2-1.8,1.6c0.9,0.4,1.5,1,2.1,1.7c0.5,0.7,0.8,1.6,0.8,2.6
		c0,1.6-0.5,2.8-1.6,3.8c-1.1,0.9-2.5,1.4-4.4,1.4s-3.3-0.5-4.4-1.4c-1.1-0.9-1.6-2.2-1.6-3.7c0-1,0.3-1.8,0.8-2.6s1.2-1.3,2-1.7
		c-0.8-0.4-1.4-0.9-1.8-1.6s-0.6-1.4-0.6-2.3c0-1.5,0.5-2.7,1.5-3.6c1-0.9,2.4-1.4,4.1-1.4c1.7,0,3.1,0.4,4.1,1.3
		S334,552.2,334,553.8z M330.8,561.7c0-0.8-0.2-1.4-0.7-1.9c-0.4-0.5-1.1-0.7-1.8-0.7c-0.8,0-1.4,0.2-1.8,0.7s-0.7,1.1-0.7,1.9
		c0,0.8,0.2,1.4,0.7,1.8s1.1,0.7,1.8,0.7c0.8,0,1.4-0.2,1.8-0.7C330.6,563.1,330.8,562.5,330.8,561.7z M330.5,553.9
		c0-0.7-0.2-1.3-0.6-1.7c-0.4-0.4-0.9-0.6-1.6-0.6c-0.7,0-1.2,0.2-1.5,0.6c-0.4,0.4-0.6,1-0.6,1.7c0,0.7,0.2,1.3,0.6,1.7
		c0.4,0.4,0.9,0.6,1.6,0.6s1.2-0.2,1.5-0.6S330.5,554.7,330.5,553.9z"/>
</g>
<g>
	<text transform="matrix(1 0 0 1 474.8428 554.9131)"><tspan x="0" y="0" class="st0 st1 st2">Muzej sodobne umetnosti Metelkova</tspan><tspan x="0" y="11.7" class="st0 st1 st2">Maistrova 3, Ljubljana</tspan></text>
	<g>
		<path class="st0" d="M391.9,566.3h4.7v-14h0.1l4.1,14h3.8l4.1-14h0.1v14h4.7v-5.6c0.3,4.3,4.1,6,8.4,6c4.2,0,8.4-1.5,8.4-6.2
			c0,0,0-0.1,0-0.1c0.5,4.2,3.1,6.2,8.3,6.2c5.8,0,8.4-2.7,8.4-8v-10.8h-5V559c0,2.4-0.9,3.6-3.4,3.6c-2.5,0-3.4-1.2-3.4-3.6v-11.1
			h-5v10.8c0,0.3,0,0.6,0,0.9c-0.5-2.6-3-3.7-5.5-4.4c-2.8-0.7-5.6-1-5.6-2.4c0-1.2,1.4-1.6,2.4-1.6c1.5,0,3.2,0.5,3.1,2.2h5
			c0-4.1-3.9-5.9-7.7-5.9c-3.6,0-7.9,1.6-7.9,5.6c0,3.4,2.9,4.6,5.6,5.3c2.8,0.7,5.5,1.1,5.5,2.7c0,1.4-1.6,1.9-3.1,1.9
			c-2.1,0-3.5-0.7-3.6-2.9h-5v-12.2H406l-3.3,12.3h-0.1l-3.3-12.3h-7.4"/>
		<polygon class="st0" points="462,547.9 458.7,560.2 458.6,560.2 455.3,547.9 447.9,547.9 447.9,566.3 452.6,566.3 452.6,552.4 
			452.7,552.4 456.7,566.3 460.6,566.3 464.6,552.4 464.7,552.4 464.7,566.3 469.4,566.3 469.4,547.9 		"/>
		<polygon class="st0" points="378.9,555.3 383.3,555.3 383.3,550.5 387.2,550.5 387.2,555.3 391.9,555.3 391.9,559 387.2,559 
			387.2,563.9 383.3,563.9 383.3,559 378.9,559 		"/>
	</g>
</g>
<g>
	<path class="st3" d="M307.2,377.1c-0.8,0.8-2.3,1.7-2.2,2.5c0.7,13.5-9.8,13-18.4,14.8c-3.8,0.8-8.1,0.6-11.3,2.4
		c-12.3,7-18.9,0.6-25.4-8.9c-16.2-23.7-30.5-48.8-48.9-71.2c-6.1-7.5-1.2-16.6-1.1-24.7c0.1-13.3,3.9-26.5,2.4-40.1
		c-0.7-6.4,5.2-3.9,7.2-4.3c25.8-5.4,51.8-10,77.6-15.2c51.2-10.3,102.4-20.7,153.6-31.3c15.7-3.3,34.3-5.9,46.3,7.7
		c16.5,18.6,29.6,38.4,47.3,56c4.1,4,5.8,7.8,4.6,14.1c-3.9,19.8-6.8,39.8-9.6,59.8c-0.9,6.5-6.1,5.3-9.4,6
		c-31.3,6.6-62.8,12.6-94.1,19.1c-13.6,2.8-27.1,6.2-40.4,10c-23.2,6.6-47.3,9.1-70.7,14.4C304.7,390.7,303.8,385.4,307.2,377.1z
		 M484.6,232.8c1.9-1.3,9.3,2.1,5.5-3.8c-6.1-9.6-14.9-16.3-26.2-20.9c-12.4-5-23.2-1.6-34.5,1.2c-23,5.6-46.8,7.6-69.4,15.8
		c-6.1,2.2-10.7,7.4-19.4,7.4c-10.3,0-21.4-1.1-32.3,1.7c-29.6,7.7-59.6,13.7-90,17.4c-9,1.1-7,3.8-3.1,9
		c13.9,18.6,28,37.2,40.8,56.5c6.8,10.3,14.7,10.1,24.9,7.9c54-11.7,108.1-23,162.1-34.5c29.6-6.3,59.2-12.8,90.5-19.5
		c-4.9-4.7-8.6-8.1-12.1-11.6c-11.3-11-19.8-26.3-39.1-24.5C483,234.2,483.8,233.5,484.6,232.8z"/>
	<path class="st3" d="M482.2,234.9c-7.2,6.2-17.1,7.1-24.4,13.5c2.6-5.5,6-9.6,11.5-12.2c-5.1-3.7-8.6-0.6-12.2,1.1
		c-3.7,1.8-7.4,2.9-12.9-0.1c12.1-2.7,21.8-7.7,33.1-8.7c4.5-0.4,6.6-0.2,7.3,4.3C483.8,233.5,483,234.2,482.2,234.9z"/>
	<path class="st3" d="M366.6,252.4c13.1,4.4,16.3,17.2,26.2,22.4c0.5,0.2-0.1,2.8-0.5,4.1c-0.1,0.3-2.5,0.4-2.9-0.1
		C383.1,269.8,372.6,264.1,366.6,252.4z"/>
	<path class="st3" d="M444.2,252.5c-12.7,8.4-16.6-2.4-22.4-9.3C429.1,246.4,434.3,254.6,444.2,252.5z"/>
</g>
<polygon class="st3" points="538.1,269.8 266.3,340.6 207.8,248.4 461.3,199.3 "/>
<g>
	<path class="st4" d="M363.9,217.5c-8.6,2.7-17,6.3-25.8,8.1c-32,6.3-64.1,11.9-96.1,17.7c-11.3,2-22.7,3.8-34.3,5.7
		c11.2,15,22.2,29.9,33.7,45.4c-0.9,1.9-2,4.1-3.3,6.9c4.5,1.8,8.9,3.6,13.3,5.3"/>
	<path class="st4" d="M524.6,253.9c20.2,11.9,12.6,30.1,10.4,46.9c-1.6,11.8-4.4,23.3-7.2,37.4c-24.9,4.9-51.6,10.1-78.3,15.4"/>
	<path class="st4" d="M441.3,201.1c-17.2,3.9-34.4,7.8-51.6,11.7c-7,1.6-14.1,3.1-21.1,4.7"/>
	<path class="st4" d="M310,332.5c0-3.5,0-7,0-12.1c-13.8,2.7-27.4,5.3-40.8,7.9c-1.2,6.6-2.5,13.6-3.8,20.6"/>
	<path class="st4" d="M382.7,304.3c-16.8,3.5-33.6,7-50.4,10.6c-7.1,1.5-14.1,3.1-21.1,4.7"/>
	<path class="st4" d="M363.9,374.7c-10.2,2.3-20.3,4.7-30.5,7"/>
	<path class="st4" d="M462.4,306.7c-1.6,7.8-3.1,15.6-4.7,23.5"/>
	<path class="st4" d="M464.8,198.8c-6.3,0.8-12.5,1.6-18.8,2.3"/>
	<path class="st4" d="M474.2,286.7c-10.2,1.2-20.4,2-30.5,3.7c-4.8,0.8-9.4,3-14.1,4.6"/>
	<path class="st4" d="M424.9,294.9c-3.7,1.9-6.8,3.9-11.8,2.8c-3.8-0.8-8.5,2.7-12.8,4.2"/>
	<path class="st4" d="M484.6,205.5c5.1,5.1,4.5,12.8,9.5,17.9"/>
	<path class="st4" d="M265.5,374.7c-0.8,7-1.6,14.1-2.3,21.1"/>
	<path class="st4" d="M298.3,386.4c-4.7,1.6-9.4,3.1-14.1,4.7"/>
	<path class="st4" d="M390.9,302c11.6-0.9,13.7,0.5,12.9,16.4"/>
	<path class="st4" d="M265.5,353.6c0,4.7,0,9.4,0,14.1"/>
	<path class="st4" d="M496.4,282c5.9-2,11.7-3.9,17.6-5.9"/>
	<path class="st4" d="M206.8,285.6c0-6.3,0-12.6,0-19.4c3.6,0.7,5.9,1.1,9.2,1.7c-0.8,3.8-1.4,7.2-2.1,10.7"/>
	<path class="st4" d="M319.4,379.4c-3.1,2.3-6.3,4.7-9.4,7"/>
	<path class="st4" d="M210.3,253.9c-7.6,2.6-1.2,7.9-2.3,11.7"/>
	<path class="st4" d="M497.6,231.6c1.2-0.4,3-1.5,3.4-1.1c3.7,3.3,7.1,6.9,10.7,10.4"/>
	<path class="st4" d="M366.3,236.3c3.1,2.3,6.2,4.7,9.5,6.9c0.2,0.1,1.5-1.4,2.3-2.2"/>
	<path class="st4" d="M204.5,290.2c0,3.9,0,7.9,0,11.8c1.1,0.7,2.2,1.3,3.2,2c1.3-2.3,2.5-4.5,3.8-6.8"/>
	<path class="st4" d="M498.8,279.7c-7.8,2-15.6,3.9-23.5,5.9"/>
	<path class="st4" d="M375.7,344.2c-0.8,3.1-1.6,6.3-2.3,9.4"/>
	<path class="st4" d="M441.3,325.4c1.6,3.1,3.1,6.3,4.7,9.4"/>
	<path class="st4" d="M342.8,360.6c0,3.1,0,6.3,0,9.4"/>
	<path class="st4" d="M396.8,325.4c-0.8,3.1-1.6,6.3-2.3,9.4"/>
	<path class="st4" d="M324.1,325.4c0,3.1,0,6.3,0,9.4"/>
	<path class="st4" d="M373.3,252.7c2.3,3.1,4.7,6.3,7,9.4"/>
	<path class="st4" d="M295.9,337.1c-1.6,3.1-3.1,6.3-4.7,9.4"/>
	<path class="st4" d="M434.3,313.7c-1.6,2.3-3.1,4.7-4.7,7"/>
	<path class="st4" d="M206.8,311.3c-5.6,4.5,2.3,4.4,2.3,7"/>
	<path class="st4" d="M476.5,226.9c2.3,0.8,4.7,1.6,7,2.3"/>
	<path class="st4" d="M373.3,325.4c1.6,2.3,3.1,4.7,4.7,7"/>
	<path class="st4" d="M460.1,334.8c-0.8,2.3-1.6,4.7-2.3,7"/>
	<path class="st4" d="M223.2,285.6c0-2.7,0-5.5,0-8.2c-1-0.1-2-0.1-2.9-0.2c-1,2.4-1.9,4.9-2.9,7.3"/>
	<path class="st4" d="M324.1,358.2c-0.8,2.3-1.6,4.7-2.3,7"/>
	<path class="st4" d="M235,358.2c1.6,2.3,3.1,4.7,4.7,7"/>
	<path class="st4" d="M230.3,306.7c-2-2-3.9-3.9-5.9-5.9"/>
	<path class="st4" d="M284.2,334.8c0.8,2.3,1.6,4.7,2.3,7"/>
	<path class="st4" d="M389.7,325.4c-1.6,2.3-3.1,4.7-4.7,7"/>
	<path class="st4" d="M467.1,337.1c-0.8,2.3-1.6,4.7-2.3,7"/>
	<path class="st4" d="M448.4,302c-0.8,2.3-1.6,4.7-2.3,7"/>
	<path class="st4" d="M300.6,344.2c0.8,2.3,1.6,4.7,2.3,7"/>
	<path class="st4" d="M469.5,311.3c-0.8,2.3-1.6,4.7-2.3,7"/>
	<path class="st4" d="M225.6,341.8c1.6,2.3,3.1,4.7,4.7,7"/>
	<path class="st4" d="M224.4,317.2c1.6,1.6,3.1,3.1,4.7,4.7"/>
	<path class="st4" d="M278.4,392.3c-2.3,0.8-4.7,1.6-7,2.3c-0.4-1.2-0.8-2.3-1.2-3.5"/>
	<path class="st4" d="M516.4,332.5c-0.8,2-1.6,3.9-2.3,5.9"/>
	<path class="st4" d="M481.2,332.5c-0.8,1.6-1.6,3.1-2.3,4.7"/>
	<path class="st4" d="M525.8,273.8c-1.6,0.8-3.1,1.6-4.7,2.3"/>
	<path class="st4" d="M218.6,311.3c-1.6,0.8-3.1,1.6-4.7,2.3"/>
	<path class="st4" d="M504.7,285.6c-0.8,1.6-1.6,3.1-2.3,4.7"/>
	<path class="st4" d="M474.2,339.5c-0.8,1.6-1.6,3.1-2.3,4.7"/>
	<path class="st4" d="M467.1,325.4c-0.8,1.6-1.6,3.1-2.3,4.7"/>
	<path class="st4" d="M455.4,306.7c-0.8,1.6-1.6,3.1-2.3,4.7"/>
	<path class="st4" d="M432,327.8c-0.8,1.6-1.6,3.1-2.3,4.7"/>
	<path class="st4" d="M492.9,339.5c0.8,1.6,1.6,3.1,2.3,4.7"/>
	<path class="st4" d="M432,339.5c-0.8,0.8-1.6,1.6-2.3,2.3"/>
	<path class="st4" d="M378,266.8c0.8,0.8,1.6,1.6,2.3,2.3"/>
	<path class="st4" d="M532.8,271.5c-0.8,0.8-1.6,1.6-2.3,2.3"/>
	<path class="st4" d="M244.4,309c0.8,0.8,1.6,1.6,2.3,2.3"/>
	<path class="st4" d="M319.4,353.6c-0.8,0.8-1.6,1.6-2.3,2.3"/>
	<path class="st4" d="M292.4,326.6c0.4,1.2,0.8,2.3,1.2,3.5"/>
	<path class="st4" d="M338.2,351.2c-0.8,0.8-1.6,1.6-2.3,2.3"/>
</g>
</svg>
