<?xml version="1.0" encoding="utf-8"?>
<!-- Generator: Adobe Illustrator 22.1.0, SVG Export Plug-In . SVG Version: 6.00 Build 0)  -->
<svg version="1.1" id="Layer_2" xmlns="http://www.w3.org/2000/svg" xmlns:xlink="http://www.w3.org/1999/xlink" x="0px" y="0px"
	 viewBox="0 0 1417.3 1133.9" style="enable-background:new 0 0 1417.3 1133.9;" xml:space="preserve">
<g>
	<path d="M456.8,217.8v6.8h-17.5v10.7h13.4v6.7h-13.4v17.7h-8.4v-41.9H456.8z"/>
	<path d="M475.3,227.5c1.7-1,3.7-1.5,6-1.5v8.8h-2.2c-2.6,0-4.6,0.6-6,1.9c-1.3,1.2-2,3.4-2,6.5v16.6h-8.4v-33.2h8.4v5.2
		C472.2,229.9,473.6,228.5,475.3,227.5z"/>
	<path d="M493.1,258.1c-2.6-1.4-4.6-3.4-6-6c-1.5-2.6-2.2-5.6-2.2-9c0-3.4,0.8-6.4,2.3-9c1.5-2.6,3.5-4.6,6.1-6
		c2.6-1.4,5.5-2.1,8.7-2.1c3.2,0,6.1,0.7,8.7,2.1c2.6,1.4,4.7,3.4,6.2,6c1.5,2.6,2.3,5.6,2.3,9c0,3.4-0.8,6.4-2.3,9
		c-1.5,2.6-3.6,4.6-6.2,6c-2.6,1.4-5.5,2.1-8.8,2.1C498.5,260.3,495.6,259.6,493.1,258.1z M506,251.8c1.3-0.7,2.4-1.8,3.2-3.3
		c0.8-1.5,1.2-3.3,1.2-5.4c0-3.2-0.8-5.6-2.5-7.3c-1.7-1.7-3.7-2.5-6.1-2.5s-4.4,0.9-6,2.5c-1.6,1.7-2.4,4.1-2.4,7.3
		c0,3.2,0.8,5.6,2.4,7.3c1.6,1.7,3.6,2.6,6,2.6C503.2,252.9,504.7,252.6,506,251.8z"/>
	<path d="M576.4,229.8c2.5,2.5,3.8,6,3.8,10.5v19.5h-8.4v-18.4c0-2.6-0.7-4.6-2-6c-1.3-1.4-3.1-2.1-5.4-2.1c-2.3,0-4.1,0.7-5.4,2.1
		c-1.3,1.4-2,3.4-2,6v18.4h-8.4v-18.4c0-2.6-0.7-4.6-2-6s-3.1-2.1-5.4-2.1c-2.3,0-4.2,0.7-5.5,2.1c-1.3,1.4-2,3.4-2,6v18.4h-8.4
		v-33.2h8.4v4c1.1-1.4,2.5-2.5,4.2-3.3c1.7-0.8,3.6-1.2,5.6-1.2c2.6,0,4.9,0.6,7,1.7c2,1.1,3.6,2.7,4.7,4.7c1.1-1.9,2.6-3.5,4.7-4.6
		c2.1-1.2,4.3-1.7,6.7-1.7C570.6,226,573.9,227.3,576.4,229.8z"/>
	<path d="M603,221.1c-1-0.9-1.5-2.1-1.5-3.5c0-1.4,0.5-2.6,1.5-3.5c1-0.9,2.2-1.4,3.7-1.4c1.5,0,2.7,0.5,3.7,1.4
		c1,0.9,1.5,2.1,1.5,3.5c0,1.4-0.5,2.6-1.5,3.5c-1,0.9-2.2,1.4-3.7,1.4C605.2,222.5,603.9,222.1,603,221.1z M610.8,226.5v33.2h-8.4
		v-33.2H610.8z"/>
	<path d="M618.9,234c1.3-2.6,3.2-4.6,5.5-6c2.3-1.4,4.9-2.1,7.7-2.1c2.2,0,4.2,0.5,6.2,1.4c2,0.9,3.5,2.2,4.7,3.8v-15.8h8.5v44.4
		H643v-4.9c-1,1.6-2.5,3-4.4,4c-1.9,1-4.1,1.5-6.5,1.5c-2.8,0-5.4-0.7-7.7-2.2c-2.3-1.4-4.2-3.5-5.5-6.1c-1.3-2.6-2-5.6-2-9
		C616.9,239.6,617.6,236.6,618.9,234z M641.9,237.9c-0.8-1.5-1.9-2.6-3.2-3.4c-1.4-0.8-2.8-1.2-4.4-1.2s-3,0.4-4.3,1.1
		c-1.3,0.8-2.4,1.9-3.2,3.3c-0.8,1.5-1.2,3.2-1.2,5.2c0,2,0.4,3.8,1.2,5.3c0.8,1.5,1.9,2.7,3.2,3.5c1.3,0.8,2.8,1.2,4.3,1.2
		c1.6,0,3-0.4,4.4-1.2c1.4-0.8,2.4-1.9,3.2-3.4c0.8-1.5,1.2-3.2,1.2-5.3S642.7,239.3,641.9,237.9z"/>
	<path d="M690.4,245.6h-24.3c0.2,2.4,1,4.3,2.5,5.6c1.5,1.4,3.3,2,5.5,2c3.1,0,5.3-1.3,6.7-4h9.1c-1,3.2-2.8,5.8-5.5,7.9
		c-2.7,2.1-6.1,3.1-10,3.1c-3.2,0-6.1-0.7-8.6-2.1c-2.5-1.4-4.5-3.4-5.9-6c-1.4-2.6-2.1-5.6-2.1-9c0-3.4,0.7-6.5,2.1-9.1
		c1.4-2.6,3.4-4.6,5.9-6c2.5-1.4,5.4-2.1,8.7-2.1c3.2,0,6,0.7,8.5,2c2.5,1.4,4.4,3.3,5.8,5.8c1.4,2.5,2.1,5.4,2.1,8.6
		C690.7,243.6,690.6,244.7,690.4,245.6z M682,240c0-2.2-0.8-3.9-2.3-5.2c-1.5-1.3-3.4-1.9-5.6-1.9c-2.1,0-3.8,0.6-5.3,1.9
		c-1.4,1.3-2.3,3-2.6,5.3H682z"/>
	<path d="M696.6,234c1.3-2.6,3.2-4.6,5.5-6c2.3-1.4,4.9-2.1,7.7-2.1c2.5,0,4.6,0.5,6.5,1.5c1.9,1,3.3,2.3,4.5,3.8v-4.7h8.5v33.2
		h-8.5v-4.9c-1.1,1.6-2.6,2.9-4.5,3.9c-1.9,1-4.1,1.5-6.6,1.5c-2.8,0-5.4-0.7-7.6-2.2c-2.3-1.4-4.1-3.5-5.5-6.1c-1.3-2.6-2-5.6-2-9
		C694.6,239.6,695.3,236.6,696.6,234z M719.6,237.9c-0.8-1.5-1.9-2.6-3.2-3.4c-1.4-0.8-2.8-1.2-4.4-1.2c-1.6,0-3,0.4-4.3,1.1
		c-1.3,0.8-2.4,1.9-3.2,3.3c-0.8,1.5-1.2,3.2-1.2,5.2c0,2,0.4,3.8,1.2,5.3c0.8,1.5,1.9,2.7,3.2,3.5c1.3,0.8,2.8,1.2,4.3,1.2
		c1.6,0,3-0.4,4.4-1.2c1.4-0.8,2.4-1.9,3.2-3.4c0.8-1.5,1.2-3.2,1.2-5.3S720.4,239.3,719.6,237.9z"/>
	<path d="M761.5,233.4v16.1c0,1.1,0.3,1.9,0.8,2.4c0.5,0.5,1.4,0.8,2.7,0.8h3.9v7.1h-5.3c-7.1,0-10.6-3.4-10.6-10.3v-16h-4v-6.9h4
		v-8.2h8.5v8.2h7.4v6.9H761.5z"/>
	<path d="M781.1,258.1c-2.6-1.4-4.6-3.4-6-6c-1.5-2.6-2.2-5.6-2.2-9c0-3.4,0.8-6.4,2.3-9c1.5-2.6,3.5-4.6,6.1-6
		c2.6-1.4,5.5-2.1,8.7-2.1s6.1,0.7,8.7,2.1c2.6,1.4,4.7,3.4,6.2,6c1.5,2.6,2.3,5.6,2.3,9c0,3.4-0.8,6.4-2.3,9
		c-1.5,2.6-3.6,4.6-6.2,6c-2.6,1.4-5.5,2.1-8.8,2.1C786.6,260.3,783.7,259.6,781.1,258.1z M794.1,251.8c1.3-0.7,2.4-1.8,3.2-3.3
		c0.8-1.5,1.2-3.3,1.2-5.4c0-3.2-0.8-5.6-2.5-7.3c-1.7-1.7-3.7-2.5-6.1-2.5c-2.4,0-4.4,0.9-6,2.5c-1.6,1.7-2.4,4.1-2.4,7.3
		c0,3.2,0.8,5.6,2.4,7.3c1.6,1.7,3.6,2.6,6,2.6C791.3,252.9,792.7,252.6,794.1,251.8z"/>
	<path d="M840.2,227.5c1.7-1,3.7-1.5,6-1.5v8.8H844c-2.6,0-4.6,0.6-6,1.9c-1.3,1.2-2,3.4-2,6.5v16.6h-8.4v-33.2h8.4v5.2
		C837.1,229.9,838.5,228.5,840.2,227.5z"/>
	<path d="M882.5,245.6h-24.3c0.2,2.4,1,4.3,2.5,5.6c1.5,1.4,3.3,2,5.5,2c3.1,0,5.3-1.3,6.7-4h9.1c-1,3.2-2.8,5.8-5.5,7.9
		c-2.7,2.1-6.1,3.1-10,3.1c-3.2,0-6.1-0.7-8.6-2.1c-2.5-1.4-4.5-3.4-5.9-6c-1.4-2.6-2.1-5.6-2.1-9c0-3.4,0.7-6.5,2.1-9.1
		c1.4-2.6,3.4-4.6,5.9-6c2.5-1.4,5.4-2.1,8.7-2.1c3.2,0,6,0.7,8.5,2c2.5,1.4,4.4,3.3,5.8,5.8c1.4,2.5,2.1,5.4,2.1,8.6
		C882.7,243.6,882.6,244.7,882.5,245.6z M874,240c0-2.2-0.8-3.9-2.3-5.2c-1.5-1.3-3.4-1.9-5.6-1.9c-2.1,0-3.8,0.6-5.3,1.9
		c-1.4,1.3-2.3,3-2.6,5.3H874z"/>
	<path d="M888.7,234c1.3-2.6,3.2-4.6,5.5-6c2.3-1.4,4.9-2.1,7.7-2.1c2.5,0,4.6,0.5,6.5,1.5c1.9,1,3.3,2.3,4.5,3.8v-4.7h8.5v33.2
		h-8.5v-4.9c-1.1,1.6-2.6,2.9-4.5,3.9c-1.9,1-4.1,1.5-6.6,1.5c-2.8,0-5.4-0.7-7.6-2.2c-2.3-1.4-4.1-3.5-5.5-6.1c-1.3-2.6-2-5.6-2-9
		C886.7,239.6,887.3,236.6,888.7,234z M911.6,237.9c-0.8-1.5-1.9-2.6-3.2-3.4c-1.4-0.8-2.8-1.2-4.4-1.2c-1.6,0-3,0.4-4.3,1.1
		c-1.3,0.8-2.4,1.9-3.2,3.3c-0.8,1.5-1.2,3.2-1.2,5.2c0,2,0.4,3.8,1.2,5.3c0.8,1.5,1.9,2.7,3.2,3.5c1.3,0.8,2.8,1.2,4.3,1.2
		c1.6,0,3-0.4,4.4-1.2c1.4-0.8,2.4-1.9,3.2-3.4c0.8-1.5,1.2-3.2,1.2-5.3S912.4,239.3,911.6,237.9z"/>
	<path d="M937.9,215.3v44.4h-8.4v-44.4H937.9z"/>
	<path d="M946.8,221.1c-1-0.9-1.5-2.1-1.5-3.5c0-1.4,0.5-2.6,1.5-3.5c1-0.9,2.2-1.4,3.7-1.4c1.5,0,2.7,0.5,3.7,1.4
		c1,0.9,1.5,2.1,1.5,3.5c0,1.4-0.5,2.6-1.5,3.5c-1,0.9-2.2,1.4-3.7,1.4C949,222.5,947.7,222.1,946.8,221.1z M954.6,226.5v33.2h-8.4
		v-33.2H954.6z"/>
	<path d="M968.3,258.8c-2.2-1-3.9-2.3-5.1-4c-1.3-1.7-2-3.5-2.1-5.6h8.5c0.2,1.3,0.8,2.3,1.9,3.2c1.1,0.8,2.5,1.3,4.1,1.3
		c1.6,0,2.9-0.3,3.8-1c0.9-0.6,1.4-1.5,1.4-2.5c0-1.1-0.6-1.9-1.7-2.4c-1.1-0.5-2.8-1.1-5.3-1.8c-2.5-0.6-4.5-1.2-6.1-1.9
		c-1.6-0.6-2.9-1.6-4.1-2.9s-1.7-3.1-1.7-5.3c0-1.8,0.5-3.5,1.6-5c1.1-1.5,2.6-2.7,4.6-3.6c2-0.9,4.3-1.3,7-1.3c4,0,7.1,1,9.5,3
		c2.4,2,3.7,4.6,3.9,8h-8c-0.1-1.3-0.7-2.4-1.6-3.2c-1-0.8-2.3-1.2-3.9-1.2c-1.5,0-2.7,0.3-3.5,0.8c-0.8,0.6-1.2,1.3-1.2,2.3
		c0,1.1,0.6,2,1.7,2.5c1.1,0.6,2.9,1.2,5.2,1.8c2.4,0.6,4.4,1.2,5.9,1.9c1.6,0.6,2.9,1.6,4,3c1.1,1.3,1.7,3.1,1.8,5.3
		c0,1.9-0.5,3.6-1.6,5.2c-1.1,1.5-2.6,2.7-4.6,3.6c-2,0.9-4.3,1.3-6.9,1.3C972.9,260.3,970.4,259.8,968.3,258.8z"/>
	<path d="M995.4,234c1.3-2.6,3.2-4.6,5.5-6c2.3-1.4,4.9-2.1,7.7-2.1c2.5,0,4.6,0.5,6.5,1.5c1.9,1,3.3,2.3,4.5,3.8v-4.7h8.5v33.2
		h-8.5v-4.9c-1.1,1.6-2.6,2.9-4.5,3.9c-1.9,1-4.1,1.5-6.6,1.5c-2.8,0-5.3-0.7-7.6-2.2c-2.3-1.4-4.1-3.5-5.5-6.1c-1.3-2.6-2-5.6-2-9
		C993.4,239.6,994.1,236.6,995.4,234z M1018.4,237.9c-0.8-1.5-1.9-2.6-3.2-3.4c-1.4-0.8-2.8-1.2-4.4-1.2c-1.6,0-3,0.4-4.3,1.1
		c-1.3,0.8-2.4,1.9-3.2,3.3c-0.8,1.5-1.2,3.2-1.2,5.2c0,2,0.4,3.8,1.2,5.3c0.8,1.5,1.9,2.7,3.2,3.5c1.3,0.8,2.8,1.2,4.3,1.2
		c1.6,0,3-0.4,4.4-1.2c1.4-0.8,2.4-1.9,3.2-3.4c0.8-1.5,1.2-3.2,1.2-5.3S1019.2,239.3,1018.4,237.9z"/>
	<path d="M1046,233.4v16.1c0,1.1,0.3,1.9,0.8,2.4c0.5,0.5,1.4,0.8,2.7,0.8h3.9v7.1h-5.3c-7.1,0-10.6-3.4-10.6-10.3v-16h-4v-6.9h4
		v-8.2h8.5v8.2h7.4v6.9H1046z"/>
	<path d="M1060.1,221.1c-1-0.9-1.5-2.1-1.5-3.5c0-1.4,0.5-2.6,1.5-3.5c1-0.9,2.2-1.4,3.7-1.4c1.5,0,2.7,0.5,3.7,1.4
		c1,0.9,1.5,2.1,1.5,3.5c0,1.4-0.5,2.6-1.5,3.5c-1,0.9-2.2,1.4-3.7,1.4C1062.3,222.5,1061.1,222.1,1060.1,221.1z M1067.9,226.5v33.2
		h-8.4v-33.2H1067.9z"/>
	<path d="M1082.3,258.1c-2.6-1.4-4.6-3.4-6-6c-1.5-2.6-2.2-5.6-2.2-9c0-3.4,0.8-6.4,2.3-9c1.5-2.6,3.5-4.6,6.2-6
		c2.6-1.4,5.5-2.1,8.7-2.1s6.1,0.7,8.7,2.1c2.6,1.4,4.7,3.4,6.2,6c1.5,2.6,2.3,5.6,2.3,9c0,3.4-0.8,6.4-2.3,9
		c-1.5,2.6-3.6,4.6-6.2,6c-2.6,1.4-5.6,2.1-8.8,2.1C1087.8,260.3,1084.9,259.6,1082.3,258.1z M1095.3,251.8c1.3-0.7,2.4-1.8,3.2-3.3
		c0.8-1.5,1.2-3.3,1.2-5.4c0-3.2-0.8-5.6-2.5-7.3c-1.7-1.7-3.7-2.5-6.1-2.5c-2.4,0-4.4,0.9-6,2.5c-1.6,1.7-2.4,4.1-2.4,7.3
		c0,3.2,0.8,5.6,2.4,7.3c1.6,1.7,3.6,2.6,6,2.6C1092.5,252.9,1093.9,252.6,1095.3,251.8z"/>
	<path d="M1142.5,229.8c2.4,2.5,3.7,6,3.7,10.5v19.5h-8.4v-18.4c0-2.6-0.7-4.7-2-6.1c-1.3-1.4-3.1-2.1-5.4-2.1
		c-2.3,0-4.2,0.7-5.5,2.1c-1.3,1.4-2,3.5-2,6.1v18.4h-8.4v-33.2h8.4v4.1c1.1-1.4,2.5-2.6,4.3-3.4c1.7-0.8,3.6-1.2,5.7-1.2
		C1136.9,226,1140.1,227.3,1142.5,229.8z"/>
	<path d="M1163.3,250.9l-7,16.9h-5.4l3.9-16.9H1163.3z"/>
	<path d="M477,298.5l-9.7,33.2h-9.1l-6.1-23.2l-6.1,23.2H437l-9.8-33.2h8.5l5.9,25.3l6.4-25.3h8.9l6.2,25.3l5.9-25.3H477z"/>
	<path d="M482.1,293.1c-1-0.9-1.5-2.1-1.5-3.5c0-1.4,0.5-2.6,1.5-3.5c1-0.9,2.2-1.4,3.7-1.4c1.5,0,2.7,0.5,3.7,1.4
		c1,0.9,1.5,2.1,1.5,3.5c0,1.4-0.5,2.6-1.5,3.5c-1,0.9-2.2,1.4-3.7,1.4C484.3,294.5,483.1,294.1,482.1,293.1z M490,298.5v33.2h-8.4
		v-33.2H490z"/>
	<path d="M508,305.4v16.1c0,1.1,0.3,1.9,0.8,2.4c0.5,0.5,1.4,0.8,2.7,0.8h3.9v7.1h-5.3c-7.1,0-10.6-3.4-10.6-10.3v-16h-4v-6.9h4
		v-8.2h8.5v8.2h7.4v6.9H508z"/>
	<path d="M547,299.7c2,1.1,3.5,2.7,4.6,4.9c1.1,2.1,1.6,4.7,1.6,7.7v19.5h-8.4v-18.4c0-2.6-0.7-4.7-2-6.1c-1.3-1.4-3.1-2.1-5.4-2.1
		c-2.3,0-4.2,0.7-5.5,2.1c-1.3,1.4-2,3.5-2,6.1v18.4h-8.4v-44.4h8.4v15.3c1.1-1.4,2.5-2.6,4.3-3.4c1.8-0.8,3.8-1.2,6-1.2
		C542.8,298,545,298.6,547,299.7z"/>
	<path d="M626.6,301.8c2.5,2.5,3.8,6,3.8,10.5v19.5H622v-18.4c0-2.6-0.7-4.6-2-6c-1.3-1.4-3.1-2.1-5.4-2.1c-2.3,0-4.1,0.7-5.4,2.1
		c-1.3,1.4-2,3.4-2,6v18.4h-8.4v-18.4c0-2.6-0.7-4.6-2-6s-3.1-2.1-5.4-2.1c-2.3,0-4.2,0.7-5.5,2.1c-1.3,1.4-2,3.4-2,6v18.4h-8.4
		v-33.2h8.4v4c1.1-1.4,2.5-2.5,4.2-3.3c1.7-0.8,3.6-1.2,5.6-1.2c2.6,0,4.9,0.6,7,1.7c2,1.1,3.6,2.7,4.7,4.7c1.1-1.9,2.6-3.5,4.7-4.6
		c2.1-1.2,4.3-1.7,6.7-1.7C620.8,298,624.1,299.3,626.6,301.8z"/>
	<path d="M670.1,298.5l-20.6,49h-8.9l7.2-16.6l-13.3-32.4h9.4l8.6,23.2l8.7-23.2H670.1z"/>
	<path d="M708.6,331.7l-11.3-14.2v14.2h-8.4v-44.4h8.4v25.3l11.2-14.1h10.9l-14.6,16.7l14.8,16.6H708.6z"/>
	<path d="M752,301.8c2.4,2.5,3.7,6,3.7,10.5v19.5h-8.4v-18.4c0-2.6-0.7-4.7-2-6.1c-1.3-1.4-3.1-2.1-5.4-2.1c-2.3,0-4.2,0.7-5.5,2.1
		c-1.3,1.4-2,3.5-2,6.1v18.4H724v-33.2h8.4v4.1c1.1-1.4,2.5-2.6,4.3-3.4c1.7-0.8,3.6-1.2,5.7-1.2C746.3,298,749.5,299.3,752,301.8z"
		/>
	<path d="M769.7,330.1c-2.6-1.4-4.6-3.4-6-6c-1.5-2.6-2.2-5.6-2.2-9c0-3.4,0.8-6.4,2.3-9c1.5-2.6,3.5-4.6,6.1-6
		c2.6-1.4,5.5-2.1,8.7-2.1s6.1,0.7,8.7,2.1c2.6,1.4,4.7,3.4,6.2,6c1.5,2.6,2.3,5.6,2.3,9c0,3.4-0.8,6.4-2.3,9
		c-1.5,2.6-3.6,4.6-6.2,6c-2.6,1.4-5.5,2.1-8.8,2.1C775.2,332.3,772.3,331.6,769.7,330.1z M782.7,323.8c1.3-0.7,2.4-1.8,3.2-3.3
		c0.8-1.5,1.2-3.3,1.2-5.4c0-3.2-0.8-5.6-2.5-7.3c-1.7-1.7-3.7-2.5-6.1-2.5c-2.4,0-4.4,0.9-6,2.5c-1.6,1.7-2.4,4.1-2.4,7.3
		c0,3.2,0.8,5.6,2.4,7.3c1.6,1.7,3.6,2.6,6,2.6C779.9,324.9,781.3,324.6,782.7,323.8z"/>
	<path d="M848,298.5l-9.7,33.2h-9.1l-6.1-23.2l-6.1,23.2H808l-9.8-33.2h8.5l5.9,25.3l6.4-25.3h8.9l6.2,25.3l5.9-25.3H848z"/>
	<path d="M860.9,287.3v44.4h-8.4v-44.4H860.9z"/>
	<path d="M899.9,317.6h-24.3c0.2,2.4,1,4.3,2.5,5.6c1.5,1.4,3.3,2,5.5,2c3.1,0,5.3-1.3,6.7-4h9.1c-1,3.2-2.8,5.8-5.5,7.9
		c-2.7,2.1-6.1,3.1-10,3.1c-3.2,0-6.1-0.7-8.6-2.1c-2.5-1.4-4.5-3.4-5.9-6c-1.4-2.6-2.1-5.6-2.1-9c0-3.4,0.7-6.5,2.1-9.1
		c1.4-2.6,3.4-4.6,5.9-6c2.5-1.4,5.4-2.1,8.7-2.1c3.2,0,6,0.7,8.5,2c2.5,1.4,4.4,3.3,5.8,5.8c1.4,2.5,2.1,5.4,2.1,8.6
		C900.1,315.6,900,316.7,899.9,317.6z M891.4,312c0-2.2-0.8-3.9-2.3-5.2c-1.5-1.3-3.4-1.9-5.6-1.9c-2.1,0-3.8,0.6-5.3,1.9
		c-1.4,1.3-2.3,3-2.6,5.3H891.4z"/>
	<path d="M906.1,306c1.3-2.6,3.2-4.6,5.5-6c2.3-1.4,4.9-2.1,7.7-2.1c2.2,0,4.2,0.5,6.2,1.4c2,0.9,3.5,2.2,4.7,3.8v-15.8h8.5v44.4
		h-8.5v-4.9c-1,1.6-2.5,3-4.4,4c-1.9,1-4.1,1.5-6.5,1.5c-2.8,0-5.4-0.7-7.7-2.2c-2.3-1.4-4.2-3.5-5.5-6.1c-1.3-2.6-2-5.6-2-9
		C904.1,311.6,904.7,308.6,906.1,306z M929,309.9c-0.8-1.5-1.9-2.6-3.2-3.4c-1.4-0.8-2.8-1.2-4.4-1.2c-1.6,0-3,0.4-4.3,1.1
		c-1.3,0.8-2.4,1.9-3.2,3.3c-0.8,1.5-1.2,3.2-1.2,5.2c0,2,0.4,3.8,1.2,5.3c0.8,1.5,1.9,2.7,3.2,3.5c1.3,0.8,2.8,1.2,4.3,1.2
		c1.6,0,3-0.4,4.4-1.2c1.4-0.8,2.4-1.9,3.2-3.4c0.8-1.5,1.2-3.2,1.2-5.3S929.8,311.3,929,309.9z"/>
	<path d="M966.5,299.4c1.9,1,3.4,2.3,4.4,3.8v-4.7h8.5V332c0,3.1-0.6,5.8-1.9,8.3c-1.2,2.4-3.1,4.3-5.6,5.8c-2.5,1.4-5.5,2.1-9,2.1
		c-4.7,0-8.6-1.1-11.6-3.3c-3-2.2-4.7-5.2-5.1-9h8.3c0.4,1.5,1.4,2.7,2.9,3.6c1.5,0.9,3.2,1.4,5.3,1.4c2.4,0,4.4-0.7,5.9-2.2
		c1.5-1.5,2.3-3.7,2.3-6.6v-5.2c-1.1,1.6-2.6,2.9-4.5,3.9c-1.9,1-4.1,1.6-6.5,1.6c-2.8,0-5.4-0.7-7.7-2.2c-2.3-1.4-4.2-3.5-5.5-6.1
		c-1.3-2.6-2-5.6-2-9c0-3.4,0.7-6.3,2-8.9c1.3-2.6,3.2-4.6,5.5-6c2.3-1.4,4.9-2.1,7.7-2.1C962.4,297.9,964.6,298.4,966.5,299.4z
		 M969.7,309.9c-0.8-1.5-1.9-2.6-3.2-3.4c-1.4-0.8-2.8-1.2-4.4-1.2c-1.6,0-3,0.4-4.3,1.1c-1.3,0.8-2.4,1.9-3.2,3.3
		c-0.8,1.5-1.2,3.2-1.2,5.2c0,2,0.4,3.8,1.2,5.3c0.8,1.5,1.9,2.7,3.2,3.5c1.3,0.8,2.8,1.2,4.3,1.2c1.6,0,3-0.4,4.4-1.2
		c1.4-0.8,2.4-1.9,3.2-3.4c0.8-1.5,1.2-3.2,1.2-5.3S970.5,311.3,969.7,309.9z"/>
	<path d="M1018.3,317.6H994c0.2,2.4,1,4.3,2.5,5.6c1.5,1.4,3.3,2,5.5,2c3.1,0,5.3-1.3,6.7-4h9.1c-1,3.2-2.8,5.8-5.5,7.9
		c-2.7,2.1-6.1,3.1-10,3.1c-3.2,0-6.1-0.7-8.6-2.1c-2.5-1.4-4.5-3.4-5.9-6c-1.4-2.6-2.1-5.6-2.1-9c0-3.4,0.7-6.5,2.1-9.1
		c1.4-2.6,3.4-4.6,5.9-6c2.5-1.4,5.4-2.1,8.7-2.1c3.2,0,6,0.7,8.5,2c2.5,1.4,4.4,3.3,5.8,5.8c1.4,2.5,2.1,5.4,2.1,8.6
		C1018.5,315.6,1018.4,316.7,1018.3,317.6z M1009.8,312c0-2.2-0.8-3.9-2.3-5.2c-1.5-1.3-3.4-1.9-5.6-1.9c-2.1,0-3.8,0.6-5.3,1.9
		c-1.4,1.3-2.3,3-2.6,5.3H1009.8z"/>
	<path d="M1033.8,322.9l-7,16.9h-5.4l3.9-16.9H1033.8z"/>
	<path d="M430.8,378c1.3-2.6,3.2-4.6,5.5-6c2.3-1.4,4.9-2.1,7.7-2.1c2.5,0,4.6,0.5,6.5,1.5c1.9,1,3.3,2.3,4.5,3.8v-4.7h8.5v33.2
		h-8.5v-4.9c-1.1,1.6-2.6,2.9-4.5,3.9c-1.9,1-4.1,1.5-6.6,1.5c-2.8,0-5.4-0.7-7.6-2.2c-2.3-1.4-4.1-3.5-5.5-6.1c-1.3-2.6-2-5.6-2-9
		C428.8,383.6,429.4,380.6,430.8,378z M453.7,381.9c-0.8-1.5-1.9-2.6-3.2-3.4c-1.4-0.8-2.8-1.2-4.4-1.2s-3,0.4-4.3,1.1
		c-1.3,0.8-2.4,1.9-3.2,3.3c-0.8,1.5-1.2,3.2-1.2,5.2c0,2,0.4,3.8,1.2,5.3c0.8,1.5,1.9,2.7,3.2,3.5c1.3,0.8,2.8,1.2,4.3,1.2
		c1.6,0,3-0.4,4.4-1.2c1.4-0.8,2.4-1.9,3.2-3.4c0.8-1.5,1.2-3.2,1.2-5.3S454.5,383.3,453.7,381.9z"/>
	<path d="M499.6,373.8c2.4,2.5,3.7,6,3.7,10.5v19.5h-8.4v-18.4c0-2.6-0.7-4.7-2-6.1c-1.3-1.4-3.1-2.1-5.4-2.1
		c-2.3,0-4.2,0.7-5.5,2.1c-1.3,1.4-2,3.5-2,6.1v18.4h-8.4v-33.2h8.4v4.1c1.1-1.4,2.5-2.6,4.3-3.4c1.7-0.8,3.6-1.2,5.7-1.2
		C494,370,497.2,371.3,499.6,373.8z"/>
	<path d="M511.1,378c1.3-2.6,3.2-4.6,5.5-6c2.3-1.4,4.9-2.1,7.7-2.1c2.2,0,4.2,0.5,6.2,1.4c2,0.9,3.5,2.2,4.7,3.8v-15.8h8.5v44.4
		h-8.5v-4.9c-1,1.6-2.5,3-4.4,4c-1.9,1-4.1,1.5-6.5,1.5c-2.8,0-5.4-0.7-7.7-2.2c-2.3-1.4-4.2-3.5-5.5-6.1c-1.3-2.6-2-5.6-2-9
		C509.1,383.6,509.8,380.6,511.1,378z M534.1,381.9c-0.8-1.5-1.9-2.6-3.2-3.4c-1.4-0.8-2.8-1.2-4.4-1.2s-3,0.4-4.3,1.1
		c-1.3,0.8-2.4,1.9-3.2,3.3c-0.8,1.5-1.2,3.2-1.2,5.2c0,2,0.4,3.8,1.2,5.3c0.8,1.5,1.9,2.7,3.2,3.5c1.3,0.8,2.8,1.2,4.3,1.2
		c1.6,0,3-0.4,4.4-1.2c1.4-0.8,2.4-1.9,3.2-3.4c0.8-1.5,1.2-3.2,1.2-5.3S534.9,383.3,534.1,381.9z"/>
	<path d="M598,370.5l-20.6,49h-8.9l7.2-16.6l-13.3-32.4h9.4l8.6,23.2l8.7-23.2H598z"/>
	<path d="M608.6,402.1c-2.6-1.4-4.6-3.4-6-6c-1.5-2.6-2.2-5.6-2.2-9c0-3.4,0.8-6.4,2.3-9c1.5-2.6,3.5-4.6,6.1-6
		c2.6-1.4,5.5-2.1,8.7-2.1c3.2,0,6.1,0.7,8.7,2.1c2.6,1.4,4.7,3.4,6.2,6c1.5,2.6,2.3,5.6,2.3,9c0,3.4-0.8,6.4-2.3,9
		c-1.5,2.6-3.6,4.6-6.2,6c-2.6,1.4-5.5,2.1-8.8,2.1C614.1,404.3,611.2,403.6,608.6,402.1z M621.6,395.8c1.3-0.7,2.4-1.8,3.2-3.3
		c0.8-1.5,1.2-3.3,1.2-5.4c0-3.2-0.8-5.6-2.5-7.3c-1.7-1.7-3.7-2.5-6.1-2.5s-4.4,0.9-6,2.5c-1.6,1.7-2.4,4.1-2.4,7.3
		c0,3.2,0.8,5.6,2.4,7.3c1.6,1.7,3.6,2.6,6,2.6C618.8,396.9,620.2,396.6,621.6,395.8z"/>
	<path d="M672.2,370.5v33.2h-8.5v-4.2c-1.1,1.4-2.5,2.6-4.2,3.4c-1.7,0.8-3.6,1.2-5.7,1.2c-2.6,0-4.9-0.5-6.9-1.7
		c-2-1.1-3.6-2.7-4.7-4.9c-1.1-2.1-1.7-4.7-1.7-7.7v-19.5h8.4v18.3c0,2.6,0.7,4.7,2,6.1c1.3,1.4,3.1,2.1,5.4,2.1
		c2.3,0,4.1-0.7,5.5-2.1c1.3-1.4,2-3.4,2-6.1v-18.3H672.2z"/>
	<path d="M693.1,371.5c1.7-1,3.7-1.5,6-1.5v8.8h-2.2c-2.6,0-4.6,0.6-6,1.9c-1.3,1.2-2,3.4-2,6.5v16.6h-8.4v-33.2h8.4v5.2
		C689.9,373.9,691.3,372.5,693.1,371.5z"/>
	<path d="M732.8,396l8.4-25.5h8.9l-12.3,33.2h-10.2l-12.2-33.2h9L732.8,396z"/>
	<path d="M755.5,365.1c-1-0.9-1.5-2.1-1.5-3.5c0-1.4,0.5-2.6,1.5-3.5c1-0.9,2.2-1.4,3.7-1.4s2.7,0.5,3.7,1.4c1,0.9,1.5,2.1,1.5,3.5
		c0,1.4-0.5,2.6-1.5,3.5c-1,0.9-2.2,1.4-3.7,1.4S756.5,366.1,755.5,365.1z M763.3,370.5v33.2h-8.4v-33.2H763.3z"/>
	<path d="M777,402.8c-2.2-1-3.9-2.3-5.1-4c-1.3-1.7-2-3.5-2.1-5.6h8.5c0.2,1.3,0.8,2.3,1.9,3.2c1.1,0.8,2.5,1.3,4.1,1.3
		c1.6,0,2.8-0.3,3.8-1c0.9-0.6,1.3-1.5,1.3-2.5c0-1.1-0.5-1.9-1.6-2.4c-1.1-0.5-2.9-1.1-5.3-1.8c-2.5-0.6-4.5-1.2-6.1-1.9
		c-1.6-0.6-2.9-1.6-4.1-2.9c-1.1-1.3-1.7-3.1-1.7-5.3c0-1.8,0.5-3.5,1.6-5c1.1-1.5,2.6-2.7,4.6-3.6c2-0.9,4.3-1.3,7-1.3
		c4,0,7.1,1,9.5,3c2.4,2,3.7,4.6,3.9,8h-8c-0.1-1.3-0.7-2.4-1.6-3.2c-1-0.8-2.3-1.2-3.9-1.2c-1.5,0-2.7,0.3-3.5,0.8
		c-0.8,0.6-1.2,1.3-1.2,2.3c0,1.1,0.6,2,1.7,2.5c1.1,0.6,2.9,1.2,5.2,1.8c2.4,0.6,4.4,1.2,5.9,1.9c1.6,0.6,2.9,1.6,4,3
		c1.1,1.3,1.7,3.1,1.8,5.3c0,1.9-0.5,3.6-1.6,5.2c-1.1,1.5-2.6,2.7-4.6,3.6c-2,0.9-4.3,1.3-6.9,1.3
		C781.6,404.3,779.2,403.8,777,402.8z"/>
	<path d="M804.9,365.1c-1-0.9-1.5-2.1-1.5-3.5c0-1.4,0.5-2.6,1.5-3.5c1-0.9,2.2-1.4,3.7-1.4s2.7,0.5,3.7,1.4c1,0.9,1.5,2.1,1.5,3.5
		c0,1.4-0.5,2.6-1.5,3.5c-1,0.9-2.2,1.4-3.7,1.4S805.8,366.1,804.9,365.1z M812.7,370.5v33.2h-8.4v-33.2H812.7z"/>
	<path d="M827.1,402.1c-2.6-1.4-4.6-3.4-6-6c-1.5-2.6-2.2-5.6-2.2-9c0-3.4,0.8-6.4,2.3-9c1.5-2.6,3.5-4.6,6.1-6
		c2.6-1.4,5.5-2.1,8.7-2.1s6.1,0.7,8.7,2.1c2.6,1.4,4.7,3.4,6.2,6c1.5,2.6,2.3,5.6,2.3,9c0,3.4-0.8,6.4-2.3,9
		c-1.5,2.6-3.6,4.6-6.2,6s-5.5,2.1-8.8,2.1C832.5,404.3,829.7,403.6,827.1,402.1z M840,395.8c1.3-0.7,2.4-1.8,3.2-3.3
		c0.8-1.5,1.2-3.3,1.2-5.4c0-3.2-0.8-5.6-2.5-7.3c-1.7-1.7-3.7-2.5-6.1-2.5c-2.4,0-4.4,0.9-6,2.5c-1.6,1.7-2.4,4.1-2.4,7.3
		c0,3.2,0.8,5.6,2.4,7.3c1.6,1.7,3.6,2.6,6,2.6C837.3,396.9,838.7,396.6,840,395.8z"/>
	<path d="M887.3,373.8c2.4,2.5,3.7,6,3.7,10.5v19.5h-8.4v-18.4c0-2.6-0.7-4.7-2-6.1c-1.3-1.4-3.1-2.1-5.4-2.1
		c-2.3,0-4.2,0.7-5.5,2.1c-1.3,1.4-2,3.5-2,6.1v18.4h-8.4v-33.2h8.4v4.1c1.1-1.4,2.5-2.6,4.3-3.4c1.7-0.8,3.6-1.2,5.7-1.2
		C881.6,370,884.8,371.3,887.3,373.8z"/>
	<path d="M898.9,402.7c-1-0.9-1.5-2.1-1.5-3.5c0-1.4,0.5-2.6,1.5-3.5c1-0.9,2.2-1.4,3.8-1.4c1.5,0,2.7,0.5,3.7,1.4
		c1,0.9,1.4,2.1,1.4,3.5c0,1.4-0.5,2.6-1.4,3.5c-1,0.9-2.2,1.4-3.7,1.4C901.1,404.1,899.9,403.7,898.9,402.7z"/>
</g>
<g>
	<path d="M435.6,509.1h7.8v1.1h-9.2v-21.1h1.4V509.1z"/>
	<path d="M461.1,502.6H447c0,1.5,0.4,2.7,1,3.7c0.6,1,1.4,1.8,2.4,2.3c1,0.5,2,0.8,3.2,0.8c1.6,0,2.9-0.4,4-1.2
		c1.1-0.8,1.8-1.9,2-3.2h1.4c-0.3,1.7-1.1,3-2.5,4c-1.3,1-3,1.5-5,1.5c-1.5,0-2.9-0.3-4.1-1c-1.2-0.7-2.1-1.7-2.8-2.9
		c-0.7-1.3-1-2.8-1-4.5c0-1.7,0.3-3.2,1-4.4c0.7-1.3,1.6-2.2,2.8-2.9c1.2-0.7,2.6-1,4.1-1c1.6,0,2.9,0.3,4.1,1
		c1.1,0.7,2,1.6,2.6,2.7c0.6,1.1,0.9,2.3,0.9,3.6C461.1,501.7,461.1,502.3,461.1,502.6z M459,497.9c-0.6-1-1.3-1.7-2.3-2.2
		c-1-0.5-2-0.7-3.2-0.7c-1.1,0-2.2,0.2-3.2,0.7c-1,0.5-1.8,1.2-2.4,2.2c-0.6,1-0.9,2.2-1,3.7h12.8
		C459.9,500.1,459.6,498.9,459,497.9z"/>
	<path d="M467.2,495.1v10.8c0,1.2,0.2,2,0.7,2.5s1.2,0.7,2.3,0.7h1.8v1.2h-2c-1.4,0-2.5-0.3-3.1-1c-0.7-0.7-1-1.8-1-3.3v-10.8h-2.5
		V494h2.5v-4.1h1.4v4.1h4.8v1.2H467.2z"/>
	<path d="M475.8,489.2h1.7l-2.3,6.1h-1L475.8,489.2z"/>
	<path d="M481.8,509.3c-1.2-0.8-1.8-1.9-1.9-3.4h1.4c0.1,1.1,0.6,1.9,1.5,2.5c0.9,0.6,2.1,0.9,3.6,0.9c1.2,0,2.2-0.3,3-0.9
		c0.7-0.6,1.1-1.4,1.1-2.3c0-0.6-0.2-1.2-0.6-1.6c-0.4-0.4-0.9-0.7-1.5-0.9c-0.6-0.2-1.4-0.5-2.4-0.7c-1.2-0.3-2.2-0.6-2.9-0.9
		c-0.7-0.3-1.4-0.8-1.9-1.4c-0.5-0.6-0.8-1.5-0.8-2.5c0-0.8,0.2-1.5,0.7-2.1c0.5-0.6,1.1-1.2,1.9-1.5c0.8-0.4,1.8-0.6,2.8-0.6
		c1.7,0,3.1,0.4,4.1,1.3c1,0.9,1.6,2,1.7,3.5h-1.4c-0.1-1.1-0.5-2-1.3-2.6c-0.8-0.7-1.9-1-3.2-1c-1.2,0-2.1,0.3-2.9,0.9
		c-0.8,0.6-1.1,1.3-1.1,2.2c0,0.8,0.2,1.4,0.6,1.8s1,0.8,1.6,1.1c0.6,0.3,1.5,0.5,2.5,0.8c1.1,0.3,2.1,0.6,2.7,0.9
		c0.7,0.3,1.3,0.7,1.8,1.3s0.7,1.3,0.7,2.2c0,0.8-0.2,1.6-0.7,2.3c-0.5,0.7-1.1,1.2-1.9,1.6c-0.8,0.4-1.7,0.6-2.8,0.6
		C484.4,510.5,482.9,510.1,481.8,509.3z"/>
	<path d="M504.3,497.7c0.7-1.3,1.6-2.2,2.8-2.9c1.2-0.7,2.5-1,4.1-1c1.7,0,3.1,0.4,4.3,1.2c1.2,0.8,2.1,1.9,2.6,3.2v-10.2h1.4v22.2
		h-1.4v-4.3c-0.5,1.3-1.3,2.4-2.5,3.3c-1.2,0.9-2.7,1.3-4.4,1.3c-1.5,0-2.9-0.3-4.1-1c-1.2-0.7-2.1-1.7-2.8-2.9
		c-0.7-1.3-1-2.7-1-4.4C503.3,500.4,503.7,499,504.3,497.7z M517.2,498.3c-0.6-1.1-1.4-1.9-2.4-2.5s-2.2-0.9-3.4-0.9
		c-1.3,0-2.5,0.3-3.5,0.9c-1,0.6-1.8,1.4-2.3,2.5s-0.8,2.4-0.8,3.8c0,1.5,0.3,2.8,0.8,3.8c0.6,1.1,1.3,1.9,2.4,2.5
		c1,0.6,2.2,0.9,3.5,0.9c1.3,0,2.4-0.3,3.4-0.9c1-0.6,1.8-1.4,2.4-2.5c0.6-1.1,0.9-2.4,0.9-3.8C518.1,500.7,517.8,499.4,517.2,498.3
		z"/>
	<path d="M539,502.6h-14.1c0,1.5,0.4,2.7,1,3.7c0.6,1,1.4,1.8,2.4,2.3c1,0.5,2,0.8,3.2,0.8c1.6,0,2.9-0.4,4-1.2
		c1.1-0.8,1.8-1.9,2-3.2h1.4c-0.3,1.7-1.1,3-2.5,4c-1.3,1-3,1.5-5,1.5c-1.5,0-2.9-0.3-4.1-1c-1.2-0.7-2.1-1.7-2.8-2.9
		c-0.7-1.3-1-2.8-1-4.5c0-1.7,0.3-3.2,1-4.4c0.7-1.3,1.6-2.2,2.8-2.9c1.2-0.7,2.6-1,4.1-1c1.6,0,2.9,0.3,4.1,1
		c1.1,0.7,2,1.6,2.6,2.7c0.6,1.1,0.9,2.3,0.9,3.6C539,501.7,539,502.3,539,502.6z M536.9,497.9c-0.6-1-1.3-1.7-2.3-2.2
		c-1-0.5-2-0.7-3.2-0.7c-1.1,0-2.2,0.2-3.2,0.7c-1,0.5-1.8,1.2-2.4,2.2c-0.6,1-0.9,2.2-1,3.7h12.8
		C537.7,500.1,537.5,498.9,536.9,497.9z"/>
	<path d="M544.1,509.3c-1.2-0.8-1.8-1.9-1.9-3.4h1.4c0.1,1.1,0.6,1.9,1.5,2.5c0.9,0.6,2.1,0.9,3.6,0.9c1.2,0,2.2-0.3,3-0.9
		c0.7-0.6,1.1-1.4,1.1-2.3c0-0.6-0.2-1.2-0.6-1.6c-0.4-0.4-0.9-0.7-1.5-0.9c-0.6-0.2-1.4-0.5-2.4-0.7c-1.2-0.3-2.2-0.6-2.9-0.9
		c-0.7-0.3-1.4-0.8-1.9-1.4c-0.5-0.6-0.8-1.5-0.8-2.5c0-0.8,0.2-1.5,0.7-2.1c0.5-0.6,1.1-1.2,1.9-1.5c0.8-0.4,1.8-0.6,2.8-0.6
		c1.7,0,3.1,0.4,4.1,1.3c1,0.9,1.6,2,1.7,3.5h-1.4c-0.1-1.1-0.5-2-1.3-2.6c-0.8-0.7-1.9-1-3.2-1c-1.2,0-2.1,0.3-2.9,0.9
		c-0.8,0.6-1.1,1.3-1.1,2.2c0,0.8,0.2,1.4,0.6,1.8s1,0.8,1.6,1.1c0.6,0.3,1.5,0.5,2.5,0.8c1.1,0.3,2.1,0.6,2.7,0.9
		c0.7,0.3,1.3,0.7,1.8,1.3s0.7,1.3,0.7,2.2c0,0.8-0.2,1.6-0.7,2.3c-0.5,0.7-1.1,1.2-1.9,1.6c-0.8,0.4-1.7,0.6-2.8,0.6
		C546.7,510.5,545.2,510.1,544.1,509.3z"/>
	<path d="M557.9,490c-0.2-0.2-0.3-0.5-0.3-0.9c0-0.3,0.1-0.6,0.3-0.8c0.2-0.2,0.5-0.3,0.8-0.3s0.6,0.1,0.8,0.3
		c0.2,0.2,0.3,0.5,0.3,0.8c0,0.4-0.1,0.6-0.3,0.9c-0.2,0.2-0.5,0.3-0.8,0.3S558.1,490.2,557.9,490z M559.4,494v16.3H558V494H559.4z"
		/>
	<path d="M575.7,495c1.2,0.8,2,1.9,2.5,3.2V494h1.4v16.8c0,1.5-0.3,2.8-1,3.9c-0.7,1.1-1.6,2-2.7,2.6c-1.1,0.6-2.4,0.9-3.8,0.9
		c-2,0-3.7-0.5-5.1-1.5c-1.3-1-2.2-2.3-2.6-4h1.4c0.4,1.3,1.1,2.3,2.3,3.1c1.1,0.8,2.5,1.2,4.1,1.2c1.1,0,2.2-0.3,3.1-0.8
		c0.9-0.5,1.6-1.2,2.2-2.2c0.5-1,0.8-2.1,0.8-3.3V506c-0.5,1.3-1.3,2.4-2.5,3.2c-1.2,0.9-2.7,1.3-4.4,1.3c-1.5,0-2.9-0.3-4.1-1
		c-1.2-0.7-2.1-1.7-2.8-2.9c-0.7-1.3-1-2.7-1-4.4c0-1.7,0.3-3.1,1-4.4c0.7-1.3,1.6-2.2,2.8-2.9c1.2-0.7,2.5-1,4.1-1
		C573.1,493.8,574.5,494.2,575.7,495z M577.4,498.3c-0.6-1.1-1.4-1.9-2.4-2.5s-2.2-0.9-3.4-0.9c-1.3,0-2.5,0.3-3.5,0.9
		c-1,0.6-1.8,1.4-2.3,2.5s-0.8,2.4-0.8,3.8c0,1.5,0.3,2.8,0.8,3.8c0.6,1.1,1.3,1.9,2.4,2.5c1,0.6,2.2,0.9,3.5,0.9
		c1.3,0,2.4-0.3,3.4-0.9c1-0.6,1.8-1.4,2.4-2.5c0.6-1.1,0.9-2.4,0.9-3.8C578.2,500.7,577.9,499.4,577.4,498.3z"/>
	<path d="M596.6,495.4c1.2,1.2,1.8,3,1.8,5.3v9.5h-1.3v-9.5c0-1.9-0.5-3.4-1.5-4.5s-2.3-1.5-4-1.5c-1.8,0-3.2,0.6-4.2,1.7
		c-1,1.1-1.6,2.8-1.6,5v8.8h-1.4V494h1.4v3.5c0.5-1.2,1.2-2.2,2.3-2.8c1.1-0.6,2.3-1,3.7-1C593.8,493.6,595.4,494.2,596.6,495.4z"/>
	<path d="M612.6,509.3c-1.2-0.8-1.8-1.9-1.9-3.4h1.4c0.1,1.1,0.6,1.9,1.5,2.5c0.9,0.6,2.1,0.9,3.6,0.9c1.2,0,2.2-0.3,3-0.9
		c0.7-0.6,1.1-1.4,1.1-2.3c0-0.6-0.2-1.2-0.6-1.6c-0.4-0.4-0.9-0.7-1.5-0.9c-0.6-0.2-1.4-0.5-2.4-0.7c-1.2-0.3-2.2-0.6-2.9-0.9
		c-0.7-0.3-1.4-0.8-1.9-1.4c-0.5-0.6-0.8-1.5-0.8-2.5c0-0.8,0.2-1.5,0.7-2.1c0.5-0.6,1.1-1.2,1.9-1.5c0.8-0.4,1.8-0.6,2.8-0.6
		c1.7,0,3.1,0.4,4.1,1.3c1,0.9,1.6,2,1.7,3.5H621c-0.1-1.1-0.5-2-1.3-2.6c-0.8-0.7-1.9-1-3.2-1c-1.2,0-2.1,0.3-2.9,0.9
		c-0.8,0.6-1.1,1.3-1.1,2.2c0,0.8,0.2,1.4,0.6,1.8s1,0.8,1.6,1.1c0.6,0.3,1.5,0.5,2.5,0.8c1.1,0.3,2.1,0.6,2.7,0.9
		c0.7,0.3,1.3,0.7,1.8,1.3s0.7,1.3,0.7,2.2c0,0.8-0.2,1.6-0.7,2.3c-0.5,0.7-1.1,1.2-1.9,1.6c-0.8,0.4-1.7,0.6-2.8,0.6
		C615.3,510.5,613.8,510.1,612.6,509.3z"/>
	<path d="M629.6,509.5c-1.2-0.7-2.2-1.7-2.9-2.9c-0.7-1.3-1-2.8-1-4.5c0-1.7,0.3-3.2,1-4.4c0.7-1.3,1.7-2.2,2.9-2.9
		c1.2-0.7,2.6-1,4.1-1c1.5,0,2.9,0.3,4.1,1c1.2,0.7,2.2,1.6,2.9,2.9c0.7,1.3,1,2.7,1,4.4c0,1.7-0.4,3.2-1.1,4.5
		c-0.7,1.3-1.7,2.2-2.9,2.9c-1.2,0.7-2.6,1-4.1,1S630.8,510.2,629.6,509.5z M637,508.5c1-0.5,1.9-1.3,2.5-2.4c0.6-1.1,0.9-2.4,0.9-4
		c0-1.6-0.3-2.9-0.9-4c-0.6-1.1-1.4-1.9-2.5-2.4c-1-0.5-2.1-0.8-3.3-0.8c-1.2,0-2.3,0.3-3.3,0.8c-1,0.5-1.8,1.3-2.4,2.4
		c-0.6,1.1-0.9,2.4-0.9,4c0,1.6,0.3,2.9,0.9,4c0.6,1.1,1.4,1.9,2.4,2.4c1,0.5,2.1,0.8,3.3,0.8S636,509,637,508.5z"/>
	<path d="M669.7,495.4c1.2,1.2,1.8,3,1.8,5.3v9.5h-1.3v-9.5c0-1.9-0.5-3.4-1.4-4.5s-2.2-1.5-3.8-1.5c-1.7,0-3,0.6-4,1.7
		c-1,1.2-1.5,2.8-1.5,5v8.7h-1.3v-9.5c0-1.9-0.5-3.4-1.4-4.5c-0.9-1-2.2-1.5-3.8-1.5c-1.7,0-3,0.6-4.1,1.7c-1,1.2-1.5,2.8-1.5,5v8.7
		h-1.4V494h1.4v3.5c0.5-1.3,1.2-2.2,2.2-2.9c1-0.6,2.2-1,3.6-1c1.5,0,2.8,0.4,3.8,1.2s1.8,1.9,2.2,3.4c0.4-1.5,1.1-2.6,2.2-3.4
		c1.1-0.8,2.4-1.2,3.9-1.2C667,493.6,668.6,494.2,669.7,495.4z"/>
	<path d="M690.9,502.6h-14.1c0,1.5,0.4,2.7,1,3.7c0.6,1,1.4,1.8,2.4,2.3c1,0.5,2,0.8,3.2,0.8c1.6,0,2.9-0.4,4-1.2
		c1.1-0.8,1.8-1.9,2-3.2h1.4c-0.3,1.7-1.1,3-2.5,4c-1.3,1-3,1.5-5,1.5c-1.5,0-2.9-0.3-4.1-1c-1.2-0.7-2.1-1.7-2.8-2.9
		c-0.7-1.3-1-2.8-1-4.5c0-1.7,0.3-3.2,1-4.4c0.7-1.3,1.6-2.2,2.8-2.9c1.2-0.7,2.6-1,4.1-1c1.6,0,2.9,0.3,4.1,1
		c1.1,0.7,2,1.6,2.6,2.7c0.6,1.1,0.9,2.3,0.9,3.6C691,501.7,691,502.3,690.9,502.6z M688.9,497.9c-0.6-1-1.3-1.7-2.3-2.2
		c-1-0.5-2-0.7-3.2-0.7c-1.1,0-2.2,0.2-3.2,0.7c-1,0.5-1.8,1.2-2.4,2.2c-0.6,1-0.9,2.2-1,3.7h12.8
		C689.7,500.1,689.4,498.9,688.9,497.9z"/>
	<path d="M697.1,495.1v10.8c0,1.2,0.2,2,0.7,2.5s1.2,0.7,2.3,0.7h1.8v1.2h-2c-1.4,0-2.5-0.3-3.1-1c-0.7-0.7-1-1.8-1-3.3v-10.8h-2.5
		V494h2.5v-4.1h1.4v4.1h4.8v1.2H697.1z"/>
	<path d="M717.6,495.4c1.2,1.2,1.8,3,1.8,5.3v9.5h-1.3v-9.5c0-1.9-0.5-3.4-1.5-4.5c-1-1-2.3-1.5-4-1.5c-1.8,0-3.2,0.6-4.2,1.7
		c-1,1.1-1.6,2.8-1.6,5v8.8h-1.4v-22.2h1.4v9.4c0.5-1.2,1.2-2.2,2.3-2.8c1.1-0.6,2.3-1,3.7-1C714.8,493.6,716.3,494.2,717.6,495.4z"
		/>
	<path d="M724,490c-0.2-0.2-0.3-0.5-0.3-0.9c0-0.3,0.1-0.6,0.3-0.8c0.2-0.2,0.5-0.3,0.8-0.3c0.3,0,0.6,0.1,0.8,0.3
		c0.2,0.2,0.3,0.5,0.3,0.8c0,0.4-0.1,0.6-0.3,0.9s-0.5,0.3-0.8,0.3C724.5,490.3,724.3,490.2,724,490z M725.5,494v16.3h-1.4V494
		H725.5z"/>
	<path d="M742.5,495.4c1.2,1.2,1.8,3,1.8,5.3v9.5h-1.3v-9.5c0-1.9-0.5-3.4-1.5-4.5c-1-1-2.3-1.5-4-1.5c-1.8,0-3.2,0.6-4.2,1.7
		c-1,1.1-1.6,2.8-1.6,5v8.8h-1.4V494h1.4v3.5c0.5-1.2,1.2-2.2,2.3-2.8c1.1-0.6,2.3-1,3.7-1C739.7,493.6,741.3,494.2,742.5,495.4z"/>
	<path d="M760.5,495c1.2,0.8,2,1.9,2.5,3.2V494h1.4v16.8c0,1.5-0.3,2.8-1,3.9c-0.7,1.1-1.5,2-2.7,2.6c-1.1,0.6-2.4,0.9-3.8,0.9
		c-2,0-3.7-0.5-5.1-1.5s-2.2-2.3-2.6-4h1.3c0.4,1.3,1.2,2.3,2.3,3.1s2.5,1.2,4.1,1.2c1.1,0,2.2-0.3,3.1-0.8c0.9-0.5,1.6-1.2,2.2-2.2
		c0.5-1,0.8-2.1,0.8-3.3V506c-0.5,1.3-1.3,2.4-2.5,3.2c-1.2,0.9-2.7,1.3-4.4,1.3c-1.5,0-2.9-0.3-4.1-1c-1.2-0.7-2.1-1.7-2.8-2.9
		s-1-2.7-1-4.4c0-1.7,0.3-3.1,1-4.4c0.7-1.3,1.6-2.2,2.8-2.9c1.2-0.7,2.5-1,4.1-1C757.9,493.8,759.3,494.2,760.5,495z M762.2,498.3
		c-0.6-1.1-1.4-1.9-2.4-2.5c-1-0.6-2.2-0.9-3.4-0.9c-1.3,0-2.5,0.3-3.5,0.9c-1,0.6-1.8,1.4-2.3,2.5c-0.6,1.1-0.8,2.4-0.8,3.8
		c0,1.5,0.3,2.8,0.8,3.8c0.6,1.1,1.3,1.9,2.4,2.5c1,0.6,2.2,0.9,3.5,0.9c1.3,0,2.4-0.3,3.4-0.9c1-0.6,1.8-1.4,2.4-2.5
		c0.6-1.1,0.9-2.4,0.9-3.8C763.1,500.7,762.8,499.4,762.2,498.3z"/>
	<path d="M778,497.7c0.7-1.3,1.6-2.2,2.8-2.9c1.2-0.7,2.5-1,4.1-1c1.7,0,3.1,0.4,4.3,1.2c1.2,0.8,2.1,1.9,2.6,3.2v-10.2h1.4v22.2
		h-1.4v-4.3c-0.5,1.3-1.3,2.4-2.5,3.3c-1.2,0.9-2.7,1.3-4.4,1.3c-1.5,0-2.9-0.3-4.1-1c-1.2-0.7-2.1-1.7-2.8-2.9s-1-2.7-1-4.4
		C777,500.4,777.3,499,778,497.7z M790.8,498.3c-0.6-1.1-1.4-1.9-2.4-2.5c-1-0.6-2.2-0.9-3.4-0.9c-1.3,0-2.5,0.3-3.5,0.9
		c-1,0.6-1.8,1.4-2.3,2.5c-0.6,1.1-0.8,2.4-0.8,3.8c0,1.5,0.3,2.8,0.8,3.8c0.6,1.1,1.3,1.9,2.4,2.5c1,0.6,2.2,0.9,3.5,0.9
		c1.3,0,2.4-0.3,3.4-0.9c1-0.6,1.8-1.4,2.4-2.5c0.6-1.1,0.9-2.4,0.9-3.8C791.7,500.7,791.4,499.4,790.8,498.3z"/>
	<path d="M797.9,490c-0.2-0.2-0.3-0.5-0.3-0.9c0-0.3,0.1-0.6,0.3-0.8c0.2-0.2,0.5-0.3,0.8-0.3c0.3,0,0.6,0.1,0.8,0.3
		c0.2,0.2,0.3,0.5,0.3,0.8c0,0.4-0.1,0.6-0.3,0.9c-0.2,0.2-0.5,0.3-0.8,0.3C798.4,490.3,798.1,490.2,797.9,490z M799.3,494v16.3H798
		V494H799.3z"/>
	<path d="M810.5,495.2h-4.2v15.1h-1.3v-15.1h-2.5V494h2.5v-1.1c0-1.7,0.4-3,1.3-3.8c0.9-0.8,2.3-1.2,4.2-1.2v1.2
		c-1.6,0-2.6,0.3-3.3,0.9s-0.9,1.6-0.9,2.9v1.1h4.2V495.2z"/>
	<path d="M820.2,495.2h-4.2v15.1h-1.4v-15.1h-2.5V494h2.5v-1.1c0-1.7,0.4-3,1.3-3.8c0.9-0.8,2.3-1.2,4.2-1.2v1.2
		c-1.6,0-2.6,0.3-3.3,0.9c-0.6,0.6-0.9,1.6-0.9,2.9v1.1h4.2V495.2z"/>
	<path d="M838.2,502.6h-14.1c0,1.5,0.4,2.7,1,3.7c0.6,1,1.4,1.8,2.4,2.3c1,0.5,2,0.8,3.2,0.8c1.6,0,2.9-0.4,4-1.2
		c1.1-0.8,1.8-1.9,2-3.2h1.4c-0.3,1.7-1.1,3-2.5,4c-1.3,1-3,1.5-5,1.5c-1.5,0-2.9-0.3-4.1-1c-1.2-0.7-2.1-1.7-2.8-2.9
		c-0.7-1.3-1-2.8-1-4.5c0-1.7,0.3-3.2,1-4.4c0.7-1.3,1.6-2.2,2.8-2.9c1.2-0.7,2.6-1,4.1-1c1.6,0,2.9,0.3,4.1,1
		c1.2,0.7,2,1.6,2.6,2.7c0.6,1.1,0.9,2.3,0.9,3.6C838.3,501.7,838.3,502.3,838.2,502.6z M836.2,497.9c-0.6-1-1.3-1.7-2.3-2.2
		c-1-0.5-2-0.7-3.2-0.7s-2.2,0.2-3.2,0.7c-1,0.5-1.8,1.2-2.4,2.2c-0.6,1-0.9,2.2-1,3.7h12.8C837,500.1,836.7,498.9,836.2,497.9z"/>
	<path d="M845.8,494.6c1-0.6,2.3-0.9,3.9-0.9v1.4h-0.5c-1.6,0-2.9,0.5-4,1.4c-1.1,0.9-1.6,2.4-1.6,4.5v9.4h-1.3V494h1.3v3.4
		C844.1,496.1,844.8,495.2,845.8,494.6z"/>
	<path d="M867.5,502.6h-14.1c0,1.5,0.4,2.7,1,3.7c0.6,1,1.4,1.8,2.4,2.3c1,0.5,2,0.8,3.2,0.8c1.6,0,2.9-0.4,4-1.2
		c1.1-0.8,1.8-1.9,2-3.2h1.4c-0.3,1.7-1.1,3-2.5,4c-1.3,1-3,1.5-5,1.5c-1.5,0-2.9-0.3-4.1-1c-1.2-0.7-2.1-1.7-2.8-2.9
		c-0.7-1.3-1-2.8-1-4.5c0-1.7,0.3-3.2,1-4.4c0.7-1.3,1.6-2.2,2.8-2.9c1.2-0.7,2.6-1,4.1-1c1.6,0,2.9,0.3,4.1,1
		c1.1,0.7,2,1.6,2.6,2.7c0.6,1.1,0.9,2.3,0.9,3.6C867.5,501.7,867.5,502.3,867.5,502.6z M865.4,497.9c-0.6-1-1.3-1.7-2.3-2.2
		c-1-0.5-2-0.7-3.2-0.7c-1.1,0-2.2,0.2-3.2,0.7c-1,0.5-1.8,1.2-2.4,2.2c-0.6,1-0.9,2.2-1,3.7h12.8
		C866.2,500.1,866,498.9,865.4,497.9z"/>
	<path d="M883.7,495.4c1.2,1.2,1.8,3,1.8,5.3v9.5h-1.3v-9.5c0-1.9-0.5-3.4-1.5-4.5c-1-1-2.3-1.5-4-1.5c-1.8,0-3.2,0.6-4.2,1.7
		c-1,1.1-1.6,2.8-1.6,5v8.8h-1.4V494h1.4v3.5c0.5-1.2,1.2-2.2,2.3-2.8c1.1-0.6,2.3-1,3.7-1C880.9,493.6,882.5,494.2,883.7,495.4z"/>
	<path d="M892.3,495.1v10.8c0,1.2,0.2,2,0.7,2.5c0.4,0.5,1.2,0.7,2.3,0.7h1.8v1.2h-2c-1.4,0-2.5-0.3-3.1-1c-0.7-0.7-1-1.8-1-3.3
		v-10.8h-2.5V494h2.5v-4.1h1.3v4.1h4.8v1.2H892.3z"/>
	<path d="M899.7,510c-0.2-0.2-0.3-0.5-0.3-0.8c0-0.3,0.1-0.6,0.3-0.8c0.2-0.2,0.5-0.3,0.8-0.3c0.3,0,0.6,0.1,0.8,0.3
		c0.2,0.2,0.3,0.5,0.3,0.8c0,0.3-0.1,0.6-0.3,0.8c-0.2,0.2-0.5,0.3-0.8,0.3C900.1,510.4,899.9,510.2,899.7,510z"/>
</g>
<g>
	<path d="M320.3,202.8c1.2-5.8,3.9-11.1,8-15.9c4.1-4.8,9-7.8,14.8-9.1c-3.1,1.1-5.8,3.3-7.9,6.8c-2.1,3.5-3.1,7.2-3.1,11
		c0,2.5,0.4,4.5,1.3,6c0.9,1.6,3.6,3.9,8.2,7c4.6,3.1,7.3,4.9,8,5.6l-11.8,17.3c-6.8-3.1-11.5-6.7-14.1-10.6s-3.9-8-3.9-12.2
		c0-1,0-2.2,0-3.4C320.1,204.2,320.3,203.3,320.3,202.8z M369.7,202.8c1.2-5.8,3.9-11.1,8-15.9c4.1-4.8,9-7.8,14.8-9.1
		c-3.1,1.1-5.8,3.3-7.9,6.8c-2.1,3.5-3.1,7.2-3.1,11c0,2.5,0.4,4.5,1.3,6c0.9,1.6,3.6,3.9,8.2,7c4.6,3.1,7.3,4.9,8,5.6l-11.8,17.3
		c-6.8-3.1-11.5-6.7-14.1-10.6s-3.9-8-3.9-12.2c0-1,0-2.2,0-3.4C369.6,204.2,369.7,203.3,369.7,202.8z"/>
</g>
</svg>
