<?xml version="1.0" encoding="utf-8"?>
<!-- Generator: Adobe Illustrator 22.1.0, SVG Export Plug-In . SVG Version: 6.00 Build 0)  -->
<svg version="1.1" id="Layer_2" xmlns="http://www.w3.org/2000/svg" xmlns:xlink="http://www.w3.org/1999/xlink" x="0px" y="0px"
	 viewBox="0 0 610 470" style="enable-background:new 0 0 610 470;" xml:space="preserve">
<style type="text/css">
	.st0{fill:none;}
	.st1{fill:#616160;}
	.st2{font-family:'Cinzel-Regular';}
	.st3{font-size:52.5655px;}
	.st4{font-size:31.1927px;}
	.st5{fill:#09A552;}
</style>
<g>
	<rect x="141.2" y="262.6" class="st0" width="310.2" height="199.3"/>
	<text transform="matrix(1.0697 0 0 1 158.416 294.1417)"><tspan x="0" y="0" class="st1 st2 st3">SHRAMBA</tspan><tspan x="44.6" y="37.4" class="st1 st2 st4">LJUBLJANA</tspan></text>
</g>
<path class="st5" d="M282.3,170v53.7c-0.4,0-0.4,0.4-0.9,0.4c-15.3,0-38.7-2.6-46.3-3.8c-3.8-0.4-4.3-2.1-4.3-5.1v-69.8
	c0-2.1,0.4-5.5,3.4-6.4c7.2-1.7,30.2-3.8,45.1-4.7h3V170z M298.5,136.8v84.7c-3.8,0.4-7.7,0.9-11.5,1.7v-88.5
	C290.8,135.1,294.6,136,298.5,136.8L298.5,136.8z M312.9,170.4c0,6.4-0.4,39.2-0.4,49c-3.4,0.4-7.2,0.9-10.6,1.7v-83.4h0.4
	c3.4,0.4,6.8,1.3,10.2,1.7C312.5,148.7,312.9,164.1,312.9,170.4L312.9,170.4z M327.4,142.4v74.5c-3.8,0.4-7.2,1.3-10.6,1.7v-78.3
	C320.2,140.7,323.6,141.5,327.4,142.4L327.4,142.4z M342.3,145.3v69c-3.8,0.4-7.7,1.3-11.5,1.7v-73.2L342.3,145.3z M345.7,213.9
	v-68.1c1.3,0.4,2.6,0.4,4.3,0.9c3.4,0.4,4.7,1.3,4.7,4.7v57.5c0,2.6-0.9,3.8-3.8,4.3C349.1,213,347.4,213.5,345.7,213.9L345.7,213.9
	z M233.4,217.6c0,3,0.5,6.8,3.8,7.3l49.6,0.1l-44.9-5.9c-2.4-0.5-4.2-2-3.8-6.5v-55.8c-0.5-5,1.9-7,5.2-7.9l31.1-7l-37.3,4
	c-3.3,0-3.8,3-3.8,6V217.6z M225.4,167.5c0,11.1,0.4,39.6,0,50.7c0,3.8,0.9,5.1,5.1,6.4c7.7,1.7,34.4,4.3,50.6,4.3
	c26.4-3.8,47.6-8.5,73.5-12.3c3.4-0.9,3.8-2.6,3.8-5.5v-60.5c0-4.3-0.4-5.1-4.7-6.4c-18.3-3-31.9-6.8-50.2-10.6
	c-8.1-1.3-16.2-4.3-24.7-3.4c-17,0.9-42.5,3-49.3,5.5c-3.8,0.9-4.3,5.1-4.3,6.8C225.8,153.8,225.4,156.8,225.4,167.5z"/>
</svg>
