<?xml version="1.0" encoding="utf-8"?>
<!-- Generator: Adobe Illustrator 22.1.0, SVG Export Plug-In . SVG Version: 6.00 Build 0)  -->
<svg version="1.1" id="Layer_1" xmlns="http://www.w3.org/2000/svg" xmlns:xlink="http://www.w3.org/1999/xlink" x="0px" y="0px"
	 viewBox="0 0 1366 150" style="enable-background:new 0 0 1366 150;" xml:space="preserve">
<style type="text/css">
	.st0{opacity:0.7;enable-background:new    ;}
	.st1{opacity:0.7;}
	.st2{fill:#FFFFFF;}
	.st3{clip-path:url(#SVGID_2_);fill:#241F21;}
</style>
<g>
	<path class="st0" d="M260.2,81c0,0.1,0,0.2,0,0.3c0,3.4,2.2,5.5,5.1,5.5c2.1,0,3.6-1,4.9-3.3l1.8,1.3c-1.6,2.9-3.7,4.3-6.9,4.3
		c-4.7,0-7.6-3.4-7.6-8.5c0-4.9,2.9-8.3,7.5-8.3s7.1,3.1,7.1,8.2c0,0.2,0,0.3,0,0.6C272.1,81,260.2,81,260.2,81z M264.9,74.6
		c-2.5,0-4.4,1.6-4.7,4.3h9.4C269.4,76.1,267.6,74.6,264.9,74.6z"/>
	<g class="st1">
		<path d="M146.1,72.7v2.2h7.5v3.8l0,0c-2.3-1.1-10.1-2.5-10.2,4.8c-0.1,3.3,2.3,5.6,5.5,5.6c2.1,0,3.9-1,4.7-2.5v2.1h2.5V72.7
			C156.1,72.7,146.1,72.7,146.1,72.7z M153.6,81c0,1.8-0.2,3-0.8,3.9c-0.7,1.3-2.1,2-3.5,2c-2.1,0-3.7-1.5-3.6-3.5
			c0.1-4.5,6.2-4.1,7.8-2.6l0,0L153.6,81L153.6,81z"/>
	</g>
	<g class="st1">
		<path d="M118.2,72.7v2.2h6.9v3.8l0,0c-2.3-1.1-10.1-2.5-10.2,4.8c-0.1,3.3,2.3,5.6,5.5,5.6c2.1,0,3.9-1,4.7-2.5v2.1h2.4V72.7
			C127.5,72.7,118.2,72.7,118.2,72.7z M124.9,81c0,1.8-0.2,3-0.8,3.9c-0.7,1.3-2.1,2-3.5,2c-2.1,0-3.7-1.5-3.6-3.5
			c0.1-4.5,6.2-4.1,7.8-2.6l0,0L124.9,81L124.9,81z"/>
	</g>
	<path class="st0" d="M174.8,80.6c0-4.8-3.2-8.3-7.5-8.3c-2.3,0-4,0.8-5.9,2.9V65.2h-2.5v23.4h2.5v-2.3c1.7,2,3.4,2.9,5.8,2.9
		C171.6,89,174.8,85.5,174.8,80.6L174.8,80.6z M172.1,80.6c0,3.6-2.3,6.1-5.4,6.1c-3.2,0-5.4-2.5-5.4-6.1s2.3-6.1,5.4-6.1
		C169.8,74.6,172.1,77.1,172.1,80.6"/>
	<path class="st0" d="M192.4,80.6c0-4.8-3.2-8.3-7.5-8.3c-2.3,0-4,0.8-5.9,2.9V65.2h-2.6v23.4h2.5v-2.3c1.7,2,3.4,2.9,5.8,2.9
		C189.2,89,192.4,85.5,192.4,80.6L192.4,80.6z M189.7,80.6c0,3.6-2.3,6.1-5.4,6.1c-3.2,0-5.4-2.5-5.4-6.1s2.3-6.1,5.4-6.1
		C187.3,74.6,189.7,77.1,189.7,80.6"/>
	<polygon class="st0" points="141.6,88.5 141.6,72.7 130.2,72.7 130.2,88.5 132.8,88.5 132.8,74.8 139.1,74.8 139.1,88.5 	"/>
	<polygon class="st0" points="228.9,88.5 228.9,72.7 210,72.7 210,88.5 212.7,88.5 212.7,74.8 218.3,74.8 218.3,88.5 220.8,88.5 
		220.8,74.8 226.3,74.8 226.3,88.5 	"/>
	<polygon class="st0" points="113.9,72.7 109.1,83.6 104.2,72.7 101.4,72.7 109.1,89.2 116.7,72.7 	"/>
	<polyline class="st0" points="307.1,88.5 307.1,72.7 288.3,72.7 288.3,88.5 290.9,88.5 290.9,74.8 296.4,74.8 296.4,88.5 299,88.5 
		299,74.8 304.5,74.8 304.5,88.5 307.1,88.5 	"/>
	<polygon class="st0" points="231.6,72.7 234.2,72.7 234.2,86.3 241,86.3 241,72.7 243.6,72.7 243.6,88.5 231.6,88.5 	"/>
	<polygon class="st0" points="273.6,88.5 285.5,88.5 285.5,72.7 283,72.7 283,86.3 276.2,86.3 276.2,72.7 273.6,72.7 	"/>
	<path class="st0" d="M247.1,84.3c0.9,1.6,2.3,2.3,4,2.3c1.8,0,2.9-0.9,2.9-2.3c0-1.3-0.8-2-2.4-2.4c-3.9-1.3-6.1-2.1-6.1-4.9
		s2.2-4.7,5.4-4.7c2.4,0,4.1,0.8,5.4,2.9l-2.1,1.3c-0.7-1.3-1.8-2-3.5-2c-1.6,0-2.6,0.9-2.6,2.3c0,1.6,1.4,1.8,3.9,2.6
		c3,0.9,4.5,2.3,4.5,4.6c0,2.9-2.3,4.9-5.6,4.9c-2.5,0-4.7-0.9-6-3.3L247.1,84.3z"/>
	<path class="st0" d="M196.5,81c0,0.1,0,0.2,0,0.3c0,3.4,2.2,5.5,5.1,5.5c2.1,0,3.6-1,4.9-3.3l1.8,1.3c-1.6,2.9-3.7,4.3-6.9,4.3
		c-4.7,0-7.6-3.4-7.6-8.5c0-4.9,2.9-8.3,7.5-8.3s7.1,3.1,7.1,8.2c0,0.2,0,0.3,0,0.6C208.5,81,196.5,81,196.5,81z M201.2,74.6
		c-2.5,0-4.4,1.6-4.7,4.3h9.4C205.7,76.1,203.9,74.6,201.2,74.6z"/>
</g>
<g>
	<g class="st1">
		<rect x="427.3" y="33" width="198.3" height="59.5"/>
		<path class="st2" d="M451.1,52.9h16.5c5.8,0,7.2,2.9,7.2,6.8v1.7c0,2.9-1.3,6.3-5.7,6.3h-12v5h-6.1L451.1,52.9 M457.2,62.9h9.4
			c1.5,0,2-0.9,2-2.1v-0.8c0-1.4-0.7-2.1-2.6-2.1h-8.8V62.9L457.2,62.9z"/>
		<polygon class="st2" points="502.9,52.9 526.6,52.9 526.6,57.9 517.8,57.9 517.8,72.8 511.7,72.8 511.7,57.9 502.9,57.9 		"/>
		<path class="st2" d="M529.1,52.9h18.6c4.7,0,6,2.4,6,5.9V60c0,2.7-0.6,4.3-3.4,4.9V65c1.8,0.3,3.3,1.1,3.3,4.4v3.3h-6.2v-2.4
			c0-2.1-0.7-2.7-2.6-2.7h-9.7v5.1H529L529.1,52.9 M535.2,62.7h10.2c1.6,0,2.3-0.7,2.3-2.1v-0.7c0-1.8-0.9-2.1-2.8-2.1h-9.6
			L535.2,62.7L535.2,62.7z"/>
		<path class="st2" d="M556.2,59.9c0-5.8,3.3-7.2,8.7-7.2h9.8c5.5,0,8.7,1.4,8.7,7.2v5.8c0,5.8-3.3,7.2-8.7,7.2H565
			c-5.5,0-8.7-1.4-8.7-7.2V59.9 M562.6,63.9c0,2.8,0.6,4,3.5,4h7.7c2.8,0,3.5-1,3.5-4v-2.1c0-2.5-0.6-4-3.9-4h-7.1
			c-3.2,0-3.9,1.5-3.9,4L562.6,63.9L562.6,63.9z"/>
		<path class="st2" d="M479.6,72.8c-1.2,0-2.2-0.9-2.2-2.2l0,0V55.3l0,0v-0.1v-0.2l0,0c0-1.2,0.9-2.2,2.2-2.2c0.3,0,0.7,0,0.8,0h20
			v4.6h-16.8v3.2h15.9v4.3h-15.9v3.2h17v4.7H479.6"/>
		<polygon class="st2" points="586,72.8 586,52.9 592.2,52.9 592.2,67.6 605.9,67.6 605.9,72.8 		"/>
	</g>
	<g class="st1">
		<path d="M431.9,104.5h11v2.3h-8.2v4h7.6v2.2h-7.6v4.4h8.4v2.3h-11L431.9,104.5L431.9,104.5z"/>
		<path d="M445,108.7h2.3v1.6l0.1,0.1c0.4-0.6,0.9-1,1.5-1.5c0.6-0.3,1.2-0.5,2-0.5c1.2,0,2.1,0.3,2.8,0.9c0.7,0.7,1,1.5,1,2.7v7.5
			h-2.5v-6.9c0-0.9-0.3-1.5-0.6-1.9c-0.3-0.4-0.9-0.6-1.6-0.6c-0.4,0-0.9,0.1-1.1,0.3c-0.3,0.2-0.6,0.3-0.9,0.7
			c-0.3,0.3-0.4,0.6-0.6,0.9c-0.2,0.3-0.2,0.8-0.2,1.1v6.4h-2.5L445,108.7L445,108.7z"/>
		<path d="M458.9,114.8c0,0.4,0.1,0.9,0.2,1.2c0.1,0.4,0.3,0.8,0.6,1c0.3,0.3,0.6,0.6,0.9,0.8c0.4,0.2,0.9,0.3,1.3,0.3
			c0.8,0,1.3-0.2,1.7-0.5c0.4-0.3,0.8-0.8,0.9-1.4h2.3c-0.2,0.6-0.3,1.1-0.7,1.6s-0.7,0.9-1.1,1.1c-0.4,0.3-0.9,0.6-1.5,0.8
			s-1.1,0.3-1.7,0.3c-0.9,0-1.6-0.2-2.3-0.4c-0.7-0.3-1.2-0.7-1.7-1.2c-0.5-0.5-0.9-1.1-1-1.8c-0.3-0.8-0.3-1.5-0.3-2.4
			c0-0.9,0.2-1.5,0.4-2.2c0.3-0.8,0.6-1.3,1-1.9c0.5-0.6,0.9-0.9,1.6-1.2c0.7-0.3,1.4-0.5,2.2-0.5c0.9,0,1.6,0.2,2.3,0.6
			c0.7,0.3,1.2,0.9,1.7,1.5s0.9,1.3,0.9,2.1c0.3,0.8,0.3,1.5,0.2,2.4L458.9,114.8L458.9,114.8z M464.7,113.1c0-0.4-0.1-0.8-0.3-1.1
			c-0.2-0.3-0.3-0.7-0.6-0.9c-0.3-0.3-0.5-0.5-0.9-0.7c-0.3-0.2-0.8-0.3-1.1-0.3c-0.4,0-0.9,0.1-1.1,0.3c-0.3,0.2-0.7,0.3-0.9,0.7
			c-0.3,0.3-0.4,0.6-0.6,0.9c-0.2,0.3-0.3,0.8-0.3,1.1H464.7z"/>
		<path d="M468.9,108.7h2.3v2.1h0.1c0.1-0.3,0.3-0.6,0.4-0.9c0.3-0.3,0.5-0.6,0.8-0.8c0.3-0.3,0.6-0.4,0.9-0.6
			c0.3-0.2,0.8-0.3,1-0.3s0.5,0,0.6,0c0.1,0,0.3,0,0.3,0.1v2.4c-0.2,0-0.3-0.1-0.5-0.1s-0.3,0-0.5,0c-0.4,0-0.9,0.1-1.1,0.3
			c-0.3,0.2-0.7,0.4-0.9,0.8s-0.5,0.8-0.7,1.1c-0.2,0.5-0.3,0.9-0.3,1.6v5.2h-2.5C468.9,119.7,468.9,108.7,468.9,108.7z"/>
		<path d="M486.5,119c0,1.6-0.5,2.8-1.4,3.7c-0.9,0.9-2.3,1.2-4,1.2c-0.6,0-1.1-0.1-1.6-0.2c-0.6-0.1-1-0.3-1.5-0.6
			c-0.5-0.3-0.9-0.7-1.1-1c-0.3-0.4-0.5-0.9-0.6-1.6h2.5c0.1,0.3,0.2,0.7,0.3,0.9c0.2,0.3,0.4,0.4,0.6,0.5c0.3,0.1,0.5,0.2,0.8,0.3
			c0.3,0,0.6,0.1,0.9,0.1c0.9,0,1.7-0.3,2.1-0.8c0.5-0.5,0.7-1.1,0.7-2.1v-1.7H484c-0.3,0.6-0.9,1-1.4,1.4c-0.6,0.3-1.2,0.5-1.9,0.5
			c-0.9,0-1.6-0.2-2.2-0.5c-0.7-0.3-1.1-0.8-1.5-1.2c-0.4-0.6-0.8-1.1-0.9-1.8c-0.1-0.7-0.3-1.5-0.3-2.2c0-0.8,0.1-1.5,0.3-2.1
			c0.3-0.7,0.6-1.2,0.9-1.7c0.4-0.5,0.9-0.9,1.5-1.2c0.7-0.3,1.3-0.4,2.1-0.4c0.7,0,1.3,0.2,1.9,0.4c0.6,0.3,1,0.8,1.3,1.4h0.1v-1.5
			h2.5L486.5,119L486.5,119z M481.1,117.7c0.6,0,0.9-0.1,1.4-0.3c0.4-0.3,0.7-0.5,0.9-0.9c0.3-0.3,0.4-0.8,0.5-1.2s0.2-0.9,0.2-1.4
			c0-0.5-0.1-0.9-0.2-1.4s-0.3-0.9-0.5-1.1c-0.3-0.3-0.6-0.6-0.9-0.9c-0.4-0.2-0.9-0.3-1.4-0.3c-0.5,0-0.9,0.1-1.4,0.3
			c-0.4,0.3-0.7,0.5-0.9,0.9c-0.3,0.3-0.4,0.8-0.5,1.2c-0.1,0.4-0.2,0.9-0.2,1.4s0.1,0.9,0.2,1.3c0.1,0.4,0.3,0.9,0.5,1.1
			c0.3,0.3,0.5,0.7,0.9,0.9C480.2,117.7,480.7,117.7,481.1,117.7z"/>
		<path d="M489,104.5h2.5v2.3H489V104.5z M489,108.7h2.5v11H489V108.7z"/>
		<path d="M494.1,108.7h2.5v11.9c0,1-0.3,2-0.8,2.6c-0.5,0.6-1.3,0.9-2.5,0.9c-0.3,0-0.4,0-0.6,0s-0.3,0-0.5-0.1v-2
			c0.2,0,0.3,0.1,0.4,0.1c0.2,0,0.3,0,0.4,0c0.4,0,0.8-0.2,0.9-0.4c0.1-0.3,0.2-0.7,0.2-1.2V108.7z M494.1,104.5h2.5v2.3h-2.5V104.5
			z"/>
		<path d="M508.3,117.1c0,0.3,0,0.5,0.1,0.7c0.1,0.2,0.3,0.2,0.5,0.2c0.1,0,0.2,0,0.3,0c0.1,0,0.3,0,0.3-0.1v1.7
			c-0.1,0-0.2,0.1-0.3,0.1s-0.3,0.1-0.4,0.1s-0.3,0.1-0.4,0.1s-0.3,0-0.3,0c-0.5,0-0.9-0.1-1.2-0.3c-0.3-0.2-0.6-0.6-0.7-1
			c-0.5,0.5-1,0.9-1.8,0.9c-0.8,0.3-1.4,0.3-2.1,0.3c-0.5,0-0.9-0.1-1.4-0.2c-0.5-0.2-0.9-0.3-1.2-0.6s-0.7-0.6-0.9-0.9
			c-0.3-0.4-0.3-0.9-0.3-1.4c0-0.7,0.2-1.2,0.4-1.6c0.3-0.4,0.6-0.8,0.9-0.9c0.4-0.3,0.9-0.4,1.4-0.5c0.5-0.1,0.9-0.2,1.5-0.3
			c0.4-0.1,0.9-0.2,1.2-0.2s0.8-0.1,1-0.2c0.3-0.1,0.6-0.3,0.8-0.4c0.2-0.2,0.3-0.4,0.3-0.9c0-0.3-0.1-0.6-0.3-0.8s-0.3-0.3-0.6-0.5
			c-0.3-0.1-0.5-0.2-0.8-0.3c-0.3,0-0.5-0.1-0.8-0.1c-0.7,0-1.2,0.2-1.7,0.4c-0.4,0.3-0.7,0.8-0.8,1.3h-2.5c0.1-0.8,0.3-1.3,0.5-1.8
			c0.3-0.5,0.7-0.9,1.1-1.1c0.5-0.3,0.9-0.5,1.5-0.6c0.6-0.1,1.1-0.2,1.8-0.2c0.6,0,1,0.1,1.6,0.2c0.5,0.1,0.9,0.3,1.4,0.6
			c0.4,0.3,0.8,0.6,0.9,0.9c0.3,0.4,0.4,0.9,0.4,1.5C508.3,111.4,508.3,117.1,508.3,117.1z M505.9,114.2c-0.4,0.3-0.9,0.4-1.4,0.4
			c-0.6,0.1-1,0.2-1.6,0.3c-0.3,0.1-0.5,0.1-0.8,0.2c-0.3,0.1-0.5,0.2-0.7,0.3s-0.3,0.3-0.4,0.6c-0.1,0.3-0.2,0.5-0.2,0.9
			c0,0.3,0.1,0.5,0.3,0.7c0.2,0.2,0.3,0.3,0.6,0.4c0.3,0.1,0.5,0.2,0.8,0.3c0.3,0.1,0.5,0.1,0.8,0.1c0.3,0,0.6,0,0.9-0.1
			c0.3-0.1,0.6-0.2,0.9-0.3c0.3-0.2,0.5-0.4,0.7-0.7c0.2-0.3,0.3-0.6,0.3-0.9C505.9,116,505.9,114.2,505.9,114.2z"/>
		<path d="M516.5,108.7h8.9v1.7l-6.3,7.4h6.6v1.9h-9.6v-1.7l6-7.4h-5.7L516.5,108.7L516.5,108.7z"/>
		<path d="M536.6,117.1c0,0.3,0,0.5,0.1,0.7c0.1,0.2,0.3,0.2,0.5,0.2c0.1,0,0.2,0,0.3,0c0.1,0,0.3,0,0.3-0.1v1.7
			c-0.1,0-0.2,0.1-0.3,0.1c-0.2,0-0.3,0.1-0.4,0.1c-0.2,0-0.3,0.1-0.4,0.1c-0.2,0-0.3,0-0.3,0c-0.5,0-0.9-0.1-1.2-0.3
			c-0.3-0.2-0.6-0.6-0.7-1c-0.5,0.5-1,0.9-1.8,0.9c-0.8,0.3-1.4,0.3-2.1,0.3c-0.5,0-0.9-0.1-1.4-0.2c-0.5-0.2-0.9-0.3-1.2-0.6
			s-0.7-0.6-0.9-0.9c-0.3-0.4-0.3-0.9-0.3-1.4c0-0.7,0.2-1.2,0.4-1.6c0.3-0.4,0.6-0.8,0.9-0.9c0.4-0.3,0.9-0.4,1.4-0.5
			c0.5-0.1,0.9-0.2,1.5-0.3c0.4-0.1,0.9-0.2,1.2-0.2c0.4,0,0.8-0.1,1-0.2c0.3-0.1,0.6-0.3,0.8-0.4c0.2-0.2,0.3-0.4,0.3-0.9
			c0-0.3-0.1-0.6-0.3-0.8c-0.2-0.2-0.3-0.3-0.6-0.5c-0.3-0.1-0.5-0.2-0.8-0.3c-0.3,0-0.5-0.1-0.8-0.1c-0.7,0-1.2,0.2-1.7,0.4
			c-0.4,0.3-0.7,0.8-0.8,1.3h-2.5c0.1-0.8,0.3-1.3,0.5-1.8c0.3-0.5,0.7-0.9,1.1-1.1c0.5-0.3,0.9-0.5,1.5-0.6
			c0.6-0.1,1.1-0.2,1.8-0.2c0.6,0,1,0.1,1.6,0.2c0.5,0.1,0.9,0.3,1.4,0.6c0.4,0.3,0.8,0.6,0.9,0.9c0.3,0.4,0.4,0.9,0.4,1.5
			L536.6,117.1L536.6,117.1z M534.2,114.2c-0.4,0.3-0.9,0.4-1.4,0.4c-0.6,0.1-1,0.2-1.6,0.3c-0.3,0.1-0.5,0.1-0.8,0.2
			c-0.3,0.1-0.5,0.2-0.7,0.3c-0.2,0.2-0.3,0.3-0.4,0.6c-0.1,0.3-0.2,0.5-0.2,0.9c0,0.3,0.1,0.5,0.3,0.7c0.2,0.2,0.3,0.3,0.6,0.4
			c0.3,0.1,0.5,0.2,0.8,0.3c0.3,0.1,0.5,0.1,0.8,0.1s0.6,0,0.9-0.1c0.3-0.1,0.6-0.2,0.9-0.3c0.3-0.2,0.5-0.4,0.7-0.7
			c0.2-0.3,0.3-0.6,0.3-0.9V114.2L534.2,114.2z"/>
		<path d="M544.7,108.7h8.9v1.7l-6.3,7.4h6.6v1.9h-9.6v-1.7l6-7.4h-5.7L544.7,108.7L544.7,108.7z M550.4,107.1H548l-2.3-3h2l1.5,1.9
			l1.5-1.9h2L550.4,107.1z"/>
		<path d="M555.8,104.5h2.5v2.3h-2.5V104.5z M555.8,108.7h2.5v11h-2.5V108.7z"/>
		<path d="M559.7,108.7h2.6l2.7,8.4h0.1l2.7-8.4h2.6l-3.9,11h-2.7L559.7,108.7z"/>
		<path d="M571.9,104.5h2.5v15.2h-2.5V104.5z"/>
		<path d="M577,108.7h2.5v11.9c0,1-0.3,2-0.8,2.6c-0.5,0.6-1.3,0.9-2.5,0.9c-0.3,0-0.4,0-0.6,0c-0.2,0-0.3,0-0.5-0.1v-2
			c0.2,0,0.3,0.1,0.4,0.1c0.2,0,0.3,0,0.4,0c0.4,0,0.8-0.2,0.9-0.4c0.1-0.3,0.2-0.7,0.2-1.2V108.7z M577,104.5h2.5v2.3H577V104.5z"
			/>
		<path d="M584,114.8c0,0.4,0.1,0.9,0.2,1.2c0.1,0.4,0.3,0.8,0.6,1c0.3,0.3,0.6,0.6,0.9,0.8c0.4,0.2,0.9,0.3,1.3,0.3
			c0.8,0,1.3-0.2,1.7-0.5c0.4-0.3,0.8-0.8,0.9-1.4h2.3c-0.2,0.6-0.3,1.1-0.7,1.6c-0.3,0.5-0.7,0.9-1.1,1.1c-0.4,0.3-0.9,0.6-1.5,0.8
			c-0.6,0.2-1.1,0.3-1.7,0.3c-0.9,0-1.6-0.2-2.3-0.4c-0.7-0.3-1.2-0.7-1.7-1.2s-0.9-1.1-1-1.8c-0.3-0.8-0.3-1.5-0.3-2.4
			c0-0.9,0.2-1.5,0.4-2.2c0.3-0.8,0.6-1.3,1-1.9c0.5-0.6,0.9-0.9,1.6-1.2c0.7-0.3,1.4-0.5,2.2-0.5c0.9,0,1.6,0.2,2.3,0.6
			c0.7,0.3,1.2,0.9,1.7,1.5s0.9,1.3,0.9,2.1c0.3,0.8,0.3,1.5,0.2,2.4L584,114.8L584,114.8z M589.6,113.1c0-0.4-0.1-0.8-0.3-1.1
			c-0.2-0.3-0.3-0.7-0.6-0.9c-0.3-0.3-0.5-0.5-0.9-0.7c-0.3-0.2-0.8-0.3-1.1-0.3c-0.4,0-0.9,0.1-1.1,0.3c-0.3,0.2-0.7,0.3-0.9,0.7
			c-0.3,0.3-0.4,0.6-0.6,0.9c-0.2,0.3-0.3,0.8-0.3,1.1H589.6z"/>
		<path d="M593.8,108.7h2.3v1.6l0.1,0.1c0.4-0.6,0.9-1,1.5-1.5c0.6-0.3,1.2-0.5,2-0.5c1.2,0,2.1,0.3,2.8,0.9c0.7,0.7,1,1.5,1,2.7
			v7.5h-2.4v-6.9c0-0.9-0.3-1.5-0.6-1.9s-0.9-0.6-1.6-0.6c-0.4,0-0.9,0.1-1.1,0.3c-0.3,0.2-0.6,0.3-0.9,0.7
			c-0.3,0.3-0.4,0.6-0.6,0.9c-0.2,0.3-0.2,0.8-0.2,1.1v6.4h-2.5L593.8,108.7L593.8,108.7z"/>
		<path d="M606.1,108.7h2.5v11.9c0,1-0.3,2-0.8,2.6c-0.5,0.6-1.3,0.9-2.5,0.9c-0.3,0-0.4,0-0.6,0c-0.2,0-0.3,0-0.5-0.1v-2
			c0.2,0,0.3,0.1,0.4,0.1c0.2,0,0.3,0,0.4,0c0.4,0,0.8-0.2,0.9-0.4c0.1-0.3,0.2-0.7,0.2-1.2V108.7z M606.1,104.5h2.5v2.3h-2.5V104.5
			z"/>
		<path d="M613,114.8c0,0.4,0.1,0.9,0.2,1.2c0.1,0.4,0.3,0.8,0.6,1c0.3,0.3,0.6,0.6,0.9,0.8c0.4,0.2,0.9,0.3,1.3,0.3
			c0.8,0,1.3-0.2,1.7-0.5c0.4-0.3,0.8-0.8,0.9-1.4h2.3c-0.2,0.6-0.3,1.1-0.7,1.6s-0.7,0.9-1.1,1.1c-0.4,0.3-0.9,0.6-1.5,0.8
			c-0.6,0.2-1.1,0.3-1.7,0.3c-0.9,0-1.6-0.2-2.3-0.4c-0.7-0.3-1.2-0.7-1.7-1.2c-0.5-0.5-0.9-1.1-1-1.8c-0.3-0.8-0.3-1.5-0.3-2.4
			c0-0.9,0.2-1.5,0.4-2.2c0.3-0.8,0.6-1.3,1-1.9c0.4-0.6,0.9-0.9,1.6-1.2c0.7-0.3,1.4-0.5,2.2-0.5s1.6,0.2,2.3,0.6
			c0.7,0.3,1.2,0.9,1.7,1.5c0.5,0.6,0.9,1.3,0.9,2.1c0.3,0.8,0.3,1.5,0.2,2.4L613,114.8L613,114.8z M618.6,113.1
			c0-0.4-0.1-0.8-0.3-1.1c-0.2-0.3-0.3-0.7-0.6-0.9c-0.3-0.3-0.5-0.5-0.9-0.7c-0.3-0.2-0.8-0.3-1.1-0.3c-0.4,0-0.9,0.1-1.1,0.3
			c-0.3,0.2-0.7,0.3-0.9,0.7c-0.3,0.3-0.4,0.6-0.6,0.9c-0.2,0.3-0.3,0.8-0.3,1.1H618.6z"/>
	</g>
</g>
<g class="st1">
	<path d="M803.3,74.9V69h-4.8v5.9h-16.4v4.8h5.5v1.6c-0.8,1.4-2.5,2.5-5,2.5c-4,0-5.4-3.5-5.4-6.9c0-0.8,0.1-1.8,0.2-2.5
		c0.2-1.2,0.8-2.3,1.7-3.1c0.8-0.8,1.9-1.3,3.5-1.3c2.2,0,3.9,1,4.3,2.7l0,0h6c-0.7-5.1-4.8-7.5-9.1-7.8c-0.3-0.1-0.7-0.1-1-0.1
		c-3.6,0-6.5,1.4-8.5,3.6c-1.8,1.9-2.9,4.5-3.1,7.5V65.6h-9.1l-4,15.6H758l-4-15.6h-9v23.4h5.7V71.3h0.1l4.9,17.8h4.7l4.9-17.8h0.1
		v17.8h5.7V78c0.1,1.3,0.3,2.5,0.8,3.6c1.6,4.4,5.5,7.4,10.8,7.4c0.2,0,0.6,0,1-0.1c3.7-0.2,7.8-2.1,9.5-6.3v-3.1h0.8l0,0h4.6v5.9
		h4.8v-5.9h5.9v-4.8L803.3,74.9L803.3,74.9z"/>
	<path d="M869.5,79.8c0,3.1-1.1,4.6-4.1,4.6c-3,0-4.1-1.5-4.1-4.6V65.6h-6.1v13.7c0,0.4,0,0.8,0,1.1c-0.6-3.3-3.6-4.8-6.7-5.6
		c-3.4-0.9-6.8-1.3-6.8-3.1c0-1.5,1.6-1.9,3-1.9c1.9,0,3.9,0.7,3.7,2.8h6.1c0-5.2-4.8-7.5-9.4-7.5c-4.4,0-9.5,1.9-9.5,7.1
		c0,4.3,3.6,5.8,6.9,6.8c3.4,0.9,6.7,1.4,6.7,3.4c0,1.8-1.9,2.4-3.7,2.4c-2.6,0-4.3-0.9-4.4-3.6h-6.1V65.6h-9l-4,15.6l0,0l-4.1-15.6
		h-9v23.4h5.7V71.3h0.1l4.9,17.8h4.7l4.9-17.8h0.1v17.8h5.7V82c0.4,5.4,5,7.6,10.2,7.6s10.2-1.9,10.2-7.8c0-0.1,0-0.1,0-0.2
		c0.6,5.2,3.8,8,10.1,8c7,0,10.2-3.4,10.2-10.2V65.6h-6.1L869.5,79.8L869.5,79.8z"/>
	<polygon points="893.9,65.6 890,81.2 889.9,81.2 885.9,65.6 876.9,65.6 876.9,89.1 882.6,89.1 882.6,71.3 882.7,71.3 887.6,89.1 
		892.2,89.1 897.2,71.3 897.2,71.3 897.2,89.1 903,89.1 903,65.6 	"/>
</g>
<g class="st1">
	<g>
		<defs>
			<rect id="SVGID_1_" x="1023.3" y="60.1" width="220.7" height="36.6"/>
		</defs>
		<clipPath id="SVGID_2_">
			<use xlink:href="#SVGID_1_"  style="overflow:visible;"/>
		</clipPath>
		<path class="st3" d="M1034,66.2c1.4-0.2,1.5-0.9,1.5-2h-1.5v-4h4.2v3.6c0,2.4-1.1,4-4.2,4.2V66.2z M1237,72.7
			c-0.1-2.1-1.4-3.9-4-3.9c-2.5,0-3.7,2-3.9,3.9H1237z M1239.9,79.1c-1.2,2-3.2,3.7-6.7,3.7c-4.4,0-7.6-3.2-7.6-8.5s3.2-8.5,7.5-8.5
			c4.2,0,7.4,3.2,7.4,8.5v1h-11.2c0.1,2.6,1.5,4.4,4,4.4s3.6-1.6,4.2-2.7L1239.9,79.1z M1026.8,93.2V60.1h-3.6v36.6h220.7v-3.6
			h-217.1V93.2z M1218.4,60.1h3.6v22.2h-3.6V60.1z M1204.1,77.8c0,1.2,0.9,2,2.6,2c2.7,0,3.9-1.4,3.9-2.7v-3.2l0,0
			c-0.1,0.4-0.5,0.9-3.7,1.6C1204.4,76.2,1204.1,77,1204.1,77.8 M1211,80.8L1211,80.8c-0.2,0.2-1.5,2.1-4.6,2.1
			c-4,0-5.7-2.2-5.7-4.7c0-2.9,1.6-4.1,5.5-5c3.5-0.9,4.4-1.2,4.4-2.4c0-1-0.9-1.9-3-1.9c-2.5,0-3.2,1.4-3.6,2.9l-3-1.1
			c0.6-2.5,2.7-4.7,6.5-4.7c3.6,0,6.5,1.7,6.5,6.1v10.5h-3v-1.7H1211z M1183.7,66.2h3.4v1.6l0,0c0.9-1.1,2.5-2,4.4-2
			c3.5,0,5.7,2.2,5.7,6v10.6h-3.5v-9.6c0-2.4-0.9-3.7-3.1-3.7c-2.1,0-3.5,1.2-3.5,3.4v10h-3.5V66.2H1183.7z M1176.6,74.3
			c0-3.5-1.6-5.4-4-5.4c-2.4,0-4,1.9-4,5.4c0,3.6,1.6,5.4,4,5.4C1175,79.7,1176.6,77.8,1176.6,74.3 M1165.1,74.3
			c0-5.5,3.5-8.5,7.5-8.5c4,0,7.5,3,7.5,8.5c0,5.5-3.2,8.5-7.5,8.5C1168.4,82.8,1165.1,79.8,1165.1,74.3 M1157.9,66.2h3.5v16.1h-3.5
			V66.2z M1157.9,60.1h3.6v3.5h-3.6V60.1z M1146.9,69.2h-2.5v-3h2.5v-4h3.2v4h4v3h-4v7.4c0,1.6,0.4,2.4,2.1,2.4h1.2v3.4h-1.5
			c-4,0-5.2-1.9-5.2-5.4v-7.7H1146.9z M1131.8,77.8c0,1.2,0.9,2,2.6,2c2.7,0,3.9-1.4,3.9-2.7v-3.2l0,0c-0.1,0.4-0.5,0.9-3.7,1.6
			C1132.2,76.2,1131.8,77,1131.8,77.8 M1138.8,80.8L1138.8,80.8c-0.2,0.2-1.5,2.1-4.6,2.1c-4,0-5.7-2.2-5.7-4.7c0-2.9,1.6-4.1,5.5-5
			c3.5-0.9,4.4-1.2,4.4-2.4c0-1-0.9-1.9-3-1.9c-2.5,0-3.2,1.4-3.6,2.9l-3-1.1c0.6-2.5,2.7-4.7,6.5-4.7c3.6,0,6.5,1.7,6.5,6.1v10.5
			h-3v-1.7H1138.8z M1111.4,66.2h3.4v1.6l0,0c0.9-1.1,2.5-2,4.4-2c3.5,0,5.7,2.2,5.7,6v10.6h-3.5v-9.6c0-2.4-0.9-3.7-3.1-3.7
			c-2.1,0-3.5,1.2-3.5,3.4v10h-3.5V66.2H1111.4z M1100.2,66.2h3.2V68l0,0c0.6-1.2,2-2,3.4-2c0.6,0,1.1,0.1,1.4,0.2l-0.5,3.4
			c-0.4-0.1-0.7-0.2-1.2-0.2c-1.9,0-2.9,1.2-2.9,4v9h-3.5V66.2H1100.2z M1093.2,72.7c-0.1-2.1-1.4-3.9-4-3.9c-2.5,0-3.7,2-3.9,3.9
			H1093.2z M1096.1,79.1c-1.2,2-3.2,3.7-6.7,3.7c-4.4,0-7.6-3.2-7.6-8.5s3.2-8.5,7.5-8.5c4.2,0,7.4,3.2,7.4,8.5v1h-11.2
			c0.1,2.6,1.5,4.4,4,4.4s3.6-1.6,4.2-2.7L1096.1,79.1z M1072.6,69.2h-2.5v-3h2.5v-4h3.2v4h4v3h-4v7.4c0,1.6,0.4,2.4,2.1,2.4h1.2
			v3.4h-1.5c-4,0-5.2-1.9-5.2-5.4v-7.7H1072.6z M1053.8,66.2h3.4v1.6l0,0c0.9-1.1,2.5-2,4.4-2c3.5,0,5.7,2.2,5.7,6v10.6h-3.5v-9.6
			c0-2.4-0.9-3.7-3.1-3.7c-2.1,0-3.5,1.2-3.5,3.4v10h-3.5V66.2H1053.8z M1045.4,66.2h3.5v16.1h-3.5V66.2z M1045.4,60.1h3.6v3.5h-3.6
			V60.1z"/>
	</g>
</g>
</svg>
