<?xml version="1.0" encoding="utf-8"?>
<!-- Generator: Adobe Illustrator 22.1.0, SVG Export Plug-In . SVG Version: 6.00 Build 0)  -->
<svg version="1.1" id="Layer_1" xmlns="http://www.w3.org/2000/svg" xmlns:xlink="http://www.w3.org/1999/xlink" x="0px" y="0px"
	 viewBox="0 0 610 470" style="enable-background:new 0 0 610 470;" xml:space="preserve">
<style type="text/css">
	.st0{fill:#FFFFFF;stroke:#FFFFFF;stroke-miterlimit:10;}
	.st1{fill:#09A552;}
	.st2{fill:#FFFFFF;}
</style>
<g id="Layer_3">
	<rect x="27.9" y="3" class="st0" width="554.1" height="465"/>
</g>
<path class="st1" d="M264.8,202.7v223.2c-1.8,0-1.8,1.8-3.5,1.8c-63.6,0-160.9-10.6-192.7-15.9c-15.9-1.8-17.7-8.8-17.7-21.2V100.1
	c0-8.8,1.8-23,14.1-26.5c30.1-7.1,125.5-15.9,187.4-19.4h12.4V202.7z M331.9,64.8V417c-15.9,1.8-31.8,3.5-47.7,7.1V55.9
	C300.1,57.7,316,61.2,331.9,64.8L331.9,64.8z M392.1,204.4c0,26.5-1.8,163.1-1.8,203.7c-14.1,1.8-30.1,3.5-44.2,7.1V68.3h1.8
	c14.1,1.8,28.3,5.3,42.4,7.1C390.3,114.3,392.1,177.9,392.1,204.4L392.1,204.4z M452.2,87.8v309.8c-15.9,1.8-30.1,5.3-44.2,7.1V78.9
	C422.1,80.7,436.2,84.2,452.2,87.8L452.2,87.8z M514,100.1V387c-15.9,1.8-31.8,5.3-47.7,7.1V89.5L514,100.1z M528.2,385.2V101.9
	c5.3,1.8,10.6,1.8,17.7,3.5c14.1,1.8,19.4,5.3,19.4,19.4V364c0,10.6-3.5,15.9-15.9,17.7C542.3,381.6,535.2,383.4,528.2,385.2
	L528.2,385.2z M61.5,400.5c0,12.4,2,28.3,15.7,30.4l206.2,0.3L96.8,406.7c-9.8-2.1-17.7-8.3-15.7-26.8V147.9
	c-2-20.6,7.8-28.9,21.6-33L232.1,86L77.2,102.5c-13.7,0-15.7,12.4-15.7,24.8V400.5z M27.9,192.1c0,46,1.8,164.8,0,210.8
	c0,15.9,3.5,21.2,21.2,26.5c31.8,7.1,143.2,17.7,210.4,17.7c109.6-15.9,198-35.4,305.8-51.3c14.1-3.5,15.9-10.6,15.9-23V121.4
	c0-17.7-1.8-21.2-19.4-26.5c-76-12.4-132.6-28.3-208.6-44.2C319.6,45.3,286,33,250.6,36.5C179.9,40,73.9,48.9,45.6,59.5
	C29.7,63,27.9,80.7,27.9,87.8C29.7,135.5,27.9,147.9,27.9,192.1z"/>
<path class="st2" d="M-260,30.9"/>
</svg>
