<?xml version="1.0" encoding="utf-8"?>
<!-- Generator: Adobe Illustrator 22.1.0, SVG Export Plug-In . SVG Version: 6.00 Build 0)  -->
<svg version="1.1" xmlns="http://www.w3.org/2000/svg" xmlns:xlink="http://www.w3.org/1999/xlink" x="0px" y="0px"
	 viewBox="0 0 5385.8 2622" style="enable-background:new 0 0 5385.8 2622;" xml:space="preserve">
<style type="text/css">
	.st0{fill:#FFFFFF;}
	.st1{fill:#2B9BC3;}
	.st2{fill:#9CD5E2;}
	.st3{fill:#F9FAFB;}
	.st4{fill:#D6D7D7;}
	.st5{fill:#CDE0ED;}
	.st6{fill:#7CB7CB;}
	.st7{fill:#7DC8DB;}
	.st8{fill:#B5E0F7;}
	.st9{fill:#E3F2FB;}
	.st10{fill:#E20613;}
	.st11{fill:#105578;}
	.st12{fill:#1D1D1B;}
	.st13{fill:#D7AD82;}
	.st14{fill:#8CCEE9;}
	.st15{fill:#35515C;}
	.st16{fill:#EE9E34;}
	.st17{fill:#0E1519;}
	.st18{fill:#3095B8;}
	.st19{fill:#E0881F;}
	.st20{fill:#146B91;}
	.st21{fill:#51ACCA;}
	.st22{fill:#233A41;}
	.st23{fill:#96D3F4;}
	.st24{fill:#F6EFEB;}
	.st25{fill:#312521;}
	.st26{fill:#756C56;}
	.st27{fill:#ABAFAA;}
	.st28{fill:#925F36;}
	.st29{fill:#95BC4C;}
	.st30{fill:#F1DAC8;}
	.st31{fill:#DDF0F8;}
	.st32{fill:#FFF9E7;}
	.st33{fill:#C4E6F8;}
	.st34{fill:#E6CD47;}
</style>
<g id="Layer_1">
	<rect class="st0" width="5385.8" height="2622"/>
</g>
<g id="Layer_2">
	<path class="st1" d="M4430.3,482.7l-3,1749l-3481.1-1c-2-1647,0-1786,0-1750L4430.3,482.7z"/>
	<g>
		<path class="st2" d="M1853,1004.9c30.3-4.7,60.6-9.4,91-14c29.7-4.5,59.5-8.1,89.1-13.3c24.6-4.3,49.1-8.7,73.8-12
			c41.2-5.4,81.9-13.6,123.2-18.9c33.6-4.3,66.9-10.7,100.4-15.9c36.9-5.7,73.9-11,110.9-16.7c30-4.6,59.9-9.6,89.9-14.3
			c14.2-2.2,28.4-4.3,42.6-6.4c-4.9,5.1-9.9,10.1-14.8,15.2c-13.6,0.1-26.7,3-39.9,5.8c-4.7,0.7-9.3,1.4-14,2.1
			c-21,1.9-41.7,6-62.5,9.4c-33.7,5.4-67.6,10.2-101.3,15.4c-51.1,7.9-102.1,16.6-153.4,23.4c-30.4,4-60.5,10-90.7,14.7
			c-52.1,8.1-104.2,15.7-156.2,23.8c-26.2,4-52.3,8.6-78.4,12.8c-3.1,0.5-6.4,0.3-9.6,0.5C1853,1012.6,1853,1008.8,1853,1004.9z"/>
		<path class="st2" d="M2389.1,881.2c-35.3,5.7-70.6,12.3-106,16.9c-41.2,5.3-81.9,13.6-123.2,18.4c-25.1,2.9-49.8,8.1-74.8,11.9
			c-41,6.3-82.1,12.4-123.2,18.7c-29.7,4.6-59.3,9.4-89,14.2c-6.6,1.1-13.3,2.1-19.9,3.1c0-4.5,0-9,0-13.5c18.4,0.4,36.1-4.6,54.1-7
			c31.7-4.1,63.3-8.8,94.7-14.4c25.2-4.5,50.5-8,75.7-12c36.6-5.7,73.3-11.1,109.9-16.8c24.6-3.9,49.1-8.3,73.8-12.2
			c27.8-4.4,55.6-8.6,83.4-12.6c18-2.6,36.1-4.9,54.1-7.4C2395.7,873,2387.8,873.6,2389.1,881.2z"/>
		<path class="st3" d="M2531,816.4c5.3-0.7,10.6-1.5,15.8-2.2c0.5,0,1-0.1,1.4-0.4c1.4-0.3,2.8-0.7,4.1-1c21.8-3.1,43.7-6,65.5-9.3
			c13.5-2.1,27.3-2.7,40.5-6.6c24.1-3.5,48.2-7,72.3-10.5c42.1-6.1,84.3-12.3,126.4-18.5c0,0,0.7,0,0.7,0l0.7-0.1c2-0.2,4-0.3,6-0.5
			c8,8.6,6.8,19.2,6.1,29.6c-2.2-3.3-5-5.3-8.3-1.9c-3,3.1-2.3,7.2-0.4,10.5c2.2,3.8,5.5,3.6,8.6,0.9c0.7-1,1.3-2.7,2.3-2.9
			c2-0.6,1.2,1.4,1.4,2.3c0.5,3.8,0.6,7.6,1.5,11.3c1.8,7.5-0.8,11.4-8.5,12.5c-11,1.6-21.9,3.5-32.9,5.3c-3.9,0.6-5.8,0.3-5.4-4.8
			c0.5-6-1.8-11.2-9.4-9.3c-3.6,0.9-7.8,0.1-10.9,2.9l0,0c-4.4,1.3-3.7,4.5-2.7,7.7c1.2,4.1,0.2,7-4.3,7.7
			c-13.1,2-26.2,3.9-39.3,5.9c0.2-10.2-7.3-18.3-7.1-28.8c0.1-7.9-2.3-15.8-3.6-23.7c-0.6,10.3,0.7,20.2,2.5,30.1
			c1.2,6.1-0.3,8.7-7,9c-11.1,0.6-22.1,2.8-33.2,3.1c-8.3,0.2-16.7,5.7-25.1,0.4c7.6-1.5,6.5-6.7,4.9-11.8c-1-3.2-4-4.6-6.9-2.9
			c-5.1,3-3.4,7.5-1.6,11.8c0.4,0.9,1.1,1.5,1.7,2.3c-3.9,7.4-12.6,3.9-19.5,8.5c30.2-2.5,58.5-9.3,90-9.5c-3,2.5-3.4,3.2-3.9,3.3
			c-37.2,3.8-74.3,8.8-111.1,15.8c-11.6,2.2-24.1,2.6-34.2,8.6c-9.4,5.6-17.2,13.5-29.4,8.9c-0.6-0.2-1.3-0.2-1.9,0.1
			c-5.5,2.2-8,1.9-10.8-1.4c-0.6,2.7,0,6.2-4,6.8c-6,0.8-12,1.6-18.1,2.2c-5.4,0.6-7-2.1-7.5-7.3c-0.8-9.5-2.6-19-4-28.4
			c-2.1,9.2,0.9,17.8,1.9,26.7c0.5,4,2.7,10.3-4.1,10.7c-10.8,0.6-21.8,1.7-32.5-1.2c-8.3-2.2-6-9.4-7.1-14.9c-1-5.5,2.1-8,7.1-9.6
			c4.5-1.4,12.4-0.5,11.2-7.7c-1.5-8.7-8.7-2.7-13.5-3.1c-3.6-0.2-8.1,1.4-9.2-4.3c-3.3,0.9-1.5,6.5-6.6,6.4
			c-6-0.2-12.1,1.1-18.1,1.8c-12.4,1.5-26.5-0.2-36.6,5.4c-10.8,6-19.6,7.1-30.4,4c-4.7-4.6-4.2-9.7-1.7-15.1c1-1,2-2,3-2.9
			c0.4-0.3,0.7-0.5,1.1-0.7c2.4-0.9,4.8-1.7,7.2-2.6c33-3.5,65.7-8.7,98.3-14.7c8.2-0.9,16.4-1.9,24.6-2.8
			c-0.3,5.4,0.7,10.4,2.8,15.6C2533.3,827.4,2527.9,821.8,2531,816.4z M2643,846.9c2.2-0.7,5,1.3,7-1.4
			C2647.2,844.7,2644.9,845.1,2643,846.9c-2.2,0.7-4.9-1.2-7,1.6C2638.7,848.9,2641.1,848.9,2643,846.9z M2762.4,802.6
			c4.5,0.4,10.3-1.8,11.5,5.3c1,5.9,1.4,12,2.1,17.9c-4,0-8,0-14.4,0c6.4,2.1,10.4,2.7,14.4-0.1c3.5-5.1,1.3-10.3,0.3-15.6
			C2774.1,799.5,2773.3,799,2762.4,802.6c-7.1,4.5,0,9.6,0,14.4C2762.4,812.1,2762.4,807.4,2762.4,802.6z M2707.5,817
			c-4.6,0.9-5.1,4.2-4.7,8c0.4,3.7,1.5,7.4,6.1,7c4.5-0.4,5.3-4.1,4.9-7.9C2713.4,820.4,2712,817.3,2707.5,817z M2751,819.6
			c-0.1-4.1-0.7-8-5.9-8c-4,0-5.3,3.2-5,6.6c0.3,3.8,0.7,8.2,6,8.1C2750,826.3,2751.3,823.3,2751,819.6z M2815.2,811.2
			c-0.7-4.7-0.6-9.1-6.1-9c-4,0.1-5.5,2.8-5.1,6.5c0.5,3.8,1,8.1,6.2,8.1C2814.4,816.8,2815.4,813.8,2815.2,811.2z M2833.8,806.9
			c-0.3-3.7-0.8-7.8-6-7.8c-3.9,0-5.4,3.1-5.1,6.6c0.4,3.8,1,8.1,6.1,8.1C2832.8,813.9,2833.8,810.7,2833.8,806.9z M2627.7,837
			c0.1,1.7,0.5,5.7,5.6,6c4,0.2,5.5-2.7,5.3-6.2c-0.2-3.9-0.9-8-5.8-8.3C2628.8,828.3,2627.5,831.2,2627.7,837z M2613.4,831.5
			c-4.5,0.9-5.2,4-4.8,7.8c0.5,3.7,2,7.2,6.3,6.9c4.5-0.3,5.1-4.1,4.7-7.8C2619.2,834.7,2617.9,831.6,2613.4,831.5z M2675.7,829.5
			c-0.2-2.2-0.1-6.7-5.4-6.7c-3.8,0-5.7,2.9-5.3,6.4c0.4,3.6,0.7,8.2,5.9,8.3C2674.9,837.7,2676.1,834.7,2675.7,829.5z
			 M2785.5,811.9c0.3,3.6,0.9,7.4,5.4,7.6c4.4,0.2,6.1-2.9,5.7-6.9c-0.4-3.9-1.5-8-6.5-7.7C2786.1,805.1,2785.3,808.5,2785.5,811.9z
			 M2571.1,843.3c0.7,3.9,0.3,8.6,5.9,8.5c4.1-0.1,5.2-3.5,5-6.9c-0.2-3.6-0.9-7.4-5.6-7.7C2572.2,837,2571,839.8,2571.1,843.3z
			 M2541.9,836.8c-2.1,7.6,0,13.5,1.3,19.3c1.5,6.5,7.1,4,11.1,3.9c4.4-0.1,5.9-3.3,5.1-7.4c-0.7-3.9-1.5-7.8-2.3-11.7
			c-1.1,3.8-0.8,7.4-0.8,11c0,3.6-1.5,6.2-5.5,6.4c-3.9,0.2-5.7-2-6.2-5.7C2544,847.8,2543,843.2,2541.9,836.8z M2852.7,803.2
			c-0.5-2.7-0.9-6.6-5.7-6.5c-4.1,0-5.5,2.8-5.3,6.5c0.2,4,1,8.2,6.2,7.8C2851.7,810.8,2852.9,807.6,2852.7,803.2z M2600.7,841.9
			c-0.3-3.4-0.3-7.8-5.7-7.7c-3.3,0.1-5.3,2.6-5.1,5.8c0.3,3.8,0.6,8.1,5.7,8.6C2599.9,849.1,2600.7,845.9,2600.7,841.9z
			 M2721.8,821.7c0.2,3.7,0.8,7.4,5.5,7.4c4,0,5.3-3,4.9-6.7c-0.4-3.9-0.9-8.2-6.2-7.9C2721.7,814.7,2721.7,818.4,2721.8,821.7z
			 M2646.6,832.7c0.2,3.6,0.6,7.5,5.1,7.8c4,0.2,5.5-3,5.3-6.4c-0.2-3.8-0.5-8.2-5.9-8.2C2646.8,825.9,2646.5,829.4,2646.6,832.7z
			 M2628.4,849.4c-7.1,0.5-14.6,0.7-23.4,4.8C2614.6,855,2621.3,851.8,2628.4,849.4z M2656.8,844.1c1.8,1.2,3.5,1.2,5.3-0.1
			C2660.2,842.8,2658.5,842.7,2656.8,844.1z"/>
		<path class="st4" d="M2395,856.4c10.7,3.1,19.6,2,30.4-4c10.1-5.6,24.2-3.9,36.6-5.4c6-0.7,12.1-2,18.1-1.8
			c5.2,0.2,3.4-5.4,6.6-6.4c1,5.7,5.5,4,9.2,4.3c4.8,0.3,12-5.6,13.5,3.1c1.2,7.2-6.8,6.2-11.2,7.7c-5,1.6-8.1,4.1-7.1,9.6
			c1,5.5-1.2,12.7,7.1,14.9c10.8,2.9,21.7,1.8,32.5,1.2c6.9-0.4,4.6-6.7,4.1-10.7c-1-8.8-4.1-17.4-1.9-26.7c1.4,9.5,3.1,18.9,4,28.4
			c0.5,5.2,2.1,7.9,7.5,7.3c6-0.6,12.1-1.4,18.1-2.2c4-0.6,3.4-4.1,4-6.8c2.8,3.2,5.3,3.5,10.8,1.4c0.6-0.2,1.3-0.3,1.9-0.1
			c12.2,4.7,20-3.2,29.4-8.9c10.1-6,22.6-6.4,34.2-8.6c36.8-6.9,73.8-12,111.1-15.8c0.5,0,0.9-0.7,3.9-3.3c-31.5,0.2-59.9,7-90,9.5
			c6.9-4.6,15.6-1.1,19.5-8.5c0.7,0.2,1.3,0.4,2,0.6c8.4,5.3,16.7-0.2,25.1-0.4c11.1-0.3,22.1-2.6,33.2-3.1c6.7-0.4,8.2-2.9,7-9
			c-1.9-9.9-3.2-19.8-2.5-30.1c1.3,7.9,3.7,15.8,3.6,23.7c-0.2,10.5,7.4,18.6,7.1,28.8c0,0,0.1-0.1,0.1-0.1
			c-12.8,2.7-24.1,19.3-21.9,31.8c0.7,4,0.6,8.2,0.8,12.3c-0.7,0-1.4,0-2.1,0c0-5,0.3-10.1-3.7-14.1c-4,2.8-5.7,6.3-5.8,10.7
			c-5.3-1.8-10.5,2.7-15.8,0.1c-3.4-19.5-3.4-19.5-21-10.8c-0.6,0.3-1.1,0.6-1.7,0.9c-39.8,18.1-79.6,36.2-119.5,54.2
			c-3.2,1.4-6.6,2.1-10,3.1c-5.5-2.5-11-5-16.5-7.4c3.3-6.7,11.3-9.7,13.8-17.1c4.9-5.1,9.9-10.1,14.8-15.2c6-6.3-0.7-4.3-2.9-4
			c-8.9,1-17.8,2-26.5,3.9c-18.7,4-37,1.2-55-3.4c-15.5-3.9-31.1-7.6-45.9-13.9c-7.4-3.1-14.3-1.9-21.5,0.1c-10.8,3-21.6,6.1-33,4.9
			c-1.3-7.6,6.7-8.3,9.6-12.7c2.9-0.7,5.1-2.3,7.5-4.8C2403.2,860.1,2397.2,860.9,2395,856.4z"/>
		<path class="st5" d="M2502.9,820.3c-32.6,6-65.3,11.2-98.3,14.7c-3.5-5.4-7-10.8-10.5-16.2c-9.8-14.6-19.6-29.3-29.5-43.9
			c-3.6-5.2-4.1-7.4,3.6-9c23.5-5,43.8-0.8,62.6,15.2C2451.9,798.9,2476.5,811.5,2502.9,820.3z"/>
		<path class="st3" d="M2870.4,766.5c16.8-1.3,33.4-0.6,50.1,1.7c7.3,1.8,0.9,6.5,2,9.6c-2.6-2-4.6-6-8.6-3.1
			c-2.5,1.8-1.3,4.6-0.5,6.9c1,2.6,2.9,4.2,5.8,3.7c4.9-0.8,2.4-4.9,3.2-7.6c5.5,8.8,8.4,8.8,13.5-0.1c0,0,0.2,0.1,0.2,0.1
			c0.9,3.6,2.8,5.8,6.8,4.4c4.2-1.5,8.1,0.4,12.1,0.9c8.9,4,19.4,5.5,24,15.9c-3.5,3.8-7.9,6.2-12.6,8.4
			c-24.8,11.5-51.8,13.5-78,19.2c-7.6,1.7-9.6-1-10.4-7.8C2875.7,801.2,2872.9,783.8,2870.4,766.5z M2883.7,809
			c13,1.3,14.2-0.7,9.9-16.2C2893.8,801.2,2895,809,2883.7,809z M2894.1,786.8c-5.1-7.7-9.8-3.3-14.3-1.6c2.1,0.5,4.1,0,6.2,0.1
			C2888.3,785.4,2890.6,786.1,2894.1,786.8z"/>
		<path class="st4" d="M2870.4,766.5c2.5,17.4,5.3,34.7,7.5,52.1c0.9,6.8,2.8,9.4,10.4,7.8c26.2-5.7,53.2-7.7,78-19.2
			c4.7-2.2,9.1-4.6,12.6-8.4c5.5,5.8,1.3,10.2-2.5,14c-8.6,8.6-19.8,12.8-31.2,16.2c-37.2,11.1-75.6,15.9-113.8,21.7
			c-13.9,2.1-27.8,4.3-41.7,6.1c-8.6,1.1-9.1,6.6-7.8,13.2c0.9,4.7,3.1,9.7-3.9,11.8c-0.7-6.2-2.1-12.5-1.8-18.7
			c0.4-10.2-2.9-16.7-13.7-18c0,0-0.1,0.1-0.1,0.1c13.1-2,26.2-3.9,39.3-5.9c4.5-0.7,5.5-3.6,4.3-7.7c-1-3.2-1.7-6.3,2.7-7.7
			c-0.2,12,1.1,13,12.3,9.6c3.2-1,5.2-2.5,4.9-6c-0.3-3.4-2.9-3.8-5.6-3.8c-3.8,0-7.7,0.1-11.5,0.1c3.1-2.8,7.3-2,10.9-2.9
			c7.6-1.9,9.9,3.3,9.4,9.3c-0.4,5,1.5,5.4,5.4,4.8c11-1.8,21.9-3.7,32.9-5.3c7.7-1.1,10.3-5,8.5-12.5c-0.9-3.7-1-7.5-1.5-11.3
			c-0.1-0.9,0.6-2.9-1.4-2.3c-1,0.3-1.5,1.9-2.3,2.9c0-3.2,0.1-6.3,0.1-9.5c0.7-10.4,1.9-21-6.1-29.6
			C2866.4,766,2868.4,766.1,2870.4,766.5z"/>
		<path class="st4" d="M2658.4,796.8c-13.2,3.9-27,4.6-40.5,6.6c-21.8,3.3-43.7,6.2-65.5,9.3c-8.7-10.5-22.4-13.2-32.7-21.1
			c-2.2-1.7-5.4-2.2-6.9-4.9c9.7-1.9,19.4-3.8,29.1-5.7c32.9,4.4,65.8,8.8,98.7,13.4C2646.5,795.3,2652.8,793.6,2658.4,796.8z"/>
		<path class="st3" d="M2762.5,845c10.8,1.3,14.2,7.7,13.7,18c-0.3,6.2,1.2,12.5,1.8,18.7c0,0-0.1,0.1-0.1,0.1
			c-1.9-0.1-3.3,0.7-4.2,2.3c-10.5,3.3-21.1,6.1-32.3,5.1c-0.2-4.1-0.1-8.3-0.8-12.3C2738.4,864.2,2749.6,847.6,2762.5,845z"/>
		<path class="st5" d="M2545.3,925.8c5.5,2.5,11,5,16.5,7.4c-1.9,0.3-3.9,0.3-5.6,1c-21.9,8.2-37.9-0.5-51-17.6
			c4.7-0.7,9.3-1.4,14-2.1C2527.7,918.7,2535.9,923.6,2545.3,925.8z"/>
		<path class="st5" d="M2541.8,781c-9.7,1.9-19.4,3.8-29.1,5.7c-8.7-6.8-17.4-13.6-27-21.1c8.5-2.9,14.9-2.4,21.7,0.8
			C2518.7,771.8,2530.3,776.2,2541.8,781z"/>
		<path class="st6" d="M2691.3,875.9c0.6-0.3,1.1-0.6,1.7-0.9c17.6-8.7,17.6-8.7,21,10.8c-3.2-0.1-6.5-0.6-9.6-0.1
			C2696.5,886.8,2692.4,883.5,2691.3,875.9z"/>
		<path class="st4" d="M2394.1,818.7c3.5,5.4,7,10.8,10.5,16.2c-2.4,0.9-4.8,1.7-7.2,2.6c-1.8-3.5-5.5-4-8.5-5.6
			c-2.7-1.4-7-1.7-6.9-5.6c0.1-4.4,4.6-4.6,7.7-5.9C2391.1,819.8,2392.6,819.3,2394.1,818.7z"/>
		<path class="st6" d="M2935.9,777.4c-5.2,8.9-8,8.9-13.5,0.1l0.1,0.1c-1.1-3.1,5.3-7.7-2-9.6c0.6-3.2,3-5.1,5.2-2.6
			C2929.2,769.3,2934.9,771.4,2935.9,777.4z"/>
		<path class="st3" d="M2729.7,885.7c0.1-4.4,1.8-8,5.8-10.7c4,4.1,3.7,9.2,3.7,14.1C2735.7,888.9,2731.4,890.8,2729.7,885.7z"/>
		<path class="st6" d="M2954.9,782.9c-4-0.5-7.9-2.4-12.1-0.9c-3.9,1.4-5.9-0.8-6.8-4.4c2.9,2.1,5.9,1.5,9.2,0.7
			C2949.5,777.1,2953.7,777,2954.9,782.9z"/>
		<path class="st4" d="M2531,816.4c-3.1,5.4,2.3,11-0.7,16.7c-2.1-5.1-3.1-10.2-2.8-15.6C2528.6,817.1,2529.8,816.7,2531,816.4z"/>
		<path class="st4" d="M2396.3,838.3c-1,1-2,2-3,2.9C2393.1,839.1,2394.2,838.1,2396.3,838.3z"/>
		<path class="st4" d="M2773.6,884.1c1-1.6,2.4-2.4,4.2-2.3C2776.9,883.4,2775.7,884.5,2773.6,884.1z"/>
		<path class="st4" d="M2548.3,813.8c-0.5,0.2-0.9,0.4-1.4,0.4C2547.2,813.6,2547.7,813.5,2548.3,813.8z"/>
		<polygon class="st4" points="2858.6,767.8 2857.8,767.9 2857.1,767.9 2857.8,767.3 		"/>
		<path class="st7" d="M2545.3,925.8c-9.4-2.2-17.6-7.1-26.1-11.3c13.2-2.8,26.3-5.7,39.9-5.8
			C2556.6,916.1,2548.6,919.1,2545.3,925.8z"/>
		<path class="st6" d="M2707.5,817c4.4,0.3,5.9,3.4,6.2,7.2c0.4,3.8-0.4,7.5-4.9,7.9c-4.6,0.4-5.7-3.3-6.1-7
			C2702.4,821.2,2702.9,817.8,2707.5,817z"/>
		<path class="st6" d="M2751,819.6c0.3,3.7-1,6.7-4.9,6.7c-5.2,0.1-5.6-4.4-6-8.1c-0.3-3.5,1-6.6,5-6.6
			C2750.3,811.6,2750.9,815.6,2751,819.6z"/>
		<path class="st6" d="M2815.2,811.2c0.2,2.7-0.8,5.6-5,5.6c-5.2,0-5.7-4.3-6.2-8.1c-0.5-3.7,1-6.4,5.1-6.5
			C2814.6,802,2814.5,806.4,2815.2,811.2z"/>
		<path class="st6" d="M2833.8,806.9c0,3.8-1,6.9-5,6.9c-5.1,0-5.7-4.3-6.1-8.1c-0.3-3.5,1.2-6.6,5.1-6.6
			C2833,799.1,2833.5,803.2,2833.8,806.9z"/>
		<path class="st6" d="M2689,835.3c-0.7-0.2-1.3-0.4-2-0.6c-0.6-0.8-1.3-1.4-1.7-2.3c-1.8-4.2-3.5-8.8,1.6-11.8
			c2.9-1.7,5.9-0.3,6.9,2.9C2695.5,828.6,2696.5,833.8,2689,835.3z"/>
		<path class="st6" d="M2627.7,837c-0.2-5.9,1.1-8.8,5.1-8.5c4.9,0.3,5.6,4.4,5.8,8.3c0.2,3.5-1.3,6.4-5.3,6.2
			C2628.2,842.7,2627.8,838.7,2627.7,837z"/>
		<path class="st6" d="M2613.4,831.5c4.5,0.1,5.8,3.2,6.2,6.9c0.4,3.7-0.2,7.5-4.7,7.8c-4.2,0.3-5.8-3.1-6.3-6.9
			C2608.2,835.5,2609,832.3,2613.4,831.5z"/>
		<path class="st6" d="M2675.7,829.5c0.4,5.2-0.8,8.1-4.8,8.1c-5.2-0.1-5.4-4.7-5.9-8.3c-0.4-3.6,1.5-6.4,5.3-6.4
			C2675.6,822.9,2675.5,827.3,2675.7,829.5z"/>
		<path class="st6" d="M2785.5,811.9c-0.2-3.5,0.6-6.8,4.6-7c5-0.3,6.1,3.9,6.5,7.7c0.4,4-1.2,7.1-5.7,6.9
			C2786.4,819.3,2785.8,815.6,2785.5,811.9z"/>
		<path class="st6" d="M2571.1,843.3c-0.1-3.5,1.1-6.3,5.3-6.1c4.6,0.3,5.4,4.1,5.6,7.7c0.2,3.4-0.9,6.8-5,6.9
			C2571.4,851.9,2571.8,847.2,2571.1,843.3z"/>
		<path class="st4" d="M2541.9,836.8c1.1,6.4,2.1,11,2.8,15.7c0.5,3.7,2.3,5.9,6.2,5.7c4-0.2,5.5-2.8,5.5-6.4c0-3.6-0.3-7.2,0.8-11
			c0.8,3.9,1.6,7.8,2.3,11.7c0.8,4.2-0.8,7.3-5.1,7.4c-4,0.1-9.7,2.6-11.1-3.9C2541.9,850.3,2539.7,844.4,2541.9,836.8z"/>
		<path class="st6" d="M2852.7,803.2c0.2,4.4-1,7.5-4.8,7.8c-5.2,0.3-6-3.8-6.2-7.8c-0.2-3.7,1.2-6.4,5.3-6.5
			C2851.8,796.7,2852.2,800.5,2852.7,803.2z"/>
		<path class="st6" d="M2600.7,841.9c0,4-0.8,7.2-5.2,6.7c-5.1-0.5-5.4-4.9-5.7-8.6c-0.2-3.3,1.8-5.8,5.1-5.8
			C2600.3,834.1,2600.4,838.5,2600.7,841.9z"/>
		<path class="st6" d="M2721.8,821.7c0-3.3,0-7,4.3-7.2c5.3-0.3,5.7,4.1,6.2,7.9c0.4,3.6-0.9,6.6-4.9,6.7
			C2722.6,829.1,2722,825.3,2721.8,821.7z"/>
		<path class="st6" d="M2646.6,832.7c0-3.3,0.2-6.8,4.6-6.8c5.4,0,5.7,4.4,5.9,8.2c0.2,3.5-1.3,6.7-5.3,6.4
			C2647.2,840.2,2646.7,836.3,2646.6,832.7z"/>
		<path class="st6" d="M2870.7,796.9c0,3.2-0.1,6.3-0.1,9.5c-3.2,2.7-6.5,3-8.6-0.9c-1.9-3.3-2.6-7.4,0.4-10.5
			C2865.7,791.6,2868.5,793.6,2870.7,796.9z"/>
		<path class="st4" d="M2776,825.8c-0.7-6-1.1-12-2.1-17.9c-1.2-7-7-4.9-11.5-5.3l0.1,0.1c10.8-3.6,11.6-3.1,13.7,7.5
			C2777.3,815.4,2779.5,820.6,2776,825.8L2776,825.8z"/>
		<path class="st4" d="M2628.4,849.4c-7.1,2.3-13.8,5.5-23.4,4.8C2613.8,850.2,2621.3,850,2628.4,849.4z"/>
		<path class="st4" d="M2762.4,802.6c0,4.8,0,9.6,0,14.4C2762.4,812.2,2755.3,807.1,2762.4,802.6
			C2762.5,802.6,2762.4,802.6,2762.4,802.6z"/>
		<path class="st4" d="M2775.9,825.7c-4,2.8-8,2.2-14.4,0.1C2768,825.8,2772,825.8,2775.9,825.7
			C2776,825.8,2775.9,825.7,2775.9,825.7z"/>
		<path class="st4" d="M2656.8,844.1c1.8-1.4,3.4-1.3,5.3-0.1C2660.3,845.3,2658.6,845.3,2656.8,844.1z"/>
		<path class="st4" d="M2643,847c1.9-1.9,4.2-2.2,6.9-1.4C2647.9,848.2,2645.2,846.2,2643,847L2643,847z"/>
		<path class="st4" d="M2643,846.9c-1.9,2-4.2,2-7,1.6C2638.1,845.7,2640.8,847.6,2643,846.9C2643,847,2643,846.9,2643,846.9z"/>
		<path class="st6" d="M2922.4,777.6c-0.8,2.7,1.7,6.8-3.2,7.6c-2.9,0.5-4.8-1-5.8-3.7c-0.8-2.3-2-5.2,0.5-6.9
			c4-2.8,6.1,1.2,8.6,3.1C2922.5,777.7,2922.4,777.6,2922.4,777.6z"/>
		<path class="st4" d="M2883.7,809c11.2-0.1,10.1-7.8,9.9-16.2C2897.9,808.3,2896.7,810.3,2883.7,809z"/>
		<path class="st4" d="M2894.1,786.8c-3.6-0.7-5.8-1.4-8.1-1.5c-2.1-0.1-4.2,0.4-6.2-0.1C2884.3,783.5,2889,779.1,2894.1,786.8z"/>
		<path class="st3" d="M2808.7,823.8c3.8,0,7.7-0.1,11.5-0.1c2.7,0,5.3,0.4,5.6,3.8c0.3,3.5-1.7,5-4.9,6
			C2809.8,836.8,2808.4,835.8,2808.7,823.8C2808.7,823.8,2808.7,823.8,2808.7,823.8z"/>
	</g>
	<g>
		<path class="st8" d="M2165.2,1057.8c1.6,2.6,3.8,5.7-1,6.7c-4.3,0.9-9,0.4-13.4,0.4c-275.3,0-550.6,0-825.9-0.2
			c-6.5,0-14.1,3.2-19.6-3.6c0.9-2.3,2.2-4.5,2.6-6.8c7.9-42.7,41.4-80.7,85.2-84.5c19-1.7,36.8,0.7,54.7,4.7
			c10.9,2.4,15.1,2.1,17.1-11.1c8.2-53.2,34.4-70.1,87.7-57.9c6.9,1.6,10.3,0.5,12-6.4c1.1-4.4,2.6-8.6,4.3-12.8
			c27.2-68.6,74.5-96.5,138.5-97.3c42.8-0.5,84,11.4,122,31.9c32.9,17.8,59.7,41.7,73,78.1c9.7,26.8,7.5,54,3,81.3
			c-1.1,6.6-4,13,8.2,11.1c29.2-4.7,40,1.1,53.5,28.4c4.3,8.7,7.2,10.6,16.4,5c50-30.5,104-26.7,151.2,8.6
			c8.6,6.5,14.8,16.5,26.3,19.1c0,0-0.2-0.2-0.2-0.2C2161.1,1054.9,2161.9,1057.4,2165.2,1057.8z"/>
		<path class="st0" d="M1951.6,1097.5c-4.9,0.2-9.9,0.5-14.8,0.5c-245.3,0-490.7,0-736,0c-5.4,0-10.8-0.4-16.1-0.6
			c0.4-36.6,24.5-70.3,58.8-82c19.9-6.8,40-8.9,60.9-5c23.7,4.4,23.8,4,29.8-19.9c9.7-38.7,28.2-71.7,62.2-94.4
			c30.2-20.1,63.9-23.9,99.2-22.9c66.5,1.9,119.8,27.7,156.2,84.5c4.1,6.4,8.3,8.6,15.5,6.5c11.4-3.4,22.5-2.2,32.1,5
			c12.4,9.4,17,22.9,17.2,37.8c0.1,9,1.8,12.7,12.5,10.8c26.1-4.6,57.9,4.6,68.3,38.4c1.6,5.2,4.1,6.6,8.8,4.4
			c19.9-9.1,40.6-10.9,61.8-6.1C1899.7,1061.5,1928.8,1073.5,1951.6,1097.5z"/>
		<path class="st0" d="M2161,1052.4c-11.4-2.6-17.6-12.6-26.3-19.1c-47.2-35.3-101.3-39.1-151.2-8.6c-9.2,5.6-12.1,3.7-16.4-5
			c-13.5-27.3-24.3-33.1-53.5-28.4c-12.1,2-9.3-4.5-8.2-11.1c4.5-27.3,6.7-54.5-3-81.3c-13.2-36.4-40.1-60.3-73-78.1
			c-38-20.5-79.2-32.4-122-31.9c-64.1,0.8-111.3,28.7-138.5,97.3c-1.7,4.2-3.2,8.4-4.3,12.8c-1.7,6.9-5.1,7.9-12,6.4
			c-53.3-12.1-79.5,4.7-87.7,57.9c-2,13.2-6.2,13.5-17.1,11.1c-17.9-4-35.7-6.4-54.7-4.7c-43.9,3.9-77.3,41.8-85.2,84.5
			c-0.4,2.4-1.7,4.6-2.6,6.8c-5.5-21.9-5.2-43.7,1.8-65.1c11.6-35.3,43.7-53.6,87.6-50.1c13.4,1.1,26.9,2.7,40.1,5.7
			c9.8,2.2,15.6,1.9,15.2-10c-0.1-1.9,0.7-3.9,1.1-5.9c10-49.1,42.8-71.4,92.1-61.4c12.5,2.5,17.4,2.4,18.7-13.1
			c3.1-38.9,23.7-68.8,59.1-84.4c77.6-34.1,156.2-34.2,231.4,6.2c61.9,33.3,88.8,96,75.9,165.2c-1.8,9.6-2.2,14.2,10.1,14.9
			c26.1,1.4,34,8.7,44.3,36.2c0.5,0,1.1,0.2,1.5,0c60.5-40.6,115.5-20.6,157.3,26.7C2148.6,1034.3,2156.1,1042.4,2161,1052.4z"/>
		<path class="st9" d="M2165.2,1057.8c-3.3-0.4-4-2.8-4.4-5.5C2162.2,1054.1,2163.7,1055.9,2165.2,1057.8z"/>
	</g>
	<path class="st5" d="M935,2292V461h3521v1831H935z M3690,561c0-8,0-17-1-26v-7h-958v1697h959V561z M1746,2225h957l1-1697h-959
		C1745,1504,1746,2095,1746,2225L1746,2225z M970,2225h747c4-1463,1-1584,2-1697H970v1687V2225z M3716,2225h705V528h-704
		C3717,1461,3717,2048,3716,2225z"/>
	<rect x="3498" y="1412.3" class="st10" width="168" height="124.4"/>
	<path class="st0" d="M4097.3,897c-2.5-19.1-4.9-38.1-7.3-57.2C4097.9,858.2,4115.1,875.3,4097.3,897z"/>
	<g>
		<path class="st5" d="M3224.3,2566.4c-53-16.4-104.5-38.8-162-35.8c-14.5,0.8-30.1-1.6-31.1-22.1c19.4,2.7,38.8,5.4,58.1,8.1
			c47.9,10.5,95.7,21,143.6,31.5c28.2,7.3,56.1,8.9,83-4.9c1.8,15.9-15.6,14.2-21.3,23.3C3271.2,2566.4,3247.8,2566.4,3224.3,2566.4
			z"/>
		<path class="st11" d="M3060.8,2438.8c-15.4-1.1-18-6.9-8.5-19.7c34.5-47,68.5-94.5,102.6-141.7c19.9-24.3,42.1-46.8,57.7-74.4
			c4-3.1,8.7-5.6,12-9.3c54.6-64.1,111.1-126.5,171.7-185c3.7-3.6,8.2-7.2,7.8-12.7c-0.7-11.5,6.1-15.8,15.6-17.3
			c12.5-2,13.4-9.2,9.6-19.1c-9.8-25.3-18.4-51.1-29.6-75.7c-27.8-61.1-32.1-125.6-30.6-191.3c4.6,0.7,9.1,1.4,13.7,2
			c12.2,2.9,24.5,5.7,36.7,8.6c-8.1,10.5-8.7,23.8-13.1,35.7c-0.8,2,5,3.6,6.9,1.3c8.9-10.8,24.9-17.2,22-35.3
			c8,0.2,16.1,0.2,24.1,0.6c91,4.2,173.5-21.2,248.9-71.4c30.5,19.2,59.5,40.1,84.4,66.4c0.4,7,5.1,10.8,10.6,14
			c2.1,2.6,4.2,5.1,6.3,7.7c40.7,57.5,75.3,118.7,109.1,180.5c28.3,51.9,46.5,104.7,33.4,164.9c-3.5,16.1-1.8,33.4,3,49.8
			c4,40.3,10.9,80.2,19.9,119.7c3.5,14.7,6.9,29.4,10.4,44.1c9.3,39.6,18.6,79.2,27.9,118.8c-10.2,22.8-35.9,24.5-52.5,38.6
			c-10.2,5-18.9,13.3-31.9,15.6c0.7-19-8.5-33.4-18-48.2c-26.8-41.8-44.9-87.8-62.2-134c-3-12-6-24.1-9-36.1
			c-0.8-1.5-1.7-2.9-2.5-4.4l-0.2-0.3c-7.3-42-17-83.8-14.2-127c3.5-5.7,3.1-11.9,2.6-18.2l-0.1-0.7c0-23.8,8.7-47.1,2.1-71.4
			c-2.4-8.8-0.9-18.9,5.2-27.3c4.8-6.6,5.9-14.9-1.3-19.6c-28.6-18.7-52.1-44.3-82.2-60.9c-1.7-2.5-3.4-5.1-5.1-7.6
			c-2.7-5.8-7.5-8.9-13.5-10.5c-5.8-5.5-11.4-11.2-17.3-16.5c-40-35.9-79.1-72.5-105.2-120.6c0.8-14.6,15.7-23.1,16.6-37.6
			c0.3-4.1,1.7-9.3-3.8-11.2c-4.4-1.5-7.1,2-8.2,5.4c-5.6,17.3-19.3,30.7-23.2,48.7c-11,2.3-17.3,6.9-17.9,20.3
			c-3.4,79.7-8.7,159.3-11.5,239c-0.8,23.6-9.5,40.9-27.4,54.4c-48.3,36.4-88.4,81.1-126.9,127.2c-8.7,10.5-21.9,17.8-24.7,32.8
			c-18.6,9.4-29.1,26.9-41.9,42c-52.4,56.2-104.8,112.3-157.2,168.5c0,0-0.2,0.1-0.2,0.1c-1.7,1.9-3.4,3.8-5.1,5.7
			c-3.9,1.7-7.8,3.5-11.6,5.2c-10.2-5.7-20.4-3.9-30.7-0.4C3109.7,2446.9,3085.9,2438.7,3060.8,2438.8z"/>
		<path class="st12" d="M3803.3,1714.4c-5.5-3.2-10.2-7-10.6-14c31.8,2.6,63.7,5.1,95.6,7.7c5.1-0.1,10.3-0.2,15.4-0.3
			c75.3,9.5,150.9,15.6,226.5,21.4c3.6,5.8,7.2,11.4,13.5,2.4c7.4-0.2,14.9-0.4,22.3-0.6c1.4,0.3,2.7,0.6,4.1,1
			c8.6,3.4,17.6,3.2,26.6,2.6c19.6,2.2,39.2,4.1,58.8,6.6c35.6,4.5,54,26.2,51.2,62.9c-4.5,59-10.3,117.9-15.7,176.8
			c-3.1,33.5-5.8,67-9.6,100.4c-5.1,45.6-22.3,60.1-67.3,58.3c-5.8-0.2-11.6,0.4-17.4,0.6c-8.9-1.4-17.7-2.8-26.6-4.1
			c-71.7-6.2-143.3-12.5-215-18.7c-4.8-16.4-6.5-33.7-3-49.8c13.1-60.2-5.1-113.1-33.4-164.9c-33.7-61.8-68.4-122.9-109.1-180.5
			c83.2,7.1,166.4,14.3,249.5,21.4c0.2-2.3,0.4-4.7,0.6-7c-16.4-1.5-32.9-3.1-49.3-4.5C3941.3,1726.1,3872.3,1720.2,3803.3,1714.4z
			 M4188.6,1754.1c15.3,3,24.5,5.5,33.8,6.5c9.4,1,19,0.2,28.5,0.8c24.5,1.7,35.3,13.4,34.2,38.6c-0.9,21.2-3,42.3-5,63.5
			c-7,75.1-14.1,150.1-21.3,225.2c-1.9,19.8-13.2,31.9-33.2,30.3c-70.8-5.7-141.5-12.7-212.3-19c-19.3-1.7-38.6-2.9-59.2-4.4
			c2.4,7.4,5.4,7.6,8.2,7.9c84.4,7.7,168.8,15.6,253.3,22.8c34.6,2.9,49.2-11,52.3-46.1c3.9-44.9,8.4-89.8,12.6-134.8
			c4.4-48.1,9.1-96.2,12.9-144.3c1.7-22.1-9.7-41.1-27.5-44.6C4242.5,1751.9,4218.7,1748.7,4188.6,1754.1z M4126.6,1744.7
			c0,2,0.1,3.9,0.1,5.9c20.2,1.7,40.4,3.4,60.6,5.1c0.1-2.5,0.2-5,0.4-7.5C4167.2,1748.4,4147.2,1741.1,4126.6,1744.7z"/>
		<path class="st13" d="M3211.2,1240.8c33.1-35.8,75.8-59.7,112.7-90.9c0,2.1-0.8,5.6,0.1,6.2c31.9,19.6,33.3,52.1,35.9,84.1
			c-4.3-2.2-8.1-1.3-12.2,1.1c-45.5,26.5-91.1,52.9-136.8,79.1c-7.9,4.6-9.5,9.8-5,17.9c4.5,8.2,8.1,17,11.8,25.6
			c5.1,11.9,5.8,22.8-7.5,30.2c-27.9-7.3-29.4-6.5-39.6,22.6c-2.1,6.1-3.7,12.4-5.6,18.5c-35,1.4-66.1-7.9-91.6-32.8
			c-4.4-19.4-12.8-39.4,9.1-54.4c14-20.5,31.7-32.5,57.5-37c20-3.5,31.7-23,42-40.6c1.1-2,2.2-4,3.3-5.9
			C3197.5,1260.5,3205,1251.4,3211.2,1240.8z"/>
		<path class="st14" d="M3185.2,1264.4c-1.1,2-2.2,3.9-3.3,5.9c-1.4-8.3-2.8-16.7,1.7-24.6C3184.2,1252,3184.7,1258.2,3185.2,1264.4
			z"/>
		<path class="st15" d="M3992.5,2510.1c-3-4.4-5.4-9-3.5-14.6c2.8,0.2,5.9,0.8,5.8-3.7c0,0,0,0.1,0,0.1c3.5-0.3,7.3,0.2,10.5-0.9
			c27-9.5,27-34.8,32.7-56.8c25.7-12.3,51.4-24.6,77-37c2.1-0.9,4.2-1.8,6.2-2.7c4.9-2.4,9.8-4.9,14.6-7.3
			c13-5.4,26.1-10.8,39.1-16.2c-0.2,9-0.3,18.1-0.5,27.1c-38.4,31.9-76.7,63.8-115.1,95.7C4034.7,2489.3,4014,2501.6,3992.5,2510.1z
			"/>
		<path class="st16" d="M3134.1,2450.9c10.3-3.5,20.6-5.3,30.7,0.3c0,0,0.5,0.2,0.5,0.2c-5.6,2.2-14.2-0.5-15.1,9.2
			c20.7,24.6,37,29.7,56.3,17.6c16.4,8.7,33.2,16.2,46.8,29.7c5.7,5.7,15.5,5,24.3,4.8c19.5-0.5,38.2,15.2,38.4,30.5
			c-27,13.8-54.8,12.2-83,4.9c23.7-16.9,23.6-16.8-3.8-30.6c-36.6-18.4-73-37.2-109.4-55.8
			C3124.6,2458.1,3129.3,2454.5,3134.1,2450.9z"/>
		<path class="st5" d="M4059.4,2493.7c38.4-31.9,76.7-63.8,115.1-95.7c23.2-17.9,41.8-38.9,45.7-69.5c18.3,4.5,10,19.3,6.4,26
			c-13.8,25.9-29.3,50.8-54.6,68.6c-43.9,30.9-89.2,60.6-120.9,105.7c-9.6,13.6-21.5,13.2-34.1,4.2
			C4033.7,2522.7,4047.1,2508.8,4059.4,2493.7z"/>
		<path class="st1" d="M4038,2434.2c-5.6,22-5.6,47.3-32.7,56.8c-3.2,1.1-7,0.7-10.5,0.9c-13.2-16.6-15-40.5-34.1-53.4
			c16.6-14.1,42.3-15.7,52.5-38.6c7.8,13.5,18.5,4,28,3.5C4039.6,2413.6,4033.7,2423.4,4038,2434.2z"/>
		<path class="st16" d="M4038,2434.2c-4.2-10.8,1.7-20.5,3.2-30.7c4.7-3,4.7-11.2,12.5-10.9c6.5,5.1-5.3,14.4,5.4,19.5
			c3.9-9.2,1.3-22.5,14.6-26.1c1.2,4.5-3.1,10,2.6,13.5c0.8,0.5,3.5-0.2,3.7-0.8c2-5.9,0.7-10.8-5.1-14.1
			c18-4.5,35.6-10.3,51.7-19.9c1.2,1.3,2.4,2.5,3.6,3.8c0,1.5,0,2.9,0.1,4.4c-8.4,8.9,5.2,9,5.7,14.3c-4.9,2.4-9.8,4.9-14.6,7.3
			c-0.3-4,2.5-9-3.3-11c-1.3-0.5-4.1,1.2-5.2,2.6c-3.4,4.3-1.3,8,2.2,11.2C4089.3,2409.5,4063.7,2421.8,4038,2434.2z"/>
		<path class="st16" d="M4220.1,2328.6c-3.9,30.6-22.5,51.6-45.7,69.5c0.2-9,0.3-18.1,0.5-27.1c-3.6-6.9-12.7-1.3-16.7-7.3
			c-1.7-1.5-3.5-2.9-5.2-4.4l0.2,0.3c12.6-15.9,28-28.1,47-35.5C4207.7,2321.4,4215.8,2317.1,4220.1,2328.6z"/>
		<path class="st16" d="M4059.4,2493.7c-12.3,15.1-25.7,29-42.3,39.3c-10.2-5.5-21.1-10.3-24.6-23
			C4014,2501.6,4034.7,2489.3,4059.4,2493.7z"/>
		<path class="st13" d="M3165.3,2451.4c0,0-0.4-0.2-0.5-0.2c3.9-1.8,7.8-3.5,11.6-5.2c-0.3,20.3,22.9,18.7,29.9,32.2
			c-19.3,12.2-35.5,7.1-56.3-17.6C3156.3,2459.4,3165.9,2463.8,3165.3,2451.4z"/>
		<path class="st13" d="M4158.3,2363.7c4,6,13.1,0.4,16.7,7.3c-13.1,5.4-26.1,10.8-39.1,16.2c-0.5-5.3-14.1-5.5-5.7-14.3
			c8.5-3,2.5-31.4,23.1-13.2c0,0-0.2-0.3-0.2-0.3c-1.9,2.1-4.4,4.8-1.5,7.2C4154.2,2368.7,4157,2366.8,4158.3,2363.7z"/>
		<path class="st13" d="M4130.1,2368.4c-1.2-1.3-2.4-2.5-3.6-3.8c0.8-0.9,1.6-1.8,2.4-2.6
			C4129.4,2364.1,4129.8,2366.3,4130.1,2368.4z"/>
		<path class="st1" d="M3994.8,2491.8c0.1,4.4-3,3.9-5.8,3.7C3989.7,2492.2,3992.3,2492,3994.8,2491.8z"/>
		<path class="st13" d="M3181.6,2440.3c0,0,0.2-0.1,0.2-0.1C3181.7,2440.2,3181.6,2440.3,3181.6,2440.3z"/>
		<path class="st11" d="M2661.6,2271.8c-11.7,16.2-23.4,32.4-35.1,48.7c-3.5-7.2-7.2-14.3-10.6-21.5c-20.9-45-49.3-85.7-73.8-128.6
			c-1.1-9,5-14.3,9.5-21.1c20.5-30.9,38.5-63.5,60.4-93.3c19.5-26.5,33.3-57.3,58.6-79.5c40.6,38.4,76.2,80.5,100.7,131.2
			c-28.6,39.9-56.5,80.3-81.1,122.8C2678.2,2242.5,2669.9,2257.1,2661.6,2271.8z"/>
		<path class="st15" d="M3119.8,2461.7c36.5,18.6,72.9,37.3,109.4,55.8c27.4,13.8,27.5,13.6,3.8,30.6c-47.9-10.5-95.7-21-143.6-31.5
			c-13-21.5-35.3-31.4-55.2-44.5c3-5.2,2-18.1,13.5-7C3069.8,2483.1,3085.9,2482.3,3119.8,2461.7z"/>
		<path class="st17" d="M2535,2385.5c13.9-1.4,24.8,5.9,36.1,12.3c2.8,11,10.4,20.8,7.1,33.3c-5.2,19.4-18.1,30.8-37.5,30.9
			c-17.2,0.1-31.2-8.9-36-26.7c-5.2-19.1,1-34.6,18.4-44.8C2526.7,2388.4,2531,2387.2,2535,2385.5z"/>
		<path class="st18" d="M3119.8,2461.7c-33.8,20.6-50,21.4-72.1,3.3c9.3-6.3,9.2-17.2,13.1-26.2c25.1-0.1,48.9,8.1,73.4,12.1
			C3129.3,2454.5,3124.6,2458.1,3119.8,2461.7z"/>
		<path class="st17" d="M2243.9,2319.6c15.4,6.7,28.2,16.4,35.5,32c-3.1,15.4-13.3,21.8-28,21.4c-13.1-0.4-22.1-8.2-25.1-20.4
			C2222.5,2337.2,2229.2,2325.9,2243.9,2319.6z"/>
		<path class="st16" d="M3034.2,2472c19.8,13.1,42.2,23,55.2,44.5c-19.4-2.7-38.8-5.4-58.1-8.1
			C3027.8,2495.9,3023.3,2483.3,3034.2,2472z"/>
		<path class="st11" d="M2604.9,2367l0.2-1.6c0,0,1.7,0.2,1.7,0.2c0,0-0.3,1.8-0.3,1.8L2604.9,2367z"/>
		<path class="st17" d="M2789.3,1594.1c6.2-7,14.5-12.5,16.8-22.5c4.5-5.5,9.1-11,13.6-16.5c23-17.1,41.4-38.5,58.5-61.2l0.3-0.3
			c15.6-10.2,27.6-24.2,39.7-38c0,0,0.1-0.4,0.1-0.4c2.3-2.2,4.7-4.3,7-6.5c1.5-1.4,2.9-2.8,4.4-4.2c1.7-1.5,3.5-2.9,5.2-4.4
			c31.3-24.7,61-51.7,96.7-70.3c16.3-8.5,33.8-14.7,50.7-22c-21.9,15-13.5,35-9.1,54.4c-3.8-2.1-10.2-3.4-11-6.3
			c-6.8-24.8-18.9-11.1-29.5-4.3c-49.9,31.8-94.3,70.3-134.5,113.6c-12.5,8-21.6,19.3-30.1,31.2c-3.6,4.9-7.2,9.7-10.8,14.6
			c-16.7,11.2-27.1,28.4-40.9,42.4c-17.6,17.8-16.9,21.7,7.7,29.5c23.9,7.7,45.7,19.3,67.3,31.6c17.2,9.8,21.8,22.6,8.8,39.3
			c-8.1,10.4-16,20.9-24,31.3c-7-0.7-10.4-5.1-12.2-11.4c22.7-24.1,22.6-25.3-6-41.7c-13.2-7.6-26.8-14.8-40.2-22
			c-36.1-19.3-36.1-19.2-60.8,13.6c-5.8-3-11.6-6-17.4-9c6.9-9.3,13.8-18.6,22.2-29.9c-18,0.6-23.1,13.2-30.5,22.9
			c-6.5,2.8-13.5,6.8-13.9-5.5c7.5-12.9,16.8-24.3,27.2-34.9c2-1.4,4.1-2.8,6.1-4.2c5.4-1.2,10.7-2.4,16.1-3.6
			C2775.8,1603.5,2784.1,1605.1,2789.3,1594.1z"/>
		<path class="st18" d="M2925.4,1448.8c-2.3,2.2-4.7,4.3-7,6.5C2917.9,1450.1,2921.2,1448.9,2925.4,1448.8z"/>
		<path class="st18" d="M2934.9,1440.2c-1.7,1.5-3.5,3-5.2,4.4C2931.5,1443.1,2933.2,1441.7,2934.9,1440.2z"/>
		<path class="st13" d="M3922.3,1126c-2.6-4.9-0.9-19.2-11.9-5.3c-3.6,4.5-6.6,9.7-12.9,10.9c-10.6,3-19.1-6.1-29.4-5
			c-5.2-24-11.2-47.8-15.3-72c-2.8-16.9-10.1-31.5-18.3-45.9c22.5-6.7,58.8-52.1,58.5-73.2c0-3.9-0.7-8.1-4.5-9
			c-27.3-6.5-17.9-26.1-13.8-41.8c4.3-16.6,5.7-36.8,28.3-41.5c8.9,12.4,17.8,24.9,26.7,37.3c4.3,6,9.9,5.6,15.5,2.8
			c5.8-2.8,9.6-7.1,6.1-14c-14.4-28.1-2.5-55.7,0.9-83.6c1.5-12.2,8.3-18.1,19.4-20.2c17.9-3.3,35.8-6.5,53.8-9.7
			c42.2,12.4,57.4,45.6,64.9,84.5c2.1,11.9,6.6,24.1,5.8,35.9c-1.6,24.6,9.6,27.9,27.9,20.7c5.8-2.5,7,0.1,10.5,0.9
			c9.4,1.9,13.8,10.6,14.6,20.8c0.8,10.1-6.6,19.5-14.3,19.8c-43.8,1.4-34.2,29.9-36.9,57.1c-2.3,22.7-12.1,41.7-28.9,57.3
			c-32,29.8-57.8,29.3-89.2-1.8c-25-24.8-30.8-24.2-48.2,6.7c-9.3,16.5-21.2,33.2-6.8,53.6C3926.8,1114.3,3923.3,1121.1,3922.3,1126
			z M4079.1,877c0.8-23.3-11.8-42.5-28.4-43.1c-15-0.6-30.9,17.9-31.5,36.6c-0.6,19.6,15.8,38.1,34.9,38.2
			C4075.2,908.7,4078.2,893.5,4079.1,877z M4013,836.4c17.2-12.8,29.4-32.1,52.9-35.6C4038.4,798.1,4023.5,814.3,4013,836.4z"/>
		<path class="st10" d="M3783.4,1388.2c59.8-38.1,104.8-88.4,127.8-156.5c-1.1,36.7-12.3,72.5-10.4,109.6
			c-3.8,23.3-5.3,45.5,17.3,61.7c10.9,7.8-5.4,19,1.9,27.9c-2.8,11.2,11.1,20,4.5,31.8c-26.9,18.5-57.7,30.6-83.3,51.2
			c-10.1-2-10.2-11.4-13.1-18.4c-7.4-18.1-12.2-37.9-26-52.4c-10.5-11.1-14.4-22.5-12.2-37.5
			C3790.6,1400.2,3798.7,1388.8,3783.4,1388.2z"/>
		<path class="st17" d="M4025.4,757c-17.9,3.2-35.9,6.4-53.8,9.7c-11.2,2.1-18,8-19.4,20.2c-3.4,27.9-15.3,55.5-0.9,83.6
			c3.5,6.9-0.3,11.2-6.1,14c-5.6,2.7-11.3,3.1-15.5-2.8c-8.9-12.5-17.8-24.9-26.7-37.3c-0.7-18.6,6.6-34,19-47.5
			c17.8-19.4,35.1-39.2,54.7-61.1c1.2,11.2,4.2,16.8,15.7,10.3c11.7-6.6,23.6,7.2,36.3,3.2C4027.6,751.8,4026.5,754.4,4025.4,757z"
			/>
		<path class="st12" d="M3749,1905.9c30.1,16.6,53.6,42.2,82.2,60.9c7.2,4.7,6.1,13,1.3,19.6c-6.1,8.4-7.6,18.5-5.2,27.3
			c6.6,24.3-2.1,47.6-2.1,71.4c-17.4-5.7-35.7-5-53.5-7.1c-26.1-3.1-37.5-16.2-35-41.9C3740.7,1992.7,3744.8,1949.3,3749,1905.9z"/>
		<path class="st12" d="M3822.6,2104.1c-20.3-1.9-40.8-2.9-60.9-5.9c-29.1-4.3-47.6-25.2-46-54.3c2.6-49.5,7.2-98.8,11.2-148.2
			c0.2-2.7,2.4-5.2,3.6-7.8c6,1.6,10.8,4.7,13.5,10.5c-8.3,50.4-12.7,101.2-13.9,152.2c-0.3,12.5,6.6,23.9,17.5,28.5
			c24.8,10.3,51.1,12.4,77.7,6.9C3825.7,2092.2,3826.1,2098.4,3822.6,2104.1z"/>
		<path class="st5" d="M3803.3,1714.4c69,5.9,138,11.7,207,17.6c16.5,1.4,32.9,3,49.3,4.5c-0.2,2.3-0.4,4.7-0.6,7
			c-83.2-7.1-166.4-14.3-249.5-21.4C3807.4,1719.5,3805.4,1716.9,3803.3,1714.4z"/>
		<path class="st5" d="M3825.2,2085.9c-26.6,5.4-52.9,3.4-77.7-6.9c-11-4.6-17.9-16-17.5-28.5c1.2-51,5.6-101.8,13.9-152.2
			c1.7,2.5,3.4,5.1,5.1,7.6c-4.1,43.4-8.3,86.8-12.4,130.2c-2.5,25.7,9,38.8,35,41.9c17.9,2.1,36.2,1.5,53.5,7.1
			C3825.1,2085.2,3825.2,2085.9,3825.2,2085.9z"/>
		<path class="st19" d="M3369.1,1692.5c-16.9-5.1-13.3-18.6-11.7-30.5c1.6-11.4,5.7-22.6-0.5-33.8c0.8-1.1,1.4-2.4,1.7-3.8
			c12.6,0.4,44.5,11.3,60.2,20.9c-12.4,5-25.1,8.5-36.1,15c-16.7,9.8-16.1,23.3,0,34.2C3378.2,1693.8,3373.7,1693.1,3369.1,1692.5z"
			/>
		<path class="st20" d="M3607.9,1750.8c-6.2,1.8-12.4,3.5-18.6,5.3c3.9-18,17.6-31.4,23.2-48.7c1.1-3.4,3.8-6.9,8.2-5.4
			c5.5,1.9,4.1,7.1,3.8,11.2C3623.6,1727.7,3608.7,1736.1,3607.9,1750.8z"/>
		<path class="st20" d="M3419.5,1703.1c5.3,0.6,10.5,1.2,15.8,1.7c2.9,18.1-13.1,24.6-22,35.3c-1.9,2.3-7.7,0.7-6.9-1.3
			C3410.8,1726.9,3411.5,1713.6,3419.5,1703.1z"/>
		<path class="st1" d="M3839.5,2235.7c-0.8-1.5-1.7-2.9-2.5-4.4C3837.8,2232.8,3838.7,2234.2,3839.5,2235.7z"/>
		<path class="st17" d="M3888.2,1708c8.9-16.7,17.8-33.4,39.4-36.3c1.9-0.3,5.1-1.9,5.2-3.1c2.2-27,23-13.1,35.8-16.4
			c9,8,15,20.4,30.4,18.6c22-2.7,43.8-0.9,65.5,3.4c9.3,1.9,19.5,3.1,22.8-10c18.7,2.1,47.3,31.1,52.9,53c1.2,4.7-1.6,10.4,3.3,14.2
			c-6.2,9.1-9.9,3.4-13.5-2.4c-1.6-9.5-4.2-18.6-10.6-26c-3.3-3.8-8.7-10.2-12.3-6.3c-16.4,17.9-35.5,1.2-52.7,5.6
			c-17.9-4.4-36.1-4.7-54.3-3.6c-20,4-39-3.7-57-8.7c-21.1-5.8-31.4,0.2-39.5,17.6C3898.5,1707.8,3893.3,1707.9,3888.2,1708z"/>
		<path class="st5" d="M4188.6,1754.1c30.1-5.3,53.9-2.2,77.2,2.4c17.7,3.5,29.2,22.4,27.5,44.6c-3.8,48.2-8.4,96.2-12.9,144.3
			c-4.1,44.9-8.6,89.8-12.6,134.8c-3.1,35.1-17.7,49-52.3,46.1c-84.5-7.1-168.8-15.1-253.3-22.8c-2.8-0.3-5.9-0.4-8.2-7.9
			c20.6,1.5,40,2.7,59.2,4.4c70.8,6.3,141.5,13.3,212.3,19c20,1.6,31.3-10.5,33.2-30.3c7.2-75.1,14.3-150.1,21.3-225.2
			c2-21.1,4.1-42.3,5-63.5c1.1-25.2-9.7-36.9-34.2-38.6c-9.5-0.6-19.1,0.2-28.5-0.8C4213.1,1759.6,4203.9,1757.1,4188.6,1754.1z"/>
		<path class="st18" d="M3903.6,1707.7c8.1-17.3,18.4-23.4,39.5-17.6c18,5,37.1,12.7,57,8.7c17.7,7,35.3,16.9,54.3,3.6
			c17.2-4.5,36.3,12.3,52.7-5.6c3.6-4,9,2.5,12.3,6.3c6.4,7.4,9,16.5,10.6,26C4054.5,1723.3,3978.9,1717.2,3903.6,1707.7z"/>
		<path class="st5" d="M4126.6,1744.7c20.7-3.6,40.7,3.7,61.1,3.5c-0.1,2.5-0.2,5-0.4,7.5c-20.2-1.7-40.4-3.4-60.6-5.1
			C4126.6,1748.7,4126.6,1746.7,4126.6,1744.7z"/>
		<path class="st13" d="M4087.4,1664.3c-3.3,13.1-13.6,11.8-22.8,10c-21.7-4.4-43.5-6.1-65.5-3.4c-15.3,1.9-21.3-10.6-30.4-18.6
			c-16.6-19.6-39.5-31.8-58.5-48.9c-28.9-25.9-52.7-54.6-69.1-89.6c25.6-20.6,56.5-32.7,83.3-51.2c35.6,49.3,61.2,103.8,83.2,160.1
			c3.9,10.1,9.6,13.8,20,16.3C4048.7,1644.3,4070.2,1649.5,4087.4,1664.3z"/>
		<path class="st17" d="M3210.1,1394.1c10.4,9.3,13.2,25.8,31.6,28.1c11.2,1.4,2.9,10-0.4,14.5c-11.5,15.6-23.5,30.9-35.3,46.3
			c-10,7.8-16.8,18-22.5,29.1c-1.4,2.2-2.9,4.3-4.3,6.5c-4.5,2.2-7.4,5.8-9.2,10.3c-2.7,3.4-5.4,6.7-8,10.1
			c-7.2,4.5-9.7,12.3-13.5,19.1c-5.3,3.3-10.1,7-12.3,13.2c-5.1,7.2-10.3,14.5-15.4,21.7c-19.2,15.6-30.6,37.2-44.4,57
			c-40.2,57.5-81.1,114.6-121.8,171.8c-9-2.2-11.2-9.4-12.3-17.2c44.6-62.5,85.6-127.6,135.3-186.4c0,0,0.4-0.6,0.4-0.6
			c2.2-2.9,8.9,0.4,8.5-6.2c-1-9.2,11.4-12.5,9.8-22c5.2-2.9,6.6-8.4,9.1-13.1c9.3-7.2,15.4-17.1,21.6-26.8
			c4.3-3.4,8.8-6.7,9.4-12.8c3.5-4,7-8,10.6-12c1.1-1.5,2.2-3,3.2-4.5c2.3-3.4,4.6-6.8,6.9-10.3c8.3-10.5,16.5-21.1,24.7-31.6
			c8.9-8.4,19.8-17.4,20.9-29.1c0.5-6.1-13.7-2.8-20.9-5.2c-5.7-3-11.4-5.9-17.1-8.9c1.9-6.2,3.5-12.5,5.6-18.5
			C3180.7,1387.6,3182.2,1386.8,3210.1,1394.1z"/>
		<path class="st13" d="M4115,2397.2c-3.5-3.2-5.7-6.8-2.2-11.2c1.1-1.4,3.9-3.1,5.2-2.6c5.8,2,3,7,3.3,11
			C4119.2,2395.4,4117.1,2396.3,4115,2397.2z"/>
		<path class="st0" d="M3165.3,2451.4c0.6,12.4-9,8-15.1,9.2C3151.1,2450.9,3159.7,2453.6,3165.3,2451.4z"/>
		<path class="st0" d="M4074.9,2384.6c5.8,3.2,7.1,8.1,5.1,14.1c-0.2,0.7-2.9,1.3-3.7,0.8c-5.6-3.5-1.3-9-2.6-13.5
			C4073.7,2386,4074.9,2384.6,4074.9,2384.6z"/>
		<path class="st0" d="M4158.3,2363.7c-1.4,3.1-4.1,5-6.8,2.8c-2.9-2.3-0.4-5,1.5-7.2C4154.9,2360.8,4156.6,2362.3,4158.3,2363.7z"
			/>
		<path class="st17" d="M2797.3,2060.3c4,20.4-10.7,33.9-18.5,49.9c-0.1,0.3-4.8-1.6-7.3-2.5c-24.5-50.7-60.2-92.8-100.7-131.2
			c-3.8-7.2-11.2-9.9-17.4-14.1c-0.4-13.1-12.2-17.7-19.8-24.8c-20.8-19.4-41-39.7-66.2-53.7c9.1-11.5,18.2-22.9,27.4-34.4
			c25.8,21.8,51.6,43.5,77.5,65.3c7.5,6.5,14.9,13.1,22.4,19.6c19.5,27.3,46.4,48,65.7,75.6C2772.1,2027,2781,2046.5,2797.3,2060.3z
			"/>
		<path class="st14" d="M3183.4,1520.4c-1.4-0.6-2.8-1.2-4.2-1.9c1.4-2.2,2.9-4.3,4.3-6.5
			C3183.5,1514.8,3183.4,1517.6,3183.4,1520.4z"/>
		<path class="st20" d="M2694.5,1934.4c-7.5-6.5-14.9-13.1-22.4-19.6c12.6-47.4,11.3-94.3-0.3-142.2c-4.2-17.3-4.2-36.6-6.2-55
			c-1.5-13.7-6.6-21.9-20.6-23.6c-5.3-10.1-0.8-19.8,1.3-29.6c4.2-11.6,8.4-23.3,12.8-35.3c8,2.4,14.3,10.9,23.7,6.5
			c11.8,1,21.3,14.5,34.8,6.7c0.5,12.3,7.4,8.3,13.9,5.5c1.1,4.3,3.2,7.4,8.3,7c5.8,3,11.6,6,17.4,9c29.3,12.2,61.4,17.6,88.7,35
			c-0.7,8.4-5.1,15-9.8,21.6C2786.5,1790.2,2740.9,1862.6,2694.5,1934.4z"/>
		<path class="st1" d="M2878.2,1493.9c-4.1-1.8-10.4,0.6-12-5.9c-0.2-0.7,1.3-2.6,2.3-2.8c6.8-1.4,7.7,4.3,10,8.4
			C2878.5,1493.7,2878.2,1493.9,2878.2,1493.9z"/>
		<path class="st21" d="M2750.9,1603.1c-2,1.4-4.1,2.8-6.1,4.2c-1.6-1.5-3.2-3-4.8-4.4c0,0,0.6-0.7,0.6-0.7
			C2744,1602.5,2747.4,1602.8,2750.9,1603.1z"/>
		<path class="st11" d="M2694.5,1934.4c46.4-71.8,92.1-144.2,141.6-213.9c4.7-6.6,9.1-13.3,9.8-21.6c6.1,5,12.2,10,18.4,15.1
			c1.8,6.2,5.2,10.7,12.2,11.4c18.7,29.2,38.6,57.4,66,79.3c1.1,7.9,3.3,15,12.3,17.2c-7,26.1-25.8,45.4-39.7,67.3
			c-34.4,54.4-70.9,107.5-106.7,161.1c-2.8,4.1-5.3,8.9-11,10.1c-16.3-13.8-25.2-33.3-37.1-50.3
			C2740.9,1982.4,2713.9,1961.7,2694.5,1934.4z"/>
		<path class="st18" d="M2864.2,1713.9c-6.1-5-12.2-10-18.4-15.1c-27.3-17.5-59.3-22.9-88.7-35.1c24.7-32.8,24.7-32.9,60.8-13.6
			c13.5,7.2,27,14.4,40.2,22C2886.8,1688.6,2886.9,1689.8,2864.2,1713.9z"/>
		<path class="st18" d="M2739.7,1654.8c-5.1,0.4-7.2-2.7-8.3-7c7.3-9.7,12.5-22.2,30.5-22.9
			C2753.6,1636.2,2746.7,1645.5,2739.7,1654.8z"/>
		<path class="st10" d="M3365.9,1497.1c16.1-66.6,48-126.4,81.9-185.1c26.3-45.5,55.7-89,89.7-129.3c6.3-7.4,10.6-13.4-4.6-12.3
			c25-4.1,49.9-8.3,75-12.1c53.3-8.2,106.4-17.2,153.6-45.8c3.2-1.9,6.8-3.6,9.9-0.2c2.4,2.6,0.2,5.1-0.8,7.9
			c-12.6,33.5-35.9,54.2-71.6,60.1c-30.9,5.2-60.5,16.6-92.1,18.7c-4.8,0.3-11.8,0.9-14.3,7.9c6.2,7.7,15.7,1,23.3,6.2
			c-20.4,6.5-41.1,8.6-60.2,17c-32.6,14.4-48.9,44.8-70.8,69.7c-28.4,32.2-43.2,73.9-73.4,105.2c-12.2,12.7-11.1,31-11.1,47.9l0,0
			c-11.4,14.6-15.8,30-4.4,47.1C3385.1,1502,3375.2,1502.6,3365.9,1497.1z"/>
		<path class="st0" d="M3871.1,1122.7c10.3-1.1,18.8,8,29.4,5c-2.4,8.9-6.9,18.1-16.6,17.3C3871.4,1144,3874.9,1130.5,3871.1,1122.7
			z"/>
		<path class="st19" d="M3400.3,1452.9c0.9,1,1.9,2,2.8,3c-0.7,0.4-1.4,0.8-2,1.1C3400.9,1455.7,3400.6,1454.3,3400.3,1452.9
			C3400.4,1452.9,3400.3,1452.9,3400.3,1452.9z"/>
		<path class="st0" d="M4079.1,877c-0.9,16.4-4,31.7-25,31.6c-19.1-0.1-35.5-18.6-34.9-38.2c0.6-18.7,16.5-37.1,31.5-36.6
			C4067.3,834.6,4079.9,853.7,4079.1,877z"/>
		<path class="st17" d="M4013,836.4c10.5-22.1,25.4-38.3,52.9-35.6C4042.4,804.3,4030.2,823.6,4013,836.4z"/>
		<path class="st22" d="M4087,985.7c-19.3,19.1-44.2,24.2-69.7,27.6c24.2-6.7,46-19.6,69.6-27.7C4086.9,985.5,4087,985.7,4087,985.7
			z"/>
		<path class="st13" d="M4054.5,1702.5c-19.1,13.3-36.6,3.3-54.3-3.6C4018.5,1697.8,4036.6,1698.1,4054.5,1702.5z"/>
		<path class="st5" d="M3182,1444.1c7.2,2.5,21.5-0.8,20.9,5.2c-1.1,11.8-11.9,20.7-20.9,29.1C3182,1467,3182,1455.5,3182,1444.1z"
			/>
		<path class="st18" d="M3358.3,1493.1c-0.5-1.2-1.2-2.3-1.2-3.4c0-0.4,1.5-0.9,2.4-1.3c0.2,0.6,0.8,1.3,0.6,1.7
			C3359.7,1491.1,3359,1492,3358.3,1493.1z"/>
		<path d="M3329.3,1238.2c-3.2-32-4.2-64-38.1-84c-1.1,0,0-4,0-6c129.2-78,274.3-118,423.6-146c40.2-8,80.5-13,119.7,1
			c9.5,14,16.9,29,20.1,46c4.2,24,10.6,48,15.9,72c4.2,8,0,21,13.8,22c9.5,1,14.8-8,16.9-17c7.4-2,10.6-7,13.8-11
			c11.6-14,10.6,0,12.7,5c0,37-6.4,74-14.8,110c-24.4,68-72,118-135.5,156c-42.4,34-90,61-117.5,109c-43.4,12-87.9,19-133.4,26
			c-52.9,11,3.2,10,28.6,10c38.1,0,73.1-15,111.2-18c4.2,4,8.5,9,12.7,14c1.1,3,1.1,5,2.1,8c-7.4,12-37.1,22-6.4,39
			c-3.2,18,5.3,29,23.3,36c2.1,1,3.2,3,5.3,4v4c-1.1,5-3.2,9-5.3,14c-32.8,53-262.6,90-344.1,61c-33.9-90,45.5-361,108-395
			c23.3-25,40.2-55,75.2-70c20.1-8,41.3-10,63.5-17c-8.5-5-18,2-25.4-6c3.2-7,10.6-8,15.9-8c32.8-2,64.6-13,97.4-19
			c37.1-6,62.5-26,75.2-60c1.1-2,4.2-5,1.1-8s-7.4-1-10.6,1c-49.8,28-105.9,37-162,45c-26.5,4-52.9,8-79.4,13
			c-16.9,3-31.8,13-46.6,16c-37.1,8-69.9,21-101.7,40C3353.7,1231.2,3343.1,1240.2,3329.3,1238.2z"/>
		<path class="st17" d="M1427,2385.5c13.9-1.4,24.8,5.9,36.1,12.3c2.8,11,10.4,20.8,7.1,33.3c-5.2,19.4-18.1,30.8-37.5,30.9
			c-17.2,0.1-31.2-8.9-36-26.7c-5.2-19.1,1-34.6,18.4-44.8C1418.7,2388.4,1423,2387.2,1427,2385.5z"/>
	</g>
	<circle class="st12" cx="4064.7" cy="897" r="9.3"/>
	<path class="st23" d="M1436.9,1761.4c9.5,5.1,17.3,6.8,28.6,0.1c18.2-10.8,40.9-11.9,63-7.1c10.8,2.4,14.9,0.4,19.2-6.3
		c38-60.2,154.6-71.2,212-15c5.5,5.4,10.7,6.2,19.8,4.7c28.4-4.8,52.9,0.9,71.4,17.4c6.2,5.6,10.9,7.2,20.8,4.1
		c17.1-5.4,35.5-5.5,53.3-0.9c8.7,2.2,13,2.6,16-5.9c16.8-46.9,74.5-68.6,138.6-52.4c8.9,2.3,13.4,1.2,19.8-3.6
		c37.3-28.4,88.7-25.7,121.4,6.4c5.3,5.2,9.9,6.8,19.1,6.3c44.5-2.5,81.6,8.7,109.6,34c6.4,5.8,11.8,9.2,23.8,8.3
		c20.2-1.4,38.4,4.3,51.9,15.7c6.9,5.9,10.3,7.5,17.5-0.7c20.6-23.5,54.9-28.3,87.6-12.5c8.7,4.2,12,3.4,18.6-1.8
		c47.2-37,120.6-27.6,146.3,19c4.2,7.6,9,9.4,19.6,9.5c43.3,0.7,69.6,22.2,64.7,53.5c-1.4,9,0.2,13,13.4,15.4
		c14.9,2.7,24.2,11.3,25.5,22.5c0.9,7.6,4.1,9.8,14.9,10.5c37.6,2.3,56.4,28.5,38.5,52.3c-10.4,13.8-3.2,25.3,18.4,29.8
		c15,3.1,25.6,9,25,21.6c-20.4-4-41.3-1.8-62-2.6c-4.5-8.4-16-15.6-7.9-26c10-12.9-2.1-18.8-15.2-23.8c-5-1.9-12.6-1.8-14.1-6.4
		c-4.5-13.9-10-27-29.4-34.5c-4.5-1.7-3.4-6.8-3.8-10.5c-3.2-30.5-42.2-47.9-80.5-35.4c-9.5,3.1-16.3,3.1-24.9-1.2
		c-27.1-13.4-55.8-17.1-86.2-5.6c-5.8,2.2-10.7,1.3-16.6-0.3c-28.5-7.9-41.9-1.6-45.4,20.9c-0.9,5.9-2.8,11-11.1,13.7
		c-12.3-22.7-12.7-23-37.6-19.7l0.1-0.1c-4.5,0.9-9,1.9-13.5,2.8c-13.6-10.1-31.7-13.1-49.6-16.6c-0.7-1.7-1.5-3.3-2.2-5
		c0,0,0,0.1,0,0.1c-1.3-1.4-2.5-2.9-3.8-4.3c-0.3-0.8-0.9-1.5-1.6-2.1c-1-0.5-1.5-1.3-1.6-2.2c-1.3-0.9-2.6-1.8-3.8-2.7
		c-0.8,0-1.2-0.4-1.2-0.9c-1-0.7-2-1.3-3-2c-1.8-0.5-3.7-0.9-5.4-1.5c-40.3-14.4-68-7-84.3,22.9c-2.6,4.8-6.6,6.7-13.1,6.3
		c-5.2-0.3-8.9,0.7-10.3,4.6c-12.5,7.2-23.8,14.6-34.1-2.7c-5.7-9.6-19.9-9.9-32.4-6.5c-11.9,3.3-16.2,10.3-13.7,19.4
		c1.8,6.2,3,12.3-7.8,15.2c-10.4,2.7-20.1,3.5-28.4-3.5c-4.6-3.8-8.8-9.2-16.5-9.2c-14.5-0.2-21.3-6.8-29.3-14
		c-16.4-14.8-46.3-17.9-68.4-7.1c-13.6,6.7-27.7,9.7-44,9.1c-16.7-0.7-31.8,1.9-45.5,9.8c-12.9,7.5-23.1,5.2-31.4-5.1
		c-12.1-15-33.2-25.3-54.3-22.5c-27.6,3.6-52.5,7.2-79.9-0.5c-9.1-2.6-16.2-3.1-22.3-10c-19.4-21.8-47.9-31.5-81.5-7.3
		c-8.5,6.1-17.5,8.6-28,6.6c-30-5.7-57.8,1.8-86,6.5c-16.9,2.9-31.4,3.4-43.5-7.7c-6.6-6.1-14.9-8-20.7,1.3
		c-9.6,15.5-18.3,16.7-32.1,2.1c-8.8-9.3-14.1-17.9-31.8-8.2c-5.1,2.8-12.5-0.8-18.8-1.7l0,0c-1.4-2.7-4.1-4.4-8.1-5
		c-0.4-2.9-0.9-5.8-1.3-8.8c0.1-3-2.1-5-5.3-6.5c0-6.5-0.1-13-0.1-19.4c1.1-0.7,2.1-1.5,3.2-2.2
		C1434.5,1773.3,1434.7,1767,1436.9,1761.4z"/>
	<path class="st24" d="M3028.7,1766.7c-59.6,76.4-133.9,138.4-202.5,205.9c-5.3,5.2-10.2,11-15.2,16.4c-29.6,21.5-59.4,42.4-95.9,51
		c-6.5,1.5-13.5,2.4-18.6,7.7c-10.2,3.1-20.4,6.2-31.7,9.6c1.7-13.2,7.4-24.7,4.2-37.1c4-7.6,2.7-15.9,2.8-23.9
		c0.2-38.4,3.8-75.9,27.6-109.4c-30.8,25.3-65.3,41.2-103.4,49.7c-5.2-1.6-9.8-1-13,4l-0.1-1.2c0,0,0.2,1.2,0.2,1.2
		c-11.6-3.6-11.8-13.2-11.6-22.7c0.5-26.1,2.1-52.1,6.2-78c2.7-16.8,10.2-31.5,17.8-45.4c20.4-37.7,53.4-65.7,81.5-97.4
		c30.7-34.6,63.7-67.5,98.3-98.4c26.8-23.9,57.7-42.5,94.2-50.7c16.9-3.8,37.4-1.1,49-19.3c5-2,11.3-0.5,15.4-5.1
		c2.9-0.8,5.8-1.7,8.8-2.5c17.9-2.3,36.6-1,52.9-11l0.2,0c3.4,6.7-6.8,13.2-0.3,19.9c-28.3,43.3-44.1,93.4-77,137.3
		c62-27.9,125.5-35.5,190-52.2C3082.3,1668.4,3061.9,1720.8,3028.7,1766.7z"/>
	<path class="st25" d="M1565.7,1943.1c3.1,14.9,6.2,29.8,9.2,44.7c0.5,2.6,1,5.1,1.5,7.7c1.9,9.8,4.3,19.6,0.1,29.4
		c-10.1,0.5-21.1-1.5-30.1,1.8c-39.8,14.6-48.9-5.6-55.3-40.3c-10.1-54.3-13.6-110.3-34.6-162.3c-8.1-45-16.2-89.9-24.2-134.9
		c24,9.6,18.6,39.9,37.5,53.2c11,54.9,21.8,109.8,33.3,164.5c1.8,8.8-0.2,24.2,14.8,21.5c15.5-2.7,7.6-16.3,6.1-25.1
		c-10.9-62.6-22.5-125.2-33.8-187.7c29.2-3.3,8.7-31.7,21.8-43.1c17.2,83,34.4,165.9,51.5,248.9
		C1564.2,1928.7,1565,1935.9,1565.7,1943.1z M1555.4,1986c-3.5-26.7-3.1-46.3-29.3-35.7c-9.5,3.8-24.7-3.2-27.5,13.3
		c-1,5.8,46.3,37.7,51.7,35.1C1562.1,1993.1,1555.2,1983.7,1555.4,1986z"/>
	<path class="st26" d="M1512,1672.6c-13.1,11.4,7.3,39.9-21.8,43.2c-7.4-37-14.3-74.2-22.5-111.1c-2.4-10.6,1-30.5-18.4-25.5
		c-14.7,3.7-6.9,19.2-5,29.6c8.2,44.6,17,89.2,25.5,133.7c-18.8-13.3-13.4-43.6-37.5-53.2c-16.1-36.8-15.9-77.1-25.3-115.3
		c5.5-18.2,2.6-34.8-9-49.9c-0.9-5.3-1.8-10.6-2.8-15.8c8.5-2.4,12.3-7.4,9-16.3c28-5.7,55.5-14.5,84.5-13
		c0,50.7,11.9,99.7,20.8,149.1C1512.1,1642.6,1519.6,1657.3,1512,1672.6z M1419.7,1541.4c7.5,11.6,14.6,23.6,29.8,18.5
		c12.9-4.3,14.6-15.8,11.4-28c-3.4-12.8-11.4-20.3-24.6-15.6C1425,1520.2,1418.8,1529.5,1419.7,1541.4z"/>
	<path class="st25" d="M1744.5,1757.6c-11.9,26.6-13.5,55.4-18.3,83.5c-1.5,3.6-2.9,7.3-4.4,10.9c-17.5-3-34.9-6-52.4-9
		c-3.5-5.7-8-7.8-13.9-3.3c-17.1-3.7-34.3-7.5-51.4-11.2c0.7-6.7,1.3-13.5,2-20.2c66.5,18.9,110.8,2.9,125.3-46.5
		c19.4-65.8-33.8-116.1-97.6-108.5c4.9-6.8,8.5-15.2,14.8-20c18.8-14.4-2-38.5,14.2-52.9c26.3,4,52.8,7.7,79,12.3
		c11.8,2.1,26.9,1,27.4,19.5c-2.2,10.8-4.4,21.5-6.6,32.3c-0.9,4.3-1.8,8.6-2.8,12.9c-5.9,20.4-11.4,40.8-10.2,62.3
		C1748,1732.3,1746.3,1744.9,1744.5,1757.6z"/>
	<path class="st26" d="M1662.8,1580.5c-16.2,14.4,4.6,38.5-14.2,52.9c-6.3,4.8-10,13.2-14.8,20c-60.5,21.9-87.3,96.6-27.7,155
		c-0.7,6.7-1.3,13.5-2,20.2c-18.4,2.9-35.6-3.3-53.1-6.9c-1.6-70.1,17.6-137.3,28.8-205.5
		C1588.2,1565.5,1611.3,1556.3,1662.8,1580.5z"/>
	<path class="st26" d="M1565.7,1943.1c-0.7-7.2-1.5-14.4-2.2-21.6C1569.1,1928.2,1569,1935.5,1565.7,1943.1z"/>
	<path class="st26" d="M1576.5,1995.5c-0.5-2.6-1-5.2-1.5-7.7C1575.5,1990.4,1576,1992.9,1576.5,1995.5z"/>
	<path class="st27" d="M1469.7,1742.5c-8.6-44.6-17.3-89.1-25.5-133.7c-1.9-10.4-9.7-25.9,5-29.6c19.4-4.9,16.1,14.9,18.4,25.5
		c8.2,36.9,15.1,74,22.5,111.1c11.3,62.6,22.9,125.1,33.8,187.7c1.5,8.8,9.4,22.4-6.1,25.1c-15,2.6-13-12.7-14.8-21.5
		C1491.5,1852.3,1480.7,1797.4,1469.7,1742.5z"/>
	<path class="st26" d="M1555.4,1986c-0.2-2.3,6.7,7.1-5,12.7c-5.5,2.6-52.7-29.3-51.7-35.1c2.8-16.6,18-9.5,27.5-13.3
		C1552.3,1939.7,1551.9,1959.3,1555.4,1986z"/>
	<path class="st27" d="M1419.7,1541.4c-0.8-12,5.4-21.2,16.5-25.1c13.3-4.7,21.3,2.8,24.6,15.6c3.2,12.2,1.5,23.6-11.4,28
		C1434.3,1565,1427.2,1553,1419.7,1541.4z"/>
	<path class="st27" d="M1606.1,1808.3c-59.6-58.4-32.8-133,27.7-155c63.9-7.6,117.1,42.7,97.6,108.5
		C1716.8,1811.2,1672.5,1827.2,1606.1,1808.3z M1638.1,1799.4c44.8,6.7,75.1-12,82.2-50.8c7.3-39.3-13.5-66.1-59-76.4
		c-37.3,1.1-65.6,22.3-70.8,53C1585.3,1756.6,1604.6,1786.8,1638.1,1799.4z"/>
	<path class="st25" d="M1661.4,1672.2c45.5,10.3,66.3,37.1,59,76.4c-7.2,38.8-37.5,57.5-82.2,50.8
		C1645.9,1757,1653.7,1714.6,1661.4,1672.2z"/>
	<path class="st26" d="M1661.4,1672.2c-7.7,42.4-15.5,84.8-23.2,127.2c-33.5-12.6-52.9-42.8-47.5-74.2
		C1595.8,1694.4,1624.1,1673.2,1661.4,1672.2z"/>
	<g>
		<path class="st22" d="M2559,979.7c4.3,4.3,8,8,12.1,12.1c5.2-7.4,9.8-14.2,14.5-20.9c4.5-6.5,9.1-13,14.2-20.3
			c8.6,8.6,16.8,16.6,24.6,24.9c0.9,1,0.3,4-0.4,5.9c-5.1,13-10.2,26-15.7,38.8c-1.9,4.6-1.8,7.4,1.4,10.6
			c104.7,104.5,209.4,209.1,313.9,313.9c2.8,2.8,5.2,3.3,9.5,1.5c12.5-5.3,25-10.3,37.6-15.2c2-0.8,5.2-1,6.3,0.1
			c8.2,7.7,16.1,15.8,24.5,24.2c-13.3,9.3-25.9,18.1-39.3,27.4c3.5,3.5,6.8,6.8,10.7,10.7c-2.8,2.8-5.1,5.1-7.3,7.3
			c-272.1,272.1-544.2,544.2-816.3,816.2c-4.2,4.2-6.3,7.1-3.6,12.6c6.1,12.7,1.3,29.1-10.8,40.3
			c-149.9-149.9-299.8-299.8-449.7-449.7c7.2-10.4,23.5-16.5,36.2-12.4c5.9,1.9,9.3,0.3,14.1-4.4
			c272.5-272.7,545.1-545.3,817.7-817.9C2554.8,983.9,2556.4,982.2,2559,979.7z M2140.9,2188.6c264.1-264.1,527.7-527.7,791.5-791.5
			c-125.9-125.9-251.5-251.5-377.2-377.2c-263.9,263.9-527.6,527.6-791.5,791.5C1889.5,1937.2,2015,2062.7,2140.9,2188.6z"/>
		<path class="st28" d="M2140.9,2188.6c-126-126-251.4-251.4-377.2-377.2c263.9-263.9,527.5-527.5,791.5-791.5
			c125.7,125.7,251.3,251.3,377.2,377.2C2668.6,1660.9,2405,1924.6,2140.9,2188.6z M2343.6,1253.2
			c119.8,119.8,239.2,239.2,358.5,358.5c33.4-33.4,66.4-66.4,99.4-99.4c-119.7-119.7-239.1-239.1-358.5-358.5
			C2409.7,1187.1,2376.8,1220,2343.6,1253.2z M2455,1141.8c119.1,119.1,237.8,237.8,356.5,356.5c33.3-33.3,66.3-66.3,99.4-99.4
			c-119-119-237.7-237.7-356.5-356.5C2521.2,1075.6,2488.3,1108.5,2455,1141.8z M2189.1,1684.6c-23.6,23.6-47.2,47.1-70.7,70.7
			c-2.5,2.5-5.7,5.3-6.4,8.1c-0.9,3.4-0.9,8.3,1.1,10.2c2,1.8,6.9,1.6,10.3,0.5c2.9-0.9,5.6-4.1,8.1-6.6
			c46.5-46.4,93-92.9,139.4-139.4c2.7-2.7,6-5.4,7.3-8.5c1.4-3.4,2.2-8.7,0.5-10.5c-2-2.1-7.1-2.5-10.6-1.6c-3,0.8-6,4.2-8.7,6.9
			C2235.9,1637.8,2212.5,1661.2,2189.1,1684.6z M2252.2,1747.4c-7.5,7.5-15,15-22.6,22.6c-17.2,17.2-34.5,34.4-51.6,51.6
			c-6.2,6.2-6.7,13.1-0.9,16.5c5.7,3.4,10.1-1.2,14.3-5.5c47.8-47.8,95.6-95.6,143.4-143.4c1.8-1.8,3.8-3.6,5.4-5.6
			c3.6-4.7,4.4-9.5,0.7-12.9c-3.6-3.4-8.3-2.9-13,1c-1.6,1.4-3.1,3-4.6,4.5C2299.6,1699.9,2275.9,1723.7,2252.2,1747.4z
			 M1971.8,1993.9c-0.2,0.2-0.4,0.4-0.6,0.5c1.3,1.3,2.5,2.5,3.8,3.8c54.5,54.5,109,109,163.4,163.4c5.9,5.9,5.9,5.9,13.1-1.2
			c174.3-174.2,348.5-348.5,522.8-522.7c2-2,3.9-3.9,5.9-5.9c-0.1-0.1-0.3-0.2-0.4-0.4c-3.8,3.8-7.7,7.7-11.5,11.5
			c-171.9,171.9-343.8,343.8-515.7,515.7c-8,8-8,8-14.7,1.2c-53.8-53.8-107.6-107.6-161.3-161.3
			C1974.9,1997,1973.4,1995.4,1971.8,1993.9z M2323.5,1274.7c-0.1-0.1-0.3-0.2-0.4-0.4c-0.7,0.7-1.3,1.3-2,2
			c-176.1,176.1-352.2,352.2-528.4,528.2c-4.9,4.9-4.3,7.2-0.6,10.9c52.4,52.1,104.6,104.4,156.8,156.7c1.8,1.8,3.7,3.7,5.5,5.5
			c0.2-0.2,0.4-0.4,0.6-0.6c-1.3-1.3-2.5-2.5-3.8-3.8c-52-52-103.9-103.9-155.9-155.9c-1.3-1.3-2.5-2.6-3.8-3.8
			c-2.6-2.4-2.2-5,0.8-7.8c1.7-1.6,3.3-3.4,5-5c172.3-172.3,344.5-344.5,516.8-516.8C2317.3,1280.9,2320.4,1277.8,2323.5,1274.7z"/>
		<path d="M2343.6,1253.2c33.2-33.2,66.1-66.1,99.4-99.4c119.5,119.5,238.8,238.8,358.5,358.5c-33,33-66,66-99.4,99.4
			C2582.8,1492.4,2463.5,1373,2343.6,1253.2z M2583.6,1460.7c8.6-7.8,9.7-18,2.6-25.3c-11.9-12.2-24.1-24.1-36.1-36.2
			c-10.2-10.2-20.4-20.5-30.7-30.6c-7.3-7.1-17.1-6.2-25.4,2.4C2523.7,1400.8,2553.5,1430.5,2583.6,1460.7z"/>
		<path d="M2455,1141.8c33.3-33.3,66.2-66.2,99.4-99.4c118.8,118.8,237.5,237.5,356.5,356.5c-33.1,33.1-66.1,66.1-99.4,99.4
			C2692.8,1379.5,2574.2,1260.9,2455,1141.8z M2602.6,1261.9c30.2,30.2,60.2,60.2,90.1,90.1c7.9-9.3,9.1-18.2,2.5-25
			c-22.3-22.7-44.8-45.3-67.6-67.6C2621,1252.8,2612.1,1253.9,2602.6,1261.9z"/>
		<path d="M2189.1,1684.6c23.4-23.4,46.8-46.8,70.2-70.2c2.7-2.6,5.6-6.1,8.7-6.9c3.6-0.9,8.7-0.5,10.6,1.6
			c1.7,1.8,0.8,7.2-0.5,10.5c-1.3,3.1-4.6,5.9-7.3,8.5c-46.4,46.5-92.9,93-139.4,139.4c-2.5,2.5-5.2,5.7-8.1,6.6
			c-3.4,1.1-8.4,1.3-10.3-0.5c-2-1.8-2-6.8-1.1-10.2c0.8-2.9,4-5.7,6.4-8.1C2142,1731.8,2165.6,1708.2,2189.1,1684.6z"/>
		<path d="M2252.2,1747.4c23.7-23.7,47.5-47.5,71.2-71.2c1.5-1.5,2.9-3.1,4.6-4.5c4.6-3.9,9.4-4.4,13-1c3.7,3.5,3,8.3-0.7,12.9
			c-1.6,2-3.6,3.8-5.4,5.6c-47.8,47.8-95.6,95.6-143.4,143.4c-4.2,4.2-8.7,8.8-14.3,5.5c-5.8-3.5-5.3-10.3,0.9-16.5
			c17.2-17.2,34.4-34.4,51.6-51.6C2237.1,1762.4,2244.6,1754.9,2252.2,1747.4z"/>
		<path d="M1971.8,1993.9c1.5,1.5,3.1,3.1,4.6,4.6c53.8,53.8,107.6,107.6,161.3,161.3c6.8,6.8,6.8,6.8,14.7-1.2
			c171.9-171.9,343.8-343.8,515.7-515.7c3.8-3.8,7.7-7.7,11.5-11.5c0.1,0.1,0.3,0.2,0.4,0.4c-2,2-3.9,3.9-5.9,5.9
			c-174.3,174.3-348.5,348.5-522.8,522.7c-7.2,7.2-7.2,7.2-13.1,1.2c-54.5-54.5-109-109-163.4-163.4c-1.3-1.3-2.5-2.5-3.8-3.8
			C1971.4,1994.3,1971.6,1994.1,1971.8,1993.9z"/>
		<path d="M2323.5,1274.7c-3.1,3.1-6.2,6.2-9.3,9.3c-172.3,172.3-344.5,344.5-516.8,516.8c-1.7,1.7-3.3,3.4-5,5
			c-2.9,2.8-3.4,5.4-0.8,7.8c1.3,1.2,2.5,2.5,3.8,3.8c52,52,103.9,103.9,155.9,155.9c1.3,1.3,2.5,2.5,3.8,3.8
			c-0.2,0.2-0.4,0.4-0.6,0.6c-1.8-1.8-3.7-3.7-5.5-5.5c-52.2-52.2-104.5-104.5-156.8-156.7c-3.7-3.7-4.2-6,0.6-10.9
			c176.2-176,352.3-352.1,528.4-528.2c0.7-0.7,1.3-1.3,2-2C2323.2,1274.4,2323.4,1274.6,2323.5,1274.7z"/>
		<path class="st0" d="M2583.6,1460.7c-30.1-30.1-59.9-59.9-89.6-89.6c8.3-8.6,18.1-9.5,25.4-2.4c10.3,10.1,20.5,20.4,30.7,30.6
			c12,12,24.2,24,36.1,36.2C2593.3,1442.6,2592.2,1452.8,2583.6,1460.7z"/>
		<path class="st0" d="M2602.6,1261.9c9.4-7.9,18.3-9.1,25.1-2.4c22.7,22.3,45.3,44.9,67.6,67.6c6.6,6.7,5.4,15.7-2.5,25
			C2662.8,1322,2632.8,1292.1,2602.6,1261.9z"/>
	</g>
	<path class="st29" d="M2206.2,1703.1c-7.9,15.5-20.5,27.2-32.5,39.3c-88.4,89-177.1,177.7-265.3,267c-11.2,11.3-18.2,27.2-36.7,29
		c-37.4-37.1-74.8-74.1-112.2-111.2c34.7-35.5,69.9-70.3,103.6-106.6c14.6-15.8,25.3-16.1,39.1,0.1c10.3,12.1,22.5,23.6,37.3,4.2
		c6.6-6.3,13.1-12.6,19.7-18.9c6.3-2.6,13.4-4.3,14.8-12.6c5.1-4.9,10.1-9.8,15.2-14.7c24.6-13.5,17.4-29.7,2.6-44.7
		c-15.4-15.5-14.2-27,1.8-42.1c35.2-33.2,68.7-68.2,102.9-102.5C2129.2,1631.2,2170,1664.9,2206.2,1703.1z"/>
	<path class="st24" d="M1959.2,1806.2c-6.6,6.3-13.1,12.6-19.7,18.8c-23-3.1-32-25.6-49.8-35.8c5.1-5.1,10.2-10.2,15.2-15.2
		c6.9,0.2,10.3-3.1,10-10c14.8-14.8,29.6-29.6,44.3-44.4c29.8,9.4,1.5,25.7,3.7,40.7c9-5.5,16.3-9.9,23.3-14.2
		c9.4,11.4,0.4,22.4,2.9,32.8c-5.1,4.9-10.1,9.8-15.2,14.7C1963.9,1791.7,1959.3,1796.3,1959.2,1806.2z"/>
	<path class="st30" d="M1989.1,1778.8c-2.5-10.4,6.4-21.4-2.9-32.8c-7,4.2-14.3,8.7-23.3,14.2c-2.1-14.9,26.1-31.2-3.7-40.6
		c48.2-48.5,96.4-97.1,144.6-145.6c5.5,9-5.6,10.2-7.4,15.8c-34.2,34.3-67.7,69.3-102.9,102.5c-16,15-17.2,26.5-1.8,42.1
		C2006.5,1749.1,2013.8,1765.3,1989.1,1778.8z"/>
	<path class="st30" d="M1889.7,1789.2c17.8,10.2,26.9,32.8,49.8,35.8c-14.7,19.4-27,7.9-37.3-4.2c-13.8-16.2-24.4-15.9-39.1-0.1
		c-33.7,36.3-68.9,71.2-103.6,106.6c-7,1.3-10.3,19.3-20.8,4.6c14.7-7.2,26.4-18.2,37.8-29.6
		C1814.2,1864.5,1852,1826.8,1889.7,1789.2z"/>
	<path class="st30" d="M1959.2,1806.2c0.1-9.8,4.7-14.5,14.8-12.6C1972.6,1801.9,1965.5,1803.6,1959.2,1806.2z"/>
	<path class="st29" d="M1889.7,1789.2c-37.7,37.7-75.5,75.3-113.1,113.1c-11.4,11.4-23.1,22.4-37.8,29.6
		c-30.7-25.7-30.7-25.7-2.8-53.5c102.1-102,204-204.2,306.3-306c32.6-32.4,26.9-35.5,61.6,1.5c-48.2,48.5-96.4,97.1-144.6,145.6
		c-14.8,14.8-29.5,29.6-44.3,44.4c-3.3,3.3-6.7,6.7-10,10C1899.8,1779,1894.8,1784.1,1889.7,1789.2z"/>
	<path class="st30" d="M1904.9,1773.9c3.3-3.3,6.7-6.7,10-10C1915.2,1770.9,1911.8,1774.1,1904.9,1773.9z"/>
	<g>
		<path class="st23" d="M1985,1775.5c-13.8-0.3-23.4,4.3-23.7,14.3c-0.4,10.4,9,16.2,23.3,16.6c14.1,0.4,21.9-4.9,21.9-15.2
			C2006.6,1781,1999.3,1775.7,1985,1775.5z M2687.8,1809.6c-11.6,0.8-19.9,5.8-19.7,14.9c0.2,8,8.8,12.5,19.6,12.3
			c11.6-0.2,19.8-5,19.2-13.9C2706.4,1815.2,2701.1,1809.6,2687.8,1809.6z M1810.2,1790.5c-8.6,1.6-16.2,5.2-16.6,12.7
			c-0.4,7.3,6.5,11.1,16.1,11.1c9.7,0,16.2-4,16.1-11.2C1825.8,1796.6,1821.5,1791.6,1810.2,1790.5z M2135.9,1839.1
			c8.4-1.6,15-5,14.3-12.4c-0.6-7.1-6.5-11.5-16.3-11.2c-10.3,0.3-17.4,4.8-16.1,12.7C2118.9,1834.9,2125.6,1838.6,2135.9,1839.1z
			 M2502.1,1809.6c-9.6,0.4-14.7,3.8-14.8,10.6c-0.1,6.5,3.8,11,13.7,10.8c9.9-0.2,15.8-4.3,15.9-11.5
			C2517.1,1812.6,2510.8,1809.8,2502.1,1809.6z M1607.7,1775.9c-0.6-5.1-3.6-9.3-11.3-9.4c-9.2-0.1-14.1,4.1-14.1,10.6
			c0,5.3,4,9,11.9,8.7C1602.3,1785.4,1606.6,1781.6,1607.7,1775.9z M2200.9,1762.1c0.2-5.8-3.8-8.7-11.5-8.8c-7.1,0-12.9,2-13.5,7.6
			c-0.6,6.1,4.8,9.5,12.7,9.8C2196.3,1771.1,2199.5,1767,2200.9,1762.1z M2602.8,1768.9c6.6-0.1,10.8-2.4,10.9-7.5
			c0.1-4.3-3.2-7.1-9.2-7.3c-6.8-0.2-11,2.5-11.2,7.4C2593.1,1765.9,2596.8,1768.2,2602.8,1768.9z M2384.1,1768.6
			c-0.5-3.7-3.1-6.2-8.6-5.8c-5,0.4-8.2,2.8-8.2,6.4c-0.1,3.9,3.4,5.9,8.6,5.7C2381.2,1774.7,2383.7,1772.3,2384.1,1768.6z"/>
		<path class="st31" d="M2446.8,2414.5c-161.6-0.1-323.2-0.2-484.9-0.3c-140.8-0.1-281.7-0.1-422.5-0.2c-10.6-1.5-23.9,3.2-31.9-2.4
			c-25.7-18-56.2-21.3-90.3-21.2c-19.9,0.1-30.4,3.8-31.9,18.2c-75.3-10.9-137.8-59.8-154.7-121.6c-7.1-26-13.6-52.1-20.4-78.1
			c-1.5-21.5-9.3-42.2-16.7-62.9c-14-39.3-28.6-78.6-77.7-104.5c12.3-0.5,24.6-1.5,36.9-1.5c360.2-0.1,720.4-0.1,1080.6-0.1
			c10.4,0,20.8-0.1,31.2-0.1c8,0,14-2,15.2-8.4c28.9,15.2,58.4,18.8,89.1,2.6c6.3,7.6,16.8,5.9,26.2,5.9c92,0.1,184.1,0,276.1,0.1
			c59.6,0.1,119.2,0.4,178.8,0.6c-36.9,9.8-57.5,30.3-72.3,55.4c-22.9,38.8-29.9,80-36.9,121.3c-7.3,29.4-8.3,59.7-21,88.4
			c-20,45.1-58,78.9-120.7,96.6c-5.7-7.5-11.9-14.3-25.9-14.2c-28.3,0.2-57.3,1.8-79.9,14.1
			C2478.6,2410.5,2464.5,2414.5,2446.8,2414.5z M1554.5,2053.8c-102.1,0-204.1-0.1-306.2,0c-23.1,0-25.3,3.6-14.2,18
			c25.7,33.7,35.5,70.9,46.6,107.9c10.8,36,12.6,73.3,31.8,108c15.8,28.5,40.1,51.7,76.6,68.8c43.5,20.3,93,25.1,141.4,25.4
			c234,1.5,468.1,0.4,702.1,0.8c99.9,0.2,200-2.3,299.8,2.4c6.4,0.3,6.4,0.2,6.3-2.4c-0.2-4.8-0.1-5.4,4.1-5.3
			c17.5,0.2,33.1-5.2,48.6-9.5c43.4-12,75.8-33,97.1-63.3c24-34.2,27.8-71.7,35.3-108.5c9-44.9,15-90.2,51.8-129.3
			c6.2-6.6,2.4-11.7-9-12.8c-5.1-0.5-10.4-0.3-15.6-0.3c-379.7,0-759.3,0-1139,0C1592.9,2039.9,1573.7,2045.1,1554.5,2053.8z
			 M2491.6,2391.2c-0.9-0.9-1.5-2.1-2.1-2.1c-1.8,0-4.2,0.1-5.2,1c-1.7,1.4,0,2.6,2.1,2.5
			C2488.1,2392.5,2489.8,2391.7,2491.6,2391.2z"/>
		<path class="st32" d="M2279.9,2031.5c-1.3,6.4-7.2,8.4-15.2,8.4c-10.4,0-20.8,0.1-31.2,0.1c-360.2,0-720.4,0-1080.6,0.1
			c-12.3,0-24.6,1-36.9,1.5c-22.5-3.8-46.2,0.8-68.5-4.8c-23.9-21.3-21.9-36.1,7.1-52.6c6.4-0.4,12.8-0.7,19.3-1.1
			c21.1,1.8,42,0.1,62.9-2c9.1,2.5,18.7,4,26.6,8.4c6.3,17.2,25.4,26.9,47.9,20.9c16.8-4.5,26.7-2.1,36.6,7.1
			c3,2.8,7.8,4.9,12.2,6.6c35.3,13.9,74.2,7.4,99-17.8c9.3-9.5,16.6-13,33.1-8.1c16.7,5,36.8,5.3,53.5,0.2
			c23.9-7.3,42.2-2.9,59.7,8.4c36.4,23.6,86.4,20.2,112.3-9.7c9.9-11.4,20.7-15.2,37.3-14.7c70.6,1.7,141.2,1.5,211.8,0.1
			c23.1,0.1,46.2,0.2,69.2,0.2c14.4,0.4,28.7,0.7,43.1,1.1c14.3,30.1,60,31.2,76.6,14.6c15.9-15.9,35-16.5,56.7-17.3
			c3.8,1.8,8,2.1,12.4,1.6c7.1,0.2,14.2,0.8,21.3,0.6c14-0.3,23.8,1.7,34.2,10.9c13.9,12.2,30.5,21,57.9,9.3
			c8.6-3.7,14.6-2.1,18,4.8C2260.7,2017.8,2268,2025.9,2279.9,2031.5z"/>
		<path class="st32" d="M2850.2,2040.6c-59.6-0.2-119.2-0.5-178.8-0.6c-92-0.1-184.1,0-276.1-0.1c-9.4,0-19.9,1.7-26.2-5.9
			c4.9-3.1,11.3-5.5,14.3-9.3c7.8-9.8,17-10.7,32-8.2c28.1,4.7,53.2-1.2,70.1-19c8-8.4,16.7-9,28.3-6c17.4,4.6,34.8,3.9,51.1-1.9
			c10.2-3.6,16.2-2,23.5,3.6c19.4,15,41.2,16.2,66.8,6.7c19.1-7,41.3-14,60.5-15c45.5-2.6,91.7-5.4,137.7-1.6
			c20.7,0.8,41.6-1.4,62,2.6c28.6,19.3,25.8,39.9-7.2,53.5C2888.8,2039.9,2869.5,2040.3,2850.2,2040.6z"/>
		<path class="st31" d="M1163.3,1989.6c-7.9-4.4-17.5-5.9-26.6-8.4c-5.3-3.6-15.4-4.6-13.7-12c1.6-7,10.3-6.8,17.6-8.7
			c17.1-4.5,31.8-13.2,33.6-25.9c2.1-14.8,10.9-20.6,29.9-21.4c12.4-0.5,16.5-5,9.2-12.8c-4.5-4.9-5.8-8.9,0.6-13.6
			c6-4.4,4.2-10.4,4.3-15.9c0.1-32.2,0.2-64.5,0.2-96.7c0-7.3,0.7-14.1,10.4-18.4c6.7-3,10.6-7.1,7.6-12.9
			c-3.1-6.1-10.1-6.5-17.7-5.7c-4.1-0.9-7.4,1.1-11,1.6c-5.4,0.8-11.3,0.3-10.8-5.1c0.4-4.7,5.5-6.2,11.3-5
			c8.9,1.9,17.7,2.8,26.7,0.5c1.1,0,1.6-0.5,1.6-1.3c0.3-0.6,0.9-1,1.7-1.2c4-0.1,8-0.1,12-0.2c0,0,1.4,0.8,1.4,0.8
			c9.4,6.2,23.7-0.3,33.8,5.4c-3.1,4.6-7.3,3.9-11,4.1c-10,0.6-23.3-1.5-23.4,9.6c-0.2,12,14.2,8.6,23.4,8.7
			c46.7,0.4,93.3,0.2,140,0.2c7.8,1.6,18.6-2.5,22.6,6.2c-2.1,5.6-2.3,11.9-11.5,14.5c-1.1,0.7-2.1,1.5-3.2,2.2
			c0,6.5,0.1,13,0.1,19.4c0.4,2.8,2.2,4.9,5.3,6.5c0.4,2.9,0.9,5.8,1.3,8.7c2.7,1.7,5.4,3.3,8.1,5c0,0,0,0,0,0
			c-29,11.6-30.8,10.9-31.2-12.5c0-1.4-0.2-2.8,0-4.2c1.1-10-4.9-15-19.1-14.3c-0.2-8.4-6.8-11.2-17.7-11.1
			c-27.9,0.2-55.9,0.4-83.8-0.1c-14.4-0.3-19.7,3.9-19.5,14.1c0.5,23.4,0.2,46.8,0.2,70.2c0,23.2-3,46.5,5,69.6
			c5.1,14.6-5.9,24.9-26.7,25.9c-12.3,0.6-24.7,0.2-37,0.2C1171.6,1955.6,1160.4,1964.3,1163.3,1989.6z"/>
		<path class="st23" d="M1218.6,1737.1c7.6-0.8,14.6-0.4,17.7,5.7c2.9,5.8-1,9.9-7.6,12.9c-9.7,4.4-10.4,11.2-10.4,18.4
			c0.1,32.2-0.1,64.5-0.2,96.7c-5,0.8-10.1,1.7-15.1,2.4c-48.3,6.1-54.8,13.6-63.5,48.6c-4,16.3-12.6,35.2-39.9,42.1
			c-13.4,3.3-21.8,9.5-25.7,19.2c-6.4,0.4-12.8,0.7-19.3,1.1c-11.3-14.7-10-23.2,8-32.5c7.6-3.9,6.4-6.1,3.2-10.9
			c-25.8-38-3.1-72,54.3-80.1c10.9-1.5,13.2-4.9,14.5-11.6c3.1-16.6,14.5-29.8,34.1-39c4.9-2.3,10.7-4.1,10-9.3
			C1174.9,1774,1193.3,1754.5,1218.6,1737.1z"/>
		<path class="st23" d="M2850.2,2040.6c19.3-0.4,38.6-0.8,57.9-1.1c19.6,46.5-0.5,83.6-54.5,100.9c-11.4,3.7-23.6,5.6-35.8,5.7
			c-12,0.1-14.4,3.5-15.9,11.5c-5,27.7-23.9,48.7-61,59.7c7-41.3,14-82.4,36.9-121.3C2792.7,2071,2813.3,2050.5,2850.2,2040.6z"/>
		<path class="st23" d="M1047.5,2036.8c22.3,5.6,46,1,68.5,4.8c49.1,25.9,63.6,65.2,77.7,104.5c7.4,20.7,15.2,41.3,16.7,62.9
			c-37-9.2-59.6-31.6-57.4-59.8c0.8-10.2-3.5-13.3-16.3-16C1076.9,2120.9,1041.4,2081.8,1047.5,2036.8z"/>
		<path class="st23" d="M1414.2,1755.2c-46.7,0-93.3,0.2-140-0.2c-9.2-0.1-23.6,3.3-23.4-8.7c0.1-11.1,13.4-9,23.4-9.6
			c3.7-0.2,7.9,0.5,11-4.1c-10-5.6-24.4,0.8-33.8-5.4c35.2-3.3,67,1.3,92.3,20.6c6.2,4.7,12.5,2.7,19.5,2.2
			C1380.7,1748.9,1398.9,1745.4,1414.2,1755.2z"/>
		<path class="st23" d="M1250.1,1726.5c-4,0.1-8,0.1-12,0.2C1242.1,1724.1,1246,1723.8,1250.1,1726.5z"/>
		<path class="st23" d="M1236.4,1727.9c0,0.8-0.5,1.2-1.6,1.3c0,0,0.2-1,0.2-1L1236.4,1727.9z"/>
		<path class="st33" d="M1386.6,1786.8c14.2-0.7,20.2,4.4,19.1,14.3c-0.2,1.4,0,2.8,0,4.2c0.4,23.3,2.2,24,31.2,12.5
			c6.3,0.9,13.8,4.4,18.8,1.7c17.7-9.7,23-1.1,31.8,8.2c13.7,14.6,22.5,13.5,32.1-2.1c5.8-9.3,14-7.3,20.7-1.3
			c12.1,11,26.6,10.6,43.5,7.7c28.2-4.8,56-12.3,86-6.5c10.5,2,19.5-0.5,28-6.6c33.6-24.2,62.1-14.5,81.5,7.3
			c6.1,6.9,13.2,7.4,22.3,10c27.4,7.7,52.4,4.1,79.9,0.5c21.1-2.8,42.2,7.5,54.3,22.5c8.2,10.3,18.4,12.6,31.4,5.1
			c13.6-7.9,28.8-10.5,45.5-9.8c16.2,0.7,30.3-2.4,44-9.1c22.1-10.8,52-7.7,68.4,7.1c8,7.2,14.8,13.9,29.3,14
			c7.7,0.1,11.9,5.4,16.5,9.2c8.3,7,18,6.2,28.4,3.5c10.8-2.9,9.6-9,7.8-15.2c-2.6-9.1,1.8-16.1,13.7-19.4
			c12.5-3.4,26.7-3.2,32.4,6.5c10.2,17.2,21.5,9.9,34,2.7c6,5.8,12.1,10.7,22.3,14c11,3.6,20.9,10.2,13.7,22.1
			c-3.6,6-2.2,13.6-3.1,20.4c-10.6,4.6-17.9,2.8-26.1-4.2c-12.7-10.6-30.7-13.2-47.8-7c-16.7,6-31.3,13.9-29.3,30.9
			c1.3,11.3,10.5,21.2,8.5,32.8c-1.8,10.3,4.4,15.7,19.8,15.5c14.6-0.3,23.6,4.1,21.7,16.1c-1.1,7.2,4.7,11.7,13.7,13.3
			c10.4,1.8,17.8-2.1,21.1-9.1c3.9-8,8.3-15.6,16.7-21.8c5-3.7,6.7-9.4,3.9-13.1c-13.6-17.5,0.6-23.5,20.3-27.9
			c10.5,3.5,22,5.7,30.8,11.3c5.8,3.7,9.9,2.9,14.6-1c15.4-13,35.6-16.2,57.8-13.3c11.6,1.5,18-0.2,21.1-9.1
			c4.8-13.9,17.6-24.3,35.5-29.5c14.2-4.1,19.4-9.6,16-19.9c8.2-2.7,10.2-7.8,11.1-13.7c3.5-22.5,16.9-28.7,45.4-20.9
			c5.9,1.6,10.8,2.5,16.6,0.3c30.4-11.4,59.2-7.7,86.2,5.6c8.6,4.3,15.4,4.3,24.9,1.2c38.3-12.5,77.3,4.9,80.5,35.4
			c0.4,3.7-0.7,8.8,3.8,10.5c19.4,7.5,24.9,20.5,29.4,34.5c1.5,4.6,9,4.5,14.1,6.4c13.1,5,25.2,11,15.2,23.8
			c-8,10.4,3.4,17.6,7.9,26c-45.9-3.8-92.2-1-137.7,1.6c-19.1,1.1-41.4,8-60.5,15c-25.6,9.5-47.4,8.3-66.8-6.7
			c-7.3-5.7-13.3-7.2-23.5-3.6c-16.3,5.7-33.8,6.4-51.1,1.9c-11.6-3-20.4-2.4-28.3,6c-16.8,17.8-42,23.7-70.1,19
			c-15-2.5-24.2-1.6-32,8.2c-3,3.8-9.4,6.2-14.3,9.3c-30.7,16.2-60.2,12.6-89.1-2.6c-11.9-5.6-19.2-13.7-23.9-23.1
			c-3.4-6.9-9.4-8.5-18-4.8c-27.4,11.7-44,2.9-57.9-9.3c-10.5-9.2-20.2-11.3-34.2-10.9c-7.1,0.2-14.2-0.4-21.3-0.6
			c2.5-1.4,4.8-3.7,7.5-4c9.8-1.3,14.9-4.7,14.8-12.2c-0.1-7.8-3.6-13.9-13.8-17c-10.1-3-20.3-4.2-28.1,3.3
			c-8.6,8.2-5.4,20,7.2,28.3c-21.7,0.8-40.7,1.5-56.7,17.3c-16.6,16.6-62.3,15.5-76.6-14.6c0.4-7.1,4.8-11.4,15.5-11.4
			c7.2,0,14.5-0.7,19.9-4.6c7-4.9,13.9-5.9,22.5-1.9c7.5,3.5,15.3,2.6,20.8-2.5c5.8-5.4,10.5-15.1,3.1-17.6
			c-19.4-6.5-28.4-19.8-43.4-28.5c-15-8.7-35.3,0.1-40.7,15.2c-3.9,10.9-6.9,22.3-22.8,27.8c-13.4,4.7-19.1,12.1-18.1,22.5
			c-23.1-0.1-46.2-0.2-69.2-0.2c-2.4-5.1-6.5-9.1-13.7-11.1c-10.5-2.9-17-8.2-19-16.4c-2.3-9.6-10.7-14.5-23.7-16
			c-7.1-0.8-15.1-1.7-17-7.7c-5.8-18.6-23.2-22.9-46.7-21.1c-13.6,1.1-20.1-2-17.9-13.5c2.9-15.2-6-23.3-26.2-25.5
			c-10.1-1.1-13.8-4.4-16.5-11.2c-6.3-15.8-26.7-26-48-25.3c-17.4,0.6-39.9,13-44,24.3c-6.6,18.4,0.8,34,20.7,42.6
			c13.2,5.7,27.7,3.7,41.8,2.3c8-0.8,15.5-1.6,21.8,3.1c7.4,5.5,16.6,6.8,26.8,6c5-0.4,11.2-1.5,10.1,4.9
			c-1.5,8.5-15.9,15.5-27.2,12.6c-6.2-1.6-12.2-3.2-18.8-2.9c-16.4,0.7-20.3,6-11.4,15.8c7.6,8.4,11.7,16.8,2.3,25.9
			c-4.1,4-4.5,8.7-5.2,13.3c-16.6-0.5-27.4,3.3-37.3,14.7c-25.9,29.9-75.8,33.3-112.3,9.7c-17.5-11.3-35.8-15.7-59.7-8.4
			c-16.6,5.1-36.7,4.8-53.5-0.2c-16.5-4.9-23.8-1.4-33.1,8.1c-24.8,25.2-63.8,31.7-99,17.8c-4.5-1.8-9.2-3.8-12.2-6.6
			c-9.9-9.2-19.9-11.7-36.6-7.1c-22.5,6.1-41.6-3.6-47.9-20.9c-2.9-25.3,8.3-33.9,43.8-34c12.3,0,24.7,0.4,37-0.2
			c20.8-1,31.8-11.3,26.7-25.9c-8-23-5-46.3-5-69.6c15.5-4.5,30.7-10.1,46.8-13c11.4-2.1,19.2-3.9,20.1-13.4c0.5-5,5.9-8.3,13.1-8.9
			c6.8-0.6,10.9,2.1,13,6.6c1.4,3.1,2.5,6.9,8.7,5.9c5.3-0.9,5.9-4.4,6.8-7.7C1378.4,1815.1,1382.5,1801,1386.6,1786.8z
			 M1524.7,1949.9c2.1,0,4.7,0,7.3,0c13-0.1,26.6-1.4,28.7-12.4c2.1-10.8,7.9-24-14.5-29.4c-8.2-2-13.8-6.6-19.8-11
			c-10.1-7.2-21.8-9-32-0.3c-6.5,5.5-14.5,6.6-23.3,8.6c-14.4,3.2-32.9,1.7-39.7,15.9c-2.4,5-9,4.4-14.6,1.4
			c-6.2-3.2-12.3-2.6-17.6,1.1c-4.2,2.9-5,6.5-2.6,10.3c3.1,4.8,8.8,7.3,15.8,6.3c10.3-1.4,14.1,1.7,18.5,8.3
			c11.7,17.4,50.9,21.6,68,7.2C1506.6,1949.7,1513.9,1947.9,1524.7,1949.9z M1920.5,1934.5c0-9.5-4.4-17.4-14.9-20.9
			c-12.8-4.4-26.3-7.3-37-14.7c-5.3-3.6-12.3-1.3-17.9,1.6c-5.2,2.7-9.3,6.8-5.6,10.8c9.6,10,9.5,22.3,17.2,32.6
			c8.1,10.8,21.2,13.5,36.5,10.8C1913.3,1952,1918.9,1943.7,1920.5,1934.5z M2543.4,1983.6c17.9,0,28.6-5.4,31.7-17.2
			c1.7-6.4,2.3-12.8,9-18c4.9-3.8,10.1-8.4,3.5-13.4c-6.1-4.6-14.9-4.8-21.2-0.9c-8.3,5.2-17.5,6.7-27.8,8.3
			c-14,2.1-23.2,15.3-20.5,26.8C2520.6,1980,2532.1,1982.5,2543.4,1983.6z M1281,1993.7c0,14.5,11.8,23.8,30.1,23.5
			c14.2-0.2,31.6-10.8,31.5-19.3c-0.1-13.1-13.9-25.2-29.1-25.5C1293.7,1972.2,1281,1980.5,1281,1993.7z M1309.4,1904.8
			c15.2,0.1,33.2-10.4,33.2-19.2c-0.1-11.8-12.9-22.3-27.6-22.7c-19.8-0.4-34.1,9-33.9,22.5
			C1281.2,1897.5,1291.6,1904.7,1309.4,1904.8z M2603,1972.9c-4.2,10.3,3.3,16.4,14.7,20.3c9.5,3.3,17.8,0.5,23.4-5.7
			c7.3-8.1,7.2-16.5-3.5-22.5c-8.8-5-11.5-18.2-24.2-15.5C2599.5,1952.4,2605.3,1964.7,2603,1972.9z M1765.4,1862.8
			c-12.6-1.3-17.9,5.1-18.5,14c-0.7,10.1,5.7,17.8,20.5,18.1c14.3,0.3,19.4-7.6,20.6-16.7
			C1789.3,1867.7,1781.6,1862.9,1765.4,1862.8z M1208.7,2000.2c5.4-0.4,15.9-2.5,15.3-11.3c-0.5-8.1-10-13.7-20.7-14.2
			c-9.9-0.4-19.2,3.5-19.3,12.4C1184,1996.4,1191,2000.7,1208.7,2000.2z M2069.3,1930.9c1,6.5,4.5,12.6,15.8,12.4
			c11.1-0.2,21.1-3.9,21.4-12.8c0.4-9.4-10.7-12.2-21.2-12.9C2073.6,1916.8,2070.2,1923,2069.3,1930.9z M2540.9,1922.1
			c0.4-7.9-4.3-12.9-15.7-12.7c-9.9,0.1-18.4,2.9-18.2,11.3c0.1,8,5.5,13.8,17.4,13.8C2535.1,1934.6,2541.1,1930.2,2540.9,1922.1z
			 M2414.5,1968.1c8-2.8,19.7-3.3,18.4-12.9c-0.9-6.7-6.4-11.4-16.7-10.3c-9.5,1-17.8,4.7-16.8,12.4
			C2400.1,1962.8,2404.5,1967.9,2414.5,1968.1z M1594.1,1972.8c-8.5,0.8-15.2,3.8-15.1,10.3c0.1,8.6,9.8,10.4,18.9,10.3
			c9.3-0.1,13.4-5.4,12.6-11.5C1609.8,1975.3,1602.7,1973.1,1594.1,1972.8z M2047.9,1987c0.7-5.6-3.1-8.2-9.9-8.6
			c-9.3-0.5-15.1,2.3-15.4,9.4c-0.2,5.1-0.8,11.5,9.5,11.2C2042,1998.8,2045.5,1992.7,2047.9,1987z M2372.1,1973.6
			c-1.9-5-6.2-8.9-14.6-8.7c-8.2,0.2-13.5,3.8-13.8,9.7c-0.3,6.7,6.4,8.6,14.4,8.6C2366.2,1983.2,2371.9,1980.8,2372.1,1973.6z
			 M1962.3,1916.2c1,2.5,3.3,4,6.8,3.6c3.7-0.4,5.4-2.6,4-5c-0.8-1.3-3.4-2.8-5.4-2.9C1964.1,1911.7,1962,1913.4,1962.3,1916.2z"/>
		<path class="st34" d="M2518.1,1874.2c3.4,10.3-1.8,15.8-16,19.9c-17.9,5.2-30.7,15.6-35.5,29.5c-3.1,8.9-9.5,10.6-21.1,9.1
			c-22.2-2.9-42.4,0.3-57.8,13.3c-4.6,3.9-8.7,4.7-14.6,1c-8.9-5.6-20.4-7.8-30.8-11.3c2.9-13.2-2.6-22.6-22.4-25.4
			c0.9-6.9-0.5-14.4,3.1-20.4c7.2-11.9-2.7-18.5-13.7-22.1c-10.2-3.3-16.3-8.2-22.3-14c1.4-3.9,5-4.9,10.3-4.6
			c6.5,0.4,10.5-1.5,13.1-6.3c16.3-29.8,44.1-37.2,84.3-22.9c1.7,0.6,3.6,1,5.4,1.5c1,0.7,2,1.3,3,2c0,0.6,0.4,0.9,1.2,0.9
			c1.3,0.9,2.6,1.8,3.9,2.7c0,0.9,0.6,1.6,1.6,2.2c-0.3,1.1,0.2,1.8,1.6,2.2c1.3,1.4,2.5,2.9,3.8,4.3c0,0,0-0.1,0-0.1
			c0.7,1.7,1.5,3.3,2.2,5c2.1,24.6,3.9,25.6,37.2,19.5c4.2-0.8,9.2,0,12.4-3c4.5-0.9,9-1.9,13.5-2.8c0,0-0.1,0.1-0.1,0.1
			C2505.4,1851.3,2505.9,1851.5,2518.1,1874.2z"/>
		<path class="st33" d="M1985.1,1775.5c14.3,0.1,21.5,5.5,21.5,15.6c0,10.3-7.8,15.6-21.9,15.2c-14.4-0.4-23.7-6.2-23.3-16.6
			C1961.7,1779.9,1971.3,1775.3,1985.1,1775.5z"/>
		<path class="st33" d="M2687.8,1809.6c13.2,0.1,18.6,5.6,19.1,13.2c0.6,9-7.6,13.7-19.2,13.9c-10.8,0.2-19.4-4.3-19.6-12.3
			C2667.9,1815.4,2676.2,1810.4,2687.8,1809.6z"/>
		<path class="st33" d="M2467.1,1857.3c-3.2,3-8.2,2.2-12.4,3c-33.3,6-35.1,5-37.2-19.5C2435.4,1844.2,2453.5,1847.3,2467.1,1857.3z
			"/>
		<path class="st33" d="M1810.2,1790.5c11.3,1.1,15.6,6.1,15.6,12.7c0,7.2-6.4,11.2-16.1,11.2c-9.6,0-16.5-3.8-16.1-11.1
			C1794,1795.7,1801.6,1792.1,1810.2,1790.5z"/>
		<path class="st33" d="M2135.9,1839.1c-10.4-0.5-17-4.2-18.1-10.9c-1.3-7.9,5.8-12.3,16.1-12.7c9.8-0.3,15.7,4.1,16.3,11.2
			C2150.9,1834.1,2144.3,1837.5,2135.9,1839.1z"/>
		<path class="st33" d="M2502.1,1809.6c8.7,0.2,15,2.9,14.8,9.9c-0.2,7.2-6.1,11.3-15.9,11.5c-9.8,0.2-13.8-4.3-13.7-10.8
			C2487.4,1813.5,2492.5,1810,2502.1,1809.6z"/>
		<path class="st33" d="M1607.7,1775.9c-1.1,5.8-5.5,9.5-13.5,9.9c-7.8,0.3-11.8-3.4-11.9-8.7c0-6.5,4.9-10.7,14.1-10.6
			C1604.1,1766.5,1607.1,1770.7,1607.7,1775.9z"/>
		<path class="st33" d="M2200.9,1762.1c-1.4,4.8-4.6,9-12.3,8.7c-7.9-0.3-13.3-3.7-12.7-9.8c0.6-5.6,6.4-7.6,13.5-7.6
			C2197.1,1753.4,2201.1,1756.4,2200.9,1762.1z"/>
		<path class="st33" d="M2602.8,1768.9c-6-0.7-9.7-3-9.5-7.4c0.2-5,4.4-7.7,11.2-7.4c5.9,0.2,9.3,3.1,9.2,7.3
			C2613.6,1766.5,2609.4,1768.8,2602.8,1768.9z"/>
		<path class="st33" d="M2384.1,1768.6c-0.4,3.7-2.8,6.2-8.2,6.4c-5.2,0.2-8.7-1.8-8.6-5.7c0.1-3.7,3.2-6.1,8.2-6.4
			C2381,1762.4,2383.6,1764.8,2384.1,1768.6z"/>
		<path class="st33" d="M1437,1817.8c-2.7-1.7-5.4-3.3-8.1-5C1432.9,1813.4,1435.6,1815,1437,1817.8z"/>
		<path class="st33" d="M1427.5,1804.1c-3.1-1.6-5-3.7-5.3-6.5C1425.4,1799.1,1427.6,1801.1,1427.5,1804.1z"/>
		<path class="st33" d="M2408.4,1827.2c-1.3-0.9-2.6-1.8-3.9-2.7C2405.8,1825.4,2407.1,1826.3,2408.4,1827.2z"/>
		<path class="st33" d="M2411.6,1831.5c-1.4-0.4-1.9-1.1-1.6-2.2C2410.7,1830,2411.3,1830.7,2411.6,1831.5z"/>
		<path class="st33" d="M2415.3,1835.8C2415.3,1835.8,2415.3,1835.8,2415.3,1835.8C2415.3,1835.8,2415.3,1835.8,2415.3,1835.8z"/>
		<path class="st33" d="M2403.3,1823.6c-1-0.7-2-1.3-3-2C2401.3,1822.2,2402.3,1822.9,2403.3,1823.6z"/>
		<path class="st33" d="M1422.1,1778.1c1.1-0.7,2.1-1.5,3.2-2.2C1424.2,1776.7,1423.2,1777.4,1422.1,1778.1z"/>
		<path class="st33" d="M2480.5,1854.5c0,0,0.1,0,0.1-0.1C2480.6,1854.5,2480.5,1854.5,2480.5,1854.5z"/>
		<path class="st32" d="M1612.1,2053.8c379.7,0,759.3,0,1139,0c5.2,0,10.5-0.2,15.6,0.3c11.4,1.1,15.2,6.2,9,12.8
			c-36.8,39.1-42.7,84.4-51.8,129.3c-7.4,36.8-11.2,74.2-35.3,108.5c-21.3,30.3-53.7,51.3-97.1,63.3c-15.6,4.3-31.1,9.8-48.6,9.5
			c-4.2-0.1-4.2,0.5-4.1,5.3c0.1,2.6,0.1,2.7-6.3,2.4c-99.9-4.7-199.9-2.3-299.8-2.4c-234-0.4-468.1,0.7-702.1-0.8
			c-48.5-0.3-98-5.1-141.4-25.4c-36.5-17.1-60.8-40.3-76.6-68.8c-19.2-34.6-21-72-31.8-108c-11.1-37-20.9-74.3-46.6-107.9
			c-11-14.5-8.9-18,14.2-18c102.1-0.1,204.1,0,306.2,0c-1.2,5.5-3,10.9-3.4,16.4c-0.9,13.2,11.7,22,31.4,22.5
			c18.7,0.5,33.3-8.5,33.3-21.3C1615.9,2065.6,1613.4,2059.7,1612.1,2053.8z M1754.3,2258.9c-2.4-6.8-7.8-10.8-17.8-10.7
			c-10.6,0.1-17.7,4-17.8,11.8c-0.2,8,6.7,12,17.6,11.4C1746.6,2270.8,1752.3,2266.1,1754.3,2258.9z"/>
		<path class="st33" d="M1612.1,2053.8c1.3,5.9,3.8,11.8,3.7,17.7c0,12.8-14.6,21.7-33.3,21.3c-19.7-0.5-32.3-9.3-31.4-22.5
			c0.4-5.5,2.2-11,3.4-16.4C1573.7,2045.1,1592.9,2039.9,1612.1,2053.8z"/>
		<path class="st32" d="M2491.6,2391.2c-1.8,0.5-3.5,1.3-5.2,1.3c-2.1,0.1-3.8-1-2.1-2.5c1-0.8,3.4-0.9,5.2-1
			C2490.1,2389.1,2490.7,2390.3,2491.6,2391.2z"/>
		<path class="st31" d="M1654.9,1982.5c0.7-4.6,1.2-9.4,5.2-13.3c9.3-9.1,5.2-17.5-2.3-25.9c-8.8-9.8-5-15,11.4-15.8
			c6.6-0.3,12.6,1.3,18.8,2.9c11.3,2.8,25.7-4.1,27.2-12.6c1.1-6.4-5.1-5.3-10.1-4.9c-10.2,0.9-19.4-0.5-26.8-6
			c-6.3-4.7-13.8-3.8-21.8-3.1c-14.1,1.3-28.5,3.3-41.8-2.3c-19.9-8.6-27.4-24.2-20.7-42.6c4.1-11.3,26.6-23.7,44-24.3
			c21.2-0.7,41.7,9.5,48,25.3c2.7,6.8,6.4,10.1,16.5,11.2c20.2,2.3,29.1,10.3,26.2,25.5c-2.2,11.5,4.3,14.6,17.9,13.5
			c23.5-1.8,40.9,2.5,46.7,21.1c1.9,6,9.9,6.8,17,7.7c12.9,1.5,21.4,6.4,23.7,16c2,8.1,8.5,13.4,19,16.4c7.2,2,11.3,6,13.7,11.1
			C1796,1984.1,1725.5,1984.2,1654.9,1982.5z"/>
		<path class="st33" d="M1073.8,1983.2c3.9-9.7,12.3-15.9,25.7-19.2c27.4-6.8,35.9-25.8,39.9-42.1c8.7-35,15.2-42.5,63.5-48.6
			c5.1-0.6,10.1-1.6,15.1-2.4c0,5.5,1.8,11.5-4.3,15.9c-6.3,4.7-5.1,8.7-0.6,13.6c7.3,7.9,3.2,12.3-9.2,12.8
			c-19,0.8-27.8,6.5-29.9,21.4c-1.8,12.7-16.6,21.4-33.6,25.9c-7.3,1.9-16,1.7-17.6,8.7c-1.7,7.4,8.4,8.4,13.7,12
			C1115.9,1983.3,1095,1985,1073.8,1983.2z"/>
		<path class="st31" d="M1935.9,1982.8c-1-10.4,4.7-17.8,18.1-22.5c15.9-5.6,18.8-16.9,22.8-27.8c5.4-15.1,25.7-23.9,40.7-15.2
			c15,8.7,24,22,43.4,28.5c7.4,2.5,2.7,12.2-3.1,17.6c-5.5,5.1-13.4,6-20.8,2.5c-8.6-4-15.5-3.1-22.5,1.9
			c-5.4,3.8-12.7,4.6-19.9,4.6c-10.7,0-15,4.3-15.5,11.4C1964.6,1983.5,1950.3,1983.2,1935.9,1982.8z"/>
		<path class="st31" d="M2112.2,1981.1c-12.6-8.3-15.7-20.1-7.2-28.3c7.8-7.5,18-6.3,28.1-3.3c10.2,3.1,13.8,9.2,13.8,17
			c0.1,7.5-5.1,11-14.8,12.2c-2.8,0.4-5,2.6-7.5,4C2120.2,1983.3,2116.1,1982.9,2112.2,1981.1z"/>
		<path class="st23" d="M1386.6,1786.8c-4.1,14.2-8.2,28.3-12.2,42.5c-0.9,3.3-1.5,6.8-6.8,7.7c-6.2,1-7.3-2.8-8.7-5.9
			c-2.1-4.5-6.2-7.3-13-6.6c-7.2,0.6-12.6,3.9-13.1,8.9c-1,9.5-8.7,11.4-20.1,13.4c-16.1,2.9-31.2,8.6-46.8,13
			c0-23.4,0.3-46.8-0.2-70.2c-0.2-10.1,5.2-14.3,19.5-14.1c27.9,0.5,55.8,0.3,83.8,0.1C1379.9,1775.6,1386.4,1778.4,1386.6,1786.8z"
			/>
		<path class="st31" d="M2320,1910.3c19.8,2.8,25.3,12.2,22.4,25.4c-19.7,4.4-33.9,10.4-20.3,27.9c2.8,3.6,1.1,9.4-3.9,13.1
			c-8.4,6.2-12.8,13.8-16.7,21.8c-3.4,7-10.7,10.9-21.1,9.1c-8.9-1.6-14.8-6.1-13.7-13.3c1.9-12-7-16.4-21.7-16.1
			c-15.4,0.3-21.6-5.1-19.8-15.5c2-11.6-7.2-21.5-8.5-32.8c-2-17.1,12.6-24.9,29.3-30.9c17.1-6.1,35.1-3.6,47.8,7
			C2302.1,1913.1,2309.4,1914.9,2320,1910.3z"/>
		<path class="st31" d="M1524.7,1949.9c-10.8-2-18.1-0.2-25.7,6.2c-17.1,14.3-56.4,10.1-68-7.2c-4.4-6.6-8.2-9.7-18.5-8.3
			c-7,1-12.7-1.5-15.8-6.3c-2.4-3.8-1.6-7.4,2.6-10.3c5.3-3.7,11.4-4.4,17.6-1.1c5.7,3,12.3,3.6,14.6-1.4
			c6.7-14.2,25.3-12.7,39.7-15.9c8.8-2,16.8-3.1,23.3-8.6c10.2-8.7,21.9-6.9,32,0.3c6,4.3,11.6,9,19.8,11
			c22.4,5.4,16.5,18.5,14.5,29.4c-2.1,11-15.7,12.3-28.7,12.4C1529.4,1949.9,1526.8,1949.9,1524.7,1949.9z"/>
		<path class="st31" d="M1920.5,1934.5c-1.6,9.2-7.2,17.5-21.7,20.2c-15.2,2.8-28.3,0-36.5-10.8c-7.7-10.3-7.6-22.7-17.2-32.6
			c-3.8-3.9,0.4-8,5.6-10.8c5.6-2.9,12.7-5.2,17.9-1.6c10.8,7.4,24.2,10.3,37,14.7C1916.1,1917.1,1920.5,1925,1920.5,1934.5z"/>
		<path class="st31" d="M2543.4,1983.6c-11.3-1.1-22.8-3.6-25.3-14.5c-2.7-11.5,6.5-24.7,20.5-26.8c10.3-1.6,19.5-3.1,27.8-8.3
			c6.3-3.9,15.1-3.7,21.2,0.9c6.6,5,1.4,9.6-3.5,13.4c-6.7,5.2-7.3,11.6-9,18C2572,1978.2,2561.3,1983.6,2543.4,1983.6z"/>
		<path class="st31" d="M1281,1993.7c0-13.2,12.7-21.5,32.5-21.2c15.2,0.2,29,12.3,29.1,25.5c0,8.4-17.3,19-31.5,19.3
			C1292.8,2017.5,1280.9,2008.3,1281,1993.7z"/>
		<path class="st31" d="M1309.4,1904.8c-17.7-0.1-28.2-7.3-28.3-19.4c-0.1-13.4,14.2-22.9,33.9-22.5c14.7,0.3,27.5,10.9,27.6,22.7
			C1342.6,1894.4,1324.6,1904.8,1309.4,1904.8z"/>
		<path class="st31" d="M2603,1972.9c2.3-8.2-3.4-20.5,10.4-23.5c12.7-2.7,15.3,10.5,24.2,15.5c10.7,6,10.9,14.4,3.5,22.5
			c-5.6,6.2-13.8,9-23.4,5.7C2606.3,1989.3,2598.8,1983.2,2603,1972.9z"/>
		<path class="st31" d="M1765.4,1862.8c16.2,0.1,24,4.9,22.6,15.5c-1.1,9.1-6.3,17-20.6,16.7c-14.8-0.3-21.2-8-20.5-18.1
			C1747.5,1867.8,1752.8,1861.5,1765.4,1862.8z"/>
		<path class="st31" d="M1208.7,2000.2c-17.7,0.5-24.8-3.8-24.7-13c0.1-8.9,9.4-12.8,19.3-12.4c10.8,0.4,20.2,6.1,20.7,14.2
			C1224.6,1997.7,1214.1,1999.8,1208.7,2000.2z"/>
		<path class="st31" d="M2069.3,1930.9c0.9-7.9,4.3-14,16-13.3c10.6,0.7,21.6,3.4,21.2,12.9c-0.4,8.9-10.3,12.7-21.4,12.8
			C2073.8,1943.5,2070.3,1937.3,2069.3,1930.9z"/>
		<path class="st31" d="M2540.9,1922.1c0.2,8.1-5.8,12.5-16.5,12.4c-12,0-17.3-5.8-17.4-13.8c-0.1-8.5,8.4-11.2,18.2-11.3
			C2536.5,1909.3,2541.3,1914.2,2540.9,1922.1z"/>
		<path class="st31" d="M2414.5,1968.1c-10-0.3-14.4-5.4-15.1-10.8c-1-7.8,7.3-11.4,16.8-12.4c10.3-1.1,15.8,3.6,16.7,10.3
			C2434.2,1964.8,2422.5,1965.3,2414.5,1968.1z"/>
		<path class="st31" d="M1594.1,1972.8c8.5,0.3,15.7,2.5,16.5,9.1c0.8,6.1-3.3,11.4-12.6,11.5c-9.1,0.1-18.8-1.7-18.9-10.3
			C1579,1976.6,1585.6,1973.6,1594.1,1972.8z"/>
		<path class="st31" d="M2047.9,1987c-2.4,5.7-5.9,11.8-15.8,12c-10.3,0.3-9.7-6.2-9.5-11.2c0.2-7,6-9.9,15.4-9.4
			C2044.8,1978.8,2048.6,1981.4,2047.9,1987z"/>
		<path class="st31" d="M2372.1,1973.6c-0.2,7.2-5.9,9.5-14,9.6c-7.9,0.1-14.6-1.9-14.4-8.6c0.2-5.9,5.5-9.5,13.8-9.7
			C2365.9,1964.8,2370.2,1968.7,2372.1,1973.6z"/>
		<path class="st31" d="M1962.3,1916.2c-0.3-2.8,1.8-4.5,5.4-4.2c2,0.1,4.7,1.6,5.4,2.9c1.4,2.4-0.3,4.6-4,5
			C1965.7,1920.3,1963.3,1918.7,1962.3,1916.2z"/>
		<path class="st31" d="M1754.3,2258.9c-2,7.2-7.7,11.9-18,12.5c-10.9,0.6-17.8-3.4-17.6-11.4c0.2-7.8,7.2-11.7,17.8-11.8
			C1746.5,2248,1751.9,2252.1,1754.3,2258.9z"/>
	</g>
</g>
</svg>
