<?xml version="1.0" encoding="utf-8"?>
<!-- Generator: Adobe Illustrator 22.1.0, SVG Export Plug-In . SVG Version: 6.00 Build 0)  -->
<svg version="1.1" id="Layer_1" xmlns="http://www.w3.org/2000/svg" xmlns:xlink="http://www.w3.org/1999/xlink" x="0px" y="0px"
	 viewBox="0 0 5385.8 2622" style="enable-background:new 0 0 5385.8 2622;" xml:space="preserve">
<style type="text/css">
	.st0{fill:#0BA471;}
</style>
<rect y="0" width="5385.8" height="2622"/>
<path class="st0" d="M2567.6,948.4V1248c-2.2,0-2.2,2.2-5,2.2c-85.4,0-215.9-14.5-258.3-21.2c-21.2-2.2-24-11.7-24-28.5V811.2
	c0-11.7,2.2-30.7,19-35.7c40.2-9.5,168.5-21.2,251.6-26.2h16.7V948.4z M2658,763.2v472.5c-21.2,2.2-43,5-64.2,9.5V751.5
	C2615,753.7,2636.2,758.7,2658,763.2L2658,763.2z M2738.3,950.6c0,35.7-2.2,218.7-2.2,273.4c-19,2.2-40.2,5-59.1,9.5V768.2h2.2
	c19,2.2,37.9,7.3,56.9,9.5C2736.1,829.6,2738.3,915.5,2738.3,950.6L2738.3,950.6z M2819.2,794.4V1210c-21.2,2.2-40.2,7.3-59.1,9.5
	V782.7C2779.1,784.9,2798,789.4,2819.2,794.4L2819.2,794.4z M2902.4,810.6v384.9c-21.2,2.2-43,7.3-64.2,9.5V796.7L2902.4,810.6z
	 M2921.3,1193.3V813.4c7.3,2.2,14.5,2.2,24,5c19,2.2,26.2,7.3,26.2,26.2v320.8c0,14.5-5,21.2-21.2,24
	C2940.3,1188.3,2930.8,1191.1,2921.3,1193.3L2921.3,1193.3z M2294.8,1214c0,16.7,2.8,37.9,21.2,40.7l276.7,0.6l-250.5-32.9
	c-13.4-2.8-23.4-11.2-21.2-36.3V874.8c-2.8-27.9,10.6-39.1,29-44.1l173.5-39.1l-208,22.4c-18.4,0-21.2,16.7-21.2,33.5V1214H2294.8z
	 M2250.2,934.5c0,61.9,2.2,220.9,0,282.8c0,21.2,5,28.5,28.5,35.7c43,9.5,191.9,24,282.3,24c147.3-21.2,265.6-47.4,410-68.6
	c19-5,21.2-14.5,21.2-30.7V840.2c0-24-2.2-28.5-26.2-35.7c-102.1-16.7-178-37.9-280.1-59.1c-45.2-7.3-90.4-24-137.8-19
	c-94.8,5-237.1,16.7-275,30.7c-21.2,5-24,28.5-24,37.9C2252.4,858,2250.2,874.8,2250.2,934.5z"/>
</svg>
