<?xml version="1.0" encoding="utf-8"?>
<!-- Generator: Adobe Illustrator 22.0.1, SVG Export Plug-In . SVG Version: 6.00 Build 0)  -->
<svg version="1.1" id="Layer_3" xmlns="http://www.w3.org/2000/svg" xmlns:xlink="http://www.w3.org/1999/xlink" x="0px" y="0px"
	 viewBox="0 0 720 720" style="enable-background:new 0 0 720 720;" xml:space="preserve">
<style type="text/css">
	.st0{fill:#FFFFFF;}
	.st1{fill:none;stroke:#312783;stroke-miterlimit:10;}
</style>
<g id="Layer_2_1_">
	<rect x="0.7" y="0" class="st0" width="719" height="719"/>
</g>
<g id="Layer_1_1_">
	<line class="st1" x1="0" y1="558.8" x2="719.5" y2="558.8"/>
	<line class="st1" x1="0.4" y1="93.2" x2="719.5" y2="93.2"/>
	<line class="st1" x1="0.7" y1="335.5" x2="719.5" y2="335.5"/>
	<line class="st1" x1="0.6" y1="114.6" x2="719.7" y2="114.6"/>
	<line class="st1" x1="0.4" y1="646.8" x2="719.5" y2="646.8"/>
	<line class="st1" x1="0.6" y1="666.2" x2="719.7" y2="666.2"/>
	<line class="st1" x1="0.7" y1="242.5" x2="719.5" y2="242.5"/>
</g>
<g>
	<path d="M189.8,233c0-15.5-3.2-28.7-9.5-39.5c-6.3-10.9-14.9-19.8-25.6-26.9c-10.7-7-23.1-12.2-37-15.4c-14-3.2-28.7-4.9-44.2-4.9
		H57v-31.7h16.5c28.8,0,55,4.6,78.7,13.7c23.7,9.2,42,23.5,55,42.9c12.7-19.5,30.9-33.8,54.8-42.9c23.8-9.2,50.1-13.7,78.9-13.7
		h17.3v31.7h-17.3c-15.5,0-30.2,1.6-44.2,4.9c-14,3.2-26.3,8.4-37,15.4c-10.7,7.1-19.2,16-25.6,26.9c-6.3,10.9-9.5,24-9.5,39.5
		v325.7h-34.7V233z"/>
	<path d="M623.6,114.6h34.7v148c0,19.2-1.8,37.2-5.3,54.1c-3.5,16.9-9.2,31.9-16.9,45c-7.8,13.1-17.8,23.9-30.2,32.4
		c-12.4,8.5-27.4,13.7-44.8,15.7v148.9h-34.3V409.4c-9.6-1.1-19.9-4.1-30.9-8.9c-11-4.8-21.2-12.5-30.7-23.3
		c-9.5-10.7-17.3-25.3-23.5-43.8c-6.2-18.5-9.3-42.1-9.3-70.8v-148h34.7v152.7c0.3,14.9,1.7,29.2,4.2,42.7
		c2.5,13.5,6.8,25.4,12.7,35.5c5.9,10.2,13.8,18.3,23.7,24.3c9.9,6.1,22.4,9.1,37.6,9.1c15.5,0,28.3-3.2,38.3-9.5
		c10-6.3,18-14.9,23.9-25.6c5.9-10.7,10.1-23.1,12.5-37c2.4-14,3.6-28.7,3.6-44.2V114.6z M509.4,277.9c0-9.9,3.4-18.3,10.4-25.2
		c6.9-6.9,15.3-10.4,25.2-10.4c9.9,0,18.3,3.5,25.2,10.4c6.9,6.9,10.4,15.3,10.4,25.2c0,9.9-3.5,18.3-10.4,25.2
		c-6.9,6.9-15.3,10.4-25.2,10.4c-9.9,0-18.3-3.5-25.2-10.4C512.9,296.1,509.4,287.7,509.4,277.9z M531,278.3c0,4,1.5,7.4,4.4,10.4
		s6.4,4.4,10.4,4.4c3.9,0,7.4-1.5,10.4-4.4s4.4-6.4,4.4-10.4c0-3.9-1.5-7.4-4.4-10.4s-6.4-4.4-10.4-4.4c-4,0-7.4,1.5-10.4,4.4
		S531,274.3,531,278.3z"/>
</g>
</svg>
