<?xml version="1.0" encoding="utf-8"?>
<!-- Generator: Adobe Illustrator 22.0.1, SVG Export Plug-In . SVG Version: 6.00 Build 0)  -->
<svg version="1.1" xmlns="http://www.w3.org/2000/svg" xmlns:xlink="http://www.w3.org/1999/xlink" x="0px" y="0px"
	 viewBox="0 0 720 720" style="enable-background:new 0 0 720 720;" xml:space="preserve">
<style type="text/css">
	.st0{fill:#FFFFFF;}
	.st1{fill:none;stroke:#312783;stroke-miterlimit:10;}
</style>
<g id="Layer_1">
	<g id="Layer_2_1_">
		<rect x="0.7" y="0" class="st0" width="719" height="719"/>
	</g>
	<g id="Layer_1_1_">
		<line class="st1" x1="0" y1="538.8" x2="719.5" y2="538.8"/>
		<line class="st1" x1="0.4" y1="73.2" x2="719.5" y2="73.2"/>
		<line class="st1" x1="0.7" y1="222.5" x2="719.5" y2="222.5"/>
		<line class="st1" x1="0.6" y1="94.6" x2="719.7" y2="94.6"/>
		<line class="st1" x1="0.4" y1="626.8" x2="719.5" y2="626.8"/>
		<line class="st1" x1="0.6" y1="646.2" x2="719.7" y2="646.2"/>
	</g>
</g>
<g id="Layer_2">
	<path d="M190.5,315.4c0,19.6,16.2,35.7,35.7,35.7c19.6,0,35.7-16.1,35.7-35.7c0-19.6-16.2-35.7-35.7-35.7
		C206.6,279.7,190.5,295.9,190.5,315.4L190.5,315.4z M212.1,315c0-8.1,6.8-14.9,14.9-14.9c8.1,0,14.9,6.8,14.9,14.9
		c0,8.1-6.8,14.9-14.9,14.9C218.9,329.9,212.1,323.1,212.1,315L212.1,315z M74.8,390.3c0,82.5,69.3,153,151.8,153
		c82.5,0,151.8-70.6,151.8-153V241.5c0-82.5-69.3-153-151.8-153c-82.5,0-151.8,70.6-151.8,153V390.3z M109.7,241.5
		c0-62.1,54.8-121.2,116.9-121.2c62.1,0,116.9,59.1,116.9,121.2v148.8c0,62.1-54.8,119-116.9,119c-62.1,0-116.9-57-116.9-119
		C109.7,390.3,109.7,241.5,109.7,241.5z"/>
	<path d="M652,334.7v-34.6h-65.9c-61.7,0-116.2-25.8-116.2-87.5c0-61.7,54.5-84.5,116.2-84.5h74.4V94.3h-74.4
		c-82,0-150.8,36.3-150.8,118.3c0,52,27.5,85.8,68.4,103.9c-41.4,17.7-68.9,51.5-68.9,103.5c0,82,68.9,118.3,150.8,118.3h74.8v-32.1
		h-74.8c-61.7,0-116.2-24.5-116.2-86.2c0-61.7,54.5-85.8,116.2-85.8L652,334.7z"/>
</g>
</svg>
