<?xml version="1.0" encoding="utf-8"?>
<!-- Generator: Adobe Illustrator 22.0.1, SVG Export Plug-In . SVG Version: 6.00 Build 0)  -->
<svg version="1.1" xmlns="http://www.w3.org/2000/svg" xmlns:xlink="http://www.w3.org/1999/xlink" x="0px" y="0px"
	 viewBox="0 0 720 720" style="enable-background:new 0 0 720 720;" xml:space="preserve">
<style type="text/css">
	.st0{fill:#FFFFFF;}
	.st1{fill:none;stroke:#312783;stroke-miterlimit:10;}
</style>
<g id="Layer_2">
	<rect x="0.7" class="st0" width="719" height="719"/>
</g>
<g id="Layer_1">
	<line class="st1" x1="0" y1="538.8" x2="719.5" y2="538.8"/>
	<line class="st1" x1="0.4" y1="73.2" x2="719.5" y2="73.2"/>
	<line class="st1" x1="0.7" y1="222.5" x2="719.5" y2="222.5"/>
	<line class="st1" x1="0.6" y1="94.6" x2="719.7" y2="94.6"/>
	<g>
		<path d="M206.7,298.7c0-7.1,0.9-15.3,2.6-24.6c1.7-9.3,4.6-18.1,8.6-26.4c4-8.4,9.3-15.4,16-21.1c6.7-5.7,15.2-8.6,25.4-8.6
			c10,0,18.4,2.9,25.2,8.7c6.8,5.8,12.2,12.9,16.2,21.2c4,8.4,6.8,17.2,8.6,26.4c1.7,9.3,2.6,17.5,2.6,24.6h-0.3
			c0,5.9-0.6,12.8-1.7,20.6c-1.1,7.8-3.1,15.6-5.8,23.4c-2.8,7.7-6.3,14.9-10.7,21.4c-4.4,6.5-9.8,11.3-16.4,14.4
			c5.5,1.6,10.1,4.9,13.9,9.9s7.1,11,9.9,18c2.9,7,5.3,14.8,7.3,23.4s4.2,17.2,6.4,26c0,0.2-0.1,0.4-0.3,0.6
			c2.4,10.4,5.1,20,7.9,28.7c2.9,8.8,6.1,16.3,9.6,22.6c3.6,6.3,7.4,11.3,11.6,14.8c4.2,3.6,8.7,5.3,13.6,5.3v12.2
			c-5.7-0.2-11-1.8-15.7-4.9c-4.8-3.1-9.2-7.3-13.1-12.7c-4-5.4-7.6-11.8-11-19.1c-3.4-7.3-6.4-15.4-9-24.1
			c-2.9,9-5.9,17.2-9.2,24.6c-3.3,7.4-6.9,13.9-10.9,19.3s-8.4,9.6-13.1,12.5c-4.8,3-10,4.4-15.7,4.4c-11,0-20-3.4-26.9-10.1
			c-6.9-6.7-12.4-14.8-16.5-24.1c-4.7,10.8-10.2,19.3-16.7,25.4c-6.4,6.1-13.8,9.2-22.2,9.2v-12.2c5.9,0,11.3-2.5,16.2-7.5
			s9.1-12.1,12.5-21.2c0.6-1.8,1.3-3.7,2-5.5s1.5-3.6,2.3-5.2c-1.2-5.3-2.1-10.5-2.6-15.6s-0.8-9.8-0.8-14.1V298.7H206.7z
			 M240.6,378.2c18.5-1.6,32.9-9,42.9-22.2c10.1-13.1,15.6-32.1,16.7-57h0.3c0-8.8-1.2-17.3-3.7-25.7c-2.4-8.4-5.7-15.7-9.6-22
			c-4-6.3-8.4-11.4-13.3-15.3c-4.9-3.9-9.8-5.8-14.7-5.8s-9.8,1.9-14.7,5.8c-4.9,3.9-9.3,9-13.3,15.3c-4,6.3-7.2,13.7-9.6,22
			c-2.4,8.4-3.7,16.9-3.7,25.7v160.5c0,9,1.2,17.6,3.7,25.8c2.4,8.3,5.7,15.5,9.6,21.9c4,6.3,8.4,11.4,13.3,15.3
			c4.9,3.9,9.8,5.8,14.7,5.8s9.4-1.8,13.4-5.3c4.1-3.6,7.8-8.6,11.3-15c3.5-6.4,6.6-14.1,9.5-22.9c2.9-8.9,5.5-18.5,7.9-28.9
			c-3.5-14.1-6.8-25.8-10.1-35.3c-3.3-9.5-7.1-17.2-11.6-23.2s-9.8-10.5-16-13.4C257.5,381.2,249.8,379.2,240.6,378.2z"/>
		<path d="M472.9,378.2c-9.2,1-16.9,3-23.1,6s-11.6,7.4-16,13.4c-4.5,6-8.4,13.8-11.8,23.2c-3.4,9.5-6.7,21.2-9.9,35.3
			c2.4,10.4,5.1,20,7.9,28.9c2.9,8.9,6,16.5,9.5,22.9s7.2,11.4,11.3,15c4.1,3.6,8.6,5.3,13.4,5.3c5.1,0,9.8-1.8,14.1-5.3
			c4.3-3.6,8.1-8.6,11.5-15c3.4-6.4,6.5-14.1,9.3-22.9c2.9-8.9,5.5-18.5,7.9-28.9h12c-1.2,4.9-2.5,9.7-3.8,14.4
			c-1.3,4.7-2.7,9.2-4.1,13.4c2.4,5.1,4.8,10.4,7,15.9c3.5,9.2,7.6,16.3,12.5,21.2c4.9,5,10.3,7.5,16.2,7.5v12.2
			c-9.2,0-17.2-3.7-24-11s-12.7-17.2-17.6-29.6c-5.1,12.4-11,22.3-17.6,29.5c-6.6,7.2-14.4,10.8-23.4,10.8c-5.7,0-11-1.5-15.7-4.4
			c-4.8-3-9.2-7.1-13.1-12.5c-4-5.4-7.6-11.9-11-19.4s-6.4-15.8-9-24.8c-2.9,8.8-5.9,16.9-9.2,24.3c-3.3,7.4-6.9,13.8-10.8,19.1
			c-4,5.3-8.3,9.5-13,12.7s-9.9,4.8-15.6,5v-12.2c4.9,0,9.4-1.8,13.6-5.3c4.2-3.6,8-8.6,11.5-15c3.5-6.4,6.6-14.1,9.5-22.9
			c2.9-8.9,5.5-18.5,7.9-28.9c2-8.8,4.1-17.4,6.3-26c2.1-8.6,4.6-16.4,7.3-23.4c2.8-7,6-13,9.8-18s8.4-8.3,13.9-9.9
			c-6.5-3.1-12-7.8-16.3-14.4c-4.4-6.5-7.9-13.6-10.7-21.4c-2.8-7.7-4.7-15.5-5.8-23.4c-1.1-7.8-1.7-14.7-1.7-20.6
			c0-7.1,0.9-15.3,2.6-24.6c1.7-9.3,4.6-18.1,8.6-26.4c4-8.4,9.3-15.4,16-21.2s15.2-8.7,25.4-8.7c10,0,18.4,2.9,25.2,8.7
			c6.8,5.8,12.2,12.9,16.2,21.2c4,8.4,6.8,17.2,8.6,26.4c1.7,9.3,2.6,17.5,2.6,24.6H496c0-8.8-1.2-17.3-3.7-25.7
			c-2.4-8.4-5.7-15.7-9.6-22c-4-6.3-8.4-11.4-13.3-15.3c-4.9-3.9-9.8-5.8-14.7-5.8s-9.8,1.9-14.7,5.8c-4.9,3.9-9.3,9-13.3,15.3
			c-4,6.3-7.2,13.7-9.6,22c-2.4,8.4-3.7,16.9-3.7,25.7c1,24.9,6.6,43.9,16.7,57C440.1,369.1,454.4,376.5,472.9,378.2z"/>
	</g>
	<line class="st1" x1="0.4" y1="626.8" x2="719.5" y2="626.8"/>
	<line class="st1" x1="0.6" y1="646.2" x2="719.7" y2="646.2"/>
</g>
</svg>
