<?xml version="1.0" encoding="utf-8"?>
<!-- Generator: Adobe Illustrator 22.0.1, SVG Export Plug-In . SVG Version: 6.00 Build 0)  -->
<svg version="1.1" id="Layer_1" xmlns="http://www.w3.org/2000/svg" xmlns:xlink="http://www.w3.org/1999/xlink" x="0px" y="0px"
	 viewBox="0 0 720 720" style="enable-background:new 0 0 720 720;" xml:space="preserve">
<style type="text/css">
	.st0{fill:#FFFFFF;}
	.st1{fill:none;stroke:#312783;stroke-miterlimit:10;}
</style>
<g id="Layer_2_1_">
	<rect x="0.7" y="0" class="st0" width="719" height="719"/>
</g>
<g id="Layer_1_1_">
	<line class="st1" x1="0" y1="558.8" x2="719.5" y2="558.8"/>
	<line class="st1" x1="0.4" y1="93.2" x2="719.5" y2="93.2"/>
	<line class="st1" x1="0.7" y1="335.5" x2="719.5" y2="335.5"/>
	<line class="st1" x1="0.6" y1="114.6" x2="719.7" y2="114.6"/>
	<line class="st1" x1="0.4" y1="646.8" x2="719.5" y2="646.8"/>
	<line class="st1" x1="0.6" y1="666.2" x2="719.7" y2="666.2"/>
	<line class="st1" x1="0.7" y1="242.5" x2="719.5" y2="242.5"/>
</g>
<g>
	<path d="M185.7,354.2c-0.3,13.5-0.4,26.7-0.4,39.5c0,12.8-0.3,25.4-0.8,37.8c6.8,0.3,13.9,2.3,21.6,6.1c7.6,3.8,15.2,8.9,22.8,15.2
		c7.6,6.3,15,13.7,22.2,22c7.2,8.3,13.7,16.8,19.7,25.6c3.7,5.6,8.6,11,14.8,16.1c6.2,5.1,12.5,9.4,19,13.1c6.5,3.7,12.8,6.6,19,8.7
		c6.2,2.1,11.4,3.2,15.6,3.2v16.9c-6.5,0-13.5-1.4-21.1-4.2c-7.6-2.8-15.4-6.8-23.2-11.8c-7.9-5.1-15.6-11.1-23-18
		c-7.5-6.9-14.2-14.4-20.1-22.6c-5.1-7-10.5-13.7-16.3-20.1c-5.8-6.3-11.7-12-17.8-16.9c-6.1-4.9-12-8.9-17.8-11.8
		c-5.8-3-11.2-4.4-16.3-4.4c-1.1,15.8-2.7,30.4-4.9,43.7c-2.1,13.4-5.1,25-9.1,34.9c-3.9,9.9-8.9,17.5-14.8,23
		c-5.9,5.5-13.2,8.2-22,8.2v-16.9c9.3,0,16.4-5.2,21.3-15.6c4.9-10.4,8.5-24.4,10.8-41.8c2.3-17.5,3.5-37.5,3.8-60
		c0.3-22.5,0.4-46.1,0.4-70.6V225.8c0-16.3,2.2-31.3,6.6-45c4.4-13.7,10.1-25.4,17.1-35.1c7-9.7,15-17.3,23.9-22.8
		c8.9-5.5,17.8-8.2,26.8-8.2c9.6,0,18.9,3,27.9,9.1c9,6.1,16.9,14.2,23.7,24.5c6.8,10.3,12.2,22.2,16.3,35.7
		c4.1,13.5,6,27.6,5.7,42.3c-0.3,12.7-2.3,25.6-5.9,38.7c-3.7,13.1-8.7,24.9-15.2,35.5c-6.5,10.6-14.2,19.2-23,25.8
		c-8.9,6.6-18.7,9.9-29.4,9.9c-5.9,0-11.6-0.6-17.1-1.7c-5.5-1.1-10.6-3.2-15.4-6.3c-4.8-3.1-9.3-7.5-13.5-13.3
		c-4.2-5.8-8.2-13.2-11.8-22.2V354.2z M243.6,131.5c-7,0-13.9,2.3-20.7,6.8c-6.8,4.5-12.9,10.9-18.4,19.2
		c-5.5,8.3-9.9,18.2-13.3,29.8c-3.4,11.6-5.1,24.4-5.1,38.5c0,14.1,1.7,26.9,5.1,38.5c3.4,11.6,7.8,21.4,13.3,29.6
		c5.5,8.2,11.6,14.4,18.4,18.8c6.8,4.4,13.7,6.6,20.7,6.6c6.8,0,13.5-2.3,20.1-6.8c6.6-4.5,12.6-10.8,18-19
		c5.3-8.2,9.8-18,13.3-29.4c3.5-11.4,5.3-24.2,5.3-38.2c0-14.1-1.7-26.9-5.1-38.5c-3.4-11.5-7.8-21.5-13.1-29.8
		c-5.4-8.3-11.4-14.7-18.2-19.2C257.1,133.8,250.3,131.5,243.6,131.5z"/>
	<path d="M497.1,335c-12.6,1.4-23.2,4.1-31.8,8.2c-8.6,4.1-15.9,10.2-22.1,18.5c-6.2,8.3-11.6,18.9-16.2,32
		c-4.6,13-9.2,29.2-13.7,48.6c3.4,14.3,7,27.6,10.9,39.8c3.9,12.2,8.3,22.7,13,31.5c4.8,8.8,10,15.7,15.6,20.6
		c5.6,4.9,11.8,7.4,18.5,7.4c7,0,13.5-2.5,19.3-7.4c5.9-4.9,11.1-11.8,15.8-20.6c4.6-8.8,8.9-19.4,12.8-31.5
		c3.9-12.2,7.6-25.4,10.9-39.8h16.4c-1.7,6.7-3.4,13.3-5.3,19.8c-1.8,6.5-3.7,12.6-5.7,18.5c3.4,7,6.6,14.3,9.7,21.9
		c4.8,12.6,10.5,22.4,17.2,29.2c6.7,6.9,14.2,10.3,22.3,10.3v16.8c-12.6,0-23.6-5-33-15.1c-9.4-10.1-17.5-23.7-24.2-40.8
		c-7,17.1-15.1,30.6-24.2,40.6c-9.1,10-19.8,14.9-32.2,14.9c-7.9,0-15.1-2-21.7-6.1c-6.6-4.1-12.6-9.8-18.1-17.2
		c-5.5-7.4-10.5-16.3-15.1-26.7c-4.6-10.4-8.8-21.7-12.4-34.1c-3.9,12.1-8.1,23.2-12.6,33.4c-4.5,10.2-9.5,19-14.9,26.3
		c-5.5,7.3-11.4,13.1-17.9,17.5c-6.5,4.4-13.6,6.7-21.5,6.9v-16.8c6.7,0,13-2.5,18.7-7.4c5.7-4.9,11-11.8,15.8-20.6
		c4.8-8.8,9.1-19.4,13-31.5c3.9-12.2,7.6-25.4,10.9-39.8c2.8-12.1,5.7-24,8.6-35.8c2.9-11.8,6.3-22.5,10.1-32.2
		c3.8-9.7,8.3-17.9,13.5-24.8c5.2-6.9,11.6-11.4,19.1-13.7c-9-4.2-16.5-10.8-22.5-19.8c-6-9-10.9-18.8-14.7-29.4
		c-3.8-10.7-6.5-21.4-8-32.2c-1.5-10.8-2.3-20.3-2.3-28.4c0-9.8,1.2-21.1,3.6-33.9c2.4-12.8,6.3-24.9,11.8-36.4
		c5.5-11.5,12.8-21.2,22.1-29.2c9.3-8,20.9-12,34.9-12c13.7,0,25.3,4,34.7,12c9.4,8,16.8,17.7,22.3,29.2
		c5.5,11.5,9.4,23.6,11.8,36.4c2.4,12.8,3.6,24,3.6,33.9h-15.6c0-12.1-1.7-23.8-5-35.3c-3.4-11.5-7.8-21.6-13.3-30.3
		c-5.5-8.7-11.6-15.7-18.3-21c-6.7-5.3-13.5-8-20.2-8c-6.7,0-13.5,2.7-20.2,8c-6.7,5.3-12.8,12.3-18.3,21
		c-5.5,8.7-9.9,18.8-13.3,30.3c-3.4,11.5-5,23.3-5,35.3c1.4,34.2,9,60.4,22.9,78.5C451.9,322.6,471.6,332.8,497.1,335z"/>
</g>
</svg>
