<?xml version="1.0" encoding="utf-8"?>
<!-- Generator: Adobe Illustrator 25.2.1, SVG Export Plug-In . SVG Version: 6.00 Build 0)  -->
<svg version="1.1" id="Layer_1" xmlns="http://www.w3.org/2000/svg" xmlns:xlink="http://www.w3.org/1999/xlink" x="0px" y="0px"
	 viewBox="0 0 720 720" style="enable-background:new 0 0 720 720;" xml:space="preserve">
<style type="text/css">
	.st0{fill:#FFFFFF;}
	.st1{fill:#FFFFFF;stroke:#1D1D1B;stroke-width:0.25;stroke-miterlimit:10;}
	.st2{fill-rule:evenodd;clip-rule:evenodd;}
	.st3{fill-rule:evenodd;clip-rule:evenodd;fill:#E10B17;}
	.st4{fill-rule:evenodd;clip-rule:evenodd;fill:#FFFFFF;}
	.st5{fill-rule:evenodd;clip-rule:evenodd;fill:#ECB308;}
	.st6{fill:#E10B17;}
	.st7{clip-path:url(#SVGID_2_);}
</style>
<rect class="st0" width="720" height="720"/>
<rect x="0.2" y="0" width="719.8" height="724.8"/>
<path d="M655.7,263.6l-43.5-14.5v-31.4l-48.4-9.7l-36.3,9.7v24.2l-29,10.9v251.6h-4.8l-250.3,1.2V359.1l-3.6-3.6l-21.8-6v-9.7
	L151.4,289l-82.2,70.1c-1.2,2.4-1.2,6-1.2,8.5v353.1l593.8,2.4v-433h-6V263.6z"/>
<polygon class="st1" points="104.6,342.3 106.4,345.9 110.3,346.5 107.5,349.3 108.1,353.2 104.6,351.4 101,353.2 101.7,349.3 
	98.8,346.5 102.8,345.9 "/>
<polygon class="st1" points="120.6,339.3 122.4,342.9 126.3,343.5 123.5,346.3 124.1,350.3 120.6,348.4 117,350.3 117.7,346.3 
	114.8,343.5 118.8,342.9 "/>
<polygon class="st1" points="88.3,359.1 90.1,362.7 94.1,363.2 91.2,366 91.9,370 88.3,368.1 84.8,370 85.4,366 82.6,363.2 
	86.5,362.7 "/>
<polygon class="st1" points="102.2,356.1 103.9,359.7 107.9,360.3 105,363.1 105.7,367.1 102.2,365.2 98.6,367.1 99.3,363.1 
	96.4,360.3 100.4,359.7 "/>
<polygon class="st1" points="114.5,353.2 116.3,356.8 120.3,357.4 117.4,360.2 118.1,364.1 114.5,362.3 111,364.1 111.7,360.2 
	108.8,357.4 112.8,356.8 "/>
<polygon class="st1" points="74.5,377.3 76.2,380.9 80.2,381.5 77.3,384.3 78,388.3 74.5,386.4 70.9,388.3 71.6,384.3 68.7,381.5 
	72.7,380.9 "/>
<polygon class="st1" points="88.3,372.9 90.1,376.5 94.1,377.1 91.2,379.9 91.9,383.9 88.3,382 84.8,383.9 85.4,379.9 82.6,377.1 
	86.5,376.5 "/>
<polygon class="st1" points="100.7,370 102.5,373.6 106.5,374.2 103.6,377 104.3,380.9 100.7,379 97.1,380.9 97.8,377 94.9,374.2 
	98.9,373.6 "/>
<polygon class="st1" points="114.5,367 116.3,370.6 120.3,371.2 117.4,374 118.1,378 114.5,376.1 111,378 111.7,374 108.8,371.2 
	112.8,370.6 "/>
<polygon class="st1" points="74.5,391.2 76.2,394.8 80.2,395.3 77.3,398.1 78,402.1 74.5,400.2 70.9,402.1 71.6,398.1 68.7,395.3 
	72.7,394.8 "/>
<polygon class="st1" points="88.3,386.8 90.1,390.4 94.1,390.9 91.2,393.7 91.9,397.7 88.3,395.8 84.8,397.7 85.4,393.7 82.6,390.9 
	86.5,390.4 "/>
<polygon class="st1" points="100.7,383.8 102.5,387.4 106.5,388 103.6,390.8 104.3,394.8 100.7,392.9 97.1,394.8 97.8,390.8 
	94.9,388 98.9,387.4 "/>
<polygon class="st1" points="114.5,380.9 116.3,384.5 120.3,385.1 117.4,387.9 118.1,391.8 114.5,390 111,391.8 111.7,387.9 
	108.8,385.1 112.8,384.5 "/>
<polygon class="st1" points="88.3,402.1 90.1,405.7 94.1,406.3 91.2,409.1 91.9,413 88.3,411.2 84.8,413 85.4,409.1 82.6,406.3 
	86.5,405.7 "/>
<polygon class="st1" points="114.5,394.7 116.3,398.3 120.3,398.9 117.4,401.7 118.1,405.7 114.5,403.8 111,405.7 111.7,401.7 
	108.8,398.9 112.8,398.3 "/>
<polygon class="st1" points="74.5,418.9 76.2,422.5 80.2,423 77.3,425.8 78,429.8 74.5,427.9 70.9,429.8 71.6,425.8 68.7,423 
	72.7,422.5 "/>
<polygon class="st1" points="88.3,414.4 90.1,418.1 94.1,418.6 91.2,421.4 91.9,425.4 88.3,423.5 84.8,425.4 85.4,421.4 82.6,418.6 
	86.5,418.1 "/>
<polygon class="st1" points="102.2,411.5 103.9,415.1 107.9,415.7 105,418.5 105.7,422.5 102.2,420.6 98.6,422.5 99.3,418.5 
	96.4,415.7 100.4,415.1 "/>
<polygon class="st1" points="114.5,408.6 116.3,412.2 120.3,412.8 117.4,415.6 118.1,419.5 114.5,417.7 111,419.5 111.7,415.6 
	108.8,412.8 112.8,412.2 "/>
<polygon class="st1" points="88.3,429.8 90.1,433.4 94.1,433.9 91.2,436.8 91.9,440.7 88.3,438.8 84.8,440.7 85.4,436.8 82.6,433.9 
	86.5,433.4 "/>
<polygon class="st1" points="100.7,425.4 102.5,429 106.5,429.5 103.6,432.4 104.3,436.3 100.7,434.4 97.1,436.3 97.8,432.4 
	94.9,429.5 98.9,429 "/>
<polygon class="st1" points="114.5,422.4 116.3,426 120.3,426.6 117.4,429.4 118.1,433.4 114.5,431.5 111,433.4 111.7,429.4 
	108.8,426.6 112.8,426 "/>
<polygon class="st1" points="73.8,447.2 75.6,450.8 79.6,451.4 76.7,454.2 77.4,458.2 73.8,456.3 70.2,458.2 70.9,454.2 68,451.4 
	72,450.8 "/>
<polygon class="st1" points="101.5,439.9 103.3,443.5 107.3,444 104.4,446.8 105.1,450.8 101.5,448.9 97.9,450.8 98.6,446.8 
	95.7,444 99.7,443.5 "/>
<polygon class="st1" points="115.3,436.9 117.1,440.5 121.1,441.1 118.2,443.9 118.9,447.9 115.3,446 111.8,447.9 112.5,443.9 
	109.6,441.1 113.6,440.5 "/>
<polygon class="st1" points="73.8,461 75.6,464.7 79.6,465.2 76.7,468 77.4,472 73.8,470.1 70.2,472 70.9,468 68,465.2 72,464.7 "/>
<polygon class="st1" points="87.6,458.1 89.4,461.7 93.4,462.3 90.5,465.1 91.2,469.1 87.6,467.2 84.1,469.1 84.8,465.1 81.9,462.3 
	85.9,461.7 "/>
<polygon class="st1" points="101.5,453.7 103.3,457.3 107.3,457.9 104.4,460.7 105.1,464.7 101.5,462.8 97.9,464.7 98.6,460.7 
	95.7,457.9 99.7,457.3 "/>
<polygon class="st1" points="115.3,450.8 117.1,454.4 121.1,455 118.2,457.8 118.9,461.7 115.3,459.9 111.8,461.7 112.5,457.8 
	109.6,455 113.6,454.4 "/>
<polygon class="st1" points="73.8,477.8 75.6,481.4 79.6,482 76.7,484.8 77.4,488.8 73.8,486.9 70.2,488.8 70.9,484.8 68,482 
	72,481.4 "/>
<polygon class="st1" points="87.6,472 89.4,475.6 93.4,476.1 90.5,479 91.2,482.9 87.6,481 84.1,482.9 84.8,479 81.9,476.1 
	85.9,475.6 "/>
<polygon class="st1" points="101.5,467.6 103.3,471.2 107.3,471.7 104.4,474.5 105.1,478.5 101.5,476.6 97.9,478.5 98.6,474.5 
	95.7,471.7 99.7,471.2 "/>
<polygon class="st1" points="113.9,467.6 115.7,471.2 119.6,471.7 116.8,474.5 117.4,478.5 113.9,476.6 110.3,478.5 111,474.5 
	108.1,471.7 112.1,471.2 "/>
<polygon class="st1" points="75.3,488.7 77,492.4 81,492.9 78.1,495.7 78.8,499.7 75.3,497.8 71.7,499.7 72.4,495.7 69.5,492.9 
	73.5,492.4 "/>
<polygon class="st1" points="101.5,481.4 103.3,485 107.3,485.6 104.4,488.4 105.1,492.4 101.5,490.5 97.9,492.4 98.6,488.4 
	95.7,485.6 99.7,485 "/>
<polygon class="st1" points="115.3,478.5 117.1,482.1 121.1,482.7 118.2,485.5 118.9,489.4 115.3,487.6 111.8,489.4 112.5,485.5 
	109.6,482.7 113.6,482.1 "/>
<polygon class="st1" points="89.1,498.2 90.9,501.8 94.9,502.4 92,505.2 92.7,509.1 89.1,507.3 85.6,509.1 86.2,505.2 83.4,502.4 
	87.3,501.8 "/>
<polygon class="st1" points="101.5,495.3 103.3,498.9 107.3,499.4 104.4,502.2 105.1,506.2 101.5,504.3 97.9,506.2 98.6,502.2 
	95.7,499.4 99.7,498.9 "/>
<polygon class="st1" points="113.9,495.3 115.7,498.9 119.6,499.4 116.8,502.2 117.4,506.2 113.9,504.3 110.3,506.2 111,502.2 
	108.1,499.4 112.1,498.9 "/>
<polygon class="st1" points="75.3,517.9 77,521.5 81,522.1 78.1,524.9 78.8,528.9 75.3,527 71.7,528.9 72.4,524.9 69.5,522.1 
	73.5,521.5 "/>
<polygon class="st1" points="89.1,513.5 90.9,517.1 94.9,517.7 92,520.5 92.7,524.5 89.1,522.6 85.6,524.5 86.2,520.5 83.4,517.7 
	87.3,517.1 "/>
<polygon class="st1" points="101.5,509.1 103.3,512.7 107.3,513.3 104.4,516.1 105.1,520.1 101.5,518.2 97.9,520.1 98.6,516.1 
	95.7,513.3 99.7,512.7 "/>
<polygon class="st1" points="115.3,506.2 117.1,509.8 121.1,510.4 118.2,513.2 118.9,517.1 115.3,515.2 111.8,517.1 112.5,513.2 
	109.6,510.4 113.6,509.8 "/>
<polygon class="st1" points="73.8,530.3 75.6,533.9 79.6,534.5 76.7,537.3 77.4,541.2 73.8,539.4 70.2,541.2 70.9,537.3 68,534.5 
	72,533.9 "/>
<polygon class="st1" points="87.6,527.4 89.4,531 93.4,531.5 90.5,534.3 91.2,538.3 87.6,536.4 84.1,538.3 84.8,534.3 81.9,531.5 
	85.9,531 "/>
<polygon class="st1" points="101.5,523 103.3,526.6 107.3,527.1 104.4,529.9 105.1,533.9 101.5,532 97.9,533.9 98.6,529.9 
	95.7,527.1 99.7,526.6 "/>
<polygon class="st1" points="75.3,557.4 77,561 81,561.5 78.1,564.3 78.8,568.3 75.3,566.4 71.7,568.3 72.4,564.3 69.5,561.5 
	73.5,561 "/>
<polygon class="st1" points="101.5,536.8 103.3,540.4 107.3,541 104.4,543.8 105.1,547.8 101.5,545.9 97.9,547.8 98.6,543.8 
	95.7,541 99.7,540.4 "/>
<polygon class="st1" points="113.9,520.7 115.7,524.3 119.6,524.8 116.8,527.6 117.4,531.6 113.9,529.7 110.3,531.6 111,527.6 
	108.1,524.8 112.1,524.3 "/>
<polygon class="st1" points="75.3,571.2 77,574.8 81,575.4 78.1,578.2 78.8,582.2 75.3,580.3 71.7,582.2 72.4,578.2 69.5,575.4 
	73.5,574.8 "/>
<polygon class="st1" points="89.1,568.3 90.9,571.9 94.9,572.5 92,575.3 92.7,579.2 89.1,577.3 85.6,579.2 86.2,575.3 83.4,572.5 
	87.3,571.9 "/>
<polygon class="st1" points="115.3,562.4 117.1,566 121.1,566.6 118.2,569.4 118.9,573.3 115.3,571.5 111.8,573.3 112.5,569.4 
	109.6,566.6 113.6,566 "/>
<polygon class="st1" points="87.6,582.1 89.4,585.7 93.4,586.3 90.5,589.1 91.2,593.1 87.6,591.2 84.1,593.1 84.8,589.1 81.9,586.3 
	85.9,585.7 "/>
<polygon class="st1" points="101.5,579.2 103.3,582.8 107.3,583.4 104.4,586.2 105.1,590.1 101.5,588.3 97.9,590.1 98.6,586.2 
	95.7,583.4 99.7,582.8 "/>
<polygon class="st1" points="74.9,600.4 76.7,604 80.7,604.6 77.8,607.4 78.5,611.3 74.9,609.5 71.3,611.3 72,607.4 69.1,604.6 
	73.1,604 "/>
<polygon class="st1" points="88.7,596 90.5,599.6 94.5,600.1 91.6,603 92.3,606.9 88.7,605 85.2,606.9 85.9,603 83,600.1 87,599.6 
	"/>
<polygon class="st1" points="101.1,593 102.9,596.6 106.9,597.2 104,600 104.7,604 101.1,602.1 97.6,604 98.2,600 95.4,597.2 
	99.3,596.6 "/>
<polygon class="st1" points="115,590.1 116.8,593.7 120.7,594.3 117.9,597.1 118.5,601 115,599.2 111.4,601 112.1,597.1 
	109.2,594.3 113.2,593.7 "/>
<polygon class="st1" points="88.7,611.3 90.5,614.9 94.5,615.5 91.6,618.3 92.3,622.2 88.7,620.4 85.2,622.2 85.9,618.3 83,615.5 
	87,614.9 "/>
<polygon class="st1" points="74.9,628.1 76.7,631.7 80.7,632.3 77.8,635.1 78.5,639 74.9,637.1 71.3,639 72,635.1 69.1,632.3 
	73.1,631.7 "/>
<polygon class="st1" points="101.1,622.2 102.9,625.8 106.9,626.4 104,629.2 104.7,633.1 101.1,631.3 97.6,633.1 98.2,629.2 
	95.4,626.4 99.3,625.8 "/>
<polygon class="st1" points="74.9,641.9 76.7,645.5 80.7,646.1 77.8,648.9 78.5,652.9 74.9,651 71.3,652.9 72,648.9 69.1,646.1 
	73.1,645.5 "/>
<polygon class="st1" points="88.7,639 90.5,642.6 94.5,643.2 91.6,646 92.3,649.9 88.7,648.1 85.2,649.9 85.9,646 83,643.2 
	87,642.6 "/>
<polygon class="st1" points="101.1,634.6 102.9,638.2 106.9,638.8 104,641.6 104.7,645.5 101.1,643.7 97.6,645.5 98.2,641.6 
	95.4,638.8 99.3,638.2 "/>
<polygon class="st1" points="115,631.6 116.8,635.2 120.7,635.8 117.9,638.6 118.5,642.6 115,640.7 111.4,642.6 112.1,638.6 
	109.2,635.8 113.2,635.2 "/>
<polygon class="st1" points="74.9,670.4 76.7,674.1 80.7,674.6 77.8,677.4 78.5,681.4 74.9,679.5 71.3,681.4 72,677.4 69.1,674.6 
	73.1,674.1 "/>
<polygon class="st1" points="101.1,648.4 102.9,652 106.9,652.6 104,655.4 104.7,659.4 101.1,657.5 97.6,659.4 98.2,655.4 
	95.4,652.6 99.3,652 "/>
<polygon class="st1" points="102.3,551 104,554.6 108,555.2 105.1,558 105.8,561.9 102.3,560.1 98.7,561.9 99.4,558 96.5,555.2 
	100.5,554.6 "/>
<polygon class="st1" points="101.1,663.7 102.9,667.3 106.9,667.9 104,670.7 104.7,674.7 101.1,672.8 97.6,674.7 98.2,670.7 
	95.4,667.9 99.3,667.3 "/>
<polygon class="st1" points="101.1,676.1 102.9,679.7 106.9,680.3 104,683.1 104.7,687.1 101.1,685.2 97.6,687.1 98.2,683.1 
	95.4,680.3 99.3,679.7 "/>
<polygon class="st1" points="89.7,541.2 91.5,544.8 95.5,545.4 92.6,548.2 93.3,552.2 89.7,550.3 86.2,552.2 86.9,548.2 84,545.4 
	88,544.8 "/>
<polygon class="st1" points="115.5,548 117.2,551.6 121.2,552.2 118.3,555 119,559 115.5,557.1 111.9,559 112.6,555 109.7,552.2 
	113.7,551.6 "/>
<polygon class="st1" points="177.5,321.7 179.3,325.3 183.3,325.8 180.4,328.6 181.1,332.6 177.5,330.7 174,332.6 174.7,328.6 
	171.8,325.8 175.8,325.3 "/>
<polygon class="st1" points="151.3,300.3 153.1,303.9 157.1,304.5 154.2,307.3 154.9,311.2 151.3,309.4 147.8,311.2 148.4,307.3 
	145.6,304.5 149.5,303.9 "/>
<polyline class="st1" points="168,310.2 168.7,314.2 165.2,312.3 161.6,314.2 162.3,310.2 159.4,307.4 163.4,306.8 "/>
<polygon class="st1" points="177.5,335.5 179.3,339.1 183.3,339.7 180.4,342.5 181.1,346.5 177.5,344.6 174,346.5 174.7,342.5 
	171.8,339.7 175.8,339.1 "/>
<polygon class="st1" points="137.5,311.2 139.2,314.8 143.2,315.4 140.3,318.2 141,322.1 137.5,320.3 133.9,322.1 134.6,318.2 
	131.7,315.4 135.7,314.8 "/>
<polygon class="st1" points="151.3,314.1 153.1,317.7 157.1,318.3 154.2,321.1 154.9,325.1 151.3,323.2 147.8,325.1 148.4,321.1 
	145.6,318.3 149.5,317.7 "/>
<polygon class="st1" points="165.2,317.1 166.9,320.7 170.9,321.2 168,324 168.7,328 165.2,326.1 161.6,328 162.3,324 159.4,321.2 
	163.4,320.7 "/>
<polygon class="st1" points="177.5,349.4 179.3,353 183.3,353.5 180.4,356.3 181.1,360.3 177.5,358.4 174,360.3 174.7,356.3 
	171.8,353.5 175.8,353 "/>
<polygon class="st1" points="137.5,325 139.2,328.6 143.2,329.2 140.3,332 141,336 137.5,334.1 133.9,336 134.6,332 131.7,329.2 
	135.7,328.6 "/>
<polygon class="st1" points="151.3,328 153.1,331.6 157.1,332.1 154.2,335 154.9,338.9 151.3,337 147.8,338.9 148.4,335 
	145.6,332.1 149.5,331.6 "/>
<polygon class="st1" points="165.2,330.9 166.9,334.5 170.9,335.1 168,337.9 168.7,341.9 165.2,340 161.6,341.9 162.3,337.9 
	159.4,335.1 163.4,334.5 "/>
<polygon class="st1" points="177.5,363.2 179.3,366.8 183.3,367.4 180.4,370.2 181.1,374.2 177.5,372.3 174,374.2 174.7,370.2 
	171.8,367.4 175.8,366.8 "/>
<polygon class="st1" points="137.5,338.9 139.2,342.5 143.2,343.1 140.3,345.9 141,349.8 137.5,348 133.9,349.8 134.6,345.9 
	131.7,343.1 135.7,342.5 "/>
<polygon class="st1" points="151.3,341.8 153.1,345.4 157.1,346 154.2,348.8 154.9,352.8 151.3,350.9 147.8,352.8 148.4,348.8 
	145.6,346 149.5,345.4 "/>
<polygon class="st1" points="163.7,344.8 165.5,348.4 169.5,348.9 166.6,351.7 167.3,355.7 163.7,353.8 160.1,355.7 160.8,351.7 
	157.9,348.9 161.9,348.4 "/>
<polygon class="st1" points="177.5,377.1 179.3,380.7 183.3,381.2 180.4,384 181.1,388 177.5,386.1 174,388 174.7,384 171.8,381.2 
	175.8,380.7 "/>
<polygon class="st1" points="137.5,352.7 139.2,356.3 143.2,356.9 140.3,359.7 141,363.7 137.5,361.8 133.9,363.7 134.6,359.7 
	131.7,356.9 135.7,356.3 "/>
<polygon class="st1" points="151.3,355.7 153.1,359.3 157.1,359.8 154.2,362.7 154.9,366.6 151.3,364.7 147.8,366.6 148.4,362.7 
	145.6,359.8 149.5,359.3 "/>
<polygon class="st1" points="163.7,360.1 165.5,363.7 169.5,364.3 166.6,367.1 167.3,371 163.7,369.1 160.1,371 160.8,367.1 
	157.9,364.3 161.9,363.7 "/>
<polygon class="st1" points="177.5,390.9 179.3,394.5 183.3,395.1 180.4,397.9 181.1,401.9 177.5,400 174,401.9 174.7,397.9 
	171.8,395.1 175.8,394.5 "/>
<polygon class="st1" points="190.8,326.1 192.5,329.7 196.5,330.2 193.6,333.1 194.3,337 190.8,335.1 187.2,337 187.9,333.1 
	185,330.2 189,329.7 "/>
<polygon class="st1" points="190.8,339.9 192.5,343.5 196.5,344.1 193.6,346.9 194.3,350.9 190.8,349 187.2,350.9 187.9,346.9 
	185,344.1 189,343.5 "/>
<polygon class="st1" points="190.8,353.8 192.5,357.4 196.5,357.9 193.6,360.7 194.3,364.7 190.8,362.8 187.2,364.7 187.9,360.7 
	185,357.9 189,357.4 "/>
<polygon class="st1" points="190.8,367.6 192.5,371.2 196.5,371.8 193.6,374.6 194.3,378.6 190.8,376.7 187.2,378.6 187.9,374.6 
	185,371.8 189,371.2 "/>
<polygon class="st1" points="190.8,381.5 192.5,385.1 196.5,385.6 193.6,388.4 194.3,392.4 190.8,390.5 187.2,392.4 187.9,388.4 
	185,385.6 189,385.1 "/>
<polygon class="st1" points="190.8,395.3 192.5,398.9 196.5,399.5 193.6,402.3 194.3,406.3 190.8,404.4 187.2,406.3 187.9,402.3 
	185,399.5 189,398.9 "/>
<polygon class="st1" points="190.8,409.2 192.5,412.8 196.5,413.3 193.6,416.1 194.3,420.1 190.8,418.2 187.2,420.1 187.9,416.1 
	185,413.3 189,412.8 "/>
<polygon class="st1" points="204,342.8 205.8,346.5 209.7,347 206.9,349.8 207.5,353.8 204,351.9 200.4,353.8 201.1,349.8 
	198.2,347 202.2,346.5 "/>
<polygon class="st1" points="204,358.2 205.8,361.8 209.7,362.3 206.9,365.2 207.5,369.1 204,367.2 200.4,369.1 201.1,365.2 
	198.2,362.3 202.2,361.8 "/>
<polygon class="st1" points="204,370.5 205.8,374.1 209.7,374.7 206.9,377.5 207.5,381.5 204,379.6 200.4,381.5 201.1,377.5 
	198.2,374.7 202.2,374.1 "/>
<polygon class="st1" points="204,385.9 205.8,389.5 209.7,390 206.9,392.9 207.5,396.8 204,394.9 200.4,396.8 201.1,392.9 
	198.2,390 202.2,389.5 "/>
<polygon class="st1" points="204,399.7 205.8,403.3 209.7,403.9 206.9,406.7 207.5,410.7 204,408.8 200.4,410.7 201.1,406.7 
	198.2,403.9 202.2,403.3 "/>
<polygon class="st1" points="137.5,367.2 139.2,370.8 143.2,371.4 140.3,374.2 141,378.1 137.5,376.3 133.9,378.1 134.6,374.2 
	131.7,371.4 135.7,370.8 "/>
<polygon class="st1" points="151.3,370.1 153.1,373.7 157.1,374.3 154.2,377.1 154.9,381.1 151.3,379.2 147.8,381.1 148.4,377.1 
	145.6,374.3 149.5,373.7 "/>
<polygon class="st1" points="163.7,373 165.5,376.6 169.5,377.2 166.6,380 167.3,384 163.7,382.1 160.1,384 160.8,380 157.9,377.2 
	161.9,376.6 "/>
<polygon class="st1" points="137.5,381 139.2,384.6 143.2,385.2 140.3,388 141,392 137.5,390.1 133.9,392 134.6,388 131.7,385.2 
	135.7,384.6 "/>
<polygon class="st1" points="151.3,384 153.1,387.6 157.1,388.1 154.2,390.9 154.9,394.9 151.3,393 147.8,394.9 148.4,390.9 
	145.6,388.1 149.5,387.6 "/>
<polygon class="st1" points="165.2,386.9 166.9,390.5 170.9,391.1 168,393.9 168.7,397.8 165.2,396 161.6,397.8 162.3,393.9 
	159.4,391.1 163.4,390.5 "/>
<polygon class="st1" points="151.3,397.8 153.1,401.4 157.1,402 154.2,404.8 154.9,408.8 151.3,406.9 147.8,408.8 148.4,404.8 
	145.6,402 149.5,401.4 "/>
<polygon class="st1" points="165.2,400.7 166.9,404.3 170.9,404.9 168,407.7 168.7,411.7 165.2,409.8 161.6,411.7 162.3,407.7 
	159.4,404.9 163.4,404.3 "/>
<polygon class="st1" points="137.5,408.7 139.2,412.3 143.2,412.9 140.3,415.7 141,419.7 137.5,417.8 133.9,419.7 134.6,415.7 
	131.7,412.9 135.7,412.3 "/>
<polygon class="st1" points="151.3,411.7 153.1,415.3 157.1,415.8 154.2,418.6 154.9,422.6 151.3,420.7 147.8,422.6 148.4,418.6 
	145.6,415.8 149.5,415.3 "/>
<polygon class="st1" points="137.5,422.6 139.2,426.2 143.2,426.7 140.3,429.6 141,433.5 137.5,431.6 133.9,433.5 134.6,429.6 
	131.7,426.7 135.7,426.2 "/>
<polygon class="st1" points="151.3,425.5 153.1,429.1 157.1,429.7 154.2,432.5 154.9,436.5 151.3,434.6 147.8,436.5 148.4,432.5 
	145.6,429.7 149.5,429.1 "/>
<polygon class="st1" points="163.7,443.8 165.5,447.4 169.5,447.9 166.6,450.7 167.3,454.7 163.7,452.8 160.1,454.7 160.8,450.7 
	157.9,447.9 161.9,447.4 "/>
<polygon class="st1" points="218.7,359.8 220.4,363.4 224.4,364 221.5,366.8 222.2,370.8 218.7,368.9 215.1,370.8 215.8,366.8 
	212.9,364 216.9,363.4 "/>
<polygon class="st1" points="218.7,373.7 220.4,377.3 224.4,377.9 221.5,380.7 222.2,384.6 218.7,382.8 215.1,384.6 215.8,380.7 
	212.9,377.9 216.9,377.3 "/>
<polygon class="st1" points="218.7,387.5 220.4,391.1 224.4,391.7 221.5,394.5 222.2,398.5 218.7,396.6 215.1,398.5 215.8,394.5 
	212.9,391.7 216.9,391.1 "/>
<polygon class="st1" points="218.7,401.4 220.4,405 224.4,405.6 221.5,408.4 222.2,412.3 218.7,410.5 215.1,412.3 215.8,408.4 
	212.9,405.6 216.9,405 "/>
<polygon class="st1" points="218.7,415.2 220.4,418.8 224.4,419.4 221.5,422.2 222.2,426.2 218.7,424.3 215.1,426.2 215.8,422.2 
	212.9,419.4 216.9,418.8 "/>
<polygon class="st1" points="218.7,429.1 220.4,432.7 224.4,433.3 221.5,436.1 222.2,440 218.7,438.2 215.1,440 215.8,436.1 
	212.9,433.3 216.9,432.7 "/>
<polygon class="st1" points="231.9,362.8 233.6,366.4 237.6,366.9 234.7,369.8 235.4,373.7 231.9,371.8 228.3,373.7 229,369.8 
	226.1,366.9 230.1,366.4 "/>
<polygon class="st1" points="231.9,378.1 233.6,381.7 237.6,382.3 234.7,385.1 235.4,389 231.9,387.2 228.3,389 229,385.1 
	226.1,382.3 230.1,381.7 "/>
<polygon class="st1" points="231.9,391.9 233.6,395.5 237.6,396.1 234.7,398.9 235.4,402.9 231.9,401 228.3,402.9 229,398.9 
	226.1,396.1 230.1,395.5 "/>
<polygon class="st1" points="231.9,404.3 233.6,407.9 237.6,408.5 234.7,411.3 235.4,415.3 231.9,413.4 228.3,415.3 229,411.3 
	226.1,408.5 230.1,407.9 "/>
<polygon class="st1" points="231.9,419.6 233.6,423.2 237.6,423.8 234.7,426.6 235.4,430.6 231.9,428.7 228.3,430.6 229,426.6 
	226.1,423.8 230.1,423.2 "/>
<polygon class="st1" points="231.9,433.5 233.6,437.1 237.6,437.7 234.7,440.5 235.4,444.4 231.9,442.6 228.3,444.4 229,440.5 
	226.1,437.7 230.1,437.1 "/>
<polygon class="st1" points="177.5,419.4 179.3,423 183.3,423.6 180.4,426.4 181.1,430.4 177.5,428.5 174,430.4 174.7,426.4 
	171.8,423.6 175.8,423 "/>
<polygon class="st1" points="190.8,451.7 192.5,455.3 196.5,455.9 193.6,458.7 194.3,462.7 190.8,460.8 187.2,462.7 187.9,458.7 
	185,455.9 189,455.3 "/>
<polygon class="st1" points="178.4,446.7 180.2,450.3 184.1,450.9 181.3,453.7 181.9,457.6 178.4,455.8 174.8,457.6 175.5,453.7 
	172.6,450.9 176.6,450.3 "/>
<polygon class="st1" points="217.2,457.6 219,461.2 222.9,461.8 220.1,464.6 220.7,468.6 217.2,466.7 213.6,468.6 214.3,464.6 
	211.4,461.8 215.4,461.2 "/>
<polygon class="st1" points="205.4,426.1 207.2,429.7 211.2,430.3 208.3,433.1 209,437.1 205.4,435.2 201.9,437.1 202.6,433.1 
	199.7,430.3 203.7,429.7 "/>
<polygon class="st1" points="231.9,446.7 233.6,450.3 237.6,450.9 234.7,453.7 235.4,457.6 231.9,455.8 228.3,457.6 229,453.7 
	226.1,450.9 230.1,450.3 "/>
<polygon class="st1" points="217.2,442.9 219,446.5 222.9,447.1 220.1,449.9 220.7,453.9 217.2,452 213.6,453.9 214.3,449.9 
	211.4,447.1 215.4,446.5 "/>
<polygon class="st1" points="204,440 205.8,443.6 209.7,444.2 206.9,447 207.5,450.9 204,449.1 200.4,450.9 201.1,447 198.2,444.2 
	202.2,443.6 "/>
<polygon class="st1" points="190.8,437 192.5,440.7 196.5,441.2 193.6,444 194.3,448 190.8,446.1 187.2,448 187.9,444 185,441.2 
	189,440.7 "/>
<polygon class="st1" points="176.2,474.9 178,478.5 181.9,479.1 179.1,481.9 179.7,485.9 176.2,484 172.6,485.9 173.3,481.9 
	170.4,479.1 174.4,478.5 "/>
<polygon class="st1" points="177.7,488.7 179.4,492.4 183.4,492.9 180.5,495.7 181.2,499.7 177.7,497.8 174.1,499.7 174.8,495.7 
	171.9,492.9 175.9,492.4 "/>
<polygon class="st1" points="136.1,449.7 137.9,453.3 141.9,453.9 139,456.7 139.7,460.7 136.1,458.8 132.5,460.7 133.2,456.7 
	130.3,453.9 134.3,453.3 "/>
<polygon class="st1" points="150,467.4 151.7,471 155.7,471.5 152.8,474.3 153.5,478.3 150,476.4 146.4,478.3 147.1,474.3 
	144.2,471.5 148.2,471 "/>
<polygon class="st1" points="163.8,470.3 165.6,473.9 169.6,474.5 166.7,477.3 167.4,481.2 163.8,479.4 160.2,481.2 160.9,477.3 
	158,474.5 162,473.9 "/>
<polygon class="st1" points="177.7,502.6 179.4,506.2 183.4,506.8 180.5,509.6 181.2,513.5 177.7,511.7 174.1,513.5 174.8,509.6 
	171.9,506.8 175.9,506.2 "/>
<polygon class="st1" points="136.1,478.3 137.9,481.9 141.9,482.5 139,485.3 139.7,489.2 136.1,487.4 132.5,489.2 133.2,485.3 
	130.3,482.5 134.3,481.9 "/>
<polygon class="st1" points="150,481.2 151.7,484.8 155.7,485.4 152.8,488.2 153.5,492.2 150,490.3 146.4,492.2 147.1,488.2 
	144.2,485.4 148.2,484.8 "/>
<polygon class="st1" points="163.8,484.1 165.6,487.7 169.6,488.3 166.7,491.1 167.4,495.1 163.8,493.2 160.2,495.1 160.9,491.1 
	158,488.3 162,487.7 "/>
<polygon class="st1" points="176.2,516.4 178,520 181.9,520.6 179.1,523.4 179.7,527.4 176.2,525.5 172.6,527.4 173.3,523.4 
	170.4,520.6 174.4,520 "/>
<polygon class="st1" points="150,495.1 151.7,498.7 155.7,499.2 152.8,502 153.5,506 150,504.1 146.4,506 147.1,502 144.2,499.2 
	148.2,498.7 "/>
<polygon class="st1" points="163.8,498 165.6,501.6 169.6,502.2 166.7,505 167.4,508.9 163.8,507.1 160.2,508.9 160.9,505 
	158,502.2 162,501.6 "/>
<polygon class="st1" points="176.2,530.3 178,533.9 181.9,534.5 179.1,537.3 179.7,541.2 176.2,539.4 172.6,541.2 173.3,537.3 
	170.4,534.5 174.4,533.9 "/>
<polygon class="st1" points="136.1,506 137.9,509.6 141.9,510.2 139,513 139.7,516.9 136.1,515.1 132.5,516.9 133.2,513 
	130.3,510.2 134.3,509.6 "/>
<polygon class="st1" points="150,508.9 151.7,512.5 155.7,513.1 152.8,515.9 153.5,519.9 150,518 146.4,519.9 147.1,515.9 
	144.2,513.1 148.2,512.5 "/>
<polygon class="st1" points="176.2,544.1 178,547.7 181.9,548.3 179.1,551.1 179.7,555.1 176.2,553.2 172.6,555.1 173.3,551.1 
	170.4,548.3 174.4,547.7 "/>
<polygon class="st1" points="176.2,558 178,561.6 181.9,562.2 179.1,565 179.7,568.9 176.2,567.1 172.6,568.9 173.3,565 
	170.4,562.2 174.4,561.6 "/>
<polygon class="st1" points="190.9,479.3 192.6,482.9 196.6,483.5 193.7,486.3 194.4,490.3 190.9,488.4 187.3,490.3 188,486.3 
	185.1,483.5 189.1,482.9 "/>
<polygon class="st1" points="189.4,493.2 191.2,496.8 195.2,497.3 192.3,500.1 193,504.1 189.4,502.2 185.8,504.1 186.5,500.1 
	183.6,497.3 187.6,496.8 "/>
<polygon class="st1" points="189.4,520.8 191.2,524.5 195.2,525 192.3,527.8 193,531.8 189.4,529.9 185.8,531.8 186.5,527.8 
	183.6,525 187.6,524.5 "/>
<polygon class="st1" points="189.4,534.7 191.2,538.3 195.2,538.9 192.3,541.7 193,545.7 189.4,543.8 185.8,545.7 186.5,541.7 
	183.6,538.9 187.6,538.3 "/>
<polygon class="st1" points="190.9,548.5 192.6,552.2 196.6,552.7 193.7,555.5 194.4,559.5 190.9,557.6 187.3,559.5 188,555.5 
	185.1,552.7 189.1,552.2 "/>
<polygon class="st1" points="190.9,464 192.6,467.6 196.6,468.2 193.7,471 194.4,474.9 190.9,473.1 187.3,474.9 188,471 
	185.1,468.2 189.1,467.6 "/>
<polygon class="st1" points="204.1,482.2 205.9,485.8 209.8,486.4 207,489.2 207.6,493.2 204.1,491.3 200.5,493.2 201.2,489.2 
	198.3,486.4 202.3,485.8 "/>
<polygon class="st1" points="204.1,496.1 205.9,499.7 209.8,500.3 207,503.1 207.6,507 204.1,505.2 200.5,507 201.2,503.1 
	198.3,500.3 202.3,499.7 "/>
<polygon class="st1" points="204.1,468.4 205.9,472 209.8,472.6 207,475.4 207.6,479.3 204.1,477.5 200.5,479.3 201.2,475.4 
	198.3,472.6 202.3,472 "/>
<polygon class="st1" points="136.1,520.4 137.9,524 141.9,524.6 139,527.4 139.7,531.4 136.1,529.5 132.5,531.4 133.2,527.4 
	130.3,524.6 134.3,524 "/>
<polygon class="st1" points="150,523.3 151.7,527 155.7,527.5 152.8,530.3 153.5,534.3 150,532.4 146.4,534.3 147.1,530.3 
	144.2,527.5 148.2,527 "/>
<polygon class="st1" points="136.1,534.3 137.9,537.9 141.9,538.4 139,541.3 139.7,545.2 136.1,543.3 132.5,545.2 133.2,541.3 
	130.3,538.4 134.3,537.9 "/>
<polygon class="st1" points="150,537.2 151.7,540.8 155.7,541.4 152.8,544.2 153.5,548.1 150,546.3 146.4,548.1 147.1,544.2 
	144.2,541.4 148.2,540.8 "/>
<polygon class="st1" points="163.8,540.1 165.6,543.7 169.6,544.3 166.7,547.1 167.4,551.1 163.8,549.2 160.2,551.1 160.9,547.1 
	158,544.3 162,543.7 "/>
<polygon class="st1" points="136.1,548.1 137.9,551.7 141.9,552.3 139,555.1 139.7,559.1 136.1,557.2 132.5,559.1 133.2,555.1 
	130.3,552.3 134.3,551.7 "/>
<polygon class="st1" points="150,551 151.7,554.7 155.7,555.2 152.8,558 153.5,562 150,560.1 146.4,562 147.1,558 144.2,555.2 
	148.2,554.7 "/>
<polygon class="st1" points="217.3,484.5 219.1,488.1 223,488.7 220.2,491.5 220.8,495.5 217.3,493.6 213.7,495.5 214.4,491.5 
	211.5,488.7 215.5,488.1 "/>
<polygon class="st1" points="230.5,474.3 232.3,477.9 236.3,478.4 233.4,481.3 234.1,485.2 230.5,483.3 226.9,485.2 227.6,481.3 
	224.7,478.4 228.7,477.9 "/>
<polygon class="st1" points="176.3,586.5 178.1,590.1 182,590.7 179.2,593.5 179.8,597.5 176.3,595.6 172.7,597.5 173.4,593.5 
	170.5,590.7 174.5,590.1 "/>
<polygon class="st1" points="163.9,568 165.7,571.7 169.7,572.2 166.8,575 167.5,579 163.9,577.1 160.3,579 161,575 158.1,572.2 
	162.1,571.7 "/>
<polygon class="st1" points="176.3,600.3 178.1,604 182,604.5 179.2,607.3 179.8,611.3 176.3,609.4 172.7,611.3 173.4,607.3 
	170.5,604.5 174.5,604 "/>
<polygon class="st1" points="136.2,576 138,579.6 142,580.2 139.1,583 139.8,587 136.2,585.1 132.6,587 133.3,583 130.4,580.2 
	134.4,579.6 "/>
<polygon class="st1" points="150.1,579 151.8,582.6 155.8,583.1 152.9,586 153.6,589.9 150.1,588 146.5,589.9 147.2,586 
	144.3,583.1 148.3,582.6 "/>
<polygon class="st1" points="163.9,581.9 165.7,585.5 169.7,586.1 166.8,588.9 167.5,592.9 163.9,591 160.3,592.9 161,588.9 
	158.1,586.1 162.1,585.5 "/>
<polygon class="st1" points="176.3,614.2 178.1,617.8 182,618.4 179.2,621.2 179.8,625.2 176.3,623.3 172.7,625.2 173.4,621.2 
	170.5,618.4 174.5,617.8 "/>
<polygon class="st1" points="136.2,589.9 138,593.5 142,594.1 139.1,596.9 139.8,600.8 136.2,599 132.6,600.8 133.3,596.9 
	130.4,594.1 134.4,593.5 "/>
<polygon class="st1" points="150.1,592.8 151.8,596.4 155.8,597 152.9,599.8 153.6,603.8 150.1,601.9 146.5,603.8 147.2,599.8 
	144.3,597 148.3,596.4 "/>
<polygon class="st1" points="176.3,628 178.1,631.7 182,632.2 179.2,635 179.8,639 176.3,637.1 172.7,639 173.4,635 170.5,632.2 
	174.5,631.7 "/>
<polygon class="st1" points="136.2,603.7 138,607.3 142,607.9 139.1,610.7 139.8,614.7 136.2,612.8 132.6,614.7 133.3,610.7 
	130.4,607.9 134.4,607.3 "/>
<polygon class="st1" points="189.5,577.1 191.3,580.7 195.3,581.2 192.4,584 193.1,588 189.5,586.1 185.9,588 186.6,584 
	183.7,581.2 187.7,580.7 "/>
<polygon class="st1" points="191,562.2 192.7,565.8 196.7,566.4 193.8,569.2 194.5,573.1 191,571.3 187.4,573.1 188.1,569.2 
	185.2,566.4 189.2,565.8 "/>
<polygon class="st1" points="150.1,621.1 151.8,624.7 155.8,625.3 152.9,628.1 153.6,632.1 150.1,630.2 146.5,632.1 147.2,628.1 
	144.3,625.3 148.3,624.7 "/>
<polygon class="st1" points="162.4,624 164.2,627.6 168.2,628.2 165.3,631 166,635 162.4,633.1 158.9,635 159.6,631 156.7,628.2 
	160.7,627.6 "/>
<polygon class="st1" points="136.2,632 138,635.6 142,636.2 139.1,639 139.8,643 136.2,641.1 132.6,643 133.3,639 130.4,636.2 
	134.4,635.6 "/>
<polygon class="st1" points="150.1,648.8 151.8,652.4 155.8,653 152.9,655.8 153.6,659.8 150.1,657.9 146.5,659.8 147.2,655.8 
	144.3,653 148.3,652.4 "/>
<polygon class="st1" points="136.6,646.5 138.4,650.1 142.4,650.7 139.5,653.5 140.2,657.5 136.6,655.6 133.1,657.5 133.8,653.5 
	130.9,650.7 134.9,650.1 "/>
<polygon class="st1" points="138.1,659.9 139.9,663.5 143.9,664.1 141,666.9 141.7,670.9 138.1,669 134.6,670.9 135.2,666.9 
	132.4,664.1 136.3,663.5 "/>
<polygon class="st1" points="541.7,222.3 543.5,225.9 547.5,226.4 544.6,229.3 545.3,233.2 541.7,231.3 538.2,233.2 538.8,229.3 
	536,226.4 539.9,225.9 "/>
<polygon class="st1" points="555.6,219.3 557.3,222.9 561.3,223.5 558.4,226.3 559.1,230.3 555.6,228.4 552,230.3 552.7,226.3 
	549.8,223.5 553.8,222.9 "/>
<polygon class="st1" points="541.7,236.1 543.5,239.7 547.5,240.3 544.6,243.1 545.3,247.1 541.7,245.2 538.2,247.1 538.8,243.1 
	536,240.3 539.9,239.7 "/>
<polygon class="st1" points="555.6,234.6 557.3,238.2 561.3,238.8 558.4,241.6 559.1,245.6 555.6,243.7 552,245.6 552.7,241.6 
	549.8,238.8 553.8,238.2 "/>
<polygon class="st1" points="514.2,270.5 516,274.1 520,274.7 517.1,277.5 517.8,281.5 514.2,279.6 510.7,281.5 511.3,277.5 
	508.5,274.7 512.4,274.1 "/>
<polygon class="st1" points="528.1,254.4 529.8,258 533.8,258.6 530.9,261.4 531.6,265.3 528.1,263.5 524.5,265.3 525.2,261.4 
	522.3,258.6 526.3,258 "/>
<polygon class="st1" points="540.4,251.4 542.2,255 546.2,255.6 543.3,258.4 544,262.4 540.4,260.5 536.9,262.4 537.6,258.4 
	534.7,255.6 538.7,255 "/>
<polygon class="st1" points="554.3,247 556.1,250.6 560.1,251.2 557.2,254 557.9,258 554.3,256.1 550.7,258 551.4,254 548.5,251.2 
	552.5,250.6 "/>
<polygon class="st1" points="514.2,285.8 516,289.4 520,290 517.1,292.8 517.8,296.8 514.2,294.9 510.7,296.8 511.3,292.8 
	508.5,290 512.4,289.4 "/>
<polygon class="st1" points="528.1,281.4 529.8,285 533.8,285.6 530.9,288.4 531.6,292.4 528.1,290.5 524.5,292.4 525.2,288.4 
	522.3,285.6 526.3,285 "/>
<polygon class="st1" points="540.4,278.5 542.2,282.1 546.2,282.7 543.3,285.5 544,289.5 540.4,287.6 536.9,289.5 537.6,285.5 
	534.7,282.7 538.7,282.1 "/>
<polygon class="st1" points="554.3,275.6 556.1,279.2 560.1,279.8 557.2,282.6 557.9,286.5 554.3,284.6 550.7,286.5 551.4,282.6 
	548.5,279.8 552.5,279.2 "/>
<polygon class="st1" points="514.2,299.7 516,303.3 520,303.9 517.1,306.7 517.8,310.6 514.2,308.8 510.7,310.6 511.3,306.7 
	508.5,303.9 512.4,303.3 "/>
<polygon class="st1" points="528.1,295.3 529.8,298.9 533.8,299.5 530.9,302.3 531.6,306.2 528.1,304.4 524.5,306.2 525.2,302.3 
	522.3,299.5 526.3,298.9 "/>
<polygon class="st1" points="541.9,292.4 543.7,296 547.7,296.5 544.8,299.3 545.5,303.3 541.9,301.4 538.4,303.3 539,299.3 
	536.2,296.5 540.1,296 "/>
<polygon class="st1" points="554.3,289.4 556.1,293 560.1,293.6 557.2,296.4 557.9,300.4 554.3,298.5 550.7,300.4 551.4,296.4 
	548.5,293.6 552.5,293 "/>
<polygon class="st1" points="514.2,313.5 516,317.1 520,317.7 517.1,320.5 517.8,324.5 514.2,322.6 510.7,324.5 511.3,320.5 
	508.5,317.7 512.4,317.1 "/>
<polygon class="st1" points="528.1,309.1 529.8,312.7 533.8,313.3 530.9,316.1 531.6,320.1 528.1,318.2 524.5,320.1 525.2,316.1 
	522.3,313.3 526.3,312.7 "/>
<polygon class="st1" points="541.9,306.2 543.7,309.8 547.7,310.4 544.8,313.2 545.5,317.2 541.9,315.3 538.4,317.2 539,313.2 
	536.2,310.4 540.1,309.8 "/>
<polygon class="st1" points="554.3,303.3 556.1,306.9 560.1,307.4 557.2,310.3 557.9,314.2 554.3,312.3 550.7,314.2 551.4,310.3 
	548.5,307.4 552.5,306.9 "/>
<polygon class="st1" points="514.2,325.9 516,329.5 520,330.1 517.1,332.9 517.8,336.9 514.2,335 510.7,336.9 511.3,332.9 
	508.5,330.1 512.4,329.5 "/>
<polygon class="st1" points="528.1,323 529.8,326.6 533.8,327.2 530.9,330 531.6,333.9 528.1,332.1 524.5,333.9 525.2,330 
	522.3,327.2 526.3,326.6 "/>
<polygon class="st1" points="541.9,320 543.7,323.7 547.7,324.2 544.8,327 545.5,331 541.9,329.1 538.4,331 539,327 536.2,324.2 
	540.1,323.7 "/>
<polygon class="st1" points="554.3,317.1 556.1,320.7 560.1,321.3 557.2,324.1 557.9,328.1 554.3,326.2 550.7,328.1 551.4,324.1 
	548.5,321.3 552.5,320.7 "/>
<polygon class="st1" points="514.2,341.2 516,344.8 520,345.4 517.1,348.2 517.8,352.2 514.2,350.3 510.7,352.2 511.3,348.2 
	508.5,345.4 512.4,344.8 "/>
<polygon class="st1" points="528.1,336.8 529.8,340.4 533.8,341 530.9,343.8 531.6,347.8 528.1,345.9 524.5,347.8 525.2,343.8 
	522.3,341 526.3,340.4 "/>
<polygon class="st1" points="540.4,333.9 542.2,337.5 546.2,338.1 543.3,340.9 544,344.9 540.4,343 536.9,344.9 537.6,340.9 
	534.7,338.1 538.7,337.5 "/>
<polygon class="st1" points="554.3,331 556.1,334.6 560.1,335.1 557.2,338 557.9,341.9 554.3,340 550.7,341.9 551.4,338 
	548.5,335.1 552.5,334.6 "/>
<polygon class="st1" points="514.2,355.1 516,358.7 520,359.3 517.1,362.1 517.8,366 514.2,364.2 510.7,366 511.3,362.1 
	508.5,359.3 512.4,358.7 "/>
<polygon class="st1" points="528.1,350.7 529.8,354.3 533.8,354.9 530.9,357.7 531.6,361.6 528.1,359.8 524.5,361.6 525.2,357.7 
	522.3,354.9 526.3,354.3 "/>
<polygon class="st1" points="540.4,347.7 542.2,351.4 546.2,351.9 543.3,354.7 544,358.7 540.4,356.8 536.9,358.7 537.6,354.7 
	534.7,351.9 538.7,351.4 "/>
<polygon class="st1" points="554.3,344.8 556.1,348.4 560.1,349 557.2,351.8 557.9,355.8 554.3,353.9 550.7,355.8 551.4,351.8 
	548.5,349 552.5,348.4 "/>
<polygon class="st1" points="528.1,366 529.8,369.6 533.8,370.2 530.9,373 531.6,377 528.1,375.1 524.5,377 525.2,373 522.3,370.2 
	526.3,369.6 "/>
<polygon class="st1" points="554.3,358.7 556.1,362.3 560.1,362.8 557.2,365.7 557.9,369.6 554.3,367.7 550.7,369.6 551.4,365.7 
	548.5,362.8 552.5,362.3 "/>
<polygon class="st1" points="514.2,382.8 516,386.4 520,387 517.1,389.8 517.8,393.7 514.2,391.9 510.7,393.7 511.3,389.8 
	508.5,387 512.4,386.4 "/>
<polygon class="st1" points="528.1,378.4 529.8,382 533.8,382.6 530.9,385.4 531.6,389.3 528.1,387.5 524.5,389.3 525.2,385.4 
	522.3,382.6 526.3,382 "/>
<polygon class="st1" points="541.9,375.4 543.7,379.1 547.7,379.6 544.8,382.4 545.5,386.4 541.9,384.5 538.4,386.4 539,382.4 
	536.2,379.6 540.1,379.1 "/>
<polygon class="st1" points="528.1,393.7 529.8,397.3 533.8,397.9 530.9,400.7 531.6,404.7 528.1,402.8 524.5,404.7 525.2,400.7 
	522.3,397.9 526.3,397.3 "/>
<polygon class="st1" points="540.4,389.3 542.2,392.9 546.2,393.5 543.3,396.3 544,400.2 540.4,398.4 536.9,400.2 537.6,396.3 
	534.7,393.5 538.7,392.9 "/>
<polygon class="st1" points="554.3,386.4 556.1,390 560.1,390.5 557.2,393.3 557.9,397.3 554.3,395.4 550.7,397.3 551.4,393.3 
	548.5,390.5 552.5,390 "/>
<polygon class="st1" points="513.6,411.1 515.3,414.7 519.3,415.3 516.4,418.1 517.1,422.1 513.6,420.2 510,422.1 510.7,418.1 
	507.8,415.3 511.8,414.7 "/>
<polygon class="st1" points="541.2,403.8 543,407.4 547,408 544.1,410.8 544.8,414.7 541.2,412.9 537.7,414.7 538.4,410.8 
	535.5,408 539.5,407.4 "/>
<polygon class="st1" points="555.1,400.9 556.9,404.5 560.9,405 558,407.8 558.7,411.8 555.1,409.9 551.5,411.8 552.2,407.8 
	549.3,405 553.3,404.5 "/>
<polygon class="st1" points="513.6,425 515.3,428.6 519.3,429.2 516.4,432 517.1,435.9 513.6,434.1 510,435.9 510.7,432 
	507.8,429.2 511.8,428.6 "/>
<polygon class="st1" points="527.4,422 529.2,425.6 533.2,426.2 530.3,429 531,433 527.4,431.1 523.8,433 524.5,429 521.6,426.2 
	525.6,425.6 "/>
<polygon class="st1" points="541.2,417.6 543,421.2 547,421.8 544.1,424.6 544.8,428.6 541.2,426.7 537.7,428.6 538.4,424.6 
	535.5,421.8 539.5,421.2 "/>
<polygon class="st1" points="555.1,414.7 556.9,418.3 560.9,418.9 558,421.7 558.7,425.7 555.1,423.8 551.5,425.7 552.2,421.7 
	549.3,418.9 553.3,418.3 "/>
<polygon class="st1" points="513.6,441.8 515.3,445.4 519.3,445.9 516.4,448.8 517.1,452.7 513.6,450.8 510,452.7 510.7,448.8 
	507.8,445.9 511.8,445.4 "/>
<polygon class="st1" points="527.4,435.9 529.2,439.5 533.2,440.1 530.3,442.9 531,446.8 527.4,445 523.8,446.8 524.5,442.9 
	521.6,440.1 525.6,439.5 "/>
<polygon class="st1" points="553.6,431.5 555.4,435.1 559.4,435.7 556.5,438.5 557.2,442.4 553.6,440.6 550.1,442.4 550.8,438.5 
	547.9,435.7 551.8,435.1 "/>
<polygon class="st1" points="515,452.7 516.8,456.3 520.8,456.9 517.9,459.7 518.6,463.6 515,461.8 511.5,463.6 512.1,459.7 
	509.3,456.9 513.2,456.3 "/>
<polygon class="st1" points="555.1,442.4 556.9,446 560.9,446.6 558,449.4 558.7,453.4 555.1,451.5 551.5,453.4 552.2,449.4 
	549.3,446.6 553.3,446 "/>
<polygon class="st1" points="528.9,462.1 530.6,465.7 534.6,466.3 531.7,469.1 532.4,473.1 528.9,471.2 525.3,473.1 526,469.1 
	523.1,466.3 527.1,465.7 "/>
<polygon class="st1" points="541.2,459.2 543,462.8 547,463.4 544.1,466.2 544.8,470.1 541.2,468.3 537.7,470.1 538.4,466.2 
	535.5,463.4 539.5,462.8 "/>
<polygon class="st1" points="553.6,459.2 555.4,462.8 559.4,463.4 556.5,466.2 557.2,470.1 553.6,468.3 550.1,470.1 550.8,466.2 
	547.9,463.4 551.8,462.8 "/>
<polygon class="st1" points="515,481.8 516.8,485.4 520.8,486 517.9,488.8 518.6,492.8 515,490.9 511.5,492.8 512.1,488.8 
	509.3,486 513.2,485.4 "/>
<polygon class="st1" points="527.4,491.3 529.2,494.9 533.2,495.5 530.3,498.3 531,502.2 527.4,500.4 523.8,502.2 524.5,498.3 
	521.6,495.5 525.6,494.9 "/>
<polygon class="st1" points="528.1,267.6 529.8,271.2 533.8,271.8 530.9,274.6 531.6,278.5 528.1,276.7 524.5,278.5 525.2,274.6 
	522.3,271.8 526.3,271.2 "/>
<polygon class="st1" points="541.9,264.7 543.7,268.3 547.7,268.8 544.8,271.6 545.5,275.6 541.9,273.7 538.4,275.6 539,271.6 
	536.2,268.8 540.1,268.3 "/>
<polygon class="st1" points="555.8,260.3 557.5,263.9 561.5,264.4 558.6,267.2 559.3,271.2 555.8,269.3 552.2,271.2 552.9,267.2 
	550,264.4 554,263.9 "/>
<polygon class="st1" points="514.9,257.3 516.6,260.9 520.6,261.5 517.7,264.3 518.4,268.3 514.9,266.4 511.3,268.3 512,264.3 
	509.1,261.5 513.1,260.9 "/>
<polygon class="st1" points="577.2,232.1 579,235.7 583,236.3 580.1,239.1 580.8,243.1 577.2,241.2 573.7,243.1 574.3,239.1 
	571.5,236.3 575.4,235.7 "/>
<polygon class="st1" points="591.1,223.3 592.9,226.9 596.8,227.5 594,230.3 594.6,234.2 591.1,232.4 587.5,234.2 588.2,230.3 
	585.3,227.5 589.3,226.9 "/>
<polygon class="st1" points="603.5,226.2 605.2,229.8 609.2,230.4 606.3,233.2 607,237.2 603.5,235.3 599.9,237.2 600.6,233.2 
	597.7,230.4 601.7,229.8 "/>
<polygon class="st1" points="617.3,257.1 619.1,260.7 623.1,261.2 620.2,264 620.9,268 617.3,266.1 613.7,268 614.4,264 
	611.5,261.2 615.5,260.7 "/>
<polygon class="st1" points="577.2,247.4 579,251 583,251.6 580.1,254.4 580.8,258.4 577.2,256.5 573.7,258.4 574.3,254.4 
	571.5,251.6 575.4,251 "/>
<polygon class="st1" points="591.1,250.4 592.9,254 596.8,254.5 594,257.3 594.6,261.3 591.1,259.4 587.5,261.3 588.2,257.3 
	585.3,254.5 589.3,254 "/>
<polygon class="st1" points="603.5,253.3 605.2,256.9 609.2,257.5 606.3,260.3 607,264.2 603.5,262.4 599.9,264.2 600.6,260.3 
	597.7,257.5 601.7,256.9 "/>
<polygon class="st1" points="617.3,285.6 619.1,289.2 623.1,289.8 620.2,292.6 620.9,296.5 617.3,294.7 613.7,296.5 614.4,292.6 
	611.5,289.8 615.5,289.2 "/>
<polygon class="st1" points="577.2,261.3 579,264.9 583,265.4 580.1,268.3 580.8,272.2 577.2,270.3 573.7,272.2 574.3,268.3 
	571.5,265.4 575.4,264.9 "/>
<polygon class="st1" points="591.1,264.2 592.9,267.8 596.8,268.4 594,271.2 594.6,275.2 591.1,273.3 587.5,275.2 588.2,271.2 
	585.3,268.4 589.3,267.8 "/>
<polygon class="st1" points="604.9,267.1 606.7,270.7 610.7,271.3 607.8,274.1 608.5,278.1 604.9,276.2 601.4,278.1 602,274.1 
	599.2,271.3 603.1,270.7 "/>
<polygon class="st1" points="617.3,299.4 619.1,303 623.1,303.6 620.2,306.4 620.9,310.4 617.3,308.5 613.7,310.4 614.4,306.4 
	611.5,303.6 615.5,303 "/>
<polygon class="st1" points="577.2,275.1 579,278.7 583,279.3 580.1,282.1 580.8,286.1 577.2,284.2 573.7,286.1 574.3,282.1 
	571.5,279.3 575.4,278.7 "/>
<polygon class="st1" points="591.1,278 592.9,281.7 596.8,282.2 594,285 594.6,289 591.1,287.1 587.5,289 588.2,285 585.3,282.2 
	589.3,281.7 "/>
<polygon class="st1" points="604.9,281 606.7,284.6 610.7,285.2 607.8,288 608.5,291.9 604.9,290.1 601.4,291.9 602,288 
	599.2,285.2 603.1,284.6 "/>
<polygon class="st1" points="617.3,313.3 619.1,316.9 623.1,317.5 620.2,320.3 620.9,324.2 617.3,322.4 613.7,324.2 614.4,320.3 
	611.5,317.5 615.5,316.9 "/>
<polygon class="st1" points="577.2,289 579,292.6 583,293.1 580.1,296 580.8,299.9 577.2,298 573.7,299.9 574.3,296 571.5,293.1 
	575.4,292.6 "/>
<polygon class="st1" points="591.1,291.9 592.9,295.5 596.8,296.1 594,298.9 594.6,302.9 591.1,301 587.5,302.9 588.2,298.9 
	585.3,296.1 589.3,295.5 "/>
<polygon class="st1" points="604.9,294.8 606.7,298.4 610.7,299 607.8,301.8 608.5,305.8 604.9,303.9 601.4,305.8 602,301.8 
	599.2,299 603.1,298.4 "/>
<polygon class="st1" points="617.3,327.1 619.1,330.7 623.1,331.3 620.2,334.1 620.9,338.1 617.3,336.2 613.7,338.1 614.4,334.1 
	611.5,331.3 615.5,330.7 "/>
<polygon class="st1" points="577.2,302.8 579,306.4 583,307 580.1,309.8 580.8,313.8 577.2,311.9 573.7,313.8 574.3,309.8 
	571.5,307 575.4,306.4 "/>
<polygon class="st1" points="591.1,305.7 592.9,309.4 596.8,309.9 594,312.7 594.6,316.7 591.1,314.8 587.5,316.7 588.2,312.7 
	585.3,309.9 589.3,309.4 "/>
<polygon class="st1" points="603.5,308.7 605.2,312.3 609.2,312.9 606.3,315.7 607,319.6 603.5,317.8 599.9,319.6 600.6,315.7 
	597.7,312.9 601.7,312.3 "/>
<polygon class="st1" points="617.3,341 619.1,344.6 623.1,345.2 620.2,348 620.9,351.9 617.3,350.1 613.7,351.9 614.4,348 
	611.5,345.2 615.5,344.6 "/>
<polygon class="st1" points="577.2,316.7 579,320.3 583,320.8 580.1,323.6 580.8,327.6 577.2,325.7 573.7,327.6 574.3,323.6 
	571.5,320.8 575.4,320.3 "/>
<polygon class="st1" points="591.1,319.6 592.9,323.2 596.8,323.8 594,326.6 594.6,330.5 591.1,328.7 587.5,330.5 588.2,326.6 
	585.3,323.8 589.3,323.2 "/>
<polygon class="st1" points="603.5,324 605.2,327.6 609.2,328.2 606.3,331 607,335 603.5,333.1 599.9,335 600.6,331 597.7,328.2 
	601.7,327.6 "/>
<polygon class="st1" points="617.3,354.8 619.1,358.4 623.1,359 620.2,361.8 620.9,365.8 617.3,363.9 613.7,365.8 614.4,361.8 
	611.5,359 615.5,358.4 "/>
<polygon class="st1" points="591.1,236.5 592.9,240.1 596.8,240.7 594,243.5 594.6,247.5 591.1,245.6 587.5,247.5 588.2,243.5 
	585.3,240.7 589.3,240.1 "/>
<polygon class="st1" points="604.9,239.4 606.7,243 610.7,243.6 607.8,246.4 608.5,250.4 604.9,248.5 601.4,250.4 602,246.4 
	599.2,243.6 603.1,243 "/>
<polygon class="st1" points="618.8,270.3 620.5,273.9 624.5,274.5 621.6,277.3 622.3,281.2 618.8,279.4 615.2,281.2 615.9,277.3 
	613,274.5 617,273.9 "/>
<polygon class="st1" points="577.9,218.9 579.6,222.5 583.6,223.1 580.7,225.9 581.4,229.8 577.9,228 574.3,229.8 575,225.9 
	572.1,223.1 576.1,222.5 "/>
<polygon class="st1" points="630.5,261.5 632.3,265.1 636.3,265.6 633.4,268.5 634.1,272.4 630.5,270.5 627,272.4 627.6,268.5 
	624.8,265.6 628.7,265.1 "/>
<polygon class="st1" points="630.5,290 632.3,293.6 636.3,294.2 633.4,297 634.1,300.9 630.5,299.1 627,300.9 627.6,297 
	624.8,294.2 628.7,293.6 "/>
<polygon class="st1" points="630.5,303.8 632.3,307.4 636.3,308 633.4,310.8 634.1,314.8 630.5,312.9 627,314.8 627.6,310.8 
	624.8,308 628.7,307.4 "/>
<polygon class="st1" points="630.5,317.7 632.3,321.3 636.3,321.9 633.4,324.7 634.1,328.6 630.5,326.8 627,328.6 627.6,324.7 
	624.8,321.9 628.7,321.3 "/>
<polygon class="st1" points="630.5,331.5 632.3,335.1 636.3,335.7 633.4,338.5 634.1,342.5 630.5,340.6 627,342.5 627.6,338.5 
	624.8,335.7 628.7,335.1 "/>
<polygon class="st1" points="630.5,345.4 632.3,349 636.3,349.6 633.4,352.4 634.1,356.3 630.5,354.5 627,356.3 627.6,352.4 
	624.8,349.6 628.7,349 "/>
<polygon class="st1" points="630.5,359.2 632.3,362.8 636.3,363.4 633.4,366.2 634.1,370.2 630.5,368.3 627,370.2 627.6,366.2 
	624.8,363.4 628.7,362.8 "/>
<polygon class="st1" points="630.5,373.1 632.3,376.7 636.3,377.3 633.4,380.1 634.1,384 630.5,382.2 627,384 627.6,380.1 
	624.8,377.3 628.7,376.7 "/>
<polygon class="st1" points="632,274.7 633.8,278.3 637.7,278.9 634.9,281.7 635.5,285.6 632,283.8 628.4,285.6 629.1,281.7 
	626.2,278.9 630.2,278.3 "/>
<polygon class="st1" points="643.7,265.9 645.5,269.5 649.5,270.1 646.6,272.9 647.3,276.8 643.7,274.9 640.2,276.8 640.9,272.9 
	638,270.1 641.9,269.5 "/>
<polygon class="st1" points="643.7,292.9 645.5,296.5 649.5,297.1 646.6,299.9 647.3,303.9 643.7,302 640.2,303.9 640.9,299.9 
	638,297.1 641.9,296.5 "/>
<polygon class="st1" points="643.7,306.8 645.5,310.4 649.5,311 646.6,313.8 647.3,317.7 643.7,315.9 640.2,317.7 640.9,313.8 
	638,311 641.9,310.4 "/>
<polygon class="st1" points="643.7,322.1 645.5,325.7 649.5,326.3 646.6,329.1 647.3,333 643.7,331.2 640.2,333 640.9,329.1 
	638,326.3 641.9,325.7 "/>
<polygon class="st1" points="643.7,334.5 645.5,338.1 649.5,338.7 646.6,341.5 647.3,345.4 643.7,343.6 640.2,345.4 640.9,341.5 
	638,338.7 641.9,338.1 "/>
<polygon class="st1" points="643.7,349.8 645.5,353.4 649.5,354 646.6,356.8 647.3,360.7 643.7,358.9 640.2,360.7 640.9,356.8 
	638,354 641.9,353.4 "/>
<polygon class="st1" points="643.7,363.6 645.5,367.2 649.5,367.8 646.6,370.6 647.3,374.6 643.7,372.7 640.2,374.6 640.9,370.6 
	638,367.8 641.9,367.2 "/>
<polygon class="st1" points="645.2,279.1 647,282.7 651,283.3 648.1,286.1 648.8,290 645.2,288.2 641.6,290 642.3,286.1 
	639.4,283.3 643.4,282.7 "/>
<polygon class="st1" points="577.2,331.1 579,334.7 583,335.3 580.1,338.1 580.8,342.1 577.2,340.2 573.7,342.1 574.3,338.1 
	571.5,335.3 575.4,334.7 "/>
<polygon class="st1" points="591.1,334 592.9,337.6 596.8,338.2 594,341 594.6,345 591.1,343.1 587.5,345 588.2,341 585.3,338.2 
	589.3,337.6 "/>
<polygon class="st1" points="603.5,337 605.2,340.6 609.2,341.2 606.3,344 607,347.9 603.5,346.1 599.9,347.9 600.6,344 
	597.7,341.2 601.7,340.6 "/>
<polygon class="st1" points="577.2,345 579,348.6 583,349.1 580.1,351.9 580.8,355.9 577.2,354 573.7,355.9 574.3,351.9 
	571.5,349.1 575.4,348.6 "/>
<polygon class="st1" points="591.1,347.9 592.9,351.5 596.8,352.1 594,354.9 594.6,358.8 591.1,357 587.5,358.8 588.2,354.9 
	585.3,352.1 589.3,351.5 "/>
<polygon class="st1" points="604.9,350.8 606.7,354.4 610.7,355 607.8,357.8 608.5,361.8 604.9,359.9 601.4,361.8 602,357.8 
	599.2,355 603.1,354.4 "/>
<polygon class="st1" points="591.1,361.7 592.9,365.3 596.8,365.9 594,368.7 594.6,372.7 591.1,370.8 587.5,372.7 588.2,368.7 
	585.3,365.9 589.3,365.3 "/>
<polygon class="st1" points="604.9,364.7 606.7,368.3 610.7,368.9 607.8,371.7 608.5,375.6 604.9,373.8 601.4,375.6 602,371.7 
	599.2,368.9 603.1,368.3 "/>
<polygon class="st1" points="577.2,372.6 579,376.3 583,376.8 580.1,379.6 580.8,383.6 577.2,381.7 573.7,383.6 574.3,379.6 
	571.5,376.8 575.4,376.3 "/>
<polygon class="st1" points="591.1,375.6 592.9,379.2 596.8,379.8 594,382.6 594.6,386.5 591.1,384.7 587.5,386.5 588.2,382.6 
	585.3,379.8 589.3,379.2 "/>
<polygon class="st1" points="577.2,386.5 579,390.1 583,390.7 580.1,393.5 580.8,397.5 577.2,395.6 573.7,397.5 574.3,393.5 
	571.5,390.7 575.4,390.1 "/>
<polygon class="st1" points="591.1,389.4 592.9,393 596.8,393.6 594,396.4 594.6,400.4 591.1,398.5 587.5,400.4 588.2,396.4 
	585.3,393.6 589.3,393 "/>
<polygon class="st1" points="603.5,407.7 605.2,411.3 609.2,411.9 606.3,414.7 607,418.6 603.5,416.8 599.9,418.6 600.6,414.7 
	597.7,411.9 601.7,411.3 "/>
<polygon class="st1" points="658.4,295.2 660.2,298.8 664.2,299.4 661.3,302.2 662,306.2 658.4,304.3 654.9,306.2 655.5,302.2 
	652.7,299.4 656.6,298.8 "/>
<polygon class="st1" points="658.4,323.8 660.2,327.4 664.2,327.9 661.3,330.8 662,334.7 658.4,332.8 654.9,334.7 655.5,330.8 
	652.7,327.9 656.6,327.4 "/>
<polygon class="st1" points="658.4,337.6 660.2,341.2 664.2,341.8 661.3,344.6 662,348.6 658.4,346.7 654.9,348.6 655.5,344.6 
	652.7,341.8 656.6,341.2 "/>
<polygon class="st1" points="658.4,351.5 660.2,355.1 664.2,355.6 661.3,358.4 662,362.4 658.4,360.5 654.9,362.4 655.5,358.4 
	652.7,355.6 656.6,355.1 "/>
<polygon class="st1" points="658.4,365.3 660.2,368.9 664.2,369.5 661.3,372.3 662,376.3 658.4,374.4 654.9,376.3 655.5,372.3 
	652.7,369.5 656.6,368.9 "/>
<polygon class="st1" points="658.4,379.2 660.2,382.8 664.2,383.3 661.3,386.1 662,390.1 658.4,388.2 654.9,390.1 655.5,386.1 
	652.7,383.3 656.6,382.8 "/>
<polygon class="st1" points="658.4,393 660.2,396.6 664.2,397.2 661.3,400 662,404 658.4,402.1 654.9,404 655.5,400 652.7,397.2 
	656.6,396.6 "/>
<polygon class="st1" points="658.4,308.4 660.2,312 664.2,312.6 661.3,315.4 662,319.4 658.4,317.5 654.9,319.4 655.5,315.4 
	652.7,312.6 656.6,312 "/>
<polygon class="st1" points="617.3,383.4 619.1,387 623.1,387.5 620.2,390.4 620.9,394.3 617.3,392.4 613.7,394.3 614.4,390.4 
	611.5,387.5 615.5,387 "/>
<polygon class="st1" points="630.5,415.7 632.3,419.3 636.3,419.8 633.4,422.7 634.1,426.6 630.5,424.7 627,426.6 627.6,422.7 
	624.8,419.8 628.7,419.3 "/>
<polygon class="st1" points="618.1,410.6 619.9,414.2 623.9,414.8 621,417.6 621.7,421.6 618.1,419.7 614.6,421.6 615.3,417.6 
	612.4,414.8 616.4,414.2 "/>
<polygon class="st1" points="656.9,421.5 658.7,425.1 662.7,425.7 659.8,428.5 660.5,432.5 656.9,430.6 653.4,432.5 654.1,428.5 
	651.2,425.7 655.2,425.1 "/>
<polygon class="st1" points="645.2,390.1 647,393.7 651,394.3 648.1,397.1 648.8,401 645.2,399.2 641.6,401 642.3,397.1 
	639.4,394.3 643.4,393.7 "/>
<polygon class="st1" points="656.9,406.9 658.7,410.5 662.7,411 659.8,413.8 660.5,417.8 656.9,415.9 653.4,417.8 654.1,413.8 
	651.2,411 655.2,410.5 "/>
<polygon class="st1" points="643.7,403.9 645.5,407.5 649.5,408.1 646.6,410.9 647.3,414.9 643.7,413 640.2,414.9 640.9,410.9 
	638,408.1 641.9,407.5 "/>
<polygon class="st1" points="630.5,401 632.3,404.6 636.3,405.2 633.4,408 634.1,411.9 630.5,410.1 627,411.9 627.6,408 
	624.8,405.2 628.7,404.6 "/>
<polygon class="st1" points="575.9,413.7 577.6,417.3 581.6,417.9 578.7,420.7 579.4,424.6 575.9,422.8 572.3,424.6 573,420.7 
	570.1,417.9 574.1,417.3 "/>
<polygon class="st1" points="589.7,431.3 591.5,434.9 595.5,435.5 592.6,438.3 593.3,442.2 589.7,440.4 586.1,442.2 586.8,438.3 
	583.9,435.5 587.9,434.9 "/>
<polygon class="st1" points="575.9,442.2 577.6,445.8 581.6,446.4 578.7,449.2 579.4,453.2 575.9,451.3 572.3,453.2 573,449.2 
	570.1,446.4 574.1,445.8 "/>
<polygon class="st1" points="589.7,445.1 591.5,448.7 595.5,449.3 592.6,452.1 593.3,456.1 589.7,454.2 586.1,456.1 586.8,452.1 
	583.9,449.3 587.9,448.7 "/>
<polygon class="st1" points="603.6,448.1 605.3,451.7 609.3,452.3 606.4,455.1 607.1,459 603.6,457.2 600,459 600.7,455.1 
	597.8,452.3 601.8,451.7 "/>
<polygon class="st1" points="615.9,480.4 617.7,484 621.7,484.6 618.8,487.4 619.5,491.3 615.9,489.5 612.4,491.3 613.1,487.4 
	610.2,484.6 614.2,484 "/>
<polygon class="st1" points="589.7,459 591.5,462.6 595.5,463.2 592.6,466 593.3,469.9 589.7,468.1 586.1,469.9 586.8,466 
	583.9,463.2 587.9,462.6 "/>
<polygon class="st1" points="603.6,461.9 605.3,465.5 609.3,466.1 606.4,468.9 607.1,472.9 603.6,471 600,472.9 600.7,468.9 
	597.8,466.1 601.8,465.5 "/>
<polygon class="st1" points="615.9,494.2 617.7,497.8 621.7,498.4 618.8,501.2 619.5,505.2 615.9,503.3 612.4,505.2 613.1,501.2 
	610.2,498.4 614.2,497.8 "/>
<polygon class="st1" points="589.7,472.8 591.5,476.4 595.5,477 592.6,479.8 593.3,483.8 589.7,481.9 586.1,483.8 586.8,479.8 
	583.9,477 587.9,476.4 "/>
<polygon class="st1" points="615.9,508.1 617.7,511.7 621.7,512.3 618.8,515.1 619.5,519 615.9,517.2 612.4,519 613.1,515.1 
	610.2,512.3 614.2,511.7 "/>
<polygon class="st1" points="615.9,521.9 617.7,525.5 621.7,526.1 618.8,528.9 619.5,532.9 615.9,531 612.4,532.9 613.1,528.9 
	610.2,526.1 614.2,525.5 "/>
<polygon class="st1" points="630.6,443.2 632.4,446.8 636.4,447.4 633.5,450.2 634.2,454.2 630.6,452.3 627.1,454.2 627.7,450.2 
	624.9,447.4 628.8,446.8 "/>
<polygon class="st1" points="629.2,457.1 630.9,460.7 634.9,461.3 632,464.1 632.7,468 629.2,466.2 625.6,468 626.3,464.1 
	623.4,461.3 627.4,460.7 "/>
<polygon class="st1" points="629.2,484.8 630.9,488.4 634.9,489 632,491.8 632.7,495.7 629.2,493.9 625.6,495.7 626.3,491.8 
	623.4,489 627.4,488.4 "/>
<polygon class="st1" points="629.2,498.6 630.9,502.2 634.9,502.8 632,505.6 632.7,509.6 629.2,507.7 625.6,509.6 626.3,505.6 
	623.4,502.8 627.4,502.2 "/>
<polygon class="st1" points="630.6,512.5 632.4,516.1 636.4,516.7 633.5,519.5 634.2,523.4 630.6,521.6 627.1,523.4 627.7,519.5 
	624.9,516.7 628.8,516.1 "/>
<polygon class="st1" points="630.6,427.9 632.4,431.5 636.4,432.1 633.5,434.9 634.2,438.9 630.6,437 627.1,438.9 627.7,434.9 
	624.9,432.1 628.8,431.5 "/>
<polygon class="st1" points="643.8,446.2 645.6,449.8 649.6,450.4 646.7,453.2 647.4,457.1 643.8,455.3 640.3,457.1 641,453.2 
	638.1,450.4 642.1,449.8 "/>
<polygon class="st1" points="643.8,460 645.6,463.6 649.6,464.2 646.7,467 647.4,471 643.8,469.1 640.3,471 641,467 638.1,464.2 
	642.1,463.6 "/>
<polygon class="st1" points="642.4,473.9 644.1,477.5 648.1,478.1 645.2,480.9 645.9,484.8 642.4,483 638.8,484.8 639.5,480.9 
	636.6,478.1 640.6,477.5 "/>
<polygon class="st1" points="642.4,501.6 644.1,505.2 648.1,505.7 645.2,508.6 645.9,512.5 642.4,510.6 638.8,512.5 639.5,508.6 
	636.6,505.7 640.6,505.2 "/>
<polygon class="st1" points="642.4,515.4 644.1,519 648.1,519.6 645.2,522.4 645.9,526.4 642.4,524.5 638.8,526.4 639.5,522.4 
	636.6,519.6 640.6,519 "/>
<polygon class="st1" points="643.8,432.3 645.6,435.9 649.6,436.5 646.7,439.3 647.4,443.3 643.8,441.4 640.3,443.3 641,439.3 
	638.1,436.5 642.1,435.9 "/>
<polygon class="st1" points="575.9,484.3 577.6,487.9 581.6,488.5 578.7,491.3 579.4,495.3 575.9,493.4 572.3,495.3 573,491.3 
	570.1,488.5 574.1,487.9 "/>
<polygon class="st1" points="589.7,487.3 591.5,490.9 595.5,491.5 592.6,494.3 593.3,498.2 589.7,496.4 586.1,498.2 586.8,494.3 
	583.9,491.5 587.9,490.9 "/>
<polygon class="st1" points="575.9,498.2 577.6,501.8 581.6,502.4 578.7,505.2 579.4,509.1 575.9,507.3 572.3,509.1 573,505.2 
	570.1,502.4 574.1,501.8 "/>
<polygon class="st1" points="589.7,501.1 591.5,504.7 595.5,505.3 592.6,508.1 593.3,512.1 589.7,510.2 586.1,512.1 586.8,508.1 
	583.9,505.3 587.9,504.7 "/>
<polygon class="st1" points="603.6,504.1 605.3,507.7 609.3,508.2 606.4,511.1 607.1,515 603.6,513.1 600,515 600.7,511.1 
	597.8,508.2 601.8,507.7 "/>
<polygon class="st1" points="575.9,512 577.6,515.6 581.6,516.2 578.7,519 579.4,523 575.9,521.1 572.3,523 573,519 570.1,516.2 
	574.1,515.6 "/>
<polygon class="st1" points="589.7,515 591.5,518.6 595.5,519.2 592.6,522 593.3,525.9 589.7,524.1 586.1,525.9 586.8,522 
	583.9,519.2 587.9,518.6 "/>
<polygon class="st1" points="657,448.5 658.8,452.1 662.8,452.7 659.9,455.5 660.6,459.4 657,457.6 653.5,459.4 654.2,455.5 
	651.3,452.7 655.3,452.1 "/>
<polygon class="st1" points="657,477 658.8,480.6 662.8,481.2 659.9,484 660.6,488 657,486.1 653.5,488 654.2,484 651.3,481.2 
	655.3,480.6 "/>
<polygon class="st1" points="657,490.9 658.8,494.5 662.8,495 659.9,497.8 660.6,501.8 657,499.9 653.5,501.8 654.2,497.8 
	651.3,495 655.3,494.5 "/>
<polygon class="st1" points="657,518.5 658.8,522.2 662.8,522.7 659.9,525.5 660.6,529.5 657,527.6 653.5,529.5 654.2,525.5 
	651.3,522.7 655.3,522.2 "/>
<polygon class="st1" points="616,550.4 617.8,554 621.8,554.6 618.9,557.4 619.6,561.4 616,559.5 612.5,561.4 613.2,557.4 
	610.3,554.6 614.3,554 "/>
<polygon class="st1" points="603.7,532 605.4,535.6 609.4,536.2 606.5,539 607.2,542.9 603.7,541.1 600.1,542.9 600.8,539 
	597.9,536.2 601.9,535.6 "/>
<polygon class="st1" points="616,564.3 617.8,567.9 621.8,568.5 618.9,571.3 619.6,575.2 616,573.4 612.5,575.2 613.2,571.3 
	610.3,568.5 614.3,567.9 "/>
<polygon class="st1" points="576,540 577.7,543.6 581.7,544.1 578.8,546.9 579.5,550.9 576,549 572.4,550.9 573.1,546.9 
	570.2,544.1 574.2,543.6 "/>
<polygon class="st1" points="589.8,542.9 591.6,546.5 595.6,547.1 592.7,549.9 593.4,553.8 589.8,552 586.3,553.8 586.9,549.9 
	584.1,547.1 588,546.5 "/>
<polygon class="st1" points="603.7,545.8 605.4,549.4 609.4,550 606.5,552.8 607.2,556.8 603.7,554.9 600.1,556.8 600.8,552.8 
	597.9,550 601.9,549.4 "/>
<polygon class="st1" points="616,578.1 617.8,581.7 621.8,582.3 618.9,585.1 619.6,589.1 616,587.2 612.5,589.1 613.2,585.1 
	610.3,582.3 614.3,581.7 "/>
<polygon class="st1" points="576,553.8 577.7,557.4 581.7,558 578.8,560.8 579.5,564.8 576,562.9 572.4,564.8 573.1,560.8 
	570.2,558 574.2,557.4 "/>
<polygon class="st1" points="589.8,556.7 591.6,560.3 595.6,560.9 592.7,563.7 593.4,567.7 589.8,565.8 586.3,567.7 586.9,563.7 
	584.1,560.9 588,560.3 "/>
<polygon class="st1" points="616,592 617.8,595.6 621.8,596.2 618.9,599 619.6,602.9 616,601.1 612.5,602.9 613.2,599 610.3,596.2 
	614.3,595.6 "/>
<polygon class="st1" points="576,567.7 577.7,571.3 581.7,571.8 578.8,574.6 579.5,578.6 576,576.7 572.4,578.6 573.1,574.6 
	570.2,571.8 574.2,571.3 "/>
<polygon class="st1" points="629.3,541 631,544.6 635,545.2 632.1,548 632.8,551.9 629.3,550.1 625.7,551.9 626.4,548 623.5,545.2 
	627.5,544.6 "/>
<polygon class="st1" points="630.7,526.1 632.5,529.7 636.5,530.3 633.6,533.1 634.3,537.1 630.7,535.2 627.2,537.1 627.8,533.1 
	625,530.3 628.9,529.7 "/>
<polygon class="st1" points="642.5,543.9 644.2,547.5 648.2,548.1 645.3,550.9 646,554.9 642.5,553 638.9,554.9 639.6,550.9 
	636.7,548.1 640.7,547.5 "/>
<polygon class="st1" points="643.9,529.9 645.7,533.5 649.7,534.1 646.8,536.9 647.5,540.8 643.9,539 640.4,540.8 641.1,536.9 
	638.2,534.1 642.2,533.5 "/>
<polygon class="st1" points="589.8,585 591.6,588.6 595.6,589.2 592.7,592 593.4,596 589.8,594.1 586.3,596 586.9,592 584.1,589.2 
	588,588.6 "/>
<polygon class="st1" points="602.2,588 604,591.6 608,592.2 605.1,595 605.8,598.9 602.2,597.1 598.6,598.9 599.3,595 596.4,592.2 
	600.4,591.6 "/>
<polygon class="st1" points="576,595.9 577.7,599.6 581.7,600.1 578.8,602.9 579.5,606.9 576,605 572.4,606.9 573.1,602.9 
	570.2,600.1 574.2,599.6 "/>
<polygon class="st1" points="589.8,612.7 591.6,616.3 595.6,616.9 592.7,619.7 593.4,623.7 589.8,621.8 586.3,623.7 586.9,619.7 
	584.1,616.9 588,616.3 "/>
<polygon class="st1" points="643.9,559.2 645.7,562.8 649.7,563.4 646.8,566.2 647.5,570.2 643.9,568.3 640.4,570.2 641.1,566.2 
	638.2,563.4 642.2,562.8 "/>
<polygon class="st1" points="576.4,610.4 578.2,614 582.2,614.6 579.3,617.4 580,621.4 576.4,619.5 572.8,621.4 573.5,617.4 
	570.6,614.6 574.6,614 "/>
<polygon class="st1" points="577.9,623.8 579.6,627.4 583.6,628 580.7,630.8 581.4,634.8 577.9,632.9 574.3,634.8 575,630.8 
	572.1,628 576.1,627.4 "/>
<polygon class="st1" points="120.6,327.2 122.4,330.8 126.3,331.4 123.5,334.2 124.1,338.2 120.6,336.3 117,338.2 117.7,334.2 
	114.8,331.4 118.8,330.8 "/>
<polygon class="st1" points="74.5,362 76.2,365.6 80.2,366.2 77.3,369 78,372.9 74.5,371.1 70.9,372.9 71.6,369 68.7,366.2 
	72.7,365.6 "/>
<path class="st0" d="M657.2,265.9l-43.5-14.5V220l-48.4-9.7L529,220v24.2l-29,10.9v251.6h-4.8l-250.3,1.2V361.5l-3.6-3.6l-21.8-6
	v-9.7l-66.5-50.8l-82.2,62.9c-1.2,2.4-1.2,6-1.2,8.5v-21.8c0-164.5,133-297.5,297.5-297.5s306,133,296.3,249.1h-6V265.9z"/>
<rect x="205.1" y="571.5" class="st2" width="354.2" height="72.6"/>
<rect x="205.1" y="513.3" class="st2" width="354.2" height="80.8"/>
<rect x="208.5" y="516.7" class="st3" width="276.9" height="74"/>
<rect x="277.9" y="515.9" class="st2" width="209.4" height="76.2"/>
<path class="st4" d="M252.7,536.4c-0.5,0.5-0.6,1.4,0,1.9c0.5,0.5,1.4,0.6,2,0c0.5-0.5,0.6-1.4,0-1.9
	C254.1,535.9,253.2,535.9,252.7,536.4"/>
<path class="st4" d="M233.8,543.6c0.9-1.6,0.2-2.8-1.4-2.4C233.4,541.3,234.1,542.5,233.8,543.6"/>
<path class="st3" d="M268.2,542.4c-0.7,0.4-2.4,2-1.5,2.2c1.8,2.4,1,8.5-3,8.9c-1,0.4-0.6,10.3,0.4,25.9c-0.8-0.1-1.7,0.1-3.2,0
	c-0.1,5,0,9.3,0.2,9.7c-0.3,0.8-1.2,1.9-1.8,1.5c-6.9,0.1-12.1,0-13.2,0c-0.7-1.5-0.2-3.6,0.8-3.3c2.8,0,9.5,0,9.6-6.9
	c-1.3,0.1-3.3,0.1-3.5-0.1c1.1-12.2,2.3-26.2,2.1-27.8c-0.1-3.9-0.2-0.5-2.1,0.7c-0.1-2.2-3.9-3.2-4.9-3.2c-5.3-1.7-9.8-2.5-9.7-6.9
	c-3.3,1.5-7.9,1.3-8.2-0.7c-1.2-1.2-1.4-3.8-0.5-5.1c-1.3-5.4,9.4-8.9,9.4-1.7c0,0.6,0.3,2.9,1.2,2.9c5.9-1.7,15-3.3,19.4-3.8
	c0.6,0.2,2.6-1.3,2.4-0.5c-0.5,2.8-2.2,7.4-1.5,8.1c10.4-2.9,2.7,4.3,3.7,1.5C266.2,544.2,273.1,537.7,268.2,542.4"/>
<path class="st4" d="M254.3,536.5c-0.5,0.5-0.6,1.4,0,1.9c0.5,0.5,1.4,0.6,2,0c0.5-0.5,0.6-1.4,0-1.9
	C255.7,536,254.8,536,254.3,536.5"/>
<path class="st3" d="M238.8,535.9c-3.2,0.8-6.1,2.3-7.8,2.4c-0.8,1-0.4,3.2,0.9,4.7c0.6,1.8,3.7,1.9,6.7,0.3
	c-0.2-2.4-0.8-3.5,0.9-6.5C239,536.8,238.6,536.2,238.8,535.9"/>
<path class="st4" d="M235.4,543.6c0.9-1.6,0.2-2.8-1.4-2.4C235,541.3,235.7,542.5,235.4,543.6"/>
<path class="st3" d="M229.3,541.9c-0.4,0.3-0.4,0.9,0,1.3c0.4,0.4,0.9,0.4,1.3,0c0.4-0.3,0.4-0.9,0-1.3
	C230.2,541.6,229.7,541.5,229.3,541.9"/>
<path class="st3" d="M229.6,542c-0.3,0.3-0.3,0.7-0.1,0.9c0.2,0.2,0.6,0.2,0.9,0c0.3-0.3,0.3-0.7,0.1-0.9
	C230.3,541.7,229.9,541.8,229.6,542"/>
<path class="st3" d="M230.2,541.2C230.2,541.2,230.2,541.2,230.2,541.2c0,0.1,0,0.1,0,0.2c0,0,0,0.2-0.1,0.2
	c-0.1,0.1-0.1,0.2-0.2,0.3c0,0-0.2,0.2-0.2,0.2c0,0,0.1,0.2,0.1,0.2c0.1,0.1,0.1,0.1,0.2,0.1c0.1,0.1,0.2,0.1,0.3,0.2l0.1,0.1
	c0,0,0,0,0,0c0,0,0,0,0,0c0,0,0,0,0,0c0,0,0,0,0,0l0.1-0.1c0,0,0.4,0,0.5-0.1c0.1-0.1-0.2-0.3-0.2-0.4c0-0.1-0.1-0.2-0.1-0.3
	c-0.1-0.2-0.3-0.3-0.4-0.5c0,0,0-0.1-0.1-0.1C230.3,541.2,230.3,541.2,230.2,541.2C230.2,541.1,230.2,541.2,230.2,541.2L230.2,541.2
	C230.2,541.2,230.2,541.2,230.2,541.2"/>
<path class="st3" d="M243.4,549.3c-0.9,3.8-2.2,8.4-3.2,12.1c-4,0.3-6.3,1.2-8.5,1.5c0.1-0.9,0.1-2.1-0.3-2.2c-0.9-0.1-2.8,0-3-0.2
	c-0.3,0.2-0.5,0.1-0.7,0.1c-1.2,3.3-2.4,6.6-3.6,9.9c-5.2,0.1-8.1-1-8.7-3.3c1.2-3.1,2.4-5.3,3.6-8.4c0-0.6-0.3-0.6-2.1-0.3
	c-0.4-1.9,0-4.8,3-3.9c3.3,1.4,7,2.9,10.7,3.3c0.3,0,1.3-0.2,1.6-0.2c0.2,0,0-0.7,0.1-0.9c1.6-0.1,2.7,0.2,4-0.5
	c1.1-0.7,1.2-0.8,1.5-2.1c1.1-5.5,1.3-10,1-10.9C244.5,536.1,246.5,539.6,243.4,549.3"/>
<path class="st3" d="M223.8,557.7l3,0.7c0.7-0.2,1.5-0.3,2.2-0.5c0.2,0.3,0.4,0.6,0.6,0.9c0.2,0,2.8,0.3,2.9,0.3
	c-0.2-0.5-2.4-1.4-2.6-1.9c-0.1-0.3-1.2-0.4-1.5-0.3C227.5,557.2,224.9,557.4,223.8,557.7"/>
<path class="st5" d="M253.5,536.6c-0.5,0.5-0.6,1.4,0,1.9c0.5,0.5,1.4,0.6,2,0c0.5-0.5,0.6-1.4,0-1.9
	C254.9,536.1,254,536,253.5,536.6"/>
<path class="st5" d="M234.6,543.7c0.9-1.6,0.2-2.8-1.4-2.4C234.2,541.4,234.9,542.6,234.6,543.7"/>
<path class="st2" d="M270,542.6c-0.7,0.4-2.4,2-1.5,2.2c1.8,2.4,1,8.5-3,8.9c-1,0.4-0.6,10.3,0.4,25.9c-0.8-0.1-1.7,0.1-3.2,0
	c-0.1,5,0,9.3,0.2,9.7c-0.3,0.8-1.2,2.2-1.8,1.8c-6.9,0.1-13.4-0.3-13,0c-0.7-1.5-0.5-3.2,0.6-2.9c3.2,0.1,7.5-1.6,8.4-3.3
	c1-1.9,1.4-4.2,0.8-5.2c-1.3,0.1-2.9,0.1-3.1,0c1.1-12.2,2.3-26.6,2.1-28.1c-0.3-0.9-2-3-4.1-1.4c-0.7,0.5-1.3,0.6-2.3,0.6
	c-6.3,0.6-11.1-2.5-10.9-7.1c-3.3,1.5-6.9,1-7.3-1c-1.2-1.2-1.5-3.7-0.6-5c-1.3-5.4,8.9-8.7,8.9-1.6c0,0.6,0.6,0.8,1.3,0.5
	c5.9-1.6,16.3-3.8,20.7-4.3c0.6,0.2,1,1.2,0.8,1.9c-0.5,2.8-0.3,6.2,0.4,6.9c1.4-0.4,3.3-1.2,5.4-2.1c2.6-1.2,2.9-4,3.7-6.8
	C274.4,532.5,274.9,537.8,270,542.6"/>
<path class="st3" d="M257.1,536.5c-0.5,0.5-0.6,1.4,0,1.9c0.5,0.5,1.4,0.6,2,0c0.5-0.5,0.6-1.4,0-1.9
	C258.5,536,257.6,535.9,257.1,536.5"/>
<path class="st2" d="M239.6,536c-3.2,0.8-6.1,2.3-7.8,2.4c-0.8,1-0.4,3.2,0.9,4.7c0.6,1.8,3.7,1.9,6.7,0.3c-0.2-2.4-0.8-3.5,0.9-6.5
	C239.8,536.9,239.5,536.4,239.6,536"/>
<path class="st2" d="M231,541.6c-0.4,0.3-0.4,0.9,0,1.3c0.4,0.4,0.9,0.4,1.3,0c0.4-0.3,0.4-0.9,0-1.3
	C232,541.3,231.4,541.2,231,541.6"/>
<path class="st2" d="M231.9,540.9C231.9,540.9,232,540.9,231.9,540.9c0,0.1,0,0.1,0,0.2c0,0,0,0.2-0.1,0.2c-0.1,0.1-0.1,0.2-0.2,0.3
	c0,0-0.2,0.2-0.2,0.2c0,0,0.1,0.2,0.1,0.2c0.1,0.1,0.1,0.1,0.2,0.1c0.1,0.1,0.2,0.1,0.3,0.2l0.1,0.1c0,0,0,0,0,0c0,0,0,0,0,0
	c0,0,0,0,0,0c0,0,0,0,0,0l0.1-0.1c0,0,0.4,0,0.5-0.1c0.1-0.1-0.2-0.3-0.2-0.4c0-0.1-0.1-0.2-0.1-0.3c-0.1-0.2-0.3-0.3-0.4-0.5
	c0,0,0-0.1-0.1-0.1C232.1,540.9,232,540.9,231.9,540.9C231.9,540.8,231.9,540.9,231.9,540.9L231.9,540.9
	C231.9,540.9,231.9,540.9,231.9,540.9"/>
<path class="st2" d="M244.3,549.5c-1,3.8-2.2,8.4-3.2,12.1c-4,0.3-6.6,0.9-8.9,1.3c0.1-0.9,0.2-1.8-0.2-1.8
	c-0.9-0.1-2.5-0.1-2.7-0.3c-0.3,0.2-0.5,0.1-0.7,0.1c-1.2,3.3-2.4,6.6-3.6,9.9c-5.2,0.1-7.9-0.9-8.1-3.2c1.2-3.1,2.3-6.1,3.5-9.2
	c0-0.6-1-0.8-2.8-0.6c-0.3-1.8,0.9-2.3,3.4-1.6c3.3,1.4,6.9,2.2,10.5,2.4c0.3,0,0.6,0,0.9,0c0.2,0,0-0.2,0.1-0.2
	c1.6-0.1,3.4-0.2,4.6-1c1.1-0.7,1.2-1.1,1.5-2.4c1.3-5.4,1.3-9.8,1-10.6C245.3,536.8,247.3,539.7,244.3,549.5"/>
<path class="st3" d="M235.2,545.2l-1.5-0.6c0.5-0.4,0.6-1,0.4-1.5C234.8,543,235.1,543.7,235.2,545.2"/>
<path class="st2" d="M225.1,558.2l1.6,0.3c0.7-0.2,1.4-0.3,2-0.4c0.2,0.3,0.4,0.5,0.6,0.9c0.1,0,1.9,0.3,2,0.3
	c-0.2-0.5-1.7-1.2-1.9-1.7c-0.1-0.3-0.6-0.2-0.9-0.1C227.6,557.7,226.2,558,225.1,558.2"/>
<path class="st2" d="M247.7,550.3c1.4,0.8,4.6-0.3,5.5,1.8c0.7-1.3,0.8-3.6,1.7-4.6C253.4,545.2,250.9,547.8,247.7,550.3"/>
<rect x="537.3" y="568.7" class="st4" width="11.7" height="13.1"/>
<path class="st2" d="M539.6,579.4h0.1c0.2,0,0.5,0,0.5,0.3c0,0.3-0.3,0.3-0.5,0.3h-0.1V579.4z M538.4,580.8h1.7c0.6,0,1.3-0.2,1.3-1
	c0-0.4-0.2-0.7-0.6-0.8v0c0.3-0.1,0.5-0.4,0.5-0.7c0-0.8-0.7-1-1.4-1h-1.5V580.8z M539.6,578.7v-0.5h0.1c0.2,0,0.4,0,0.4,0.2
	c0,0.2-0.2,0.3-0.4,0.3H539.6z"/>
<polygon class="st2" points="541.6,577.3 544.2,577.3 544.2,578.5 543.5,578.4 543.5,580.8 542.3,580.8 542.3,578.4 541.6,578.5 "/>
<path class="st2" d="M546.2,579.8c-0.4,0-0.7-0.3-0.7-0.7h0c0-0.3,0.2-0.5,0.4-0.6c0.3-0.1,0.7,0,0.9,0.4l1-0.4
	c-0.4-0.9-1.4-1.3-2.3-1c-0.7,0.3-1.1,0.9-1.1,1.6h0c0,1,0.8,1.8,1.8,1.8c0.7,0,1.4-0.5,1.6-1.1l-1-0.4
	C546.8,579.6,546.5,579.8,546.2,579.8z"/>
<path class="st0" d="M287.2,572.4c0-1.4,0.3-2.6,1-3.5c0.7-1.1,1.8-1.7,3.1-1.7c1.4,0,2.5,0.6,3.3,1.9c0.7,1.1,1.1,2.4,1.1,3.9
	c0,1.2-0.5,2.3-1.4,3.3c-1,1.1-1.4,1.7-1.4,1.8c0,0.8,0.7,1.5,2,2.3c1.2,0.7,2.2,1,3.1,1c2.6-0.1,4.6-1,6.1-2.6c1.3-1.6,2-3.6,2-6.2
	c0-3.2-1.5-5.8-4.6-8c-2.8-1.8-5.7-3.7-8.5-5.6c-3.1-2.6-4.6-6.1-4.6-10.4c0-3.8,0.8-6.8,2.5-9.1c1.9-2.5,4.6-3.8,8.1-3.8
	c2.8,0,5.2,0.9,7.2,2.7c2,1.8,3.1,4.1,3.1,6.8c0,3-1.2,4.6-3.7,4.6c-1.3,0-2.4-0.5-3.2-1.5c-0.8-1-1.2-2.1-1.2-3.5
	c0-0.9,0.2-1.7,0.6-2.4c0.4-0.8,0.7-1.5,1.1-2.3c-0.1-0.6-0.6-1.1-1.5-1.6c-0.8-0.5-1.6-0.7-2.2-0.7c-2,0-3.7,0.7-5,2.2
	c-1.3,1.5-2,3.2-2,5.3c0,3.2,1.4,5.8,4.1,7.8c2.7,1.6,5.5,3.3,8.2,4.9c3.2,2.3,5.2,5.3,6,9.1c0.2,1,0.3,2,0.3,2.9
	c0,3.9-1.1,7.1-3.2,9.5c-2.3,2.6-5.3,3.9-9,3.9c-3.2,0-5.8-1-7.9-3.1C288.3,578.2,287.2,575.6,287.2,572.4"/>
<path class="st0" d="M319.7,520.4c1.3,0,2.4,0.6,3.1,1.7c0.7,1.1,1,2.5,1,4.2c0,1.5-0.3,2.9-1,4.1c-0.7,1.2-1.8,1.8-3.1,1.8
	c-1.3,0-2.4-0.6-3.1-1.9c-0.7-1.1-1-2.4-1-4c0-1.6,0.3-2.9,1-4C317.3,521.1,318.3,520.4,319.7,520.4 M327.3,579.8v2.1h-14v-2.1
	c1.7-0.1,2.9-0.5,3.5-1c0.6-0.6,0.8-1.7,0.8-3.3V544c0-1.7-0.3-2.8-0.8-3.3c-0.6-0.6-1.7-0.9-3.5-1v-2.1h9.7v37.8
	c0,1.7,0.3,2.8,0.8,3.4C324.4,579.3,325.6,579.6,327.3,579.8z"/>
<path class="st6" d="M330.2,554.3h-1.8v-16.7h26.5v16.7h-1.8v-1.4c0-8.8-2.8-13.2-8.3-13.2h-0.5v35.8c0,1.6,0.4,2.7,1.2,3.3
	c0.7,0.5,1.9,0.8,3.7,1v2.1h-15.1v-2.1c1.8-0.2,3-0.6,3.6-1c0.8-0.6,1.2-1.8,1.2-3.3v-35.8h-0.4c-5.6,0-8.3,4.4-8.3,13.2V554.3z"/>
<path class="st6" d="M363.7,520.4c1.3,0,2.4,0.6,3.1,1.7c0.7,1.1,1,2.5,1,4.2c0,1.5-0.3,2.9-1,4.1c-0.7,1.2-1.8,1.8-3.1,1.8
	c-1.3,0-2.4-0.6-3.1-1.9c-0.7-1.1-1-2.4-1-4c0-1.6,0.3-2.9,1-4C361.3,521.1,362.4,520.4,363.7,520.4 M371.3,579.8v2.1h-14v-2.1
	c1.7-0.1,2.9-0.5,3.5-1c0.6-0.6,0.8-1.7,0.8-3.3V544c0-1.7-0.3-2.8-0.8-3.3c-0.6-0.6-1.7-0.9-3.5-1v-2.1h9.7v37.8
	c0,1.7,0.3,2.8,0.8,3.4C368.5,579.3,369.6,579.6,371.3,579.8z"/>
<path class="st0" d="M374.3,554.2h-1.7v-16.7h26.1v16.7H397v-1.4c0-8.8-2.7-13.2-8.2-13.2h-0.5v35.8c0,1.6,0.4,2.7,1.2,3.3
	c0.6,0.5,1.8,0.8,3.6,1v2.1h-14.9v-2.1c1.8-0.2,2.9-0.6,3.5-1c0.8-0.6,1.2-1.8,1.2-3.3v-35.8h-0.4c-5.5,0-8.2,4.4-8.2,13.2V554.2z"
	/>
<path class="st0" d="M408.1,557.4h12.3c0-12.7-2-19-6.1-19c-2.7,0-4.6,2.6-5.5,7.7C408.3,548.6,408.1,552.4,408.1,557.4
	 M426.6,559.8h-18.5c0,13.7,2.5,20.6,7.6,20.6c5,0,7.7-4.8,8.1-14.3h2.3c0,4.5-0.9,8.3-2.5,11.3c-2,3.7-4.8,5.5-8.6,5.5
	c-4.6,0-8.1-2.6-10.5-7.9c-2-4.3-3-9.3-3-14.9c0-6,0.8-11.1,2.5-15.3c2.2-5.6,5.7-8.4,10.3-8.4c4.5,0,7.8,2.8,9.9,8.4
	C425.8,548.9,426.6,553.8,426.6,559.8z"/>
<path class="st0" d="M446.1,563.3v-6.2c-7.2,3.1-10.8,8.1-10.8,15c0,2.4,0.1,4,0.4,4.9c0.5,1.8,1.5,2.8,3.1,2.8c2.7,0,4.7-2.1,6-6.4
	C445.7,570.3,446.1,567,446.1,563.3 M455.9,569h1.7c0,4.2-0.2,7.1-0.6,8.7c-0.8,3.4-2.6,5.1-5.3,5.1c-1.9,0-3.3-0.7-4.1-2.1
	c-0.6-1-1-2.7-1.2-5.1h-0.2c-2.1,4.8-5.2,7.2-9.3,7.2c-5.3,0-7.9-3.5-7.9-10.4c0-4.5,1.9-8.3,5.8-11.5c2.1-1.8,5.9-3.9,11.3-6.4
	v-7.8c0-5.3-2-7.9-5.9-7.9c-2.6,0-4.7,1.2-6.4,3.7c1,0.3,1.8,0.9,2.4,1.9c0.6,1,0.9,2.1,0.9,3.3c0,1.7-0.4,3-1.2,4.1
	c-0.7,0.9-1.6,1.3-2.6,1.3c-1,0-1.8-0.5-2.6-1.4c-0.7-0.9-1.1-2.2-1.1-4c0-3.3,1.1-6,3.3-8.1c2.2-2.1,4.9-3.2,8.1-3.2
	c7.3,0,10.9,3.6,10.9,11.1v26.4c0,2.8,0.5,4.2,1.5,4.2c1.2,0,1.9-1.4,2.3-4.1C455.7,573.3,455.8,571.6,455.9,569z"/>
<path class="st0" d="M459.3,554.2h-1.7v-16.7h26.1v16.7h-1.7v-1.4c0-8.8-2.7-13.2-8.2-13.2h-0.5v35.8c0,1.6,0.4,2.7,1.2,3.3
	c0.6,0.5,1.8,0.8,3.6,1v2.1h-14.9v-2.1c1.8-0.2,2.9-0.6,3.5-1c0.8-0.6,1.2-1.8,1.2-3.3v-35.8h-0.4c-5.5,0-8.2,4.4-8.2,13.2V554.2z"
	/>
<path class="st0" d="M493.1,557.4h12.3c0-12.7-2-19-6.1-19c-2.7,0-4.6,2.6-5.5,7.7C493.3,548.6,493.1,552.4,493.1,557.4
	 M511.6,559.8h-18.5c0,13.7,2.5,20.6,7.6,20.6c5,0,7.7-4.8,8.1-14.3h2.3c0,4.5-0.9,8.3-2.5,11.3c-2,3.7-4.8,5.5-8.6,5.5
	c-4.6,0-8.1-2.6-10.5-7.9c-2-4.3-3-9.3-3-14.9c0-6,0.8-11.1,2.5-15.3c2.2-5.6,5.7-8.4,10.3-8.4c4.5,0,7.8,2.8,9.9,8.4
	C510.8,548.9,511.6,553.8,511.6,559.8z"/>
<path class="st0" d="M529.7,581.8h-17.1v-2c3.2-0.2,4.8-1.7,4.8-4.6V548c0-2.7-0.2-4.6-0.6-5.7c-0.7-1.8-2.2-2.8-4.5-2.8v-2h9.7v9.2
	h0.1c0.6-2.4,1.6-4.6,3.2-6.6c1.9-2.5,3.9-3.7,6.1-3.7c2,0,3.6,0.8,4.6,2.5c0.9,1.4,1.4,3.1,1.4,5.1c0,4-1.3,6-3.9,6
	c-2.5,0-3.7-1.7-3.7-5.1c0-3.3,1.2-4.9,3.5-4.9c-0.4-0.7-1.1-1.1-2.1-1.1c-2.8,0-5.1,3-6.7,8.9c-1.2,4.2-1.7,8.3-1.7,12.3v15.1
	c0,3,2.3,4.5,7,4.6V581.8z"/>
<g>
	<path class="st0" d="M303.4,601.9c1.5,0.7,2.6,1.8,3.5,3.1c0.8,1.3,1.3,2.9,1.3,4.6c0,1.8-0.4,3.3-1.3,4.7c-0.8,1.4-2,2.4-3.5,3.1
		c-1.5,0.7-3.2,1.1-5,1.1c-1.4,0-2.7-0.2-3.8-0.7c-1.2-0.5-2.1-1.2-2.9-2.1v9h-3.5v-23.9h3.4v2.8c0.8-1,1.8-1.7,3-2.2
		c1.2-0.5,2.5-0.7,3.9-0.7C300.3,600.8,302,601.1,303.4,601.9z M301.5,615c1-0.5,1.8-1.2,2.3-2.2c0.6-0.9,0.9-2,0.9-3.2
		s-0.3-2.3-0.9-3.2c-0.6-0.9-1.3-1.7-2.3-2.2s-2.1-0.8-3.3-0.8c-1.2,0-2.3,0.3-3.3,0.8c-1,0.5-1.8,1.2-2.3,2.2
		c-0.6,0.9-0.9,2-0.9,3.2s0.3,2.3,0.8,3.2c0.6,0.9,1.3,1.7,2.3,2.2c1,0.5,2.1,0.8,3.3,0.8C299.4,615.8,300.5,615.6,301.5,615z"/>
	<path class="st0" d="M316.1,617.4c-1.5-0.8-2.7-1.8-3.6-3.2c-0.9-1.4-1.3-2.9-1.3-4.6c0-1.7,0.4-3.2,1.3-4.6
		c0.9-1.4,2.1-2.4,3.6-3.2c1.5-0.8,3.3-1.1,5.2-1.1s3.6,0.4,5.2,1.1c1.5,0.8,2.7,1.8,3.6,3.2c0.9,1.4,1.3,2.9,1.3,4.6
		c0,1.7-0.4,3.2-1.3,4.6c-0.9,1.4-2.1,2.4-3.6,3.2c-1.5,0.8-3.2,1.2-5.2,1.2S317.7,618.2,316.1,617.4z M324.6,615
		c1-0.5,1.8-1.2,2.3-2.2c0.6-0.9,0.8-2,0.8-3.2s-0.3-2.3-0.8-3.2c-0.6-0.9-1.3-1.7-2.3-2.2c-1-0.5-2.1-0.8-3.3-0.8
		c-1.2,0-2.3,0.3-3.3,0.8c-1,0.5-1.8,1.2-2.3,2.2c-0.6,0.9-0.9,2-0.9,3.2s0.3,2.3,0.9,3.2c0.6,0.9,1.3,1.7,2.3,2.2
		c1,0.5,2.1,0.8,3.3,0.8C322.5,615.8,323.6,615.6,324.6,615z"/>
	<path class="st0" d="M354.4,593.9v24.4H351v-2.8c-0.8,1-1.8,1.7-3,2.2c-1.2,0.5-2.5,0.8-3.9,0.8c-1.9,0-3.5-0.4-5-1.1
		c-1.5-0.7-2.6-1.8-3.5-3.1s-1.3-2.9-1.3-4.7c0-1.8,0.4-3.3,1.3-4.6s2-2.4,3.5-3.1c1.5-0.7,3.2-1.1,5-1.1c1.4,0,2.7,0.2,3.8,0.7
		s2.1,1.2,2.9,2.1v-9.6H354.4z M347.7,615c1-0.5,1.8-1.2,2.3-2.2c0.6-0.9,0.8-2,0.8-3.2s-0.3-2.3-0.8-3.2c-0.6-0.9-1.3-1.7-2.3-2.2
		c-1-0.5-2.1-0.8-3.3-0.8c-1.2,0-2.3,0.3-3.3,0.8c-1,0.5-1.8,1.2-2.3,2.2c-0.6,0.9-0.9,2-0.9,3.2s0.3,2.3,0.9,3.2
		c0.6,0.9,1.3,1.7,2.3,2.2c1,0.5,2.1,0.8,3.3,0.8C345.6,615.8,346.7,615.6,347.7,615z"/>
	<path class="st0" d="M385.1,615.8v2.6h-16.2v-2l11.4-12.8h-11.2v-2.6h15.7v2.1l-11.4,12.8H385.1z"/>
	<path class="st0" d="M406.5,600.9l-8.5,17.5h-3.6l-8.5-17.5h3.6l6.6,14l6.8-14H406.5z"/>
	<path class="st0" d="M426.6,610.7h-15.7c0.2,1.5,1,2.8,2.2,3.7c1.3,0.9,2.9,1.4,4.8,1.4c2.3,0,4.2-0.7,5.6-2.1l1.9,2
		c-0.9,0.9-2,1.6-3.3,2.1c-1.3,0.5-2.8,0.7-4.4,0.7c-2,0-3.8-0.4-5.4-1.1c-1.6-0.8-2.8-1.8-3.7-3.2c-0.9-1.4-1.3-2.9-1.3-4.6
		c0-1.7,0.4-3.2,1.3-4.6c0.8-1.4,2-2.4,3.5-3.2c1.5-0.8,3.1-1.1,5-1.1c1.8,0,3.5,0.4,4.9,1.1c1.4,0.8,2.6,1.8,3.4,3.2
		s1.2,2.9,1.2,4.7C426.7,610,426.7,610.3,426.6,610.7z M412.9,604.8c-1.1,0.9-1.8,2.1-2,3.6h12.4c-0.2-1.5-0.9-2.7-2-3.6
		c-1.1-0.9-2.5-1.4-4.2-1.4S414.1,603.9,412.9,604.8z"/>
	<path class="st0" d="M445.7,615.8v2.6h-16.2v-2l11.4-12.8h-11.2v-2.6h15.7v2.1L434,615.8H445.7z"/>
	<path class="st0" d="M468.2,593.9v24.4h-3.4v-2.8c-0.8,1-1.8,1.7-3,2.2c-1.2,0.5-2.5,0.8-3.9,0.8c-1.9,0-3.5-0.4-5-1.1
		c-1.5-0.7-2.6-1.8-3.5-3.1c-0.8-1.4-1.3-2.9-1.3-4.7c0-1.8,0.4-3.3,1.3-4.6c0.8-1.3,2-2.4,3.5-3.1c1.5-0.7,3.2-1.1,5-1.1
		c1.4,0,2.7,0.2,3.8,0.7s2.1,1.2,2.9,2.1v-9.6H468.2z M461.6,615c1-0.5,1.8-1.2,2.3-2.2c0.6-0.9,0.8-2,0.8-3.2s-0.3-2.3-0.8-3.2
		s-1.3-1.7-2.3-2.2c-1-0.5-2.1-0.8-3.3-0.8c-1.2,0-2.3,0.3-3.3,0.8s-1.8,1.2-2.3,2.2s-0.9,2-0.9,3.2s0.3,2.3,0.9,3.2
		c0.6,0.9,1.3,1.7,2.3,2.2c1,0.5,2.1,0.8,3.3,0.8C459.5,615.8,460.6,615.6,461.6,615z"/>
	<path class="st0" d="M488,602.5c1.4,1.2,2.1,3,2.1,5.3v10.5h-3.3v-2.3c-0.6,0.8-1.4,1.4-2.5,1.9c-1.1,0.4-2.4,0.6-3.8,0.6
		c-2.2,0-3.9-0.5-5.2-1.4c-1.3-0.9-1.9-2.2-1.9-3.7c0-1.5,0.6-2.8,1.9-3.7c1.2-0.9,3.2-1.4,5.9-1.4h5.5v-0.6c0-1.4-0.4-2.4-1.3-3.1
		c-0.9-0.7-2.2-1.1-3.9-1.1c-1.1,0-2.3,0.2-3.4,0.5c-1.1,0.3-2,0.8-2.8,1.4l-1.5-2.4c1-0.7,2.2-1.3,3.6-1.7c1.4-0.4,2.9-0.6,4.4-0.6
		C484.6,600.8,486.6,601.3,488,602.5z M484.6,615.3c1-0.5,1.7-1.3,2.1-2.3v-2.4h-5.4c-3,0-4.4,0.9-4.4,2.7c0,0.9,0.4,1.6,1.1,2.1
		c0.8,0.5,1.8,0.8,3.1,0.8C482.4,616.1,483.6,615.9,484.6,615.3z"/>
	<path class="st0" d="M526.6,602.7c1.4,1.3,2.1,3.2,2.1,5.7v10h-3.5v-9.7c0-1.7-0.4-3-1.3-3.8s-2.1-1.3-3.7-1.3
		c-1.8,0-3.2,0.5-4.2,1.5c-1,1-1.6,2.4-1.6,4.3v9h-3.5v-9.7c0-1.7-0.4-3-1.3-3.8s-2.1-1.3-3.7-1.3c-1.8,0-3.2,0.5-4.2,1.5
		c-1,1-1.6,2.4-1.6,4.3v9h-3.5v-17.5h3.4v2.6c0.7-0.9,1.6-1.6,2.8-2.1s2.4-0.7,3.9-0.7c1.5,0,2.8,0.3,4,0.8c1.2,0.5,2.1,1.4,2.7,2.4
		c0.7-1,1.7-1.8,3-2.4s2.8-0.9,4.4-0.9C523.2,600.8,525.2,601.4,526.6,602.7z"/>
	<path class="st0" d="M535.2,597c-0.4-0.4-0.7-0.9-0.7-1.4s0.2-1.1,0.7-1.5c0.4-0.4,1-0.6,1.7-0.6c0.7,0,1.2,0.2,1.7,0.6
		c0.4,0.4,0.7,0.9,0.7,1.4c0,0.6-0.2,1.1-0.7,1.5c-0.4,0.4-1,0.6-1.7,0.6C536.2,597.6,535.7,597.4,535.2,597z M535.2,600.9h3.5v17.5
		h-3.5V600.9z"/>
</g>
<g>
	<defs>
		<rect id="SVGID_1_" x="190.6" y="625.9" width="381.5" height="47.7"/>
	</defs>
	<clipPath id="SVGID_2_">
		<use xlink:href="#SVGID_1_"  style="overflow:visible;"/>
	</clipPath>
	<g class="st7">
		<path class="st6" d="M207.1,645.9l4.1-5.3c0.6-0.8,1.2-1.6,1.7-2.2s0.9-1.2,1.3-1.7c0.3-0.5,0.6-1,0.8-1.5s0.3-0.9,0.3-1.4
			c0-0.8-0.3-1.4-0.8-1.8c-0.5-0.4-1.3-0.6-2.3-0.6c-0.4,0-0.8,0-1.1,0.1c-0.3,0-0.6,0.1-0.9,0.2c-0.3,0.1-0.6,0.2-0.8,0.3
			c-0.3,0.1-0.6,0.2-0.9,0.3c-0.2-0.5-0.5-1-0.6-1.6c-0.2-0.5-0.3-1.1-0.3-1.6c0.4-0.2,0.9-0.3,1.2-0.5c0.4-0.1,0.8-0.3,1.2-0.3
			c0.4-0.1,0.8-0.1,1.2-0.2c0.4,0,0.9-0.1,1.4-0.1c1,0,1.9,0.1,2.7,0.3c0.8,0.2,1.6,0.5,2.2,1c0.6,0.4,1.1,1,1.4,1.7
			c0.3,0.7,0.5,1.5,0.5,2.4c0,0.7-0.1,1.3-0.3,1.9s-0.4,1.2-0.8,1.8c-0.3,0.6-0.7,1.2-1.2,1.9c-0.5,0.6-1,1.3-1.5,2.1l-1.5,2h5.9
			c0.1,0.6,0.2,1.1,0.2,1.6c0,0.6-0.1,1.2-0.2,1.8h-12.7L207.1,645.9z"/>
		<path class="st6" d="M225.7,628.2h10c0.1,0.6,0.2,1.1,0.2,1.7c0,0.6-0.1,1.2-0.2,1.7h-6.4l-0.2,4c0.3-0.1,0.6-0.1,0.9-0.2
			c0.3,0,0.5,0,0.8,0c0.9,0,1.7,0.1,2.5,0.4s1.4,0.6,1.9,1.1c0.5,0.5,0.9,1.1,1.2,1.8c0.3,0.7,0.4,1.6,0.4,2.5c0,1.2-0.2,2.2-0.6,3
			c-0.4,0.9-1,1.6-1.7,2.2c-0.7,0.6-1.6,1-2.7,1.3c-1.1,0.3-2.2,0.4-3.5,0.4c-0.2,0-0.5,0-0.9,0c-0.4,0-0.8-0.1-1.2-0.1
			s-0.9-0.2-1.3-0.3c-0.5-0.1-0.9-0.2-1.3-0.4c0.1-0.6,0.2-1.1,0.4-1.7c0.2-0.6,0.4-1.1,0.6-1.6c0.7,0.2,1.3,0.4,1.8,0.5
			c0.6,0.1,1.2,0.2,1.8,0.2c0.8,0,1.5-0.1,2.1-0.3c0.6-0.2,1-0.4,1.4-0.7c0.4-0.3,0.6-0.7,0.8-1.1c0.1-0.4,0.2-0.8,0.2-1.2
			c0-0.9-0.3-1.7-0.9-2.2s-1.6-0.8-3-0.8c-0.5,0-1.1,0.1-1.6,0.2c-0.5,0.1-1,0.3-1.5,0.5l-0.4-0.3L225.7,628.2z"/>
		<path class="st6" d="M241,646.3c-0.1-0.7-0.2-1.4-0.2-2c0-0.7,0.1-1.4,0.2-2.1c0.7-0.1,1.4-0.2,2-0.2s1.4,0.1,2.1,0.2
			c0.1,0.7,0.2,1.4,0.2,2c0,0.7-0.1,1.4-0.2,2.1c-0.7,0.1-1.4,0.2-2,0.2C242.3,646.5,241.7,646.4,241,646.3z"/>
		<path class="st6" d="M251.8,635.7c-0.7-0.4-1.3-1-1.8-1.8c-0.5-0.7-0.7-1.6-0.7-2.5c0-0.8,0.2-1.5,0.5-2.1
			c0.3-0.6,0.7-1.2,1.3-1.6c0.5-0.4,1.2-0.8,2-1c0.8-0.2,1.6-0.4,2.4-0.4s1.7,0.1,2.4,0.4c0.8,0.2,1.4,0.6,2,1s1,1,1.3,1.6
			c0.3,0.6,0.5,1.3,0.5,2.1c0,0.9-0.2,1.8-0.7,2.5c-0.5,0.7-1.1,1.3-1.8,1.8c0.4,0.2,0.8,0.5,1.2,0.8c0.4,0.3,0.8,0.7,1.1,1.1
			c0.3,0.4,0.6,0.9,0.8,1.5s0.3,1.2,0.3,1.9c0,1-0.2,1.9-0.6,2.6c-0.4,0.7-0.9,1.3-1.6,1.8c-0.7,0.5-1.4,0.8-2.3,1
			c-0.8,0.2-1.7,0.3-2.6,0.3s-1.8-0.1-2.6-0.3c-0.8-0.2-1.6-0.5-2.3-1c-0.7-0.5-1.2-1-1.6-1.8s-0.6-1.6-0.6-2.6
			c0-0.7,0.1-1.3,0.3-1.9s0.5-1.1,0.8-1.5c0.3-0.4,0.7-0.8,1.1-1.1C250.9,636.2,251.3,635.9,251.8,635.7z M255.4,637.2
			c-0.9,0.3-1.6,0.7-2.2,1.3c-0.6,0.6-0.8,1.3-0.8,2.2c0,0.9,0.3,1.6,0.8,2c0.5,0.5,1.3,0.7,2.2,0.7c1,0,1.8-0.2,2.3-0.7
			c0.5-0.5,0.8-1.2,0.8-2c0-0.9-0.3-1.6-0.9-2.2C257,638,256.3,637.5,255.4,637.2z M255.4,634.5c0.7-0.3,1.3-0.6,1.8-1.1
			c0.5-0.5,0.7-1.1,0.7-1.9c0-0.7-0.2-1.2-0.6-1.6c-0.4-0.4-1-0.6-1.9-0.6s-1.4,0.2-1.8,0.6c-0.4,0.4-0.6,0.9-0.6,1.6
			c0,0.8,0.2,1.4,0.7,1.9C254.1,633.9,254.7,634.2,255.4,634.5z"/>
		<path class="st6" d="M265.8,646.3c-0.1-0.7-0.2-1.4-0.2-2c0-0.7,0.1-1.4,0.2-2.1c0.7-0.1,1.4-0.2,2-0.2s1.4,0.1,2.1,0.2
			c0.1,0.7,0.2,1.4,0.2,2c0,0.7-0.1,1.4-0.2,2.1c-0.7,0.1-1.4,0.2-2,0.2C267.1,646.5,266.5,646.4,265.8,646.3z"/>
		<path class="st6" d="M280.6,637c0.1,0.6,0.2,1.1,0.2,1.7c0,0.6-0.1,1.2-0.2,1.7h-7.1c-0.1-0.6-0.2-1.1-0.2-1.7
			c0-0.6,0.1-1.2,0.2-1.7H280.6z"/>
		<path class="st6" d="M283.8,645.9l4.1-5.3c0.6-0.8,1.2-1.6,1.7-2.2s0.9-1.2,1.3-1.7c0.3-0.5,0.6-1,0.8-1.5s0.3-0.9,0.3-1.4
			c0-0.8-0.3-1.4-0.8-1.8c-0.5-0.4-1.3-0.6-2.3-0.6c-0.4,0-0.8,0-1.1,0.1c-0.3,0-0.6,0.1-0.9,0.2c-0.3,0.1-0.6,0.2-0.8,0.3
			c-0.3,0.1-0.6,0.2-0.9,0.3c-0.2-0.5-0.5-1-0.6-1.6c-0.2-0.5-0.3-1.1-0.3-1.6c0.4-0.2,0.9-0.3,1.2-0.5c0.4-0.1,0.8-0.3,1.2-0.3
			c0.4-0.1,0.8-0.1,1.2-0.2c0.4,0,0.9-0.1,1.4-0.1c1,0,1.9,0.1,2.7,0.3c0.8,0.2,1.6,0.5,2.2,1c0.6,0.4,1.1,1,1.4,1.7
			c0.3,0.7,0.5,1.5,0.5,2.4c0,0.7-0.1,1.3-0.3,1.9s-0.4,1.2-0.8,1.8c-0.3,0.6-0.7,1.2-1.2,1.9c-0.5,0.6-1,1.3-1.5,2.1l-1.5,2h5.9
			c0.1,0.6,0.2,1.1,0.2,1.6c0,0.6-0.1,1.2-0.2,1.8H284L283.8,645.9z"/>
		<path class="st6" d="M302.4,628.2h10c0.1,0.6,0.2,1.1,0.2,1.7c0,0.6-0.1,1.2-0.2,1.7H306l-0.2,4c0.3-0.1,0.6-0.1,0.9-0.2
			c0.3,0,0.5,0,0.8,0c0.9,0,1.7,0.1,2.5,0.4s1.4,0.6,1.9,1.1c0.5,0.5,0.9,1.1,1.2,1.8c0.3,0.7,0.4,1.6,0.4,2.5c0,1.2-0.2,2.2-0.6,3
			c-0.4,0.9-1,1.6-1.7,2.2c-0.7,0.6-1.6,1-2.7,1.3c-1.1,0.3-2.2,0.4-3.5,0.4c-0.2,0-0.5,0-0.9,0c-0.4,0-0.8-0.1-1.2-0.1
			s-0.9-0.2-1.3-0.3c-0.5-0.1-0.9-0.2-1.3-0.4c0.1-0.6,0.2-1.1,0.4-1.7c0.2-0.6,0.4-1.1,0.6-1.6c0.7,0.2,1.3,0.4,1.8,0.5
			c0.6,0.1,1.2,0.2,1.8,0.2c0.8,0,1.5-0.1,2.1-0.3c0.6-0.2,1-0.4,1.4-0.7c0.4-0.3,0.6-0.7,0.8-1.1c0.1-0.4,0.2-0.8,0.2-1.2
			c0-0.9-0.3-1.7-0.9-2.2s-1.6-0.8-3-0.8c-0.5,0-1.1,0.1-1.6,0.2c-0.5,0.1-1,0.3-1.5,0.5l-0.4-0.3L302.4,628.2z"/>
		<path class="st6" d="M317.6,646.3c-0.1-0.7-0.2-1.4-0.2-2c0-0.7,0.1-1.4,0.2-2.1c0.7-0.1,1.4-0.2,2-0.2s1.4,0.1,2.1,0.2
			c0.1,0.7,0.2,1.4,0.2,2c0,0.7-0.1,1.4-0.2,2.1c-0.7,0.1-1.4,0.2-2,0.2C319,646.5,318.3,646.4,317.6,646.3z"/>
		<path class="st6" d="M328.2,648.4c-0.1-0.3-0.2-0.6-0.2-0.9c-0.1-0.3-0.1-0.6-0.1-0.9c0-0.4,0.1-0.9,0.3-1.5c1,0,1.9-0.2,2.7-0.6
			c0.8-0.3,1.5-0.8,2.1-1.3c0.6-0.5,1-1.2,1.4-1.9c0.4-0.7,0.6-1.5,0.8-2.2c-0.2,0.2-0.4,0.5-0.6,0.7c-0.2,0.2-0.5,0.4-0.8,0.6
			c-0.3,0.2-0.7,0.4-1.1,0.5s-0.9,0.2-1.5,0.2c-0.8,0-1.6-0.1-2.3-0.4c-0.7-0.3-1.4-0.7-1.9-1.2s-1-1.2-1.3-2
			c-0.3-0.8-0.5-1.8-0.5-2.9c0-1.1,0.2-2.1,0.6-2.9c0.4-0.8,0.9-1.6,1.6-2.1s1.4-1,2.3-1.3c0.9-0.3,1.7-0.4,2.6-0.4
			c2.3,0,4.1,0.7,5.3,2s1.8,3.4,1.8,6.1c0,1.7-0.2,3.3-0.7,4.8s-1.1,2.8-2,3.9s-2.1,2-3.4,2.7C331.7,648,330.1,648.4,328.2,648.4z
			 M332,638c0.9,0,1.7-0.3,2.2-0.8c0.5-0.5,0.8-1.4,0.8-2.5c0-1.2-0.3-2.1-0.8-2.7c-0.5-0.6-1.2-0.9-2.1-0.9c-0.9,0-1.6,0.3-2.1,0.9
			c-0.6,0.6-0.9,1.5-0.9,2.6c0,1.2,0.3,2.1,0.8,2.6C330.5,637.8,331.2,638,332,638z"/>
		<path class="st6" d="M342.4,646.3c-0.1-0.7-0.2-1.4-0.2-2c0-0.7,0.1-1.4,0.2-2.1c0.7-0.1,1.4-0.2,2-0.2s1.4,0.1,2.1,0.2
			c0.1,0.7,0.2,1.4,0.2,2c0,0.7-0.1,1.4-0.2,2.1c-0.7,0.1-1.4,0.2-2,0.2C343.8,646.5,343.1,646.4,342.4,646.3z"/>
		<path class="st6" d="M350.1,645.9l4.1-5.3c0.6-0.8,1.2-1.6,1.7-2.2s0.9-1.2,1.3-1.7c0.3-0.5,0.6-1,0.8-1.5s0.3-0.9,0.3-1.4
			c0-0.8-0.3-1.4-0.8-1.8c-0.5-0.4-1.3-0.6-2.3-0.6c-0.4,0-0.8,0-1.1,0.1c-0.3,0-0.6,0.1-0.9,0.2c-0.3,0.1-0.6,0.2-0.8,0.3
			c-0.3,0.1-0.6,0.2-0.9,0.3c-0.2-0.5-0.5-1-0.6-1.6c-0.2-0.5-0.3-1.1-0.3-1.6c0.4-0.2,0.9-0.3,1.2-0.5c0.4-0.1,0.8-0.3,1.2-0.3
			c0.4-0.1,0.8-0.1,1.2-0.2c0.4,0,0.9-0.1,1.4-0.1c1,0,1.9,0.1,2.7,0.3c0.8,0.2,1.6,0.5,2.2,1c0.6,0.4,1.1,1,1.4,1.7
			c0.3,0.7,0.5,1.5,0.5,2.4c0,0.7-0.1,1.3-0.3,1.9s-0.4,1.2-0.8,1.8c-0.3,0.6-0.7,1.2-1.2,1.9c-0.5,0.6-1,1.3-1.5,2.1l-1.5,2h5.9
			c0.1,0.6,0.2,1.1,0.2,1.6c0,0.6-0.1,1.2-0.2,1.8h-12.7L350.1,645.9z"/>
		<path class="st6" d="M373.7,646.7c-1.2,0-2.3-0.2-3.2-0.7c-0.9-0.5-1.7-1.1-2.2-2s-1-1.8-1.3-3c-0.3-1.1-0.4-2.4-0.4-3.8
			s0.1-2.6,0.4-3.8c0.3-1.2,0.7-2.1,1.3-3c0.6-0.8,1.4-1.5,2.3-2c0.9-0.5,2-0.7,3.3-0.7c1.2,0,2.3,0.2,3.2,0.7
			c0.9,0.5,1.7,1.1,2.3,2s1,1.8,1.3,3c0.3,1.2,0.4,2.4,0.4,3.8s-0.1,2.6-0.4,3.8c-0.3,1.1-0.7,2.1-1.3,3s-1.4,1.5-2.3,2
			C376,646.4,374.9,646.7,373.7,646.7z M373.7,643.3c0.9,0,1.7-0.5,2.2-1.5c0.5-1,0.8-2.5,0.8-4.6c0-2.1-0.3-3.6-0.8-4.6
			s-1.3-1.5-2.2-1.5c-1,0-1.7,0.5-2.3,1.5c-0.5,1-0.8,2.5-0.8,4.6c0,2.1,0.3,3.6,0.8,4.6C372,642.8,372.8,643.3,373.7,643.3z"/>
		<path class="st6" d="M383.6,645.9l4.1-5.3c0.6-0.8,1.2-1.6,1.7-2.2s0.9-1.2,1.3-1.7c0.3-0.5,0.6-1,0.8-1.5s0.3-0.9,0.3-1.4
			c0-0.8-0.3-1.4-0.8-1.8c-0.5-0.4-1.3-0.6-2.3-0.6c-0.4,0-0.8,0-1.1,0.1s-0.6,0.1-0.9,0.2c-0.3,0.1-0.6,0.2-0.8,0.3
			c-0.3,0.1-0.6,0.2-0.9,0.3c-0.2-0.5-0.5-1-0.6-1.6c-0.2-0.5-0.3-1.1-0.3-1.6c0.4-0.2,0.9-0.3,1.2-0.5s0.8-0.3,1.2-0.3
			s0.8-0.1,1.2-0.2c0.4,0,0.9-0.1,1.4-0.1c1,0,1.9,0.1,2.7,0.3c0.8,0.2,1.6,0.5,2.2,1c0.6,0.4,1.1,1,1.4,1.7
			c0.3,0.7,0.5,1.5,0.5,2.4c0,0.7-0.1,1.3-0.3,1.9c-0.2,0.6-0.4,1.2-0.8,1.8s-0.7,1.2-1.2,1.9c-0.5,0.6-1,1.3-1.5,2.1l-1.5,2h5.9
			c0.1,0.6,0.2,1.1,0.2,1.6c0,0.6-0.1,1.2-0.2,1.8h-12.7L383.6,645.9z"/>
		<path class="st6" d="M406,643v-9.8l-3.4,1.4c-0.4-0.5-0.7-0.9-0.9-1.4c-0.2-0.5-0.4-1-0.6-1.6l8-3.5h0.8V643h4
			c0.1,0.3,0.1,0.6,0.1,0.9c0,0.3,0,0.5,0,0.8c0,0.3,0,0.6,0,0.8c0,0.3-0.1,0.5-0.1,0.9h-11.9c-0.1-0.3-0.1-0.6-0.1-0.9
			c0-0.3,0-0.5,0-0.8c0-0.3,0-0.5,0-0.8c0-0.3,0.1-0.5,0.1-0.9H406z"/>
		<path class="st6" d="M418.3,642.3c0.3-0.1,0.6-0.1,0.9-0.2s0.6,0,0.9,0c0.3,0,0.6,0,1,0c0.4,0,0.7,0.1,1,0.2l-2,7.1
			c-0.3,0.1-0.6,0.1-0.9,0.1c-0.3,0-0.6,0-0.9,0c-0.3,0-0.6,0-0.9,0s-0.6-0.1-0.9-0.1L418.3,642.3z"/>
	</g>
	<g class="st7">
		<path class="st6" d="M431.7,626.3c0.6-0.1,1.3-0.2,2.1-0.2s1.8-0.1,2.9-0.1c1,0,2,0.1,2.9,0.3c0.9,0.2,1.7,0.5,2.4,0.9
			c0.7,0.4,1.2,0.9,1.6,1.6c0.4,0.7,0.6,1.5,0.6,2.5c0,0.6-0.1,1.1-0.3,1.7s-0.4,1-0.7,1.3c-0.3,0.4-0.6,0.7-1,0.9s-0.8,0.4-1.1,0.5
			c0.4,0.1,0.9,0.2,1.4,0.4c0.5,0.2,1,0.5,1.5,0.9c0.4,0.4,0.8,0.9,1.1,1.5c0.3,0.6,0.4,1.4,0.4,2.3c0,1.2-0.2,2.2-0.7,3
			c-0.5,0.8-1.1,1.4-1.8,1.8s-1.7,0.8-2.7,0.9c-1,0.2-2.1,0.3-3.2,0.3c-0.9,0-1.7,0-2.5-0.1c-0.8,0-1.8-0.1-2.8-0.3V626.3z
			 M437,634.4c0.5,0,0.9,0,1.3-0.1c0.4-0.1,0.7-0.2,1-0.4c0.3-0.2,0.5-0.5,0.7-0.9c0.2-0.4,0.3-0.8,0.3-1.4c0-0.5-0.1-1-0.3-1.3
			s-0.4-0.6-0.8-0.8c-0.3-0.2-0.7-0.3-1-0.4s-0.8-0.1-1.1-0.1c-0.5,0-1,0-1.3,0.1v5.4H437z M435.8,643.3c0.3,0,0.6,0.1,0.9,0.1
			s0.7,0,0.9,0c0.4,0,0.8,0,1.2-0.1s0.8-0.2,1.2-0.4c0.4-0.2,0.7-0.5,0.9-0.9c0.2-0.4,0.4-0.9,0.4-1.5c0-0.6-0.1-1.1-0.3-1.4
			c-0.2-0.4-0.5-0.7-0.8-0.9s-0.8-0.4-1.2-0.5c-0.5-0.1-1-0.1-1.6-0.1h-1.7V643.3z"/>
		<path class="st6" d="M452.5,629.7h-5c-0.1-0.6-0.2-1.1-0.2-1.8c0-0.6,0.1-1.1,0.2-1.7h14.1c0.1,0.6,0.2,1.1,0.2,1.7
			c0,0.6-0.1,1.2-0.2,1.8h-5v16.6c-0.3,0-0.7,0.1-1,0.1c-0.3,0-0.7,0-1,0c-0.3,0-0.7,0-1,0c-0.4,0-0.7-0.1-1.1-0.1V629.7z"/>
	</g>
	<g class="st7">
		<path class="st6" d="M475.8,642.5c0.2,0.5,0.4,1.1,0.6,1.6c0.2,0.5,0.3,1.1,0.3,1.7c-1,0.4-1.8,0.6-2.6,0.7
			c-0.8,0.1-1.6,0.2-2.5,0.2c-1.6,0-3-0.3-4.2-0.8c-1.2-0.5-2.2-1.2-3-2.1c-0.8-0.9-1.4-2-1.8-3.3c-0.4-1.3-0.6-2.6-0.6-4.1
			s0.2-2.9,0.6-4.1c0.4-1.3,1-2.4,1.9-3.3c0.8-0.9,1.8-1.7,3-2.2c1.2-0.5,2.5-0.8,4-0.8c0.9,0,1.7,0.1,2.5,0.2
			c0.8,0.1,1.6,0.3,2.4,0.7c0,0.6-0.1,1.1-0.3,1.6c-0.2,0.5-0.4,1.1-0.6,1.6c-0.7-0.2-1.2-0.4-1.7-0.5c-0.5-0.1-1.1-0.1-1.8-0.1
			c-1.8,0-3.2,0.6-4.1,1.7c-1,1.2-1.4,2.9-1.4,5.2c0,4.5,1.9,6.8,5.8,6.8c0.7,0,1.3,0,1.8-0.1C474.6,642.9,475.2,642.8,475.8,642.5z
			"/>
		<path class="st6" d="M499.2,642.5c0.2,0.5,0.4,1.1,0.6,1.6c0.2,0.5,0.3,1.1,0.3,1.7c-1,0.4-1.8,0.6-2.6,0.7
			c-0.8,0.1-1.6,0.2-2.5,0.2c-1.6,0-3-0.3-4.2-0.8c-1.2-0.5-2.2-1.2-3-2.1c-0.8-0.9-1.4-2-1.8-3.3c-0.4-1.3-0.6-2.6-0.6-4.1
			s0.2-2.9,0.6-4.1c0.4-1.3,1-2.4,1.9-3.3c0.8-0.9,1.8-1.7,3-2.2c1.2-0.5,2.5-0.8,4-0.8c0.9,0,1.7,0.1,2.5,0.2
			c0.8,0.1,1.6,0.3,2.4,0.7c0,0.6-0.1,1.1-0.3,1.6c-0.2,0.5-0.4,1.1-0.6,1.6c-0.7-0.2-1.2-0.4-1.7-0.5c-0.5-0.1-1.1-0.1-1.8-0.1
			c-1.8,0-3.2,0.6-4.1,1.7c-1,1.2-1.4,2.9-1.4,5.2c0,4.5,1.9,6.8,5.8,6.8c0.7,0,1.3,0,1.8-0.1C498,642.9,498.6,642.8,499.2,642.5z"
			/>
		<path class="st6" d="M503.2,626.3c0.7-0.1,1.4-0.2,2-0.2c0.7,0,1.4,0.1,2.1,0.2v20.1c-0.7,0.1-1.4,0.2-2,0.2
			c-0.7,0-1.4-0.1-2.1-0.2V626.3z"/>
		<path class="st6" d="M515.1,629.7h-5c-0.1-0.6-0.2-1.1-0.2-1.8c0-0.6,0.1-1.1,0.2-1.7h14.1c0.1,0.6,0.2,1.1,0.2,1.7
			c0,0.6-0.1,1.2-0.2,1.8h-5v16.6c-0.3,0-0.7,0.1-1,0.1c-0.3,0-0.7,0-1,0c-0.3,0-0.7,0-1,0c-0.4,0-0.7-0.1-1.1-0.1V629.7z"/>
		<path class="st6" d="M531.6,639.2l-6.2-12.9c0.8-0.1,1.6-0.2,2.3-0.2c0.7,0,1.4,0.1,2.1,0.2l4,9.1l3.9-9.1
			c0.7-0.1,1.4-0.2,2.1-0.2c0.7,0,1.4,0.1,2.1,0.2l-6.2,12.9v7.2c-0.4,0.1-0.7,0.1-1.1,0.1s-0.7,0-1,0c-0.3,0-0.6,0-1,0
			c-0.3,0-0.7-0.1-1-0.1V639.2z"/>
	</g>
</g>
<g>
	<path class="st0" d="M217.8,659l-3.7,8.8h-2.6l-3.7-8.8h2.6l2.4,6l2.5-6H217.8z"/>
	<path class="st0" d="M224.3,667.6c-0.7-0.2-1.3-0.4-1.7-0.7l0.8-1.8c0.4,0.2,0.9,0.5,1.4,0.6c0.6,0.2,1.1,0.2,1.6,0.2
		c1.1,0,1.6-0.3,1.6-0.8c0-0.3-0.1-0.4-0.4-0.5c-0.3-0.1-0.7-0.2-1.4-0.3c-0.7-0.1-1.3-0.2-1.8-0.4c-0.5-0.1-0.9-0.4-1.2-0.8
		s-0.5-0.9-0.5-1.5c0-0.6,0.2-1,0.5-1.5c0.3-0.4,0.8-0.8,1.4-1c0.6-0.2,1.3-0.4,2.2-0.4c0.6,0,1.2,0.1,1.9,0.2
		c0.6,0.1,1.1,0.3,1.5,0.6l-0.8,1.8c-0.8-0.4-1.6-0.7-2.5-0.7c-0.5,0-1,0.1-1.2,0.2c-0.3,0.2-0.4,0.3-0.4,0.6c0,0.3,0.1,0.5,0.4,0.6
		c0.3,0.1,0.8,0.2,1.4,0.3c0.7,0.1,1.3,0.2,1.8,0.4c0.5,0.1,0.9,0.4,1.2,0.7s0.5,0.9,0.5,1.5c0,0.5-0.2,1-0.5,1.5
		c-0.3,0.4-0.8,0.8-1.4,1c-0.6,0.2-1.4,0.4-2.2,0.4C225.7,667.9,225,667.8,224.3,667.6z"/>
	<path class="st0" d="M233.8,667.3c-0.7-0.4-1.3-0.9-1.7-1.6c-0.4-0.7-0.6-1.5-0.6-2.3c0-0.9,0.2-1.6,0.6-2.3c0.4-0.7,1-1.2,1.7-1.6
		c0.7-0.4,1.6-0.6,2.5-0.6c0.9,0,1.8,0.2,2.5,0.6c0.7,0.4,1.3,0.9,1.7,1.6s0.6,1.5,0.6,2.3c0,0.9-0.2,1.6-0.6,2.3
		c-0.4,0.7-1,1.2-1.7,1.6c-0.7,0.4-1.6,0.6-2.5,0.6C235.4,667.9,234.5,667.7,233.8,667.3z M237.9,665.2c0.4-0.4,0.6-1,0.6-1.8
		s-0.2-1.3-0.6-1.8c-0.4-0.4-1-0.7-1.6-0.7c-0.7,0-1.2,0.2-1.6,0.7c-0.4,0.4-0.6,1-0.6,1.8s0.2,1.3,0.6,1.8c0.4,0.4,1,0.7,1.6,0.7
		C236.9,665.8,237.5,665.6,237.9,665.2z"/>
	<path class="st0" d="M251.7,655.7v12.1h-2.4v-1c-0.6,0.8-1.5,1.1-2.7,1.1c-0.8,0-1.6-0.2-2.2-0.6c-0.7-0.4-1.2-0.9-1.6-1.6
		c-0.4-0.7-0.6-1.5-0.6-2.4s0.2-1.7,0.6-2.4s0.9-1.2,1.6-1.6s1.4-0.6,2.2-0.6c1.1,0,2,0.4,2.6,1.1v-4.3H251.7z M248.6,665.2
		c0.4-0.4,0.6-1,0.6-1.8s-0.2-1.3-0.6-1.8c-0.4-0.4-1-0.7-1.6-0.7c-0.7,0-1.2,0.2-1.6,0.7c-0.4,0.4-0.6,1-0.6,1.8s0.2,1.3,0.6,1.8
		c0.4,0.4,1,0.7,1.6,0.7C247.7,665.8,248.2,665.6,248.6,665.2z"/>
	<path class="st0" d="M262.7,664.1H256c0.1,0.5,0.4,1,0.8,1.3s1,0.5,1.7,0.5c0.5,0,0.9-0.1,1.2-0.2s0.7-0.4,1-0.6l1.4,1.5
		c-0.8,0.9-2,1.4-3.6,1.4c-1,0-1.9-0.2-2.6-0.6c-0.8-0.4-1.3-0.9-1.8-1.6c-0.4-0.7-0.6-1.5-0.6-2.3c0-0.9,0.2-1.6,0.6-2.3
		c0.4-0.7,1-1.2,1.7-1.6c0.7-0.4,1.5-0.6,2.4-0.6c0.9,0,1.6,0.2,2.3,0.6c0.7,0.4,1.2,0.9,1.6,1.6c0.4,0.7,0.6,1.5,0.6,2.4
		C262.7,663.5,262.7,663.7,262.7,664.1z M256.7,661.3c-0.4,0.3-0.6,0.8-0.7,1.3h4.3c-0.1-0.6-0.3-1-0.7-1.3
		c-0.4-0.3-0.9-0.5-1.4-0.5C257.6,660.8,257.1,661,256.7,661.3z"/>
	<path class="st0" d="M264.4,655.7h2.5v12.1h-2.5V655.7z"/>
	<path class="st0" d="M271,667.3c-0.7-0.4-1.3-0.9-1.7-1.6c-0.4-0.7-0.6-1.5-0.6-2.3c0-0.9,0.2-1.6,0.6-2.3c0.4-0.7,1-1.2,1.7-1.6
		c0.7-0.4,1.6-0.6,2.5-0.6c0.9,0,1.8,0.2,2.5,0.6c0.7,0.4,1.3,0.9,1.7,1.6s0.6,1.5,0.6,2.3c0,0.9-0.2,1.6-0.6,2.3
		c-0.4,0.7-1,1.2-1.7,1.6c-0.7,0.4-1.6,0.6-2.5,0.6C272.6,667.9,271.7,667.7,271,667.3z M275.1,665.2c0.4-0.4,0.6-1,0.6-1.8
		s-0.2-1.3-0.6-1.8c-0.4-0.4-1-0.7-1.6-0.7c-0.7,0-1.2,0.2-1.6,0.7c-0.4,0.4-0.6,1-0.6,1.8s0.2,1.3,0.6,1.8c0.4,0.4,1,0.7,1.6,0.7
		C274.1,665.8,274.7,665.6,275.1,665.2z"/>
	<path class="st0" d="M288.7,659l-3.7,8.8h-2.6l-3.7-8.8h2.6l2.4,6l2.5-6H288.7z"/>
	<path class="st0" d="M296.5,659.8c0.7,0.6,1.1,1.6,1.1,2.9v5h-2.4v-1.1c-0.5,0.8-1.4,1.2-2.7,1.2c-0.7,0-1.3-0.1-1.8-0.3
		c-0.5-0.2-0.9-0.5-1.1-0.9s-0.4-0.9-0.4-1.4c0-0.8,0.3-1.5,0.9-1.9c0.6-0.5,1.6-0.7,2.8-0.7h2c0-0.6-0.2-1-0.5-1.3
		c-0.3-0.3-0.8-0.4-1.5-0.4c-0.5,0-0.9,0.1-1.4,0.2c-0.5,0.1-0.8,0.3-1.2,0.6l-0.9-1.8c0.5-0.3,1.1-0.6,1.7-0.8
		c0.7-0.2,1.4-0.3,2.1-0.3C294.7,658.9,295.7,659.2,296.5,659.8z M294.3,665.9c0.3-0.2,0.6-0.5,0.7-0.9v-0.9h-1.7
		c-1,0-1.6,0.3-1.6,1c0,0.3,0.1,0.6,0.4,0.8s0.6,0.3,1.1,0.3C293.6,666.2,293.9,666.1,294.3,665.9z"/>
	<path class="st0" d="M307.8,659.9c0.7,0.7,1,1.6,1,2.9v5h-2.5v-4.6c0-0.7-0.2-1.2-0.5-1.6c-0.3-0.3-0.7-0.5-1.3-0.5
		c-0.6,0-1.2,0.2-1.5,0.6s-0.6,1-0.6,1.8v4.3h-2.5V659h2.4v1c0.3-0.4,0.8-0.7,1.3-0.9s1.1-0.3,1.6-0.3
		C306.3,658.9,307.2,659.2,307.8,659.9z"/>
	<path class="st0" d="M308.4,670.6l0.7-1.8c0.3,0.2,0.7,0.3,1.1,0.3c0.3,0,0.6-0.1,0.8-0.3s0.3-0.5,0.3-1V659h2.5v8.8
		c0,1-0.3,1.8-0.9,2.4c-0.6,0.6-1.4,0.9-2.4,0.9C309.6,671.1,308.9,670.9,308.4,670.6z M311.4,657.4c-0.3-0.3-0.4-0.6-0.4-1
		s0.1-0.7,0.4-1c0.3-0.3,0.7-0.4,1.1-0.4c0.5,0,0.8,0.1,1.1,0.4c0.3,0.3,0.4,0.6,0.4,1c0,0.4-0.1,0.8-0.4,1.1s-0.7,0.4-1.1,0.4
		C312,657.8,311.7,657.6,311.4,657.4z"/>
	<path class="st0" d="M325,659v8.8h-2.4v-1c-0.3,0.4-0.7,0.7-1.2,0.9c-0.5,0.2-1,0.3-1.5,0.3c-1.2,0-2.1-0.3-2.7-1s-1-1.6-1-3v-5
		h2.5v4.6c0,1.4,0.6,2.1,1.8,2.1c0.6,0,1.1-0.2,1.5-0.6c0.4-0.4,0.6-1,0.6-1.8V659H325z"/>
	<path class="st0" d="M339.2,665.8v2h-7.8v-1.5l4.5-5.3h-4.4v-2h7.6v1.5l-4.5,5.3H339.2z"/>
	<path class="st0" d="M354.9,665.6v2.2h-10v-1.7l6.3-7.6H345v-2.2h9.6v1.7l-6.3,7.6H354.9z"/>
	<path class="st0" d="M363.1,659.8c0.7,0.6,1.1,1.6,1.1,2.9v5h-2.4v-1.1c-0.5,0.8-1.4,1.2-2.7,1.2c-0.7,0-1.3-0.1-1.8-0.3
		c-0.5-0.2-0.9-0.5-1.1-0.9s-0.4-0.9-0.4-1.4c0-0.8,0.3-1.5,0.9-1.9c0.6-0.5,1.6-0.7,2.8-0.7h2c0-0.6-0.2-1-0.5-1.3
		c-0.3-0.3-0.8-0.4-1.5-0.4c-0.5,0-0.9,0.1-1.4,0.2c-0.5,0.1-0.8,0.3-1.2,0.6l-0.9-1.8c0.5-0.3,1.1-0.6,1.7-0.8
		c0.7-0.2,1.4-0.3,2.1-0.3C361.3,658.9,362.4,659.2,363.1,659.8z M360.9,665.9c0.3-0.2,0.6-0.5,0.7-0.9v-0.9h-1.7
		c-1,0-1.6,0.3-1.6,1c0,0.3,0.1,0.6,0.4,0.8s0.6,0.3,1.1,0.3C360.2,666.2,360.6,666.1,360.9,665.9z"/>
	<path class="st0" d="M375.2,659l-3.7,8.8h-2.6l-3.7-8.8h2.6l2.4,6l2.5-6H375.2z"/>
	<path class="st0" d="M382.9,659.8c0.7,0.6,1.1,1.6,1.1,2.9v5h-2.4v-1.1c-0.5,0.8-1.4,1.2-2.7,1.2c-0.7,0-1.3-0.1-1.8-0.3
		c-0.5-0.2-0.9-0.5-1.1-0.9c-0.3-0.4-0.4-0.9-0.4-1.4c0-0.8,0.3-1.5,0.9-1.9s1.6-0.7,2.8-0.7h2c0-0.6-0.2-1-0.5-1.3
		c-0.3-0.3-0.8-0.4-1.5-0.4c-0.5,0-0.9,0.1-1.4,0.2c-0.5,0.1-0.8,0.3-1.2,0.6l-0.9-1.8c0.5-0.3,1.1-0.6,1.7-0.8
		c0.7-0.2,1.4-0.3,2.1-0.3C381.2,658.9,382.2,659.2,382.9,659.8z M380.8,665.9c0.3-0.2,0.6-0.5,0.7-0.9v-0.9h-1.7
		c-1,0-1.6,0.3-1.6,1c0,0.3,0.1,0.6,0.4,0.8c0.3,0.2,0.6,0.3,1.1,0.3C380,666.2,380.4,666.1,380.8,665.9z"/>
	<path class="st0" d="M390,659.2c0.5-0.2,1.1-0.3,1.8-0.3v2.4c-0.3,0-0.5,0-0.6,0c-0.7,0-1.3,0.2-1.7,0.6s-0.6,1-0.6,1.8v4.1h-2.5
		V659h2.4v1.2C389.1,659.7,389.5,659.4,390,659.2z"/>
	<path class="st0" d="M395.1,667.3c-0.7-0.4-1.3-0.9-1.7-1.6c-0.4-0.7-0.6-1.5-0.6-2.3c0-0.9,0.2-1.6,0.6-2.3c0.4-0.7,1-1.2,1.7-1.6
		c0.7-0.4,1.6-0.6,2.5-0.6c0.9,0,1.8,0.2,2.5,0.6c0.7,0.4,1.3,0.9,1.7,1.6c0.4,0.7,0.6,1.5,0.6,2.3c0,0.9-0.2,1.6-0.6,2.3
		c-0.4,0.7-1,1.2-1.7,1.6c-0.7,0.4-1.6,0.6-2.5,0.6C396.6,667.9,395.8,667.7,395.1,667.3z M399.2,665.2c0.4-0.4,0.6-1,0.6-1.8
		s-0.2-1.3-0.6-1.8c-0.4-0.4-1-0.7-1.6-0.7s-1.2,0.2-1.6,0.7c-0.4,0.4-0.6,1-0.6,1.8s0.2,1.3,0.6,1.8c0.4,0.4,1,0.7,1.6,0.7
		S398.7,665.6,399.2,665.2z"/>
	<path class="st0" d="M412.8,659l-3.7,8.8h-2.6l-3.7-8.8h2.6l2.4,6l2.5-6H412.8z"/>
	<path class="st0" d="M420.5,659.8c0.7,0.6,1.1,1.6,1.1,2.9v5h-2.4v-1.1c-0.5,0.8-1.4,1.2-2.7,1.2c-0.7,0-1.3-0.1-1.8-0.3
		c-0.5-0.2-0.9-0.5-1.1-0.9c-0.3-0.4-0.4-0.9-0.4-1.4c0-0.8,0.3-1.5,0.9-1.9s1.6-0.7,2.8-0.7h2c0-0.6-0.2-1-0.5-1.3
		c-0.3-0.3-0.8-0.4-1.5-0.4c-0.5,0-0.9,0.1-1.4,0.2c-0.5,0.1-0.8,0.3-1.2,0.6l-0.9-1.8c0.5-0.3,1.1-0.6,1.7-0.8
		c0.7-0.2,1.4-0.3,2.1-0.3C418.7,658.9,419.8,659.2,420.5,659.8z M418.3,665.9c0.3-0.2,0.6-0.5,0.7-0.9v-0.9h-1.7
		c-1,0-1.6,0.3-1.6,1c0,0.3,0.1,0.6,0.4,0.8c0.3,0.2,0.6,0.3,1.1,0.3C417.6,666.2,418,666.1,418.3,665.9z"/>
	<path class="st0" d="M423.9,655.7h2.5v12.1h-2.5V655.7z"/>
	<path class="st0" d="M436.8,659.9c0.7,0.7,1,1.6,1,2.9v5h-2.5v-4.6c0-0.7-0.2-1.2-0.5-1.6s-0.7-0.5-1.3-0.5c-0.6,0-1.2,0.2-1.5,0.6
		s-0.6,1-0.6,1.8v4.3h-2.5V659h2.4v1c0.3-0.4,0.8-0.7,1.3-0.9s1.1-0.3,1.6-0.3C435.2,658.9,436.1,659.2,436.8,659.9z"/>
	<path class="st0" d="M440.2,657.4c-0.3-0.3-0.4-0.6-0.4-1s0.1-0.7,0.4-1c0.3-0.3,0.7-0.4,1.1-0.4c0.5,0,0.8,0.1,1.1,0.4
		c0.3,0.3,0.4,0.6,0.4,1c0,0.4-0.1,0.8-0.4,1.1s-0.7,0.4-1.1,0.4C440.9,657.8,440.5,657.6,440.2,657.4z M440.1,659h2.5v8.8h-2.5V659
		z"/>
	<path class="st0" d="M446.7,667.3c-0.7-0.4-1.3-0.9-1.7-1.6c-0.4-0.7-0.6-1.5-0.6-2.3c0-0.9,0.2-1.6,0.6-2.3c0.4-0.7,1-1.2,1.7-1.6
		c0.7-0.4,1.6-0.6,2.5-0.6c0.9,0,1.7,0.2,2.4,0.6c0.7,0.4,1.2,0.9,1.5,1.7l-2,1.1c-0.5-0.8-1.1-1.2-2-1.2c-0.7,0-1.2,0.2-1.6,0.7
		c-0.4,0.4-0.7,1-0.7,1.8s0.2,1.3,0.7,1.8s1,0.7,1.6,0.7c0.9,0,1.5-0.4,2-1.2l2,1.1c-0.3,0.7-0.8,1.2-1.5,1.6s-1.5,0.6-2.4,0.6
		C448.3,667.9,447.5,667.7,446.7,667.3z"/>
	<path class="st0" d="M456.3,667.3c-0.7-0.4-1.3-0.9-1.7-1.6c-0.4-0.7-0.6-1.5-0.6-2.3c0-0.9,0.2-1.6,0.6-2.3c0.4-0.7,1-1.2,1.7-1.6
		c0.7-0.4,1.6-0.6,2.5-0.6c0.9,0,1.8,0.2,2.5,0.6c0.7,0.4,1.3,0.9,1.7,1.6c0.4,0.7,0.6,1.5,0.6,2.3c0,0.9-0.2,1.6-0.6,2.3
		c-0.4,0.7-1,1.2-1.7,1.6c-0.7,0.4-1.6,0.6-2.5,0.6C457.9,667.9,457.1,667.7,456.3,667.3z M460.4,665.2c0.4-0.4,0.6-1,0.6-1.8
		s-0.2-1.3-0.6-1.8c-0.4-0.4-1-0.7-1.6-0.7s-1.2,0.2-1.6,0.7c-0.4,0.4-0.6,1-0.6,1.8s0.2,1.3,0.6,1.8c0.4,0.4,1,0.7,1.6,0.7
		S460,665.6,460.4,665.2z"/>
	<path class="st0" d="M477.9,661.9h2.4v4.6c-0.6,0.5-1.3,0.8-2.2,1.1s-1.6,0.4-2.5,0.4c-1.2,0-2.3-0.3-3.2-0.8
		c-0.9-0.5-1.7-1.2-2.2-2.1c-0.5-0.9-0.8-1.9-0.8-3c0-1.1,0.3-2.1,0.8-3c0.5-0.9,1.3-1.6,2.2-2.1c1-0.5,2-0.8,3.2-0.8
		c1,0,1.9,0.2,2.7,0.5c0.8,0.3,1.5,0.8,2.1,1.5l-1.7,1.6c-0.8-0.9-1.8-1.3-3-1.3c-0.7,0-1.4,0.2-1.9,0.5c-0.6,0.3-1,0.7-1.3,1.3
		c-0.3,0.6-0.5,1.2-0.5,1.9c0,0.7,0.2,1.3,0.5,1.9c0.3,0.6,0.8,1,1.3,1.3c0.6,0.3,1.2,0.5,1.9,0.5c0.8,0,1.4-0.2,2.1-0.5V661.9z"/>
	<path class="st0" d="M491.1,664.1h-6.6c0.1,0.5,0.4,1,0.8,1.3s1,0.5,1.7,0.5c0.5,0,0.9-0.1,1.2-0.2s0.7-0.4,1-0.6l1.4,1.5
		c-0.8,0.9-2,1.4-3.6,1.4c-1,0-1.9-0.2-2.6-0.6c-0.8-0.4-1.3-0.9-1.8-1.6c-0.4-0.7-0.6-1.5-0.6-2.3c0-0.9,0.2-1.6,0.6-2.3
		c0.4-0.7,1-1.2,1.7-1.6c0.7-0.4,1.5-0.6,2.4-0.6c0.9,0,1.6,0.2,2.3,0.6s1.2,0.9,1.6,1.6s0.6,1.5,0.6,2.4
		C491.2,663.5,491.1,663.7,491.1,664.1z M485.2,661.3c-0.4,0.3-0.6,0.8-0.7,1.3h4.3c-0.1-0.6-0.3-1-0.7-1.3
		c-0.4-0.3-0.9-0.5-1.4-0.5C486,660.8,485.5,661,485.2,661.3z"/>
	<path class="st0" d="M500.8,659.9c0.7,0.7,1,1.6,1,2.9v5h-2.5v-4.6c0-0.7-0.2-1.2-0.5-1.6s-0.7-0.5-1.3-0.5c-0.6,0-1.2,0.2-1.5,0.6
		s-0.6,1-0.6,1.8v4.3h-2.5V659h2.4v1c0.3-0.4,0.8-0.7,1.3-0.9s1.1-0.3,1.6-0.3C499.3,658.9,500.2,659.2,500.8,659.9z"/>
	<path class="st0" d="M512.7,664.1h-6.6c0.1,0.5,0.4,1,0.8,1.3s1,0.5,1.7,0.5c0.5,0,0.9-0.1,1.2-0.2s0.7-0.4,1-0.6l1.4,1.5
		c-0.8,0.9-2,1.4-3.6,1.4c-1,0-1.9-0.2-2.6-0.6c-0.8-0.4-1.3-0.9-1.8-1.6c-0.4-0.7-0.6-1.5-0.6-2.3c0-0.9,0.2-1.6,0.6-2.3
		c0.4-0.7,1-1.2,1.7-1.6c0.7-0.4,1.5-0.6,2.4-0.6c0.9,0,1.6,0.2,2.3,0.6s1.2,0.9,1.6,1.6s0.6,1.5,0.6,2.4
		C512.7,663.5,512.7,663.7,512.7,664.1z M506.7,661.3c-0.4,0.3-0.6,0.8-0.7,1.3h4.3c-0.1-0.6-0.3-1-0.7-1.3
		c-0.4-0.3-0.9-0.5-1.4-0.5C507.6,660.8,507.1,661,506.7,661.3z"/>
	<path class="st0" d="M518.1,659.2c0.5-0.2,1.1-0.3,1.8-0.3v2.4c-0.3,0-0.5,0-0.6,0c-0.7,0-1.3,0.2-1.7,0.6s-0.6,1-0.6,1.8v4.1h-2.5
		V659h2.4v1.2C517.2,659.7,517.6,659.4,518.1,659.2z"/>
	<path class="st0" d="M528.2,659.8c0.7,0.6,1.1,1.6,1.1,2.9v5h-2.4v-1.1c-0.5,0.8-1.4,1.2-2.7,1.2c-0.7,0-1.3-0.1-1.8-0.3
		c-0.5-0.2-0.9-0.5-1.1-0.9c-0.3-0.4-0.4-0.9-0.4-1.4c0-0.8,0.3-1.5,0.9-1.9s1.6-0.7,2.8-0.7h2c0-0.6-0.2-1-0.5-1.3
		c-0.3-0.3-0.8-0.4-1.5-0.4c-0.5,0-0.9,0.1-1.4,0.2c-0.5,0.1-0.8,0.3-1.2,0.6l-0.9-1.8c0.5-0.3,1.1-0.6,1.7-0.8
		c0.7-0.2,1.4-0.3,2.1-0.3C526.4,658.9,527.4,659.2,528.2,659.8z M526,665.9c0.3-0.2,0.6-0.5,0.7-0.9v-0.9H525c-1,0-1.6,0.3-1.6,1
		c0,0.3,0.1,0.6,0.4,0.8c0.3,0.2,0.6,0.3,1.1,0.3C525.3,666.2,525.7,666.1,526,665.9z"/>
	<path class="st0" d="M531.6,655.7h2.5v12.1h-2.5V655.7z"/>
	<path class="st0" d="M536.6,657.4c-0.3-0.3-0.4-0.6-0.4-1s0.1-0.7,0.4-1c0.3-0.3,0.7-0.4,1.1-0.4c0.5,0,0.8,0.1,1.1,0.4
		c0.3,0.3,0.4,0.6,0.4,1c0,0.4-0.1,0.8-0.4,1.1s-0.7,0.4-1.1,0.4C537.3,657.8,536.9,657.6,536.6,657.4z M536.5,659h2.5v8.8h-2.5V659
		z"/>
</g>
</svg>
