<?xml version="1.0" encoding="utf-8"?>
<!-- Generator: Adobe Illustrator 25.2.1, SVG Export Plug-In . SVG Version: 6.00 Build 0)  -->
<svg version="1.1" id="Layer_1" xmlns="http://www.w3.org/2000/svg" xmlns:xlink="http://www.w3.org/1999/xlink" x="0px" y="0px"
	 viewBox="0 0 256 256" style="enable-background:new 0 0 256 256;" xml:space="preserve">
<style type="text/css">
	.st0{clip-path:url(#SVGID_2_);fill:url(#SVGID_3_);}
	.st1{clip-path:url(#SVGID_2_);fill:#1E2836;}
	.st2{clip-path:url(#SVGID_2_);fill:url(#SVGID_4_);}
	.st3{clip-path:url(#SVGID_2_);fill:url(#SVGID_5_);}
	.st4{clip-path:url(#SVGID_2_);}
	.st5{fill:url(#SVGID_6_);}
	.st6{fill:#7592C7;}
	.st7{fill:url(#SVGID_7_);}
	.st8{clip-path:url(#SVGID_2_);fill:url(#SVGID_8_);}
	.st9{clip-path:url(#SVGID_2_);fill:url(#SVGID_9_);}
	.st10{fill:#FFFFFF;}
	.st11{fill:#231F20;}
	.st12{fill:#6049CD;}
	.st13{fill:#FF0000;}
	.st14{fill:#FF5757;}
	.st15{fill:#F97373;}
	.st16{fill:#DD6C6C;}
	.st17{fill:#938CF4;}
	.st18{fill:#7F71E2;}
	.st19{fill:#7AC24E;}
	.st20{fill:url(#SVGID_10_);}
	.st21{fill:#F9B54D;}
	.st22{fill:#F9D967;}
	.st23{fill:none;stroke:#231F20;stroke-miterlimit:10;}
	.st24{fill:#5F616E;}
	.st25{fill:#F2F3F7;}
</style>
<g>
	<defs>
		<polygon id="SVGID_1_" points="256,0 0.2,0 0.2,256 256,256 		"/>
	</defs>
	<clipPath id="SVGID_2_">
		<use xlink:href="#SVGID_1_"  style="overflow:visible;"/>
	</clipPath>
	
		<linearGradient id="SVGID_3_" gradientUnits="userSpaceOnUse" x1="113.5774" y1="134.9442" x2="113.5774" y2="252.5095" gradientTransform="matrix(1 0 0 -1 0 252.3499)">
		<stop  offset="0" style="stop-color:#7592C7"/>
		<stop  offset="0.1421" style="stop-color:#7A96C9;stop-opacity:0.8579"/>
		<stop  offset="0.3216" style="stop-color:#8AA3D0;stop-opacity:0.6784"/>
		<stop  offset="0.5212" style="stop-color:#A4B7DA;stop-opacity:0.4788"/>
		<stop  offset="0.7353" style="stop-color:#C8D4E9;stop-opacity:0.2647"/>
		<stop  offset="0.9588" style="stop-color:#F6F8FB;stop-opacity:4.118425e-02"/>
		<stop  offset="1" style="stop-color:#FFFFFF;stop-opacity:0"/>
	</linearGradient>
	<polygon class="st0" points="141.4,-0.2 111.7,115.7 85.8,117.4 116.5,-0.2 	"/>
	<polygon class="st1" points="72.8,258 140.9,-1.2 256.8,-0.2 256.8,258 85.9,258 	"/>
	
		<linearGradient id="SVGID_4_" gradientUnits="userSpaceOnUse" x1="151.6028" y1="145.59" x2="151.6028" y2="261.6818" gradientTransform="matrix(1 -8.300000e-03 -8.300000e-03 -1 2.6758 253.906)">
		<stop  offset="0" style="stop-color:#7592C7"/>
		<stop  offset="0.145" style="stop-color:#5F77A2"/>
		<stop  offset="0.3248" style="stop-color:#485B7C"/>
		<stop  offset="0.5032" style="stop-color:#35455D"/>
		<stop  offset="0.6773" style="stop-color:#283547"/>
		<stop  offset="0.8453" style="stop-color:#212B3A"/>
		<stop  offset="1" style="stop-color:#1E2836"/>
	</linearGradient>
	<polygon class="st2" points="177.6,-4.6 148.4,105.7 127.6,107.3 157.2,-9.1 	"/>
	
		<linearGradient id="SVGID_5_" gradientUnits="userSpaceOnUse" x1="183.7578" y1="146.9932" x2="183.7578" y2="60.5598" gradientTransform="matrix(1 -8.300000e-03 -8.300000e-03 -1 2.6758 253.906)">
		<stop  offset="0" style="stop-color:#7592C7"/>
		<stop  offset="0.4243" style="stop-color:#4C6183"/>
		<stop  offset="0.813" style="stop-color:#2B384C"/>
		<stop  offset="1" style="stop-color:#1E2836"/>
	</linearGradient>
	<polygon class="st3" points="127.6,107.3 216.1,191.6 243.5,184.6 148.4,105.7 	"/>
	<g class="st4">
		<g>
			
				<linearGradient id="SVGID_6_" gradientUnits="userSpaceOnUse" x1="186.4986" y1="176.3751" x2="186.4986" y2="268.438" gradientTransform="matrix(0.9974 7.240000e-02 7.240000e-02 -0.9974 -36.1032 253.167)">
				<stop  offset="0" style="stop-color:#7592C7"/>
				<stop  offset="4.065835e-02" style="stop-color:#718DC0"/>
				<stop  offset="0.5033" style="stop-color:#445776"/>
				<stop  offset="0.8346" style="stop-color:#293548"/>
				<stop  offset="1" style="stop-color:#1E2836"/>
			</linearGradient>
			<polygon class="st5" points="181.9,-0.2 149.5,84.8 176.3,91.7 159,-0.2 			"/>
		</g>
		<polygon class="st6" points="176.3,91.7 119.4,-0.1 88.2,-0.3 149.5,84.8 		"/>
	</g>
	<g class="st4">
		<g>
			
				<linearGradient id="SVGID_7_" gradientUnits="userSpaceOnUse" x1="22.3937" y1="27.3717" x2="22.3937" y2="130.28" gradientTransform="matrix(-1 0 0 1 94 125.72)">
				<stop  offset="0" style="stop-color:#7592C7"/>
				<stop  offset="4.065835e-02" style="stop-color:#718DC0"/>
				<stop  offset="0.5033" style="stop-color:#445776"/>
				<stop  offset="0.8346" style="stop-color:#293548"/>
				<stop  offset="1" style="stop-color:#1E2836"/>
			</linearGradient>
			<polygon class="st7" points="74,256 99.9,157.2 72.8,153.1 43.3,256 			"/>
		</g>
		<polygon class="st6" points="72.8,153.1 175,256 205.3,256 99.9,157.2 		"/>
	</g>
	
		<linearGradient id="SVGID_8_" gradientUnits="userSpaceOnUse" x1="157.5661" y1="142.3772" x2="157.5661" y2="28.7162" gradientTransform="matrix(1 0 0 -1 0 252.3499)">
		<stop  offset="0" style="stop-color:#7592C7"/>
		<stop  offset="0.4243" style="stop-color:#4C6183"/>
		<stop  offset="0.813" style="stop-color:#2B384C"/>
		<stop  offset="1" style="stop-color:#1E2836"/>
	</linearGradient>
	<polygon class="st8" points="85.8,117.4 195.2,223.6 229.4,215.3 108.7,110 	"/>
	
		<linearGradient id="SVGID_9_" gradientUnits="userSpaceOnUse" x1="132.0972" y1="57.763" x2="132.0972" y2="-3.6501" gradientTransform="matrix(1 0 0 -1 0 252.3499)">
		<stop  offset="0" style="stop-color:#7592C7"/>
		<stop  offset="0.145" style="stop-color:#5F77A2"/>
		<stop  offset="0.3248" style="stop-color:#485B7C"/>
		<stop  offset="0.5032" style="stop-color:#35455D"/>
		<stop  offset="0.6773" style="stop-color:#283547"/>
		<stop  offset="0.8453" style="stop-color:#212B3A"/>
		<stop  offset="1" style="stop-color:#1E2836"/>
	</linearGradient>
	<polygon class="st9" points="160.8,256 103.4,194.6 105.2,222 138.2,255.6 	"/>
</g>
<g>
	<path class="st10" d="M107.7,97.5c2,4,0.4,7-3.4,6.8l-44.2-2.9c-3.9-0.3-8.6-3.7-10.5-7.7L19.3,32.3c-2-4-0.4-7,3.4-6.8l44.2,2.9
		c3.9,0.3,8.6,3.7,10.5,7.7L107.7,97.5z"/>
	<g>
		<polygon class="st11" points="39.6,33.7 40.4,35.4 42,35.5 41.2,33.8 39.6,33.7 		"/>
		<polygon class="st11" points="49.2,34.3 47.6,34.2 48.4,35.9 50,36 49.2,34.3 		"/>
		<polygon class="st11" points="53.2,36.2 51.6,36.1 52.4,37.7 54,37.9 53.2,36.2 		"/>
		<polygon class="st11" points="56.4,36.4 58,36.5 57.1,34.9 54,34.6 55.6,38 57.2,38.1 56.4,36.4 		"/>
		<polygon class="st11" points="45.3,38.9 46.1,40.5 47.7,40.6 46.8,39 48.4,39.1 47.6,37.4 46,37.3 45.2,35.7 42,35.5 42.8,37.1 
			41.2,37 42.1,38.7 45.3,38.9 		"/>
		<polygon class="st11" points="53.2,39.4 52.4,37.7 49.2,37.5 50,39.2 53.2,39.4 		"/>
		<polygon class="st11" points="56.4,39.6 55.6,38 54,37.9 54.8,39.5 56.4,39.6 		"/>
		<polygon class="st11" points="59.6,39.8 61.2,39.9 60.4,38.3 57.2,38.1 58,39.7 59.6,39.8 		"/>
		<polygon class="st11" points="50.8,40.8 50,39.2 48.4,39.1 49.3,40.7 50.8,40.8 		"/>
		<polygon class="st11" points="54,41.1 55.6,41.2 54.8,39.5 53.2,39.4 54,41.1 		"/>
		<polygon class="st11" points="57.2,41.3 58,42.9 59.6,43 58.8,41.4 57.2,41.3 		"/>
		<polygon class="st11" points="46.9,42.2 45.3,42.1 44.5,40.4 42.9,40.3 43.7,42 42.1,41.9 43.7,45.2 45.3,45.3 44.5,43.6 
			46.1,43.7 46.9,45.4 48.5,45.5 47.7,43.8 49.3,43.9 48.5,42.3 46.9,42.2 		"/>
		<polygon class="st11" points="61.2,43.1 59.6,43 60.4,44.7 62,44.8 61.2,43.1 		"/>
		<polygon class="st11" points="54.1,44.3 52.5,44.2 53.3,45.8 54.9,45.9 54.1,44.3 		"/>
		<polygon class="st11" points="60.4,44.7 58.9,44.6 59.7,46.2 61.3,46.3 60.4,44.7 		"/>
		<polygon class="st11" points="64.5,46.5 63.6,44.9 62,44.8 62.9,46.4 64.5,46.5 		"/>
		<polygon class="st11" points="33.4,46.1 31.8,46 32.6,47.7 34.2,47.8 33.4,46.1 		"/>
		<polygon class="st11" points="38.2,46.4 36.6,46.3 37.4,48 39,48.1 38.2,46.4 		"/>
		<polygon class="st11" points="46.1,46.9 44.5,46.8 45.4,48.5 47,48.6 46.1,46.9 		"/>
		<polygon class="st11" points="63.7,48.1 62.1,48 62.9,49.6 64.5,49.7 63.7,48.1 		"/>
		<polygon class="st11" points="36.6,49.5 38.2,49.6 37.4,48 34.2,47.8 35,49.4 36.6,49.5 		"/>
		<polygon class="st11" points="50.1,48.8 49.3,47.1 47.7,47 49.4,50.4 51,50.5 50.1,48.8 		"/>
		<polygon class="st11" points="75.6,50.5 74.1,50.4 74.9,52 76.5,52.1 77.3,53.8 78.9,53.9 78.1,52.2 79.6,52.3 78.8,50.7 
			75.6,50.5 		"/>
		<polygon class="st11" points="74.9,52 71.7,51.8 70,48.5 68.5,48.4 69.3,50.1 67.7,50 66.9,48.3 65.3,48.2 66.1,49.9 64.5,49.7 
			65.3,51.4 70.1,51.7 71.7,55 73.3,55.1 72.5,53.5 74.1,53.6 74.9,55.2 78.1,55.4 77.3,53.8 75.7,53.7 74.9,52 		"/>
		<polygon class="st11" points="34.2,51 35.1,52.6 36.7,52.7 35.8,51.1 34.2,51 		"/>
		<polygon class="st11" points="59.7,52.6 60.6,54.3 62.2,54.4 61.3,52.7 59.7,52.6 		"/>
		<polygon class="st11" points="54.2,53.9 53.4,52.2 50.2,52 51,53.7 52.6,53.8 54.2,57.1 55.8,57.2 54.2,53.9 		"/>
		<polygon class="st11" points="63.7,54.5 62.2,54.4 63,56 61.4,55.9 60.6,54.3 57.4,54.1 58.2,55.7 56.6,55.6 57.4,57.3 55.8,57.2 
			56.6,58.8 61.4,59.1 60.6,57.5 65.4,57.8 63.7,54.5 		"/>
		<polygon class="st11" points="80.5,57.2 82.1,57.3 81.3,55.7 79.7,55.5 80.5,57.2 		"/>
		<polygon class="st11" points="52.6,57 51.8,55.3 50.2,55.2 51,56.9 52.6,57 		"/>
		<polygon class="st11" points="79.7,58.8 80.5,60.4 82.1,60.5 82.9,62.2 84.5,62.3 82.9,59 81.3,58.9 80.5,57.2 78.9,57.1 
			79.7,58.8 		"/>
		<polygon class="st11" points="40.7,57.8 42.3,57.9 40.7,54.6 42.2,54.7 41.4,53 43,53.1 43.8,54.8 47,55 46.2,53.3 44.6,53.2 
			43.8,51.6 45.4,51.7 46.2,53.3 47.8,53.5 48.6,55.1 50.2,55.2 48.6,51.9 47,51.8 46.2,50.1 43,49.9 42.2,48.3 43.8,48.4 43,46.7 
			39.8,46.5 42.2,51.5 37.4,51.2 38.2,52.8 36.7,52.7 37.5,54.4 39.1,54.5 39.9,56.1 38.3,56 37.5,54.4 35.9,54.3 37.5,57.6 
			39.1,57.7 39.9,59.3 41.5,59.4 40.7,57.8 		"/>
		<polygon class="st11" points="63.8,60.9 63,59.3 61.4,59.1 62.2,60.8 63.8,60.9 		"/>
		<polygon class="st11" points="38.3,59.2 39.1,60.9 40.7,61 39.9,59.3 38.3,59.2 		"/>
		<polygon class="st11" points="42.3,61.1 43.9,61.2 43.1,59.5 41.5,59.4 42.3,61.1 		"/>
		<polygon class="st11" points="40.7,61 41.5,62.6 43.1,62.7 42.3,61.1 40.7,61 		"/>
		<polygon class="st11" points="45.5,61.3 43.9,61.2 44.7,62.9 43.1,62.7 44,64.4 47.1,64.6 48,66.3 46.4,66.2 47.2,67.8 50.4,68 
			47.9,63.1 46.3,63 45.5,61.3 		"/>
		<polygon class="st11" points="40.8,64.2 42.4,64.3 41.5,62.6 40,62.5 40.8,64.2 		"/>
		<polygon class="st11" points="49.5,63.2 50.3,64.8 51.9,64.9 51.1,63.3 49.5,63.2 		"/>
		<polygon class="st11" points="55.9,63.6 55.1,61.9 56.7,62 55,58.7 51.8,58.5 54.3,63.5 52.7,63.4 53.5,65 51.9,64.9 52.7,66.6 
			51.1,66.5 52,68.1 55.1,68.3 56,70 57.6,70.1 55.1,65.1 58.3,65.3 57.5,63.7 55.9,63.6 		"/>
		<polygon class="st11" points="43.2,66 41.6,65.8 42.4,67.5 44,67.6 43.2,66 		"/>
		<polygon class="st11" points="65.5,67.4 66.3,69.1 64.7,69 65.5,70.6 68.7,70.8 67.9,69.2 69.5,69.3 68.7,67.6 65.5,67.4 		"/>
		<path class="st11" d="M78.2,68.3L75.1,68l-0.8-1.7l-4.8-0.3l-2.4-5l1.6,0.1L67,57.9l-1.6-0.1l0.8,1.7l-1.6-0.1l1.6,3.3l-4.8-0.3
			l-0.8-1.7L59,60.6l0.8,1.7l-1.6-0.1l0.8,1.7l3.2,0.2l1.6,3.3l1.6,0.1l-0.8-1.7l3.2,0.2l0.8,1.7l3.2,0.2l1.6,3.3l1.6,0.1l3.3,6.6
			l6.4,0.4l2.4,5l3.2,0.2l-0.8-1.7L88,81.7l-3.3-6.6l3.2,0.2l-0.8-1.7l-1.6-0.1l-1.6-3.3l1.6,0.1l-0.8-1.7L83,68.6l-0.8-1.7l4.8,0.3
			l-1.6-3.3L79,63.5l1.6,3.3L79,66.7l0.8,1.7L78.2,68.3L78.2,68.3z M81.5,74.9l-3.2-0.2l-2.4-5l4.8,0.3l2.4,5L81.5,74.9L81.5,74.9z"
			/>
		<polygon class="st11" points="88.6,70.5 87.8,68.9 86.2,68.8 87.8,72.1 89.4,72.2 88.6,70.5 		"/>
		<polygon class="st11" points="70.3,70.9 71.1,72.6 72.7,72.7 71.9,71 70.3,70.9 		"/>
		<polygon class="st11" points="79.1,73.1 80.7,73.2 79.9,71.6 78.3,71.5 79.1,73.1 		"/>
		<polygon class="st11" points="87.8,72.1 86.2,72 87.1,73.6 88.7,73.7 87.8,72.1 		"/>
		<polygon class="st11" points="74.3,72.8 72.7,72.7 73.5,74.4 75.1,74.5 74.3,72.8 		"/>
		<polygon class="st11" points="91.1,75.5 90.2,73.8 88.7,73.7 89.5,75.4 91.1,75.5 		"/>
		<polygon class="st11" points="88.7,76.9 90.3,77.1 89.5,75.4 87.9,75.3 88.7,76.9 		"/>
		<polygon class="st11" points="75.9,76.1 74.3,76 73.5,74.4 71.9,74.2 74.4,79.2 69.6,78.9 70.4,80.5 75.2,80.9 76,82.5 77.6,82.6 
			75.2,77.7 76.8,77.8 75.9,76.1 		"/>
		<polygon class="st11" points="69.6,78.9 68.8,77.2 65.6,77 64.8,75.4 66.4,75.5 64.7,72.2 63.2,72.1 64,73.7 62.4,73.6 64.8,78.6 
			63.2,78.5 60.8,73.5 62.4,73.6 61.6,72 63.2,72.1 62.3,70.4 60.7,70.3 59.9,68.7 61.5,68.8 60.7,67.1 62.3,67.2 61.5,65.6 
			58.3,65.3 59.1,67 57.5,66.9 60,71.9 56.8,71.6 57.6,73.3 59.2,73.4 60,75.1 58.4,75 59.2,76.6 60.8,76.7 62.5,80 60.9,79.9 
			61.7,81.6 64.9,81.8 64,80.1 68.8,80.4 68,78.8 69.6,78.9 		"/>
		<polygon class="st11" points="91.9,80.4 93.5,80.5 91.9,77.2 90.3,77.1 91.9,80.4 		"/>
		<polygon class="st11" points="79.2,79.5 77.6,79.4 78.4,81.1 80,81.2 80.8,82.8 82.4,82.9 81.6,81.3 83.2,81.4 82.4,79.7 
			79.2,79.5 		"/>
		<polygon class="st11" points="91.1,81.9 92,83.6 93.5,83.7 91.9,80.4 90.3,80.3 91.1,81.9 		"/>
		<polygon class="st11" points="69.6,82.1 71.2,82.2 70.4,80.5 68.8,80.4 69.6,82.1 		"/>
		<path class="st11" d="M40.5,45l1.7,0.1l-5.7-11.6l-11.2-0.7L31,44.3L40.5,45L40.5,45z M27.8,34.6l7.8,0.5l4,8.1l-7.8-0.5
			L27.8,34.6L27.8,34.6z"/>
		<path class="st11" d="M69.8,35.7l-9.5-0.6L66,46.6l11.2,0.7l-5.7-11.6L69.8,35.7L69.8,35.7z M74.7,45.5L66.9,45l-4-8.1l7.8,0.5
			L74.7,45.5L74.7,45.5z"/>
		<path class="st11" d="M44.9,69.3l-1.7-0.1l5.7,11.6l11.2,0.7l-5.7-11.6L44.9,69.3L44.9,69.3z M57.5,79.6l-7.8-0.5l-4-8.1l7.8,0.5
			L57.5,79.6L57.5,79.6z"/>
		<polygon class="st11" points="32.5,41.2 37.3,41.6 34.9,36.6 30.1,36.3 32.5,41.2 		"/>
		<polygon class="st11" points="69.9,38.9 65.2,38.6 67.6,43.5 72.4,43.9 69.9,38.9 		"/>
		<polygon class="st11" points="52.8,73 48,72.7 50.5,77.6 55.3,78 52.8,73 		"/>
	</g>
	<g>
		<path class="st12" d="M89.8,97.7c2.2,0.1,3-1.6,1.9-3.8c-1.1-2.3-3.8-4.2-6-4.4l-21.1-1.4c-2.2-0.1-3,1.6-1.9,3.8
			c1.1,2.3,3.8,4.2,6,4.4L89.8,97.7z"/>
		<g>
			<path class="st10" d="M74.6,92.5c-0.3-0.1-0.6-0.2-0.8-0.4c-0.2-0.1-0.3-0.3-0.4-0.5c-0.1-0.2-0.1-0.4,0-0.5
				c0.1-0.1,0.3-0.2,0.5-0.2c0.2,0,0.4,0.1,0.5,0.1c0.2,0.1,0.3,0.2,0.5,0.3c0.1,0.1,0.2,0.3,0.3,0.4l-0.4,0
				c-0.1-0.2-0.2-0.3-0.3-0.4c-0.1-0.1-0.3-0.2-0.5-0.2c-0.2,0-0.3,0-0.3,0.1c-0.1,0.1-0.1,0.2,0,0.3c0.1,0.1,0.1,0.2,0.3,0.3
				c0.1,0.1,0.3,0.2,0.6,0.2c0.3,0.1,0.5,0.2,0.6,0.2c0.2,0.1,0.3,0.2,0.4,0.3c0.1,0.1,0.2,0.2,0.3,0.4c0.1,0.2,0.1,0.4,0,0.5
				c-0.1,0.1-0.3,0.2-0.6,0.2c-0.2,0-0.4-0.1-0.6-0.1c-0.2-0.1-0.4-0.2-0.5-0.3c-0.1-0.1-0.3-0.3-0.3-0.4l0.3,0
				c0.1,0.2,0.2,0.3,0.4,0.4c0.2,0.1,0.3,0.2,0.5,0.2c0.2,0,0.3,0,0.4-0.1c0.1-0.1,0.1-0.2,0-0.3c-0.1-0.1-0.2-0.2-0.3-0.3
				C75.1,92.7,74.9,92.6,74.6,92.5z"/>
			<path class="st10" d="M78.2,93.1c0.1,0.3,0.1,0.5,0,0.7c-0.1,0.1-0.3,0.2-0.6,0.2c-0.3,0-0.6-0.2-0.9-0.4s-0.5-0.6-0.7-1
				l-0.1-0.3c-0.1-0.3-0.2-0.5-0.2-0.7c0-0.2,0-0.3,0.2-0.4c0.1-0.1,0.3-0.1,0.5-0.1c0.3,0,0.5,0.1,0.8,0.3c0.2,0.2,0.5,0.4,0.6,0.7
				l-0.4,0c-0.1-0.2-0.3-0.4-0.4-0.5c-0.1-0.1-0.3-0.2-0.5-0.2c-0.2,0-0.4,0.1-0.4,0.2c0,0.2,0,0.4,0.2,0.7l0.1,0.3
				c0.1,0.3,0.3,0.5,0.5,0.7c0.2,0.2,0.4,0.3,0.6,0.3c0.2,0,0.3,0,0.4-0.1c0.1-0.1,0-0.2,0-0.5L78.2,93.1z"/>
			<path class="st10" d="M80.2,93.4l-1.1-0.1l0.1,0.7l-0.4,0l-0.3-2.7l0.3,0l2.4,2.8l-0.4,0L80.2,93.4z M79.1,93l0.9,0.1l-1.1-1.3
				L79.1,93z"/>
			<path class="st10" d="M83.5,94.3l-0.4,0l-2.4-2.2l1,2.1l-0.3,0l-1.4-2.7l0.3,0l2.4,2.2l-1-2.1l0.3,0L83.5,94.3z"/>
		</g>
	</g>
</g>
<g>
	<g>
		<image style="overflow:visible;" width="184" height="182" xlink:href="83DF5C49.png"  transform="matrix(1 0 0 1 59 8)">
		</image>
	</g>
	<path class="st13" d="M213.5,145.2c0.3-0.8,0.4-1.5,0.4-1.5c0-0.5,0.1-0.9-0.1-1.7c0-0.2-0.1-0.5-0.2-0.7c-0.1-0.2-0.2-0.6-0.3-0.8
		c0-0.1-0.1-0.2-0.2-0.2c0.1,0.1,0.2,0.1,0.2,0.2c-16-32.4-31.9-64.7-47.9-97.1c0-0.1-0.1-0.2-0.2-0.2c0.1,0.1,0.2,0.1,0.2,0.2
		c-0.8-1.7-2.2-2.9-3.2-3.5c-1-0.7-1.8-1-2.2-1.1c-0.6-0.2-0.8-0.3-1.4-0.4c-0.3-0.1-0.4-0.1-1-0.1c0,0,0,0,0,0l-5.4-0.3
		c-16-1-32.1-2-48.1-3c0.1,0,0.2,0,0.3,0.1c-0.1-0.1-0.2-0.1-0.3-0.1c-0.4,0-0.9,0-1.6,0.1c-0.2,0-0.8,0.2-1.4,0.5
		c-0.6,0.3-1.1,0.7-1.3,0.9c-0.6,0.6-0.9,0.9-1.3,1.4c-0.1,0.2-0.3,0.4-0.4,0.7l0,0l0,0l0,0l0,0c-1,1.5-1.1,2.8-1.2,3.3
		c0,0.5,0,1.1,0.1,1.4c0.2,0.7,0.3,1,0.5,1.6c11.2,22.7,22.3,45.3,33.5,68l4.8,9.7c3.2,6.5,6.4,12.9,9.6,19.4c0.9,1.8,2.4,3,3.2,3.5
		c1,0.7,1.8,1,2.2,1.1c0.6,0.2,0.8,0.3,1.4,0.4c0.3,0.1,0.4,0.1,1,0.1c0.5,0,0.5,0,0,0c17.8,1.1,35.7,2.2,53.5,3.4c0.4,0,0.4,0,0,0
		c1.1,0.1,2.1-0.1,3-0.6c1.4-0.7,2.1-1.8,2.5-2.3c0.1-0.2,0.3-0.4,0.4-0.7C212.9,146.4,213.2,145.9,213.5,145.2z"/>
	<path class="st14" d="M212.8,140c1.1,2.3,0,4.1-2.6,3.9c-17.8-1.1-35.7-2.2-53.5-3.4c-2.6-0.2-5.6-2.2-6.7-4.5
		c-16-32.4-31.9-64.7-47.9-97.1c-1.1-2.3,0-4.1,2.6-3.9c17.8,1.1,35.7,2.2,53.5,3.4c2.6,0.2,5.6,2.2,6.7,4.5
		C180.9,75.3,196.8,107.7,212.8,140z"/>
	<path class="st15" d="M211.2,139.9l-47.9-97.1c-0.8-1.5-2.8-2.9-4.5-3l-9.3-0.6c-0.8-0.1-1.2,0.5-0.8,1.3l0.1,0.3
		c0.8,1.5,0,2.7-1.7,2.6l-25.6-1.6c-1.7-0.1-3.7-1.4-4.5-3l-0.1-0.3c-0.4-0.8-1.4-1.4-2.2-1.5l-9.3-0.6c-1.7-0.1-2.5,1.1-1.7,2.6
		l47.9,97.1c0.8,1.5,2.8,2.9,4.5,3l53.5,3.4C211.2,142.7,212,141.5,211.2,139.9"/>
	<g>
		<path class="st13" d="M152.5,72.8l7.7,15.5c0.7,1.5,1.1,2.8,1,3.9c-0.1,1.1-0.6,1.9-1.4,2.4c-0.9,0.5-2.1,0.7-3.6,0.6
			c-2.3-0.2-4.5-0.9-6.5-2.3c-2-1.4-3.6-3.3-4.8-5.6l-7.7-15.7l1.8,0.1l7.6,15.4c0.9,1.9,2.2,3.4,3.8,4.6c1.6,1.1,3.3,1.7,5.1,1.9
			c1.8,0.1,3-0.3,3.5-1.3c0.5-1,0.3-2.4-0.6-4.3l-7.6-15.4L152.5,72.8z"/>
		<path class="st13" d="M171.2,96l-1.9-0.1l-11.2-22.7l1.9,0.1L171.2,96z"/>
	</g>
	<path class="st16" d="M205.8,134.2c-1.2-2.5-4.5-4.6-7.2-4.8l-44.4-2.8c-2.8-0.2-4,1.7-2.8,4.2c1.2,2.5,4.5,4.6,7.2,4.8l44.4,2.8
		C205.8,138.5,207,136.6,205.8,134.2"/>
	<path class="st16" d="M165.9,52.9c0-0.1-0.2-0.2-0.3-0.2l-54.3-3.4c-0.1,0-0.2,0.1-0.1,0.2c0,0.1,0.2,0.2,0.3,0.2l54.3,3.4
		C165.9,53.1,165.9,53,165.9,52.9"/>
	<path class="st16" d="M114.5,44.4c0-0.1-0.2-0.2-0.3-0.2l-3.4-0.2c-0.1,0-0.2,0.1-0.1,0.2c0,0.1,0.2,0.2,0.3,0.2l3.4,0.2
		C114.5,44.6,114.6,44.5,114.5,44.4"/>
	<path class="st16" d="M115.1,45.6c0-0.1-0.2-0.2-0.3-0.2l-3.4-0.2c-0.1,0-0.2,0.1-0.1,0.2c0,0.1,0.2,0.2,0.3,0.2l3.4,0.2
		C115.1,45.8,115.1,45.7,115.1,45.6"/>
	<path class="st16" d="M115.7,46.8c0-0.1-0.2-0.2-0.3-0.2l-3.4-0.2c-0.1,0-0.2,0.1-0.1,0.2c0,0.1,0.2,0.2,0.3,0.2l3.4,0.2
		C115.7,47,115.7,46.9,115.7,46.8"/>
	<path class="st16" d="M138.8,40.2c-0.1-0.3-0.5-0.5-0.8-0.5L127.4,39c-0.3,0-0.4,0.2-0.3,0.5c0.1,0.3,0.5,0.5,0.8,0.5l10.6,0.7
		C138.8,40.7,138.9,40.5,138.8,40.2"/>
</g>
<g>
	<g>
		<image style="overflow:visible;" width="185" height="182" xlink:href="83DF5C48.png"  transform="matrix(1 0 0 1 10 81)">
		</image>
	</g>
	<path class="st12" d="M164.9,217.9c0.3-0.8,0.4-1.5,0.4-1.5c0-0.5,0.1-0.9-0.1-1.7c0-0.2-0.1-0.5-0.2-0.7c-0.1-0.2-0.2-0.6-0.3-0.8
		c0-0.1-0.1-0.2-0.2-0.2c0.1,0.1,0.2,0.1,0.2,0.2c-16-32.4-31.9-64.7-47.9-97.1c0-0.1-0.1-0.2-0.2-0.2c0.1,0.1,0.2,0.1,0.2,0.2
		c-0.8-1.7-2.2-2.9-3.2-3.5c-1-0.7-1.8-1-2.2-1.1c-0.6-0.2-0.8-0.3-1.4-0.4c-0.3-0.1-0.4-0.1-1-0.1c0,0,0,0,0,0l-5.4-0.3
		c-16.1-1-32.1-2-48.1-3c0.1,0,0.2,0,0.3,0.1c-0.1-0.1-0.2-0.1-0.3-0.1c-0.4,0-0.9,0-1.6,0.1c-0.2,0-0.8,0.2-1.4,0.5
		c-0.6,0.3-1.1,0.7-1.3,0.9c-0.6,0.6-0.9,0.9-1.3,1.4c-0.1,0.2-0.3,0.4-0.4,0.7l0,0l0,0l0,0l0,0c-1,1.5-1.1,2.8-1.2,3.3
		c0,0.5,0,1.1,0.1,1.4c0.2,0.7,0.3,1,0.5,1.6c11.2,22.7,22.3,45.3,33.5,68l4.8,9.7c3.2,6.5,6.4,12.9,9.6,19.4c0.9,1.8,2.4,3,3.2,3.5
		c1,0.7,1.8,1,2.2,1.1c0.6,0.2,0.8,0.3,1.4,0.4c0.3,0.1,0.4,0.1,1,0.1c0.5,0,0.5,0,0,0c17.8,1.1,35.7,2.2,53.5,3.4c0.4,0,0.4,0,0,0
		c1.1,0.1,2.1-0.1,3-0.6c1.4-0.7,2.1-1.8,2.5-2.3c0.1-0.2,0.3-0.4,0.4-0.7C164.3,219.1,164.6,218.6,164.9,217.9z"/>
	<path class="st17" d="M164.2,212.8c1.1,2.3,0,4.1-2.6,3.9c-17.8-1.1-35.7-2.2-53.5-3.4c-2.6-0.2-5.6-2.2-6.7-4.5
		c-16-32.4-31.9-64.7-47.9-97.1c-1.1-2.3,0-4.1,2.6-3.9c17.8,1.1,35.7,2.2,53.5,3.4c2.6,0.2,5.6,2.2,6.7,4.5
		C132.3,148,148.2,180.4,164.2,212.8z"/>
	<path class="st18" d="M162.6,212.7l-47.9-97.1c-0.8-1.5-2.8-2.9-4.5-3l-9.3-0.6c-0.8-0.1-1.2,0.5-0.8,1.3l0.1,0.3
		c0.8,1.5,0,2.7-1.7,2.6l-25.6-1.6c-1.7-0.1-3.7-1.4-4.5-3l-0.1-0.3c-0.4-0.8-1.4-1.4-2.2-1.5l-9.3-0.6c-1.7-0.1-2.5,1.1-1.7,2.6
		l47.9,97.1c0.8,1.5,2.8,2.9,4.5,3l53.5,3.4C162.6,215.4,163.4,214.2,162.6,212.7"/>
	<g>
		<path class="st12" d="M101,147.3l7.7,15.5c0.7,1.5,1.1,2.8,1,3.9c-0.1,1.1-0.6,1.9-1.4,2.4c-0.9,0.5-2.1,0.7-3.6,0.6
			c-2.3-0.2-4.5-0.9-6.5-2.3c-2-1.4-3.6-3.3-4.8-5.6l-7.7-15.7l1.8,0.1l7.6,15.4c0.9,1.9,2.2,3.4,3.8,4.6c1.6,1.1,3.3,1.7,5.1,1.9
			c1.8,0.1,3-0.3,3.5-1.3c0.5-1,0.3-2.4-0.6-4.3l-7.6-15.4L101,147.3z"/>
		<path class="st12" d="M117.6,157.7l1.4-9.2l2.2,0.1l-1.7,10.7l13.2,12l-2.2-0.1l-11.3-10.4l-1.5,9.5l-2.2-0.1l1.8-11l-12.8-11.7
			l2.2,0.1L117.6,157.7z"/>
	</g>
	<path class="st12" d="M157.2,206.9c-1.2-2.5-4.5-4.6-7.2-4.8l-44.4-2.8c-2.8-0.2-4,1.7-2.8,4.2c1.2,2.5,4.5,4.6,7.2,4.8l44.4,2.8
		C157.2,211.2,158.4,209.4,157.2,206.9"/>
	<path class="st12" d="M117.3,125.6c0-0.1-0.2-0.2-0.3-0.2L62.7,122c-0.1,0-0.2,0.1-0.1,0.2c0,0.1,0.2,0.2,0.3,0.2l54.3,3.4
		C117.3,125.8,117.3,125.7,117.3,125.6"/>
	<path class="st12" d="M65.9,117.2c0-0.1-0.2-0.2-0.3-0.2l-3.4-0.2c-0.1,0-0.2,0.1-0.1,0.2c0,0.1,0.2,0.2,0.3,0.2l3.4,0.2
		C65.9,117.3,65.9,117.3,65.9,117.2"/>
	<path class="st12" d="M66.5,118.3c0-0.1-0.2-0.2-0.3-0.2l-3.4-0.2c-0.1,0-0.2,0.1-0.1,0.2c0,0.1,0.2,0.2,0.3,0.2l3.4,0.2
		C66.5,118.5,66.5,118.4,66.5,118.3"/>
	<path class="st12" d="M66.6,119.3c0-0.1-0.1-0.1-0.2-0.1L64,119c-0.1,0-0.1,0-0.1,0.1c0,0.1,0.1,0.1,0.2,0.1l2.5,0.2
		C66.6,119.4,66.7,119.4,66.6,119.3"/>
	<path class="st12" d="M90.2,112.9c-0.1-0.3-0.5-0.5-0.8-0.5l-10.6-0.7c-0.3,0-0.4,0.2-0.3,0.5c0.1,0.3,0.5,0.5,0.8,0.5l10.6,0.7
		C90.2,113.4,90.3,113.2,90.2,112.9"/>
</g>
<g>
	<path class="st19" d="M170.2,173.3L170.2,173.3l1.3-2l-2.5-1.9l-4.7-9.4c-0.7-1.3-2.2-2.5-3.5-2.6l-8.6-0.6l-2.5-1.8l-1.4,2.1l0,0
		c-0.3,0.4-0.3,1.1,0,1.8l5.7,11.6c0.7,1.3,2.2,2.5,3.5,2.6l11.2,0.7C169.6,173.9,170,173.7,170.2,173.3z"/>
	
		<linearGradient id="SVGID_10_" gradientUnits="userSpaceOnUse" x1="161.0475" y1="143.5001" x2="188.1907" y2="143.5001" gradientTransform="matrix(0.8314 0.5557 -0.5557 0.8314 95.2744 -53.2294)">
		<stop  offset="0" style="stop-color:#DAE669"/>
		<stop  offset="1" style="stop-color:#73CF51"/>
	</linearGradient>
	<path class="st20" d="M171.5,169.5c0.7,1.3,0.1,2.3-1.1,2.3l-11.2-0.7c-1.3-0.1-2.9-1.2-3.5-2.6l-5.7-11.6
		c-0.7-1.3-0.1-2.3,1.1-2.3l11.2,0.7c1.3,0.1,2.9,1.2,3.5,2.6L171.5,169.5z"/>
	<g>
		<g>
			<path class="st11" d="M165.7,168.3l-5.1-0.3c-0.7,0-1.6-0.7-2-1.4l-3.6-7.4c-0.4-0.7-0.1-1.3,0.6-1.3l5.1,0.3
				c0.7,0,1.6,0.7,2,1.4l3.6,7.4C166.7,167.8,166.4,168.4,165.7,168.3z M156,158.4c-0.4,0-0.6,0.3-0.4,0.8l3.6,7.4
				c0.2,0.4,0.7,0.8,1.2,0.9l5.1,0.3c0.4,0,0.6-0.3,0.4-0.8l-3.6-7.4c-0.2-0.4-0.7-0.8-1.2-0.9L156,158.4z"/>
		</g>
		<g>
			<path class="st11" d="M162.7,163.5l-3.6-0.2c-0.1,0-0.3-0.1-0.4-0.3c-0.1-0.1,0-0.3,0.1-0.3l3.6,0.2c0.1,0,0.3,0.1,0.4,0.3
				C162.9,163.4,162.8,163.5,162.7,163.5z"/>
		</g>
		<g>
			<path class="st11" d="M161.8,165.4c-0.1,0-0.3-0.1-0.4-0.3l-2-4c-0.1-0.1,0-0.3,0.1-0.3c0.1,0,0.3,0.1,0.4,0.3l2,4
				C162,165.3,162,165.4,161.8,165.4z"/>
		</g>
		<g>
			<path class="st11" d="M163.7,165.7l-3.6-0.2c-0.1,0-0.3-0.1-0.4-0.3l-2.2-4.4c-0.1-0.1,0-0.3,0.1-0.3l3.6,0.2
				c0.1,0,0.3,0.1,0.4,0.3l2.2,4.4C163.9,165.6,163.9,165.7,163.7,165.7z M160.1,164.9l3.1,0.2l-1.9-3.9l-3.1-0.2L160.1,164.9z"/>
		</g>
	</g>
</g>
<g>
	<path class="st13" d="M196.3,175.5L196.3,175.5l1.3-2l-2.5-1.9l-4.7-9.4c-0.7-1.3-2.2-2.5-3.5-2.6l-8.6-0.6l-2.5-1.8l-1.4,2.1l0,0
		c-0.3,0.4-0.3,1.1,0,1.8l5.7,11.6c0.7,1.3,2.2,2.5,3.5,2.6l11.2,0.7C195.6,176.1,196.1,175.9,196.3,175.5z"/>
	<path class="st15" d="M197.6,171.7c0.7,1.3,0.1,2.3-1.1,2.3l-11.2-0.7c-1.3-0.1-2.9-1.2-3.5-2.6L176,159c-0.7-1.3-0.1-2.3,1.1-2.3
		l11.2,0.7c1.3,0.1,2.9,1.2,3.5,2.6L197.6,171.7z"/>
	<g>
		<g>
			<path class="st11" d="M191.8,170.6l-5.1-0.3c-0.7,0-1.6-0.7-2-1.4l-3.6-7.4c-0.4-0.7-0.1-1.3,0.6-1.3l5.1,0.3
				c0.7,0,1.6,0.7,2,1.4l3.6,7.4C192.8,170,192.5,170.6,191.8,170.6z M182,160.7c-0.4,0-0.6,0.3-0.4,0.8l3.6,7.4
				c0.2,0.4,0.7,0.8,1.2,0.9l5.1,0.3c0.4,0,0.6-0.3,0.4-0.8l-3.6-7.4c-0.2-0.4-0.7-0.8-1.2-0.9L182,160.7z"/>
		</g>
		<g>
			<g>
				<path class="st11" d="M188.9,167.1C188.9,167.1,188.9,167.1,188.9,167.1l-2.6-0.2c-0.1,0-0.2-0.1-0.3-0.1
					c-0.1-0.1-0.1-0.2-0.1-0.3l0.1-2.3c0-0.2,0.3-0.1,0.4,0l2.4,2.4c0.1,0.1,0.1,0.1,0.2,0.2C189.1,167,189,167.1,188.9,167.1z
					 M186.5,166.4l1.7,0.1l-1.6-1.6L186.5,166.4z"/>
			</g>
			<g>
				<path class="st11" d="M186.4,164.7c-0.1,0-0.2,0-0.2-0.1c-0.3-0.2-0.9-0.7-1-1c-0.2-0.4,0-0.7,0.4-0.7c0.4,0,0.9,0.4,1.1,0.8
					c0.2,0.3,0,0.8-0.1,0.9C186.5,164.6,186.5,164.7,186.4,164.7z M185.8,163.4c-0.1,0-0.2,0.1-0.1,0.2c0,0.1,0.2,0.2,0.4,0.4
					c0-0.2,0.1-0.3,0-0.4C186.1,163.5,185.9,163.4,185.8,163.4z"/>
			</g>
			<g>
				<path class="st11" d="M186,167.8c-0.3,0-0.6-0.2-0.8-0.4c-0.2-0.2-0.3-0.4-0.4-0.6c0-0.2,0-0.3,0.1-0.4c0.1-0.1,0.2-0.1,0.4-0.1
					c0.3,0,0.7,0.1,0.7,0.1c0.1,0,0.2,0.1,0.2,0.1c0.1,0.1,0.1,0.1,0.1,0.2c0,0.2,0.1,0.8-0.1,0.9
					C186.3,167.7,186.2,167.8,186,167.8z M185.6,166.8c-0.1,0-0.1,0-0.1,0c0,0,0,0.1,0,0.1c0,0.1,0.1,0.1,0.1,0.2
					c0.1,0.1,0.3,0.2,0.3,0.1c0,0,0-0.2,0-0.4C185.8,166.8,185.7,166.8,185.6,166.8z"/>
			</g>
			<g>
				<path class="st11" d="M190,168C190,168,190,168,190,168c-0.1,0-0.3-0.1-0.4-0.1c-0.4-0.2-0.8-0.8-1-1c-0.1-0.1-0.1-0.1-0.1-0.2
					c0-0.1,0-0.1,0.1-0.1c0,0,0.3-0.1,0.6,0c0.2,0,0.3,0.1,0.5,0.1c0.2,0.1,0.4,0.3,0.6,0.5c0.1,0.2,0.2,0.4,0.2,0.6
					C190.4,167.9,190.2,168,190,168z M189.2,167c0.2,0.2,0.3,0.4,0.4,0.4c0.1,0.1,0.2,0,0.3-0.1c0,0,0-0.1-0.1-0.2
					c0-0.1-0.1-0.1-0.2-0.1l0,0c0,0,0,0-0.2,0C189.4,167,189.3,167,189.2,167z"/>
			</g>
		</g>
	</g>
</g>
<g>
	<path class="st21" d="M221.8,177L221.8,177l1.3-2l-2.5-1.9l-4.7-9.4c-0.7-1.3-2.2-2.5-3.5-2.6l-8.6-0.6l-2.5-1.8l-1.4,2.1l0,0
		c-0.3,0.4-0.3,1.1,0,1.8l5.7,11.6c0.7,1.3,2.2,2.5,3.5,2.6l11.2,0.7C221.1,177.6,221.5,177.3,221.8,177z"/>
	<path class="st22" d="M223,173.1c0.7,1.3,0.1,2.3-1.1,2.3l-11.2-0.7c-1.3-0.1-2.9-1.2-3.5-2.6l-5.7-11.6c-0.7-1.3-0.1-2.3,1.1-2.3
		l11.2,0.7c1.3,0.1,2.9,1.2,3.5,2.6L223,173.1z"/>
	<g>
		<path class="st23" d="M216.8,168.7c0.4,0.8,0.1,1.4-0.7,1.3l-4.7-0.3c-0.8-0.1-1.7-0.7-2.1-1.5l-1.7-3.4c-0.4-0.8-0.1-1.4,0.7-1.3
			l4.7,0.3c0.8,0,1.7,0.7,2.1,1.5L216.8,168.7z"/>
		<g>
			<line class="st23" x1="209.7" y1="164.8" x2="208.7" y2="162.7"/>
			<line class="st23" x1="212.9" y1="165" x2="211.8" y2="162.9"/>
		</g>
		<line class="st23" x1="208.1" y1="165.7" x2="215.5" y2="166.2"/>
	</g>
</g>
<g>
	<path class="st12" d="M118.4,102.4L118.4,102.4l1.3-2l-2.5-1.9l-4.7-9.4c-0.7-1.3-2.2-2.5-3.5-2.6l-8.6-0.6L98,84.1l-1.4,2.1l0,0
		c-0.3,0.4-0.3,1.1,0,1.8l5.7,11.6c0.7,1.3,2.2,2.5,3.5,2.6l11.2,0.7C117.7,103,118.1,102.8,118.4,102.4z"/>
	<path class="st18" d="M119.6,98.6c0.7,1.3,0.1,2.3-1.1,2.3l-11.2-0.7c-1.3-0.1-2.9-1.2-3.5-2.6L98,85.9c-0.7-1.3-0.1-2.3,1.1-2.3
		l11.2,0.7c1.3,0.1,2.9,1.2,3.5,2.6L119.6,98.6z"/>
	<g>
		<g>
			<path class="st10" d="M113.8,97.4l-5.1-0.3c-0.7,0-1.6-0.7-2-1.4l-3.6-7.4c-0.4-0.7-0.1-1.3,0.6-1.3l5.1,0.3c0.7,0,1.6,0.7,2,1.4
				l3.6,7.4C114.8,96.9,114.6,97.5,113.8,97.4z M104.1,87.5c-0.4,0-0.6,0.3-0.4,0.8l3.6,7.4c0.2,0.4,0.7,0.8,1.2,0.9l5.1,0.3
				c0.4,0,0.6-0.3,0.4-0.8l-3.6-7.4c-0.2-0.4-0.7-0.8-1.2-0.9L104.1,87.5z"/>
		</g>
		<g>
			<g>
				<path class="st10" d="M109.7,90.4l-3.6-0.2c-0.1,0-0.3-0.1-0.4-0.3c-0.1-0.1,0-0.3,0.1-0.3l3.6,0.2c0.1,0,0.3,0.1,0.4,0.3
					C109.9,90.3,109.8,90.4,109.7,90.4z"/>
			</g>
			<g>
				<path class="st10" d="M110.8,92.6l-3.6-0.2c-0.1,0-0.3-0.1-0.4-0.3c-0.1-0.1,0-0.3,0.1-0.3l3.6,0.2c0.1,0,0.3,0.1,0.4,0.3
					C111,92.5,110.9,92.6,110.8,92.6z"/>
			</g>
			<g>
				<path class="st10" d="M111.9,94.8l-3.6-0.2c-0.1,0-0.3-0.1-0.4-0.3c-0.1-0.1,0-0.3,0.1-0.3l3.6,0.2c0.1,0,0.3,0.1,0.4,0.3
					C112.1,94.7,112,94.8,111.9,94.8z"/>
			</g>
		</g>
	</g>
</g>
<g>
	<path class="st10" d="M32.4,113.6c3.8,0.3,8.5,3.7,10.4,7.6l45.2,91.6c2,4,0.4,7-3.4,6.7l-6.4-0.4c-3.8-0.2-8.5-3.7-10.4-7.6
		l-45.2-91.6c-2-4-0.4-7,3.4-6.7L32.4,113.6z"/>
	<g>
		<g>
			<path class="st23" d="M39.6,128.5c0.3,0.6,0.1,1.1-0.5,1.1l-3.8-0.3c-0.6,0-1.4-0.6-1.7-1.2l-1.4-2.8c-0.3-0.6-0.1-1.1,0.6-1.1
				l3.8,0.3c0.6,0,1.4,0.6,1.7,1.2L39.6,128.5z"/>
			<g>
				<line class="st23" x1="33.8" y1="125.2" x2="33" y2="123.5"/>
				<line class="st23" x1="36.4" y1="125.4" x2="35.5" y2="123.7"/>
			</g>
			<line class="st23" x1="32.5" y1="126" x2="38.6" y2="126.4"/>
		</g>
		<g>
			<path class="st11" d="M43.3,145c-0.3-0.6,0-0.8,0.6-0.5l2.8,1.4c0.6,0.3,0.8,0.8,0.5,1l-1.5,1.1c-0.3,0.2-0.8,0-1.1-0.6L43.3,145
				z"/>
		</g>
		<g>
			<g>
				<polyline class="st23" points="57.1,165 56.1,165.3 55.5,166.8 54,166.2 53.6,167.9 				"/>
				<polyline class="st23" points="57.1,165.7 57.1,165 56.1,164.5 				"/>
			</g>
		</g>
		<g>
			<g>
				<path class="st11" d="M67.9,187.7c-0.2-0.3-0.9-0.8-1.1-1.1c-0.1-0.1-0.6-1.3-0.6-1.3c-0.4-0.9-1.5-1.7-2.4-1.8
					c-0.9-0.1-1.2,0.6-0.8,1.5c0,0,0.6,1.2,0.6,1.3c0.2,0.3-0.2,0.7-0.1,1L67.9,187.7z"/>
				<path class="st11" d="M66.5,187.6c0.1,0.1,0.2,0.2,0.2,0.3c0.2,0.5,0.1,0.8-0.4,0.8c-0.4,0-1-0.4-1.2-0.9
					c-0.1-0.1-0.1-0.2-0.1-0.3"/>
			</g>
		</g>
		<g>
			<g>
				<path class="st11" d="M75.4,205c0.3,0.6,0.1,1.1-0.5,1.1c-0.6,0-1.4-0.6-1.7-1.2c-0.3-0.6-0.1-1.1,0.5-1.1
					C74.4,203.8,75.1,204.3,75.4,205z"/>
				<path class="st11" d="M73.9,208.1c-0.6-1.2-0.1-2.1,1-2c1.2,0.1,2.6,1.1,3.2,2.3"/>
			</g>
		</g>
	</g>
</g>
<g>
	<path class="st10" d="M243.9,216.4c1.9,3.9,0.4,6.8-3.3,6.5l-56.7-3.7c-3.7-0.2-8.3-3.6-10.2-7.4l-12.2-24.8
		c-1.9-3.9-0.4-6.8,3.3-6.5l56.7,3.7c3.7,0.2,8.3,3.6,10.2,7.4L243.9,216.4z"/>
	<g>
		<g>
			<g>
				<path class="st24" d="M168.3,189.1l-0.6-1.3l0.2,0l0.7,0.7c0.2,0.2,0.3,0.3,0.4,0.4l0,0c-0.1-0.2-0.2-0.3-0.3-0.5l-0.3-0.5
					l0.2,0l0.6,1.3l-0.2,0l-0.7-0.7c-0.2-0.2-0.3-0.3-0.4-0.4l0,0c0.1,0.2,0.2,0.3,0.3,0.5l0.3,0.6L168.3,189.1z"/>
				<path class="st24" d="M170.1,189c0,0.1,0.1,0.2,0.1,0.3l-0.1,0L170.1,189L170.1,189c-0.1,0.2-0.2,0.3-0.3,0.2
					c-0.1,0-0.4-0.1-0.5-0.4l-0.3-0.5l0.2,0l0.3,0.5c0.1,0.2,0.2,0.3,0.3,0.3c0.1,0,0.1-0.1,0.1-0.1c0,0,0-0.1,0-0.1l-0.3-0.6l0.2,0
					L170.1,189z"/>
				<path class="st24" d="M170.2,188.6c0-0.1-0.1-0.2-0.1-0.3l0.1,0L170.2,188.6L170.2,188.6c0.1-0.2,0.1-0.3,0.3-0.2
					c0.1,0,0.3,0.1,0.3,0.2l0,0c0-0.1,0-0.1,0-0.1c0,0,0.1-0.1,0.2-0.1c0.1,0,0.3,0.1,0.5,0.4l0.3,0.5l-0.2,0l-0.3-0.5
					c-0.1-0.2-0.2-0.3-0.3-0.3c-0.1,0-0.1,0.1-0.1,0.1c0,0,0,0.1,0,0.1l0.3,0.6l-0.2,0l-0.3-0.6c-0.1-0.1-0.2-0.3-0.3-0.3
					c-0.1,0-0.1,0.1-0.1,0.2c0,0,0,0.1,0,0.1l0.3,0.6l-0.2,0L170.2,188.6z"/>
				<path class="st24" d="M172,189.3c0-0.1-0.1-0.2-0.1-0.2l-0.6-1.1l0.2,0l0.3,0.6l0,0c0-0.1,0.1-0.2,0.2-0.2
					c0.2,0,0.5,0.2,0.6,0.5c0.2,0.3,0,0.5-0.2,0.5c-0.1,0-0.3-0.1-0.4-0.2l0,0l0.1,0.2L172,189.3z M172,189C172,189,172,189,172,189
					c0.1,0.2,0.3,0.3,0.4,0.3c0.2,0,0.2-0.1,0.1-0.3c-0.1-0.2-0.3-0.4-0.4-0.4c-0.1,0-0.2,0.1-0.1,0.2c0,0,0,0,0,0.1L172,189z"/>
				<path class="st24" d="M173,189c0.1,0.2,0.3,0.3,0.5,0.3c0.1,0,0.2,0,0.2,0l0.1,0.1c0,0-0.1,0-0.3,0c-0.3,0-0.5-0.2-0.7-0.5
					c-0.1-0.3-0.1-0.5,0.2-0.5c0.3,0,0.5,0.3,0.6,0.5c0,0,0,0.1,0,0.1L173,189z M173.4,188.9c-0.1-0.1-0.2-0.3-0.4-0.3
					c-0.2,0-0.2,0.1-0.1,0.3L173.4,188.9z"/>
				<path class="st24" d="M173.7,188.8c-0.1-0.1-0.1-0.2-0.2-0.3l0.1,0L173.7,188.8L173.7,188.8c0.1-0.2,0.1-0.3,0.2-0.3
					c0,0,0,0,0,0l0.1,0.2c0,0,0,0-0.1,0c-0.1,0-0.2,0.1-0.1,0.2c0,0,0,0,0,0.1l0.2,0.5l-0.2,0L173.7,188.8z"/>
				<path class="st24" d="M175.6,189.1c0.2,0.3,0,0.5-0.2,0.5c-0.2,0-0.5-0.2-0.7-0.5c-0.2-0.3,0-0.5,0.2-0.5
					C175.2,188.6,175.5,188.8,175.6,189.1z M174.9,189.1c0.1,0.2,0.3,0.4,0.5,0.4c0.2,0,0.2-0.1,0.1-0.3c-0.1-0.2-0.3-0.4-0.4-0.4
					C174.8,188.7,174.8,188.9,174.9,189.1z"/>
				<path class="st24" d="M176.1,189.6l-0.4-0.8l-0.1,0l-0.1-0.1l0.1,0l0,0c-0.1-0.1-0.1-0.2-0.1-0.3c0-0.1,0.1-0.1,0.2-0.1
					c0.1,0,0.1,0,0.2,0l0,0.1c0,0-0.1,0-0.1,0c-0.1,0-0.1,0.1,0,0.3l0,0l0.2,0l0.1,0.1l-0.2,0l0.4,0.8L176.1,189.6z"/>
				<path class="st24" d="M176.6,188.5l0.1,0.3l0.2,0l0.1,0.1l-0.2,0l0.2,0.5c0.1,0.1,0.1,0.2,0.2,0.2c0,0,0.1,0,0.1,0l0.1,0.1
					c0,0-0.1,0-0.1,0c-0.1,0-0.2,0-0.2-0.1c-0.1-0.1-0.1-0.1-0.2-0.2l-0.3-0.5l-0.1,0l-0.1-0.1l0.1,0l-0.1-0.2L176.6,188.5z"/>
				<path class="st24" d="M177.3,189.1c-0.1-0.1-0.1-0.2-0.2-0.3l0.1,0L177.3,189.1L177.3,189.1c0.1-0.2,0.1-0.3,0.2-0.3
					c0,0,0,0,0,0l0.1,0.2c0,0,0,0-0.1,0c-0.1,0-0.2,0.1-0.1,0.2c0,0,0,0,0,0.1l0.2,0.5l-0.2,0L177.3,189.1z"/>
				<path class="st24" d="M178.7,189.8l-0.1-0.1l0,0c0,0.1-0.1,0.1-0.2,0.1c-0.2,0-0.3-0.2-0.4-0.3c-0.1-0.2,0-0.3,0.4-0.3l0,0
					c0-0.1-0.1-0.2-0.3-0.2c-0.1,0-0.2,0-0.2,0.1l-0.1-0.1c0,0,0.1-0.1,0.3-0.1c0.3,0,0.4,0.2,0.5,0.4l0.2,0.3
					c0,0.1,0.1,0.2,0.1,0.2L178.7,189.8z M178.4,189.3c-0.2,0-0.4,0-0.3,0.2c0.1,0.1,0.2,0.2,0.2,0.2c0.1,0,0.2-0.1,0.1-0.1
					c0,0,0,0,0-0.1L178.4,189.3z"/>
				<path class="st24" d="M178.8,189.1c0-0.1-0.1-0.2-0.1-0.3l0.1,0L178.8,189.1l0.1-0.1c0-0.1,0.1-0.2,0.2-0.2
					c0.1,0,0.4,0.1,0.5,0.4l0.3,0.6l-0.2,0l-0.3-0.5c-0.1-0.2-0.2-0.3-0.3-0.3c-0.1,0-0.2,0.1-0.1,0.2c0,0,0,0,0,0.1l0.3,0.6l-0.2,0
					L178.8,189.1z"/>
				<path class="st24" d="M180,189.7c0.1,0,0.2,0.1,0.2,0.1c0.1,0,0.1-0.1,0.1-0.1c0-0.1-0.1-0.1-0.3-0.2c-0.2-0.1-0.3-0.2-0.4-0.3
					c-0.1-0.2,0-0.3,0.2-0.3c0.1,0,0.2,0,0.2,0.1l0,0.1c0,0-0.1-0.1-0.2-0.1c-0.1,0-0.1,0-0.1,0.1c0,0.1,0.1,0.1,0.2,0.2
					c0.2,0.1,0.3,0.2,0.4,0.3c0.1,0.2,0,0.3-0.2,0.3c-0.1,0-0.2,0-0.3-0.1L180,189.7z"/>
				<path class="st24" d="M180.9,189.9l-0.4-0.8l-0.1,0l-0.1-0.1l0.1,0l0,0c-0.1-0.1-0.1-0.2-0.1-0.3c0-0.1,0.1-0.1,0.2-0.1
					c0.1,0,0.1,0,0.2,0l0,0.1c0,0-0.1,0-0.1,0c-0.1,0-0.1,0.1,0,0.3l0,0.1l0.2,0l0.1,0.1l-0.2,0l0.4,0.8L180.9,189.9z"/>
				<path class="st24" d="M181.3,189.5c0.1,0.2,0.3,0.3,0.5,0.3c0.1,0,0.2,0,0.2,0l0.1,0.1c0,0-0.1,0-0.3,0c-0.3,0-0.5-0.2-0.7-0.5
					c-0.1-0.3-0.1-0.5,0.2-0.5c0.3,0,0.5,0.3,0.6,0.5c0,0,0,0.1,0,0.1L181.3,189.5z M181.7,189.4c-0.1-0.1-0.2-0.3-0.4-0.3
					c-0.2,0-0.2,0.1-0.1,0.3L181.7,189.4z"/>
				<path class="st24" d="M182,189.4c-0.1-0.1-0.1-0.2-0.2-0.3l0.1,0L182,189.4L182,189.4c0.1-0.2,0.1-0.3,0.2-0.3c0,0,0,0,0,0
					l0.1,0.2c0,0,0,0-0.1,0c-0.1,0-0.2,0.1-0.1,0.2c0,0,0,0,0,0.1l0.2,0.5l-0.2,0L182,189.4z"/>
				<path class="st24" d="M182.8,189.9c0.1,0,0.2,0.1,0.2,0.1c0.1,0,0.1,0,0.1-0.1c0-0.1-0.1-0.1-0.3-0.2c-0.2-0.1-0.3-0.2-0.4-0.3
					c-0.1-0.2,0-0.3,0.2-0.3c0.1,0,0.2,0,0.3,0.1l0,0.1c0,0-0.1-0.1-0.2-0.1c-0.1,0-0.1,0-0.1,0.1c0,0.1,0.1,0.1,0.2,0.2
					c0.2,0.1,0.3,0.2,0.4,0.3c0.1,0.2,0,0.3-0.2,0.3c-0.1,0-0.2,0-0.3-0.1L182.8,189.9z"/>
			</g>
		</g>
		<g>
			<g>
				<path class="st11" d="M170.7,193.7l-0.7-1.9l2.1,0.1l0.3,0.6l-1.5-0.1l0.3,0.8c0.1-0.1,0.3-0.1,0.5-0.1c0.3,0,0.7,0.2,1,0.4
					c0.3,0.2,0.6,0.6,0.8,1c0.1,0.2,0.2,0.5,0.2,0.7c0,0.2-0.1,0.3-0.2,0.4c-0.1,0.1-0.3,0.1-0.6,0.1c-0.2,0-0.5-0.1-0.7-0.2
					c-0.2-0.1-0.5-0.2-0.6-0.4c-0.2-0.2-0.3-0.4-0.5-0.6l0.7,0c0.1,0.2,0.2,0.3,0.3,0.4c0.1,0.1,0.3,0.1,0.4,0.2
					c0.2,0,0.3,0,0.3-0.2c0-0.1,0-0.3-0.1-0.5c-0.1-0.2-0.2-0.4-0.4-0.5c-0.2-0.1-0.3-0.2-0.5-0.2c-0.2,0-0.3,0-0.4,0.1l0,0.1
					L170.7,193.7z"/>
				<path class="st11" d="M174.2,193.6l0.4,0c0.2,0,0.3,0,0.3-0.1c0-0.1,0-0.2-0.1-0.4c-0.1-0.2-0.2-0.3-0.3-0.4
					c-0.1-0.1-0.3-0.1-0.4-0.2c-0.1,0-0.2,0-0.3,0.1c-0.1,0.1-0.1,0.2,0,0.3l-0.7,0c-0.1-0.2-0.1-0.4-0.1-0.5c0-0.2,0.1-0.3,0.3-0.3
					c0.1-0.1,0.3-0.1,0.5-0.1c0.4,0,0.7,0.1,1.1,0.3c0.3,0.2,0.6,0.5,0.7,0.8c0.1,0.2,0.1,0.3,0.1,0.5c0,0.1-0.1,0.2-0.2,0.3
					c0.2,0.1,0.5,0.2,0.6,0.4c0.2,0.2,0.3,0.3,0.4,0.6c0.2,0.3,0.2,0.6,0,0.8c-0.1,0.2-0.4,0.3-0.8,0.2c-0.4,0-0.7-0.1-1-0.4
					c-0.3-0.2-0.6-0.5-0.7-0.8l0.7,0c0.1,0.1,0.2,0.3,0.3,0.4c0.1,0.1,0.3,0.2,0.4,0.2c0.2,0,0.3,0,0.3-0.1c0.1-0.1,0-0.2,0-0.4
					c-0.2-0.4-0.5-0.6-0.9-0.6l-0.4,0L174.2,193.6z"/>
				<path class="st11" d="M179.3,196.1l-0.7,0l-1.4-2.9l-0.7,0.2l-0.3-0.6l1.2-0.5l0.1,0L179.3,196.1z"/>
				<path class="st11" d="M180.9,195.1l-0.1,0.3l0.4,0.9l-0.7,0l-2-4l0.7,0l1.1,2.2l0-0.2l0.3-0.8l0.9,0.1l-0.4,1.1l1.9,1.7
					l-0.8-0.1L180.9,195.1z"/>
			</g>
		</g>
	</g>
	<g>
		<g>
			<g>
				<path class="st24" d="M235.4,212.2l0.1,0.1l0,1.1l-0.2,0l0-1.1l0,0l-0.6,0l-0.1-0.1L235.4,212.2z"/>
				<path class="st24" d="M236.3,212.4l-0.5,0l0.1,0.3c0,0,0,0,0.1,0c0.1,0,0.2,0,0.3,0.1c0.1,0.1,0.3,0.2,0.3,0.3
					c0.1,0.2,0,0.4-0.2,0.4c-0.1,0-0.3-0.1-0.3-0.1l0-0.1c0.1,0,0.2,0.1,0.3,0.1c0.2,0,0.2-0.1,0.2-0.3c-0.1-0.2-0.2-0.3-0.5-0.3
					c-0.1,0-0.1,0-0.2,0l-0.2-0.6l0.6,0L236.3,212.4z"/>
				<path class="st24" d="M237.2,212.6c0.1,0.3,0.1,0.4-0.1,0.4c-0.2,0-0.3-0.1-0.5-0.4c-0.1-0.3-0.1-0.4,0.1-0.4
					C236.9,212.3,237.1,212.4,237.2,212.6z M236.8,212.6c0.1,0.2,0.2,0.3,0.3,0.3c0.1,0,0.1-0.1,0-0.3c-0.1-0.2-0.2-0.3-0.3-0.3
					C236.7,212.3,236.7,212.5,236.8,212.6z M237.3,213.5l0.1-1.2l0.1,0l-0.1,1.2L237.3,213.5z M238.2,213.2c0.1,0.3,0.1,0.4-0.1,0.4
					c-0.2,0-0.3-0.1-0.5-0.4c-0.1-0.3-0.1-0.4,0.1-0.4C237.9,212.8,238.1,213,238.2,213.2z M237.8,213.2c0.1,0.2,0.2,0.3,0.3,0.3
					c0.1,0,0.1-0.1,0-0.3c-0.1-0.2-0.2-0.3-0.3-0.3C237.7,212.9,237.7,213,237.8,213.2z"/>
			</g>
		</g>
		<path class="st25" d="M231.2,213.8c0.7,0,1-0.5,0.6-1.2c-0.4-0.7-1.2-1.3-1.9-1.4l-51.3-3.4c-0.7,0-1,0.5-0.6,1.2
			c0.4,0.7,1.2,1.3,1.9,1.4L231.2,213.8z"/>
		<path class="st12" d="M217.4,212.9c0.7,0,1-0.5,0.6-1.2c-0.4-0.7-1.2-1.3-1.9-1.4l-37.5-2.5c-0.7,0-1,0.5-0.6,1.2
			c0.4,0.7,1.2,1.3,1.9,1.4L217.4,212.9z"/>
	</g>
</g>
</svg>
